<?xml version="1.0" encoding="utf-8"?>
<!-- Generator: Adobe Illustrator 16.0.0, SVG Export Plug-In . SVG Version: 6.00 Build 0)  -->
<!DOCTYPE svg PUBLIC "-//W3C//DTD SVG 1.1//EN" "http://www.w3.org/Graphics/SVG/1.1/DTD/svg11.dtd">
<svg version="1.1" id="Layer_1" xmlns="http://www.w3.org/2000/svg" xmlns:xlink="http://www.w3.org/1999/xlink" x="0px" y="0px"
	 width="21px" height="17px" viewBox="0 0 21 17" enable-background="new 0 0 21 17" xml:space="preserve">
<g>
	<path fill="#D95D6A" d="M5.098,10.184c0.2,0.129,0.32,0.26,0.33,0.51c0,0.279-0.24,0.549-0.52,0.549c-0.17,0-0.31-0.09-0.43-0.17
		L0.37,8.344C0.15,8.205,0,8.094,0,7.805c-0.01-0.279,0.15-0.4,0.37-0.539l4.118-2.74c0.12-0.08,0.26-0.148,0.41-0.148
		c0.29,0,0.52,0.26,0.53,0.539c0,0.26-0.16,0.4-0.35,0.529L1.52,7.805L5.098,10.184z"/>
	<path fill="#D95D6A" d="M8.429,11.572c-0.12,0.209-0.24,0.35-0.49,0.35c-0.25,0-0.5-0.209-0.5-0.469c0-0.191,0.12-0.361,0.22-0.52
		l3.738-6.408c0.12-0.199,0.24-0.379,0.49-0.379c0.26,0,0.49,0.209,0.49,0.469c0,0.16-0.05,0.281-0.11,0.391L8.429,11.572z"/>
	<path fill="#D95D6A" d="M18.308,7.805L14.75,5.445c-0.19-0.129-0.35-0.27-0.35-0.529c0.01-0.279,0.24-0.539,0.53-0.539
		c0.15,0,0.29,0.068,0.41,0.148l4.118,2.74c0.22,0.139,0.38,0.26,0.37,0.539c0,0.289-0.15,0.4-0.37,0.539l-4.108,2.729
		c-0.12,0.08-0.26,0.17-0.43,0.17c-0.28,0-0.52-0.27-0.52-0.549c0.01-0.25,0.13-0.381,0.33-0.51L18.308,7.805z"/>
</g>
</svg>
