<?xml version="1.0" encoding="utf-8"?>
<!-- Generator: Adobe Illustrator 16.0.0, SVG Export Plug-In . SVG Version: 6.00 Build 0)  -->
<!DOCTYPE svg PUBLIC "-//W3C//DTD SVG 1.1//EN" "http://www.w3.org/Graphics/SVG/1.1/DTD/svg11.dtd">
<svg version="1.1" id="Layer_1" xmlns="http://www.w3.org/2000/svg" xmlns:xlink="http://www.w3.org/1999/xlink" x="0px" y="0px"
	 width="21px" height="17px" viewBox="0 0 21 17" enable-background="new 0 0 21 17" xml:space="preserve">
<g id="Your_Icon_2_">
	<path fill="#00ADEE" d="M10.5,1C6.357,1,3,4.358,3,8.5c0,4.143,3.357,7.5,7.5,7.5c4.142,0,7.5-3.357,7.5-7.5
		C18,4.358,14.642,1,10.5,1z M10.5,14.956c-3.565,0-6.456-2.891-6.456-6.456c0-3.564,2.89-6.455,6.456-6.455
		c3.564,0,6.455,2.891,6.455,6.455C16.955,12.065,14.064,14.956,10.5,14.956z"/>
	<polygon fill="#00ADEE" points="8.764,11.01 8.06,10.3 10.083,8.292 10.083,3.801 11.084,3.801 11.084,8.709 	"/>
</g>
</svg>
