<?xml version="1.0" encoding="utf-8"?>
<!-- Generator: Adobe Illustrator 16.0.0, SVG Export Plug-In . SVG Version: 6.00 Build 0)  -->
<!DOCTYPE svg PUBLIC "-//W3C//DTD SVG 1.1//EN" "http://www.w3.org/Graphics/SVG/1.1/DTD/svg11.dtd">
<svg version="1.1" id="Layer_1" xmlns="http://www.w3.org/2000/svg" xmlns:xlink="http://www.w3.org/1999/xlink" x="0px" y="0px"
	 width="21px" height="22px" viewBox="0 0 21 22" enable-background="new 0 0 21 22" xml:space="preserve">
<path fill="#595F6C" d="M16.025,2.771c-0.293-0.294-0.773-0.294-1.066,0c-0.295,0.294-0.295,0.773,0,1.067
	c0.293,0.294,0.773,0.294,1.066,0C16.32,3.544,16.32,3.065,16.025,2.771z"/>
<g>
	<polygon fill="#595F6C" stroke="#F4F7F7" stroke-width="0.1589" stroke-miterlimit="10" points="18.799,10.775 18.799,9.259 
		8.319,19.734 1.758,13.177 1,13.935 8.319,21.251 	"/>
</g>
<path fill="#05A1D2" d="M18.799,7.316V2.195L16.602,0h-5.123L1,10.476l7.319,7.316L18.799,7.316z M2.517,10.476l9.407-9.403l4.234,0
	l1.568,1.567v4.232l-9.407,9.404L2.517,10.476z"/>
</svg>
