<?xml version="1.0" encoding="utf-8"?>
<!-- Generator: Adobe Illustrator 16.0.0, SVG Export Plug-In . SVG Version: 6.00 Build 0)  -->
<!DOCTYPE svg PUBLIC "-//W3C//DTD SVG 1.1//EN" "http://www.w3.org/Graphics/SVG/1.1/DTD/svg11.dtd">
<svg version="1.1" id="Layer_1" xmlns="http://www.w3.org/2000/svg" xmlns:xlink="http://www.w3.org/1999/xlink" x="0px" y="0px"
	 width="20px" height="17px" viewBox="3 101.5 20 17" enable-background="new 3 101.5 20 17" xml:space="preserve">
<g>
	<g>
		<path fill="#656565" d="M20.162,109.433l-0.014-0.171C20.154,109.318,20.158,109.376,20.162,109.433z M12.999,102.809l0.548,1.021
			l1.09-0.826l-0.011-0.006c0.221,0.052,0.439,0.112,0.654,0.184l-0.57,0.459l-0.467,2.029l0.387,0.407l-0.416,1.152l1.35,1.389
			l1.547-0.681l0.798,1.864l0.914,0.71l1.352-0.806c0.08,1.938-0.61,3.903-2.088,5.379c-1.358,1.359-3.165,2.106-5.086,2.106
			s-3.727-0.747-5.085-2.106c-1.585-1.584-2.273-3.73-2.067-5.804l2.091,1.152l2.699,0.103l0.344,1.095l0.824,0.403
			c0,0,1.071,3.217,1.138,3.21c0.066-0.006,0.736,0.206,0.736,0.206l-0.074-2.32l0.763-1.675l-0.353-1.322l-2.74-0.455l-0.737,0.371
			l-1.38-0.302l0.802-0.832l0.925-2.688l-1.474-0.99l-1.72-0.075c0.075-0.082,0.144-0.168,0.223-0.247
			C9.272,103.557,11.078,102.809,12.999,102.809z M19.45,115.524c2.86-3.335,2.718-8.377-0.439-11.534
			c-1.605-1.606-3.74-2.49-6.011-2.49c-2.051,0-3.986,0.727-5.525,2.049l-0.924,0.927c-2.86,3.335-2.719,8.377,0.439,11.534
			c1.605,1.606,3.74,2.49,6.01,2.49c2.052,0,3.987-0.728,5.525-2.051L19.45,115.524z"/>
	</g>
</g>
</svg>
