<?xml version="1.0" encoding="utf-8"?>
<!-- Generator: Adobe Illustrator 16.0.0, SVG Export Plug-In . SVG Version: 6.00 Build 0)  -->
<!DOCTYPE svg PUBLIC "-//W3C//DTD SVG 1.1//EN" "http://www.w3.org/Graphics/SVG/1.1/DTD/svg11.dtd">
<svg version="1.1" id="Layer_1" xmlns="http://www.w3.org/2000/svg" xmlns:xlink="http://www.w3.org/1999/xlink" x="0px" y="0px"
	 width="14.809px" height="14.877px" viewBox="0 0 14.809 14.877" enable-background="new 0 0 14.809 14.877" xml:space="preserve">
<g id="Your_Icon_8_">
	<path fill="#F1F9FD" d="M2.667,5.651c0,0.028,0,0.055,0,0.084c0.064,0.045,0.218,0.03,0.191-0.084
		C2.822,5.621,2.702,5.621,2.667,5.651z"/>
	<path fill="#F1F9FD" d="M12.689,9.884c0.003-0.062,0.031-0.09,0.018-0.163c0.111-0.08,0.102-0.176,0.145-0.341
		c0.065-0.244,0.36-0.658,0.109-0.845c-0.092,0.084-0.027,0.15-0.072,0.234c-0.074,0.139-0.279,0.155-0.361,0.27
		c-0.09,0.125-0.118,0.354-0.053,0.468c-0.133,0.146-0.212,0.373-0.092,0.591C12.548,10.09,12.599,9.965,12.689,9.884z"/>
	<path fill="#F1F9FD" d="M14.321,4.807c-0.377-0.982-0.955-1.863-1.688-2.591c-1.324-1.312-3.144-2.13-5.156-2.149
		c-0.024,0-0.048-0.001-0.07-0.001c-1.331,0-2.578,0.352-3.657,0.963c-1.57,0.891-2.781,2.334-3.363,4.067
		c-0.246,0.73-0.382,1.512-0.384,2.323c0,0.008,0,0.012,0,0.019c0,0.436,0.04,0.863,0.112,1.28c0.102,0.575,0.27,1.128,0.497,1.65
		c1.131,2.591,3.711,4.41,6.723,4.439c0.023,0,0.047,0.003,0.072,0.003c1.327,0,2.57-0.35,3.646-0.959
		c2.242-1.267,3.755-3.664,3.755-6.414C14.807,6.511,14.633,5.625,14.321,4.807z M9.668,13.307
		c-0.111-0.014-0.146-0.071-0.242-0.018c0.003-0.095-0.166-0.018-0.174-0.104c-0.275,0.036-0.533,0.064-0.742,0.173
		c-0.075,0.04-0.131,0.121-0.207,0.139c-0.052,0.01-0.124-0.024-0.175-0.018c-0.152,0.021-0.406,0.229-0.585,0.26
		c-0.083,0.012-0.167-0.012-0.263,0c-0.021,0.009-0.045,0.017-0.068,0.027c-0.552-0.019-1.085-0.104-1.591-0.252
		c0.014-0.021,0.029-0.042,0.02-0.088c-0.273-0.163-0.467-0.406-0.727-0.585c-0.005-0.132,0.106-0.146,0.209-0.173
		c-0.068-0.162-0.43-0.092-0.415,0.138c0.004,0.079,0.06,0.072,0.068,0.173c-0.077-0.035-0.089-0.141-0.189-0.153
		c0.047-0.032,0.039-0.118-0.035-0.122c-0.08-0.015-0.032,0.096-0.068,0.122c-0.086,0-0.084-0.019-0.155,0
		c0.008,0.106,0.148,0.143,0.224,0.086c0.036,0.061,0.036,0.093,0,0.155c0.065,0.095,0.225,0.085,0.328,0.067
		c0.034,0.004-0.004-0.048-0.017-0.052c0.036-0.046,0.076,0.049,0.085,0.087c-0.052,0.023-0.104,0.035-0.155,0.04
		c-0.183-0.082-0.357-0.171-0.53-0.268c-0.019-0.042-0.064-0.06-0.116-0.068l0,0c-0.036-0.02-0.07-0.043-0.104-0.062
		c0,0,0,0,0-0.003c-0.002,0-0.002,0-0.006-0.002c-0.465-0.289-0.887-0.635-1.26-1.03c-0.013-0.023-0.029-0.042-0.051-0.053
		C1.684,10.596,1.048,9.09,1.048,7.438c0-0.629,0.091-1.235,0.263-1.811c0.024,0.073,0.021,0.174,0.08,0.212
		c0.105-0.063-0.013-0.24-0.029-0.363c0-0.003,0.001-0.01,0.003-0.014c0.041,0.11,0.134,0.209,0.164,0.326
		c0.018,0.065-0.022,0.112-0.017,0.171c0.021,0.205,0.181,0.229,0.362,0.363c0.087,0.02,0.073-0.054,0.138-0.051
		C2.061,6.501,2.4,6.448,2.412,6.716C2.446,6.773,2.526,6.785,2.53,6.872c0.092-0.017,0.082,0.066,0.19,0.07
		C2.753,6.916,2.724,6.83,2.79,6.838c0.088,0.074,0.094,0.229,0.086,0.396c-0.063,0.157-0.277,0.384-0.12,0.551
		c-0.134,0.137,0.008,0.359,0.12,0.412c0.066,0.252,0.166,0.467,0.312,0.635c0.145,0.031,0.202,0.146,0.277,0.242
		c0.001,0.365,0.049,0.681,0.086,0.999c0.021,0.172-0.04,0.345-0.033,0.515c0.01,0.234,0.183,0.387,0.154,0.637
		c-0.028,0.003-0.066-0.007-0.068,0.018c-0.028,0.104,0.066,0.082,0.086,0.139c0.074,0.245,0.126,0.516,0.362,0.602
		c0.054,0.007,0.014-0.079,0.054-0.084c0.018-0.046,0.006,0.146-0.051,0.137c0.074,0.108,0.305,0.169,0.449,0.12
		c-0.153-0.111-0.295-0.234-0.381-0.413c0.049-0.075,0.093-0.159,0.138-0.24c-0.01-0.084-0.098-0.085-0.138-0.139
		c-0.015-0.071,0.076-0.037,0.104-0.067c-0.027-0.025-0.017-0.088-0.018-0.14c0.021-0.022,0.083-0.006,0.086-0.052
		c0.007-0.085-0.138-0.022-0.12-0.119C4.218,11,4.266,11.008,4.329,11.001c0.028-0.059,0-0.114,0-0.17
		c0.255,0.087,0.401-0.105,0.276-0.294c0.051,0.003,0.113-0.009,0.141,0.018c0.202-0.117,0.269-0.372,0.413-0.552
		c0.007-0.079-0.031-0.117-0.017-0.205C5.207,9.692,5.347,9.66,5.434,9.574c0.079-0.007,0.147,0.024,0.209,0
		c0.158-0.062,0.224-0.55,0.19-0.825C5.899,8.697,6.231,8.357,6.16,8.164C6.084,7.95,5.614,7.731,5.296,7.768
		c-0.079-0.185-0.289-0.16-0.448-0.242C4.79,7.218,4.662,6.978,4.26,7.011C4.181,6.839,3.937,6.772,3.914,6.598
		c-0.11-0.013-0.187,0.008-0.223,0.068C3.626,6.625,3.593,6.643,3.5,6.649c-0.03-0.062-0.097-0.085-0.12-0.153
		c-0.079,0-0.072,0.057-0.104-0.02C3.131,6.542,2.988,6.603,2.946,6.769c-0.062-0.032-0.202-0.076-0.31,0
		C2.452,6.619,2.751,6.1,2.309,6.235c0.032-0.143,0.093-0.26,0.119-0.411c-0.021-0.015-0.042-0.022-0.06-0.03
		c0.051-0.062,0.133-0.092,0.257-0.079c0-0.238-0.258-0.242-0.445-0.188C2.15,5.47,2.077,5.406,1.992,5.349
		c0.042-0.068,0.099-0.12,0.177-0.145c0.085-0.008,0.087,0.064,0.157,0.068c0.046-0.017,0.057-0.071,0.052-0.139
		c0.132-0.027,0.147,0.03,0.259,0C2.653,5.278,2.683,5.411,2.74,5.512c0.195-0.171-0.026-0.467,0.103-0.669
		c0.097-0.147,0.275-0.147,0.33-0.327c0.009-0.057-0.013-0.08-0.018-0.12c0.103-0.064,0.134-0.201,0.19-0.312
		c0.11-0.038,0.142-0.156,0.258-0.188c0.023-0.068-0.055-0.034-0.034-0.102c0.049-0.111,0.2-0.125,0.277-0.206
		C3.869,3.615,3.831,3.689,3.88,3.725c0.11-0.078,0.258-0.121,0.363-0.208c0.015-0.075-0.031-0.095-0.087-0.102
		c0.002-0.05,0.072-0.03,0.069-0.086C4.214,3.269,4.094,3.311,4.054,3.278c0.014-0.152,0.16-0.067,0.258-0.136
		c0.017-0.087-0.109-0.03-0.138-0.07c0.106-0.059,0.296-0.038,0.312-0.19C4.64,2.859,4.721,2.761,4.76,2.624
		C4.752,2.535,4.627,2.565,4.64,2.452C4.578,2.458,4.528,2.449,4.486,2.435c-0.04-0.167-0.084-0.329-0.14-0.482
		c-0.05,0.007-0.08,0.031-0.105,0.062C4.238,2.013,4.236,2.01,4.231,2.01C4.214,2.033,4.174,2.025,4.142,2.005
		c0.373-0.224,0.772-0.408,1.193-0.552c0.02,0.025,0.04,0.049,0.082,0.052C5.385,1.577,5.382,1.607,5.434,1.661
		c0.071,0.013,0.1-0.017,0.157-0.017c0.035,0.022,0.044,0.07,0.086,0.084c0.132-0.08,0.312-0.198,0.259-0.36
		c0.043-0.021,0.065-0.062,0.085-0.108C6.467,1.161,6.93,1.108,7.406,1.108c0.716,0,1.403,0.12,2.047,0.337
		C9.395,1.611,9.463,1.892,9.617,1.917c0.119,0.021,0.146-0.072,0.277-0.102C9.92,1.936,9.998,2.01,10.066,2.09
		c0.003,0.085-0.128,0.033-0.104,0.138c0.035,0.105,0.271,0.108,0.346,0.068c0.021-0.151,0.013-0.33,0.14-0.379
		c0.002-0.015,0.002-0.028,0-0.038c0.12,0.065,0.237,0.135,0.351,0.208c0.02,0.056,0.079,0.093,0.081,0.176
		c-0.082,0.005-0.054-0.099-0.14-0.086c-0.113,0.034-0.082,0.215-0.137,0.311c-0.21-0.077-0.396,0.088-0.569-0.07
		c0.053-0.116-0.078-0.108-0.123-0.173c0.045-0.122,0.052-0.18,0-0.309c-0.23,0.012-0.199,0.261-0.12,0.413
		C9.714,2.356,9.587,2.351,9.497,2.384c-0.06,0.067-0.068,0.185-0.208,0.172c-0.054-0.048,0.059-0.085,0-0.139
		C9.264,2.384,9.201,2.392,9.167,2.367c-0.003-0.118-0.07-0.172-0.156-0.208c0.014-0.063,0.023-0.121-0.068-0.12
		C8.93,1.966,8.999,1.969,8.995,1.901C8.982,1.858,8.939,1.841,8.874,1.85C8.859,1.801,8.899,1.806,8.891,1.765
		C8.862,1.735,8.79,1.75,8.734,1.747c-0.082,0.05-0.068,0.194-0.138,0.259C8.589,2.059,8.681,2.01,8.666,2.074
		c0.012,0.068-0.082,0.021-0.085,0c-0.113,0.044-0.142,0.14-0.277,0.12C8.318,2.26,8.327,2.333,8.32,2.417
		c0.044,0.044,0.122,0.052,0.155,0.104C8.578,2.5,8.652,2.458,8.7,2.382c0-0.052,0-0.103,0-0.154
		c0.042-0.015,0.076-0.041,0.14-0.034C8.823,2.261,8.891,2.245,8.874,2.313C8.832,2.312,8.79,2.311,8.771,2.331
		C8.757,2.396,8.799,2.404,8.788,2.469C8.744,2.466,8.704,2.466,8.685,2.488c0.004,0.044,0.04,0.061,0.103,0.051
		C8.78,2.61,8.706,2.618,8.685,2.675c0.12,0.041,0.324,0.015,0.431-0.018C9.082,2.744,9.171,2.704,9.167,2.761
		c-0.17-0.088-0.176,0.069-0.38,0.034C8.763,2.819,8.771,2.87,8.771,2.917c0.152,0.079,0.377,0.169,0.275,0.445
		C8.802,3.403,8.532,3.23,8.39,3.381C8.491,3.59,8.368,3.797,8.408,4C8.51,4.028,8.66,4.01,8.717,4.084
		c-0.052,0.048-0.104,0.094-0.104,0.19c-0.254,0.058-0.22,0.403-0.38,0.552C7.921,4.942,7.84,5.285,7.663,5.53
		c0.149,0.15,0.079,0.487-0.017,0.639c0.026,0.06,0.072,0.099,0.052,0.206c0.051,0.082,0.141,0.124,0.224,0.173
		c0.121,0.271,0.257,0.62,0.553,0.651c0.13,0.016,0.197-0.097,0.312-0.102c0.11-0.005,0.144,0.077,0.261,0.085
		c0.176-0.047,0.338-0.201,0.519-0.171c0.149,0.026,0.252,0.285,0.432,0.153c0.062,0.12,0.038,0.361-0.02,0.465
		c0.067,0.223,0.235,0.342,0.277,0.585c0.327,0.23-0.048,0.575-0.018,0.879c0.016,0.152,0.152,0.266,0.174,0.43
		c0.038,0.319,0.137,0.554,0.295,0.79c0.001,0.051-0.06,0.034-0.034,0.104c0.065,0.268,0.351-0.014,0.517,0.052
		c0.166-0.105,0.359-0.181,0.415-0.396c0.222-0.084,0.232-0.378,0.346-0.569c0.028,0,0.058,0,0.086,0
		c0.062-0.092,0.068-0.285,0-0.376c0.078-0.164,0.227-0.257,0.362-0.361c0.008-0.217,0.092-0.351,0.034-0.518
		c-0.026-0.079-0.128-0.12-0.138-0.19c-0.042-0.271,0.317-0.342,0.347-0.635c0.045-0.011,0.064-0.049,0.104-0.068
		c0.055-0.303,0.269-0.536,0.241-0.861c-0.13,0.062-0.29,0.078-0.414,0.104c-0.045-0.056,0.031-0.097,0.052-0.139
		c-0.141-0.215-0.43-0.448-0.38-0.739C12.127,5.569,12,5.341,11.983,5.153c0.106-0.022,0.141,0.166,0.174,0.273
		c0.015,0.071,0.092,0.082,0.12,0.14c0.016,0.317,0.26,0.404,0.274,0.723c0.069,0.053,0.06,0.183,0.157,0.205
		c0.069,0.011,0.05-0.064,0.052-0.12c0.185-0.125,0.41-0.209,0.568-0.361c0-0.127,0.08-0.141,0.07-0.241
		c-0.011-0.11-0.156-0.15-0.156-0.273c0.09,0.008,0.151,0.043,0.233,0.061c0.188,0.596,0.286,1.227,0.286,1.88
		c0,2.554-1.521,4.756-3.71,5.754C9.886,13.185,9.75,13.2,9.668,13.307z M3.95,3.156C3.902,3.14,3.964,3.095,3.964,3.071
		C4.031,3.079,4.05,3.039,4.121,3.052C4.111,3.135,3.995,3.112,3.95,3.156z M4.035,3.362c0.04,0.006,0.071,0.021,0.104,0.036
		C4.123,3.434,4.012,3.42,4.035,3.362z M3.152,3.071c-0.059-0.092-0.021-0.208,0-0.31c0.003-0.013-0.003-0.017-0.011-0.018
		c0.108-0.099,0.221-0.19,0.336-0.282C3.456,2.625,3.331,2.684,3.239,2.777C3.283,2.872,3.29,3.062,3.152,3.071z M3.015,3.725
		C2.941,3.659,2.923,3.761,2.912,3.81C2.895,3.759,2.871,3.713,2.859,3.655c0.053,0.024,0.062-0.008,0.139,0
		C2.997,3.687,3.019,3.691,3.015,3.725z M2.635,3.569C2.66,3.538,2.708,3.528,2.721,3.484c0.056,0.015,0.09,0.047,0.086,0.119
		c-0.06-0.013-0.065,0.026-0.12,0.018C2.705,3.567,2.705,3.565,2.635,3.569z M2.583,3.639c-0.03-0.014-0.002-0.032,0-0.054
		C2.614,3.599,2.585,3.617,2.583,3.639z M2.18,5.544C2.177,5.583,2.206,5.592,2.202,5.63c-0.06-0.004-0.114-0.003-0.105,0.062
		c0.038,0.101,0.141,0.053,0.215,0.093C2.177,5.803,2.198,6.11,1.978,6.066C1.961,6.014,1.946,5.958,1.936,5.9
		C1.955,5.896,1.98,5.893,2.013,5.883C1.993,5.776,1.951,5.75,1.915,5.759c-0.004-0.05-0.001-0.102,0.002-0.15
		C2.033,5.615,2.094,5.567,2.18,5.544z M3.257,6.63C3.255,6.588,3.285,6.579,3.292,6.544C3.355,6.558,3.313,6.638,3.257,6.63z
		 M13.192,5.358c-0.057,0.084-0.076,0.198-0.226,0.19c-0.037-0.048-0.05-0.124-0.051-0.207c-0.033-0.033-0.063-0.006-0.104,0
		c-0.028-0.11-0.1-0.177-0.105-0.311c0.188,0.052,0.146,0.323,0.33,0.379C13.111,5.415,13.125,5.36,13.192,5.358z M12.723,3.97
		c0,0.003,0,0.008,0.003,0.012C12.74,4,12.754,4.019,12.768,4.039c0.008,0.012,0.013,0.022,0.02,0.032
		c0.042,0.064,0.074,0.137,0.076,0.237c-0.262,0.013-0.363-0.189-0.275-0.43c-0.11-0.109-0.214-0.275-0.258-0.441
		C12.47,3.607,12.602,3.786,12.723,3.97z M10.877,4.755c-0.273-0.095-0.429-0.308-0.691-0.412c0.04-0.141-0.08-0.166-0.034-0.259
		c-0.052-0.02-0.102-0.037-0.14-0.068C9.96,4.021,9.935,4.054,9.892,4.069c-0.216-0.027-0.408-0.045-0.605,0
		c-0.185,0.04-0.373,0.188-0.553,0.035C8.958,4.09,9.116,4.033,9.235,3.913c-0.038-0.291,0.22-0.287,0.26-0.5
		C9.66,3.473,9.785,3.43,9.909,3.362c0.14,0.217,0.455,0.259,0.519,0.551c-0.09,0.016-0.169,0.044-0.258-0.017
		c-0.032,0.101,0.08,0.192,0.137,0.259c0.054,0.013,0.063-0.02,0.104-0.017c0.008-0.062-0.006-0.098-0.017-0.14
		c0.052,0,0.088,0.052,0.121,0.019c0.009-0.053,0.048-0.079,0.104-0.087c0.012-0.062-0.038-0.066-0.035-0.119
		c0.058,0,0.085,0.081,0.139,0.034c0.005-0.154-0.165-0.136-0.189-0.26c0.103-0.03,0.136,0.014,0.206,0.054
		c0.043,0.283,0.147,0.506,0.381,0.601c0.028,0.014,0.028-0.08,0-0.067c0.017-0.054,0.047,0.018,0.068,0.017
		c0.042,0.006-0.01-0.078,0.053-0.051C11.196,4,11.17,3.951,11.17,3.777c0.135,0,0.124,0.209,0.121,0.292
		c0.08,0.11,0.199,0.267,0.398,0.205c0.061-0.004,0.055,0.059,0.103,0.069c0.074,0,0.111-0.04,0.19-0.035
		c-0.019,0.164-0.004,0.293-0.034,0.465c-0.338-0.026-0.668-0.054-0.846-0.274c-0.052,0.052-0.198,0.01-0.242,0.067
		C10.847,4.649,10.887,4.678,10.877,4.755z M9.235,2.623c0.054-0.024,0.025,0.1-0.017,0.086C9.209,2.667,9.249,2.67,9.235,2.623z
		 M11.463,3.725c-0.032-0.042-0.059-0.09-0.104-0.122c0.056-0.087,0.093-0.193,0.155-0.275c0.082-0.006,0.078,0.07,0.174,0.051
		c-0.021,0.051-0.006,0.059,0.015,0.104c0.076-0.038,0.155,0.002,0.228,0.018c0.014-0.066-0.038-0.066-0.07-0.088
		c0.026-0.034,0.122-0.003,0.156-0.034c-0.006,0.041,0.004,0.066,0.034,0.071c0.003,0.035-0.061,0.007-0.086,0.015
		c0.012,0.036,0.032,0.061,0.056,0.085c-0.024,0.003-0.05,0.006-0.072,0.018c-0.01,0.123,0.062,0.163,0.127,0.209
		c0.043-0.034,0.117-0.035,0.158-0.072c0.045,0.034,0.079,0.076,0.093,0.141C12.017,3.852,11.839,3.621,11.463,3.725z"/>
</g>
</svg>
