<?xml version="1.0" encoding="utf-8"?>
<!-- Generator: Adobe Illustrator 16.0.0, SVG Export Plug-In . SVG Version: 6.00 Build 0)  -->
<!DOCTYPE svg PUBLIC "-//W3C//DTD SVG 1.1//EN" "http://www.w3.org/Graphics/SVG/1.1/DTD/svg11.dtd">
<svg version="1.1" id="Layer_1" xmlns="http://www.w3.org/2000/svg" xmlns:xlink="http://www.w3.org/1999/xlink" x="0px" y="0px"
	 width="14.809px" height="14.877px" viewBox="0 0 14.809 14.877" enable-background="new 0 0 14.809 14.877" xml:space="preserve">
<g>
	<g opacity="0.8">
		<g>
			<path fill="#F1F9FD" d="M6.203,0C2.8,0,0,2.789,0,6.176c0,3.388,2.8,6.178,6.203,6.178c1.469,0,2.802-0.531,3.869-1.33
				l-0.935-0.929c-0.799,0.599-1.8,0.929-2.867,0.929c-2.669,0-4.87-2.19-4.87-4.848c0-2.656,2.201-4.849,4.87-4.849
				c2.668,0,4.87,2.192,4.87,4.849c0,1.13-0.401,2.192-1.068,2.989l0.935,0.93l-0.867,0.863c1.399-1.13,2.268-2.856,2.268-4.782
				C12.407,2.789,9.605,0,6.203,0z"/>
		</g>
	</g>
	<g opacity="0.8">
		<g>
			<polygon fill="#F1F9FD" points="11.007,10.095 10.006,11.091 9.871,10.958 13.873,14.877 14.809,13.946 			"/>
			<polygon fill="#F1F9FD" points="10.872,10.028 10.474,9.629 10.474,9.629 			"/>
		</g>
	</g>
</g>
</svg>
