<?xml version="1.0" encoding="utf-8"?>
<!-- Generator: Adobe Illustrator 16.0.0, SVG Export Plug-In . SVG Version: 6.00 Build 0)  -->
<!DOCTYPE svg PUBLIC "-//W3C//DTD SVG 1.1//EN" "http://www.w3.org/Graphics/SVG/1.1/DTD/svg11.dtd">
<svg version="1.1" id="Layer_1" xmlns="http://www.w3.org/2000/svg" xmlns:xlink="http://www.w3.org/1999/xlink" x="0px" y="0px"
	 width="15.549px" height="17.453px" viewBox="0 0 15.549 17.453" enable-background="new 0 0 15.549 17.453" xml:space="preserve">
<g>
	<polygon fill="#FFFFFF" points="12.145,5.219 11.569,5.769 14.03,8.219 5.94,8.219 5.94,8.999 14.03,8.999 11.569,11.449 
		12.145,11.999 15.549,8.608 	"/>
	<g>
		<path fill="#FFFFFF" d="M8.764,16.427c-4.266,0-7.731-3.454-7.731-7.7c0-4.245,3.466-7.699,7.731-7.699
			c0.345,0,0.681,0.032,1.015,0.076l0.89-0.887C10.054,0.08,9.418,0,8.764,0C3.923,0,0,3.907,0,8.727s3.923,8.727,8.764,8.727
			c0.723,0,1.422-0.098,2.094-0.263l-0.868-0.863C9.591,16.392,9.181,16.427,8.764,16.427z"/>
	</g>
</g>
</svg>
