<?xml version="1.0" encoding="utf-8"?>
<!-- Generator: Adobe Illustrator 16.0.0, SVG Export Plug-In . SVG Version: 6.00 Build 0)  -->
<!DOCTYPE svg PUBLIC "-//W3C//DTD SVG 1.1//EN" "http://www.w3.org/Graphics/SVG/1.1/DTD/svg11.dtd">
<svg version="1.1" id="Layer_1" xmlns="http://www.w3.org/2000/svg" xmlns:xlink="http://www.w3.org/1999/xlink" x="0px" y="0px"
	 width="14.809px" height="14.877px" viewBox="0 0 14.809 14.877" enable-background="new 0 0 14.809 14.877" xml:space="preserve">
<path fill="#F1F9FD" d="M14.809,2.249c-0.545,0.25-1.131,0.419-1.745,0.496c0.628-0.389,1.109-1.005,1.336-1.739
	c-0.586,0.36-1.236,0.622-1.93,0.764c-0.554-0.611-1.344-0.993-2.217-0.993c-1.678,0-3.038,1.407-3.038,3.143
	c0,0.246,0.026,0.486,0.078,0.716C4.768,4.504,2.528,3.252,1.03,1.351C0.77,1.814,0.62,2.355,0.62,2.931
	c0,1.091,0.535,2.053,1.351,2.616C1.473,5.53,1.005,5.389,0.595,5.154c0,0.013,0,0.025,0,0.04c0,1.521,1.049,2.792,2.437,3.08
	c-0.255,0.07-0.522,0.11-0.8,0.11c-0.195,0-0.386-0.02-0.571-0.057c0.386,1.249,1.508,2.156,2.838,2.183
	c-1.04,0.843-2.35,1.345-3.773,1.345c-0.245,0-0.488-0.014-0.725-0.044c1.344,0.892,2.94,1.412,4.656,1.412
	c5.59,0,8.646-4.789,8.646-8.939c0-0.138-0.004-0.274-0.01-0.408C13.887,3.434,14.402,2.88,14.809,2.249z"/>
</svg>
