<?xml version="1.0" encoding="utf-8"?>
<!-- Generator: Adobe Illustrator 16.0.0, SVG Export Plug-In . SVG Version: 6.00 Build 0)  -->
<!DOCTYPE svg PUBLIC "-//W3C//DTD SVG 1.1//EN" "http://www.w3.org/Graphics/SVG/1.1/DTD/svg11.dtd">
<svg version="1.1" id="Layer_1" xmlns="http://www.w3.org/2000/svg" xmlns:xlink="http://www.w3.org/1999/xlink" x="0px" y="0px"
	 width="42.25px" height="42.083px" viewBox="0 0 42.25 42.083" enable-background="new 0 0 42.25 42.083" xml:space="preserve">
<g>
	<path fill="#F3D952" d="M21.135,41.528c-11.382,0-20.642-9.176-20.642-20.454S9.753,0.621,21.135,0.621s20.642,9.175,20.642,20.454
		S32.517,41.528,21.135,41.528z"/>
	<path fill="#FFFFFF" d="M21.135,1.023c11.178,0,20.238,8.977,20.238,20.051c0,11.074-9.061,20.051-20.238,20.051
		S0.896,32.148,0.896,21.074C0.896,10,9.957,1.023,21.135,1.023 M21.135,0.218c-11.604,0-21.044,9.356-21.044,20.856
		c0,11.5,9.44,20.856,21.044,20.856s21.044-9.356,21.044-20.856C42.179,9.574,32.738,0.218,21.135,0.218L21.135,0.218z"/>
</g>
<g opacity="0.8">
	<path fill="none" stroke="#3C4352" stroke-width="0.9441" stroke-miterlimit="10" d="M19.231,23.966c0,0,1.634,0.872,2.177,0.872
		c0.545,0,2.178-0.872,2.178-0.872"/>
	<g>
		<circle fill="#3C4352" cx="16.709" cy="17.679" r="0.671"/>
		<circle fill="#3C4352" cx="26.108" cy="17.679" r="0.671"/>
	</g>
	<g>
		<path fill="none" stroke="#3C4352" stroke-width="0.9441" stroke-miterlimit="10" d="M9.861,15.917c0,0,4.092,0.559,8.033-5.65
			c0,0,4.595,7.163,15.014,4.644"/>
		<g>
			<defs>
				<ellipse id="SVGID_1_" cx="21.385" cy="17.182" rx="9.965" ry="11.179"/>
			</defs>
			<clipPath id="SVGID_2_">
				<use xlink:href="#SVGID_1_"  overflow="visible"/>
			</clipPath>
			<path clip-path="url(#SVGID_2_)" fill="#3C4352" d="M11.092,15.75c2.888,0.837,6.578-5.483,6.578-5.483s4.442,6.434,14.4,4.979
				c0,0-1.846-8.391-7.664-9.846c-5.818-1.454-10.629,0.225-12.42,4.14C10.195,13.456,11.092,15.75,11.092,15.75z"/>
			<use xlink:href="#SVGID_1_"  overflow="visible" fill="none" stroke="#3C4352" stroke-width="0.9441" stroke-miterlimit="10"/>
		</g>
	</g>
	<g>
		<path fill="#3C4352" d="M21.37,30.717c0.512,0.826,1.392,1.393,2.411,1.47c0.129-0.355,0.26-0.679,0.387-0.952
			c-0.053,0.004-0.102,0.02-0.155,0.02c-1.171,0-2.122-0.936-2.161-2.098c1.108,0.059,2.159,0.327,3.12,0.765
			c0.187-0.267,0.382-0.525,0.579-0.779c-1.262-0.609-2.675-0.95-4.165-0.95c-1.489,0-2.903,0.341-4.165,0.95
			c0.199,0.254,0.392,0.511,0.579,0.778c0.95-0.434,1.992-0.701,3.089-0.763c-0.039,1.162-0.99,2.097-2.162,2.097
			c-0.041,0-0.08-0.012-0.121-0.016c0.126,0.271,0.256,0.594,0.384,0.945C19.996,32.098,20.864,31.534,21.37,30.717z"/>
	</g>
	<path fill="#D95D6A" d="M41.316,22.587c-0.221,0.117-6.901,3.848-9.068,9.07c-0.697,1.683-1.116,2.878-1.791,5.115
		c-0.097,0.321-0.271,0.536-0.532,0.657c-0.155,0.071-0.333,0.105-0.521,0.118c0.109-1.945,0.981-3.885,0.992-3.905l-0.863-0.395
		c-0.042,0.094-0.947,2.098-1.074,4.207c-0.311-0.072-0.58-0.166-0.73-0.231l-0.048-0.021c0.132-2,0.987-4.191,0.998-4.217
		l-0.882-0.348c-0.045,0.11-0.981,2.508-1.072,4.719c-0.351,0.057-0.762,0.09-1.146,0.048l0.587-0.028
		c-0.104-2.166,0.883-4.818,0.895-4.846l-0.888-0.334c-0.043,0.114-1.042,2.795-0.955,5.139c-0.124-0.035-0.241-0.078-0.345-0.141
		c-0.26-0.154-0.417-0.391-0.481-0.723c-0.066-0.475,0.758-3.809,1.403-4.865c1.059-1.734,2.869-3.721,4.84-5.316
		c0.811-0.655,2.212-1.486,2.227-1.494l0.098-0.076c0.915-0.941,5.035-5.5,5.91-6.888s1.194-1.828,1.605-2.685l-0.395-1.141
		c0,0-1.104,2.107-2.107,3.519s-3.586,4.364-5.649,6.487c-0.277,0.166-1.505,0.911-2.284,1.542
		c-0.986,0.796-3.449,2.933-5.053,5.558c-0.683,1.118-1.681,4.741-1.526,5.538c0.117,0.6,0.438,1.069,0.93,1.361
		c1.042,0.62,2.605,0.283,3.123,0.147c0.314,0.12,1.003,0.347,1.728,0.347c0.365,0,0.74-0.058,1.081-0.215
		c0.507-0.234,0.869-0.665,1.042-1.244c0.675-2.229,1.069-3.356,1.761-5.027c2.032-4.898,7.989-8.026,8.04-8.053L41.316,22.587z"/>
	<path fill="#D95D6A" d="M1.455,22.587c0.221,0.117,6.901,3.848,9.068,9.07c0.697,1.683,1.116,2.878,1.791,5.115
		c0.097,0.321,0.271,0.536,0.532,0.657c0.155,0.071,0.333,0.105,0.521,0.118c-0.109-1.945-0.981-3.885-0.992-3.905l0.863-0.395
		c0.042,0.094,0.947,2.098,1.074,4.207c0.311-0.072,0.58-0.166,0.73-0.231l0.048-0.021c-0.132-2-0.987-4.191-0.998-4.217
		l0.882-0.348c0.045,0.11,0.981,2.508,1.072,4.719c0.351,0.057,0.762,0.09,1.146,0.048l-0.587-0.028
		c0.104-2.166-0.883-4.818-0.895-4.846l0.888-0.334c0.043,0.114,1.042,2.795,0.955,5.139c0.124-0.035,0.241-0.078,0.345-0.141
		c0.26-0.154,0.417-0.391,0.481-0.723c0.066-0.475-0.758-3.809-1.403-4.865c-1.059-1.734-2.869-3.721-4.84-5.316
		c-0.811-0.655-2.212-1.486-2.227-1.494l-0.098-0.076c-0.915-0.941-5.035-5.5-5.91-6.888s-1.194-1.828-1.605-2.685l0.395-1.141
		c0,0,1.104,2.107,2.107,3.519s3.586,4.364,5.649,6.487c0.277,0.166,1.505,0.911,2.284,1.542c0.986,0.796,3.449,2.933,5.053,5.558
		c0.683,1.118,1.681,4.741,1.526,5.538c-0.117,0.6-0.438,1.069-0.93,1.361c-1.042,0.62-2.605,0.283-3.123,0.147
		c-0.314,0.12-1.003,0.347-1.728,0.347c-0.365,0-0.74-0.058-1.081-0.215c-0.507-0.234-0.869-0.665-1.042-1.244
		c-0.675-2.229-1.069-3.356-1.761-5.027c-2.032-4.898-7.989-8.026-8.04-8.053L1.455,22.587z"/>
</g>
</svg>
