<?xml version="1.0" encoding="utf-8"?>
<!-- Generator: Adobe Illustrator 16.0.0, SVG Export Plug-In . SVG Version: 6.00 Build 0)  -->
<!DOCTYPE svg PUBLIC "-//W3C//DTD SVG 1.1//EN" "http://www.w3.org/Graphics/SVG/1.1/DTD/svg11.dtd">
<svg version="1.1" id="Layer_1" xmlns="http://www.w3.org/2000/svg" xmlns:xlink="http://www.w3.org/1999/xlink" x="0px" y="0px"
	 width="42.25px" height="42.083px" viewBox="0 0 42.25 42.083" enable-background="new 0 0 42.25 42.083" xml:space="preserve">
<g>
	<path fill="#F3D952" d="M21.135,41.528c-11.381,0-20.641-9.176-20.641-20.454S9.753,0.621,21.135,0.621
		c11.381,0,20.641,9.175,20.641,20.454S32.516,41.528,21.135,41.528z"/>
	<path fill="#FFFFFF" d="M21.135,1.023c11.178,0,20.238,8.977,20.238,20.051c0,11.074-9.061,20.051-20.238,20.051
		S0.896,32.148,0.896,21.074C0.896,10,9.957,1.023,21.135,1.023 M21.135,0.218c-11.604,0-21.044,9.356-21.044,20.856
		c0,11.5,9.44,20.856,21.044,20.856s21.044-9.356,21.044-20.856C42.179,9.574,32.738,0.218,21.135,0.218L21.135,0.218z"/>
</g>
<g opacity="0.8">
	<path fill="none" stroke="#3C4352" stroke-width="0.979" stroke-miterlimit="10" d="M19.301,20.724c0,0,0.719-0.428,1.835-0.428
		c0.987,0,1.833,0.428,1.833,0.428"/>
	<path fill="none" stroke="#3C4352" stroke-width="1.0015" stroke-miterlimit="10" d="M18.767,26.77c0,0,1.777,0.943,2.367,0.943
		c0.593,0,2.368-0.943,2.368-0.943"/>
	<g>
		<ellipse fill="#3C4352" cx="16.644" cy="20.724" rx="2.896" ry="2.882"/>
		<ellipse fill="#3C4352" cx="25.627" cy="20.724" rx="2.896" ry="2.882"/>
	</g>
	<path fill="none" stroke="#D95D6A" stroke-width="0.9984" stroke-miterlimit="10" d="M30.459,38.719
		c-1.219-4.104-4.933-6.866-9.323-6.866c-4.394,0-8.106,2.763-9.324,6.866"/>
	<g>
		<path fill="none" stroke="#3C4352" stroke-width="1.0015" stroke-miterlimit="10" d="M8.608,18.063c0,0,4.449,0.605,8.732-6.112
			c0,0,4.994,7.749,16.32,5.023"/>
		<g>
			<defs>
				<ellipse id="SVGID_1_" cx="21.134" cy="19.431" rx="10.833" ry="12.093"/>
			</defs>
			<clipPath id="SVGID_2_">
				<use xlink:href="#SVGID_1_"  overflow="visible"/>
			</clipPath>
			<path clip-path="url(#SVGID_2_)" fill="#3C4352" d="M9.946,17.882c3.14,0.905,7.149-5.931,7.149-5.931s4.831,6.96,15.654,5.386
				c0,0-2.007-9.077-8.33-10.65c-6.326-1.574-11.555,0.242-13.502,4.478C8.973,15.4,9.946,17.882,9.946,17.882z"/>
			<use xlink:href="#SVGID_1_"  overflow="visible" fill="none" stroke="#3C4352" stroke-width="1.0015" stroke-miterlimit="10"/>
		</g>
	</g>
	<g>
		<path fill="none" stroke="#D95D6A" stroke-width="1.0015" stroke-miterlimit="10" d="M21.1,31.854
			c0.023,0.148,0.036,0.299,0.036,0.453c0,1.579-1.287,2.859-2.874,2.859c-1.162,0-2.16-0.686-2.614-1.672"/>
		<path fill="none" stroke="#D95D6A" stroke-width="1.0015" stroke-miterlimit="10" d="M26.656,33.419
			c-0.437,1.026-1.457,1.747-2.648,1.747c-1.586,0-2.872-1.28-2.872-2.859c0-0.154,0.012-0.305,0.035-0.453"/>
	</g>
</g>
</svg>
