<?xml version="1.0" encoding="utf-8"?>
<!-- Generator: Adobe Illustrator 16.0.0, SVG Export Plug-In . SVG Version: 6.00 Build 0)  -->
<!DOCTYPE svg PUBLIC "-//W3C//DTD SVG 1.1//EN" "http://www.w3.org/Graphics/SVG/1.1/DTD/svg11.dtd">
<svg version="1.1" id="Layer_1" xmlns="http://www.w3.org/2000/svg" xmlns:xlink="http://www.w3.org/1999/xlink" x="0px" y="0px"
	 width="42.25px" height="42.083px" viewBox="0 0 42.25 42.083" enable-background="new 0 0 42.25 42.083" xml:space="preserve">
<g>
	<g>
		<path fill="#F3D952" d="M21.125,41.115c-11.382,0-20.642-9.176-20.642-20.454S9.743,0.208,21.125,0.208
			s20.642,9.175,20.642,20.454S32.507,41.115,21.125,41.115z"/>
		<path fill="#FFFFFF" d="M21.125,0.61c11.178,0,20.238,8.977,20.238,20.051c0,11.074-9.061,20.051-20.238,20.051
			S0.887,31.735,0.887,20.661C0.887,9.587,9.947,0.61,21.125,0.61 M21.125-0.195c-11.604,0-21.044,9.356-21.044,20.856
			c0,11.5,9.44,20.856,21.044,20.856s21.044-9.356,21.044-20.856C42.169,9.161,32.729-0.195,21.125-0.195L21.125-0.195z"/>
	</g>
	<g opacity="0.8">
		<path fill="none" stroke="#3C4352" stroke-width="0.9491" stroke-miterlimit="10" d="M31.417,37.882
			c0-0.627-0.048-1.242-0.14-1.842c-0.712-4.623-4.06-8.367-8.451-9.649v-0.965c0-4.229-2.466-7.657-6.675-7.657
			c-4.21,0-5.045,3.428-5.045,7.657V36.04v1.842"/>
		<g>
			<g>
				<path fill="#3C4352" d="M15.953,19.671c0.727,0,1.332,0.573,1.38,1.304l0.467,7.166l0.04,0.619l0.584,0.212l6.219,2.256
					c0.722,0.261,1.096,1.062,0.834,1.787c-0.188,0.523-0.664,0.884-1.214,0.92c-0.029,0.002-0.058,0.003-0.087,0.003
					c-0.158,0-0.315-0.027-0.469-0.084l-7.657-2.775c-0.52-0.188-0.878-0.667-0.914-1.221l-0.567-8.697
					c-0.05-0.77,0.529-1.436,1.292-1.486C15.892,19.672,15.923,19.671,15.953,19.671 M15.953,18.722
					c-0.052,0-0.104,0.002-0.155,0.005c-1.286,0.084-2.261,1.201-2.177,2.495l0.567,8.697c0.061,0.93,0.663,1.734,1.537,2.052
					l7.658,2.775c0.261,0.095,0.529,0.141,0.792,0.141c0.05,0,0.1-0.002,0.149-0.005c0.898-0.059,1.72-0.64,2.045-1.547
					c0.438-1.217-0.189-2.561-1.404-3l-6.219-2.256l-0.467-7.166C18.199,19.674,17.173,18.722,15.953,18.722L15.953,18.722z"/>
			</g>
		</g>
		
			<ellipse fill="none" stroke="#3C4352" stroke-width="0.9491" stroke-miterlimit="10" cx="15.981" cy="11.605" rx="4.994" ry="5.016"/>
		<path fill="#3C4352" d="M10.646,11.605c0,0-2.416-1.64-3.764,1.518c-0.886,2.075-0.313,5.49-0.313,5.49h2.505
			c0,0-0.558-3.008-0.137-4.963c0.279-1.303,1.709-1.278,1.709-1.278V11.605z"/>
		<path fill="#3C4352" d="M18.917,7.554c0,0-1.629,4.997-7.908,5.286C11.009,12.84,11.009,3.878,18.917,7.554z"/>
		<g>
			<path fill="#D95D6A" d="M25.699,17.616l0.967-2.481l0.938,3.139l0.893-2.45l0.616,1.792h2.262
				c0.17-0.488,0.279-1.017,0.279-1.599c0-1.624-1.104-2.453-2.072-2.453c-1.469,0-2.07,1.001-2.07,1.001s-0.602-1.001-2.07-1.001
				c-0.969,0-2.071,0.829-2.071,2.453c0,0.582,0.109,1.111,0.279,1.599H25.699z"/>
			<path fill="#D95D6A" d="M28.786,18.076l-0.302-0.878l-0.924,2.532l-0.952-3.186l-0.597,1.532h-2.18
				c1.077,2.333,3.68,3.474,3.68,3.474s2.604-1.141,3.681-3.474H28.786z"/>
		</g>
	</g>
</g>
</svg>
