<?xml version="1.0" encoding="utf-8"?>
<!-- Generator: Adobe Illustrator 16.0.0, SVG Export Plug-In . SVG Version: 6.00 Build 0)  -->
<!DOCTYPE svg PUBLIC "-//W3C//DTD SVG 1.1//EN" "http://www.w3.org/Graphics/SVG/1.1/DTD/svg11.dtd">
<svg version="1.1" id="Layer_1" xmlns="http://www.w3.org/2000/svg" xmlns:xlink="http://www.w3.org/1999/xlink" x="0px" y="0px"
	 width="42.25px" height="42.083px" viewBox="0 0 42.25 42.083" enable-background="new 0 0 42.25 42.083" xml:space="preserve">
<g>
	<path fill="#F3D952" d="M21.125,41.292c-11.381,0-20.641-9.176-20.641-20.455c0-11.278,9.26-20.454,20.641-20.454
		c11.382,0,20.642,9.175,20.642,20.454C41.767,32.116,32.507,41.292,21.125,41.292z"/>
	<path fill="#FFFFFF" d="M21.125,0.786c11.178,0,20.238,8.977,20.238,20.051c0,11.075-9.061,20.051-20.238,20.051
		S0.887,31.912,0.887,20.837C0.887,9.763,9.947,0.786,21.125,0.786 M21.125-0.02C9.521-0.02,0.081,9.336,0.081,20.837
		s9.44,20.857,21.044,20.857s21.044-9.356,21.044-20.857S32.729-0.02,21.125-0.02L21.125-0.02z"/>
</g>
<g opacity="0.8">
	<path fill="#3C4352" d="M22.889,16.014c0-1.394-0.917-2.142-2.277-2.142c-1.258,0-2.176,0.646-3.094,1.564l-2.754-2.516
		c1.53-1.836,3.672-3.094,6.188-3.094c3.842,0,6.731,1.802,6.731,5.813c0,4.215-5.1,5.473-4.691,9.519h-4.386
		C17.926,20.502,22.889,18.564,22.889,16.014z M20.781,27.131c1.734,0,3.025,1.36,3.025,3.161c0,1.769-1.291,3.128-3.025,3.128
		c-1.733,0-2.991-1.359-2.991-3.128C17.79,28.492,19.048,27.131,20.781,27.131z"/>
</g>
</svg>
