<?xml version="1.0" encoding="utf-8"?>
<!-- Generator: Adobe Illustrator 16.0.0, SVG Export Plug-In . SVG Version: 6.00 Build 0)  -->
<!DOCTYPE svg PUBLIC "-//W3C//DTD SVG 1.1//EN" "http://www.w3.org/Graphics/SVG/1.1/DTD/svg11.dtd">
<svg version="1.1" id="Layer_1" xmlns="http://www.w3.org/2000/svg" xmlns:xlink="http://www.w3.org/1999/xlink" x="0px" y="0px"
	 width="42.25px" height="42.083px" viewBox="0 0 42.25 42.083" enable-background="new 0 0 42.25 42.083" xml:space="preserve">
<g>
	<path fill="#F3D952" d="M21.125,41.528c-11.382,0-20.642-9.176-20.642-20.454S9.743,0.621,21.125,0.621s20.642,9.175,20.642,20.454
		S32.507,41.528,21.125,41.528z"/>
	<path fill="#FFFFFF" d="M21.125,1.023c11.178,0,20.238,8.977,20.238,20.051c0,11.074-9.061,20.051-20.238,20.051
		S0.887,32.148,0.887,21.074C0.887,10,9.947,1.023,21.125,1.023 M21.125,0.218c-11.604,0-21.044,9.356-21.044,20.856
		c0,11.5,9.44,20.856,21.044,20.856s21.044-9.356,21.044-20.856C42.169,9.574,32.729,0.218,21.125,0.218L21.125,0.218z"/>
</g>
<g opacity="0.8">
	<path fill="none" stroke="#3C4352" stroke-miterlimit="10" d="M24.215,28.32c0.492,0,0.892,0.369,0.892,0.824
		s-0.399,0.824-0.892,0.824H19.08c-0.071,0.007-0.127,0.066-0.127,0.14s0.056,0.133,0.13,0.14h4.51c0.492,0,0.892,0.369,0.892,0.824
		c0,0.456-0.399,0.823-0.892,0.823h-4.817c-0.078,0-0.141,0.063-0.141,0.142c0,0.076,0.062,0.139,0.144,0.139h3.82
		c0.493,0,0.892,0.37,0.892,0.825c0,0.456-0.398,0.824-0.892,0.824H11.547c-0.202,0-0.389-0.062-0.539-0.167l-0.037-0.029
		c-0.969-0.73-1.616-2.033-1.616-3.518c0-1.455,0.624-2.745,1.563-3.481c0.046-0.042,2.741-1.921,2.741-1.921
		c0.191-0.154,0.354-0.244,0.634-0.248h3.654c0.492,0,0.891,0.368,0.891,0.824c0,0.455-0.398,1.012-0.891,1.012h-1.816
		c-0.056-0.001-0.135-0.031-0.148,0.042c-0.243,1.369-0.773,2.457-1.461,2.911c-0.142,0.094-0.141,0.094,0,0
		c0.745-0.493,1.182-1.49,1.447-2.839l7.663-0.022c0.493,0,0.892,0.369,0.892,0.824c0,0.456-0.399,0.825-0.892,0.825h-4.221
		c-0.077,0-0.141,0.063-0.141,0.141s0.063,0.14,0.144,0.14h4.801V28.32z"/>
	<path opacity="0.8" fill="#00ADEE" d="M39.361,12.396h-7.973c-0.021-0.821-0.131-1.44-0.131-1.44h-1.503V8.858h1.957
		c0.371,0,0.672-0.385,0.672-0.86s-0.301-0.861-0.672-0.861h-5.7c-0.372,0-0.673,0.385-0.673,0.861c0,0.476,0.301,0.86,0.673,0.86
		h2.051v2.099h-1.69c0,0-0.105,0.619-0.111,1.44h-1.872c0,0-2.213,0.027-3.047,0.543c-0.909,0.562-1.519,1.098-1.488,4.658h2.908
		v-1.736c0,0-0.084-0.564,1.027-0.584c0.369-0.007,1.578-0.009,3.069-0.01c0.405,0.699,1.069,1.2,2.146,1.2
		c0.968,0,1.558-0.5,1.909-1.197c2.136,0.002,9.592,0.007,9.592,0.007L39.361,12.396L39.361,12.396z"/>
	<path opacity="0.8" fill="#00ADEE" d="M22.812,19.875c0.182,0.41-0.127,0.801-0.514,0.786c-0.387-0.016-0.663-0.431-0.449-0.823
		c0.219-0.407,0.387-0.553,0.521-0.975C22.471,19.295,22.627,19.453,22.812,19.875z"/>
	<path opacity="0.8" fill="#00ADEE" d="M20.787,24.574c0.182,0.41-0.127,0.801-0.513,0.785c-0.388-0.016-0.663-0.432-0.45-0.824
		c0.219-0.407,0.387-0.551,0.521-0.974C20.446,23.994,20.602,24.152,20.787,24.574z"/>
	<path opacity="0.8" fill="#00ADEE" d="M22.812,23.832c0.182,0.409-0.127,0.801-0.514,0.785c-0.387-0.015-0.663-0.431-0.449-0.824
		c0.219-0.406,0.387-0.551,0.521-0.975C22.471,23.252,22.627,23.41,22.812,23.832z"/>
	<path opacity="0.8" fill="#00ADEE" d="M20.787,19.875c0.182,0.409-0.127,0.801-0.515,0.786c-0.386-0.015-0.661-0.43-0.448-0.823
		c0.219-0.407,0.387-0.552,0.521-0.975C20.446,19.295,20.602,19.454,20.787,19.875z"/>
	<path opacity="0.8" fill="#00ADEE" d="M21.657,22.077c0.181,0.409-0.127,0.801-0.515,0.786c-0.386-0.016-0.662-0.432-0.449-0.825
		c0.219-0.406,0.387-0.552,0.521-0.975C21.315,21.497,21.471,21.655,21.657,22.077z"/>
</g>
<g>
	<path fill="#F3D952" d="M297.258,41.528c-11.382,0-20.642-9.176-20.642-20.454s9.26-20.454,20.642-20.454
		s20.642,9.175,20.642,20.454S308.64,41.528,297.258,41.528z"/>
	<path fill="#FFFFFF" d="M297.258,1.023c11.178,0,20.238,8.977,20.238,20.051c0,11.074-9.061,20.051-20.238,20.051
		s-20.238-8.977-20.238-20.051C277.02,10,286.08,1.023,297.258,1.023 M297.258,0.218c-11.604,0-21.044,9.356-21.044,20.856
		c0,11.5,9.44,20.856,21.044,20.856s21.044-9.356,21.044-20.856C318.302,9.574,308.861,0.218,297.258,0.218L297.258,0.218z"/>
</g>
<g opacity="0.8">
	<g>
		<path fill="none" d="M290.521,14.854v3.845l11.161,2.561l15.628-2.964c-0.179-1.273-0.473-2.507-0.881-3.692l-14.747,2.806
			C301.664,17.407,290.521,14.854,290.521,14.854z"/>
	</g>
	<path fill="#3C4352" d="M308.664,9.379l-19.2,3.641c-0.028,0.006-0.052,0.015-0.078,0.022c-0.021,0.005-0.041,0.009-0.061,0.016
		c-0.045,0.016-0.087,0.035-0.127,0.056c-0.006,0.003-0.013,0.004-0.018,0.008c-0.047,0.024-0.09,0.054-0.13,0.088
		c-0.012,0.009-0.021,0.021-0.034,0.032c-0.025,0.023-0.052,0.047-0.075,0.075c-0.013,0.016-0.023,0.032-0.035,0.048
		c-0.02,0.025-0.036,0.051-0.053,0.078c-0.01,0.018-0.018,0.036-0.026,0.055c-0.014,0.029-0.025,0.059-0.036,0.09
		c-0.004,0.012-0.009,0.022-0.012,0.032c-0.004,0.009-0.004,0.016-0.004,0.023c-0.008,0.032-0.012,0.063-0.016,0.096
		c-0.002,0.02-0.005,0.04-0.006,0.061c0,0.005-0.002,0.01-0.002,0.016v5.516c0,0.373,0.275,0.697,0.67,0.787l12.031,2.759
		c0.125,0.028,0.26,0.032,0.387,0.009l15.628-2.965c-0.031-0.548-0.083-1.09-0.158-1.625l-15.628,2.964l-11.161-2.561v-3.845
		c0,0,11.144,2.552,11.161,2.555l14.747-2.806c-0.48-1.396-1.113-2.717-1.877-3.956l-5.5-1.261
		C308.927,9.359,308.791,9.356,308.664,9.379z"/>
	<path fill="#3C4352" d="M299.443,29.615v1.666l2.01,0.464c0.125,0.028,0.261,0.031,0.387,0.009l13.988-2.653
		c0.259-0.587,0.489-1.188,0.691-1.802l-14.812,2.758L299.443,29.615z"/>
	<path fill="#3C4352" d="M301.354,24.539l-11.89-2.65c-0.028,0.006-0.052,0.015-0.078,0.021c-0.021,0.006-0.041,0.009-0.061,0.016
		c-0.045,0.016-0.087,0.035-0.127,0.057c-0.006,0.002-0.013,0.004-0.018,0.008c-0.047,0.024-0.09,0.054-0.13,0.087
		c-0.012,0.01-0.021,0.021-0.034,0.032c-0.025,0.023-0.052,0.047-0.075,0.075c-0.013,0.016-0.023,0.033-0.035,0.048
		c-0.02,0.026-0.036,0.051-0.053,0.078c-0.01,0.018-0.018,0.036-0.026,0.054c-0.014,0.03-0.025,0.059-0.036,0.091
		c-0.004,0.011-0.009,0.021-0.012,0.032c-0.004,0.009-0.004,0.016-0.004,0.023c-0.008,0.032-0.012,0.064-0.016,0.096
		c-0.002,0.02-0.005,0.04-0.006,0.06c0,0-0.002,0.012-0.002,0.017v5.515c0,0.373,0.275,0.697,0.67,0.787l4.057,0.932l0.006-1.681
		l-2.964-0.671v-3.843l11.187,2.47l15.692-2.92c0.058-0.528,0.08-1.065,0.097-1.604l-15.754,2.877
		C301.615,24.518,301.48,24.516,301.354,24.539z"/>
	<polygon fill="#D95D6A" points="294.611,35.389 296.384,34.374 298.158,36.363 298.158,27.938 294.611,27.131 	"/>
</g>
<g>
	<g>
		<path fill="#F3D952" d="M389.33,41.714c-11.382,0-20.642-9.176-20.642-20.454c0-11.278,9.26-20.454,20.642-20.454
			s20.642,9.175,20.642,20.454C409.972,32.538,400.712,41.714,389.33,41.714z"/>
		<path fill="#FFFFFF" d="M389.33,1.209c11.178,0,20.238,8.977,20.238,20.051s-9.061,20.05-20.238,20.05s-20.238-8.977-20.238-20.05
			S378.152,1.209,389.33,1.209 M389.33,0.404c-11.604,0-21.044,9.356-21.044,20.856s9.44,20.856,21.044,20.856
			s21.044-9.355,21.044-20.856S400.934,0.404,389.33,0.404L389.33,0.404z"/>
	</g>
	<g opacity="0.8">
		
			<ellipse fill="none" stroke="#3C4352" stroke-width="0.9491" stroke-miterlimit="10" cx="397.091" cy="13.823" rx="4.994" ry="5.016"/>
		<path fill="#3C4352" d="M402.085,14.333c0,0-4.361-1.119-8.603-4.415C393.482,9.917,401.335,5.88,402.085,14.333z"/>
		<path fill="#3C4352" d="M394.918,9.964c0,0-0.605,2.743-2.709,2.808C391.401,12.796,393.835,8.047,394.918,9.964z"/>
		<path fill="none" stroke="#00ADEE" stroke-width="0.949" stroke-miterlimit="10" d="M390.572,36.641c0,0,0-5.791,0-9.361
			c0-3.571,2.875-6.579,6.58-6.579s6.58,3.066,6.58,6.579c0,3.512,0,7.894,0,7.894"/>
		
			<line fill="none" stroke="#3C4352" stroke-width="0.9491" stroke-miterlimit="10" x1="399.859" y1="36.641" x2="399.859" y2="38.361"/>
		
			<line fill="none" stroke="#3C4352" stroke-width="0.9491" stroke-miterlimit="10" x1="394.443" y1="36.641" x2="394.443" y2="40.621"/>
	</g>
	<g opacity="0.8">
		<path fill="#3C4352" d="M374.482,16.993c0.704-0.094,3.087,0.121,3.641-1.226c0.507-1.226-0.523-1.79-0.715-1.875
			C375.517,13.044,374.36,15.792,374.482,16.993z"/>
		
			<ellipse fill="none" stroke="#3C4352" stroke-width="0.9491" stroke-miterlimit="10" cx="382.171" cy="11.269" rx="4.994" ry="5.016"/>
		<path fill="#3C4352" d="M387.165,11.778c0,0-4.198,0.504-7.39-4.912C379.775,6.867,386.064,4.41,387.165,11.778z"/>
		<path fill="#3C4352" d="M381.314,6.993c0,0-1.922,3.159-4.025,3.224C376.481,10.242,380.231,5.077,381.314,6.993z"/>
		<g>
			<path fill="none" d="M376.085,36.549c-0.195-0.164-0.378-0.339-0.566-0.51l-0.131,0.51H376.085z"/>
			<g>
				<path fill="none" d="M388.95,36.549l-2.186-8.373l-0.031-0.119v-0.121v-5.578c0-2.135-2.26-4.23-4.562-4.23
					c-2.252,0-4.58,1.713-4.58,4.58c0,3.269,0.002,5.163,0.002,5.163v0.121l-0.03,0.117l-2.044,7.93
					c0.188,0.171,0.371,0.346,0.566,0.51H388.95z"/>
			</g>
			<path fill="#D95D6A" d="M387.683,27.936c0,0,0-2.998,0-5.578c0-2.58-2.597-5.179-5.512-5.179s-5.529,2.259-5.529,5.529
				c0,3.271,0.002,5.165,0.002,5.165l-1.915,7.432c0.253,0.256,0.523,0.493,0.79,0.734l2.044-7.93l0.03-0.117v-0.121
				c0,0-0.002-1.895-0.002-5.163c0-2.867,2.328-4.58,4.58-4.58c2.303,0,4.562,2.095,4.562,4.23v5.578v0.121l0.031,0.119l2.186,8.373
				h-12.865c0.397,0.334,0.813,0.646,1.236,0.949h12.857L387.683,27.936z"/>
		</g>
		
			<line fill="none" stroke="#3C4352" stroke-width="0.9491" stroke-miterlimit="10" x1="384.919" y1="37.498" x2="384.919" y2="40.867"/>
		
			<line fill="none" stroke="#3C4352" stroke-width="0.9491" stroke-miterlimit="10" x1="379.336" y1="37.498" x2="379.336" y2="38.631"/>
	</g>
</g>
<g>
	<path fill="#F3D952" d="M479.33,41.528c-11.382,0-20.642-9.176-20.642-20.454s9.26-20.454,20.642-20.454
		s20.642,9.175,20.642,20.454S490.712,41.528,479.33,41.528z"/>
	<path fill="#FFFFFF" d="M479.33,1.023c11.178,0,20.238,8.977,20.238,20.051c0,11.074-9.061,20.051-20.238,20.051
		s-20.238-8.977-20.238-20.051C459.092,10,468.152,1.023,479.33,1.023 M479.33,0.218c-11.604,0-21.044,9.356-21.044,20.856
		c0,11.5,9.44,20.856,21.044,20.856s21.044-9.356,21.044-20.856C500.374,9.574,490.934,0.218,479.33,0.218L479.33,0.218z"/>
</g>
<g opacity="0.8">
	<path fill="#D95D6A" d="M479.33,6.883v15.196h-11.153v-9.947c0,0,2.848-1.663,3.627-2.795
		C472.583,8.205,471.169,11.313,479.33,6.883z"/>
	<path opacity="0.8" fill="#00ADEE" d="M479.33,22.079v15.204c0,0,2.077-1.109,4.466-2.803c2.388-1.693,5.895-5.606,6.24-7.191
		c0.344-1.584,0-5.206,0-5.206L479.33,22.079z"/>
	<path fill="none" stroke="#3C4352" stroke-width="0.9391" stroke-miterlimit="10" d="M486.856,9.337
		c-3.38,0.528-7.526-2.455-7.526-2.455s-4.146,2.983-7.526,2.455c0,0-2.169,2.868-3.627,2.795c0,0,0,8.529,0,12.028
		c0,8.822,9.513,11.208,11.153,13.123c1.641-1.914,11.153-4.301,11.153-13.123c0-3.5,0-12.028,0-12.028
		C489.026,12.205,486.856,9.337,486.856,9.337z"/>
</g>
<g>
	<g>
		<path fill="#F3D952" d="M573.33,44.528c-11.382,0-20.642-9.176-20.642-20.454s9.26-20.454,20.642-20.454
			s20.642,9.175,20.642,20.454S584.712,44.528,573.33,44.528z"/>
		<path fill="#FFFFFF" d="M573.33,4.023c11.178,0,20.238,8.977,20.238,20.051c0,11.074-9.061,20.051-20.238,20.051
			s-20.238-8.977-20.238-20.051C553.092,13,562.152,4.023,573.33,4.023 M573.33,3.218c-11.604,0-21.044,9.356-21.044,20.856
			c0,11.5,9.44,20.856,21.044,20.856s21.044-9.356,21.044-20.856C594.374,12.574,584.934,3.218,573.33,3.218L573.33,3.218z"/>
	</g>
	<g id="Faust_seitlich" opacity="0.8">
		<path fill="#3C4352" d="M585.779,27.457c-0.017-0.015-0.017-0.015-0.033-0.028l-2.622-2.179c-0.612-0.508-1.515-0.425-2.023,0.188
			c-0.199,0.239-0.315,0.516-0.319,0.8c-0.573-0.245-1.284-0.116-1.694,0.376c-0.424,0.511-0.435,1.25-0.057,1.766
			c-0.261,0.071-0.513,0.236-0.71,0.475c-0.425,0.51-0.436,1.249-0.058,1.765c-0.261,0.071-0.513,0.235-0.71,0.474
			c-0.51,0.613-0.426,1.518,0.187,2.025l2.638,2.191c0.035,0.029,0.068,0.057,0.103,0.085l0.102,0.085
			c2.229,1.852,3.495,2.271,4.418,2.577c0.535,0.187,0.925,0.308,1.333,0.647c0.137,0.112,0.354,0.093,0.468-0.043
			c0.112-0.137,0.092-0.355-0.044-0.469c-0.511-0.424-0.98-0.584-1.547-0.768c-0.764-0.26-1.783-0.59-3.458-1.865
			c0.244-0.086,0.451-0.229,0.635-0.451c0.425-0.51,0.435-1.25,0.058-1.766c0.26-0.07,0.513-0.234,0.71-0.473
			c0.354-0.426,0.426-0.998,0.21-1.466c0.425-0.165,0.834-0.485,1.304-1.017l0.511,0.426c-0.799,1.378,0.476,3.271,0.529,3.344
			c0.108,0.147,0.301,0.192,0.466,0.1c0.147-0.109,0.192-0.301,0.098-0.465c-0.017-0.014-1.221-1.82-0.372-2.842
			c0.113-0.136,0.092-0.354-0.043-0.467l-1.005-0.834c-0.067-0.058-0.164-0.08-0.244-0.088c-0.093,0.008-0.184,0.048-0.223,0.13
			c-0.608,0.731-1.077,1.091-1.559,1.151c-0.019-0.016-0.032,0.002-0.032,0.002c-0.343,0.031-0.717-0.107-1.122-0.414l0.128-0.154
			c0,0,0,0,0.014-0.017c0,0,0,0,0.014-0.017l1.754-2.111c0.155-0.188,0.381-0.287,0.637-0.247l0.031-0.003
			c0.425,0.008,1.625,0.086,2.17,0.538c2.128,1.768,2.733,2.874,3.184,3.681c0.286,0.523,0.529,0.957,1.039,1.381
			c0.137,0.113,0.354,0.093,0.469-0.043c0.113-0.137,0.093-0.354-0.044-0.468c-0.408-0.339-0.598-0.698-0.879-1.19
			c-0.472-0.853-1.114-2.019-3.344-3.871C586.556,27.699,586.183,27.561,585.779,27.457z M579.713,28.111
			c-0.324-0.269-0.37-0.768-0.101-1.09c0.268-0.324,0.767-0.37,1.091-0.102l0.612,0.51l1.19,0.988l-0.989,1.191l-1.157-0.961
			L579.713,28.111z M581.806,33.59c0.324,0.27,0.37,0.768,0.101,1.091c-0.254,0.307-0.705,0.362-1.025,0.126l-0.051-0.042
			c-0.018-0.015-0.034-0.028-0.052-0.042l-2.587-2.15c-0.323-0.268-0.369-0.767-0.1-1.09c0.269-0.323,0.767-0.369,1.09-0.102
			l1.991,1.656l0.646,0.535L581.806,33.59z M582.673,32.441c-0.269,0.324-0.767,0.369-1.09,0.102l-1.991-1.655l-0.646-0.537
			c-0.324-0.269-0.369-0.768-0.102-1.091s0.768-0.369,1.092-0.1l1.156,0.961l-0.141,0.17l0,0c-0.057,0.068-0.078,0.164-0.088,0.244
			c0.009,0.093,0.062,0.167,0.131,0.224c0.612,0.509,1.186,0.755,1.721,0.768C582.896,31.793,582.886,32.186,582.673,32.441z
			 M583.058,27.755l-0.142,0.171l-1.191-0.99c-0.322-0.268-0.369-0.768-0.101-1.092c0.269-0.322,0.768-0.367,1.091-0.1l1.82,1.514
			c-0.141-0.003-0.219-0.011-0.283-0.006C583.794,27.216,583.354,27.397,583.058,27.755z"/>
	</g>
	<g>
		<g opacity="0.8">
			<path fill="none" stroke="#3C4352" stroke-width="0.9036" stroke-miterlimit="10" d="M566.276,29.752
				c0,0,1.554-0.525,2.071-0.525s2.072,0.525,2.072,0.525"/>
			<path fill="none" stroke="#D95D6A" stroke-width="0.9036" stroke-miterlimit="10" d="M560.271,39.391
				c1.141-3.475,4.327-5.795,8.078-5.795c3.844,0,7.093,2.438,8.159,6.057c0,0,0.261,0.971,0.862,3.998"/>
			<g>
				<path fill="none" stroke="#3C4352" stroke-width="0.9036" stroke-miterlimit="10" d="M557.385,21.431
					c0,0,3.894,0.533,7.642-5.392c0,0,4.372,6.835,14.284,4.431"/>
				<g>
					<defs>
						<ellipse id="SVGID_1_" cx="568.348" cy="22.637" rx="9.48" ry="10.668"/>
					</defs>
					<clipPath id="SVGID_2_">
						<use xlink:href="#SVGID_1_"  overflow="visible"/>
					</clipPath>
					<path clip-path="url(#SVGID_2_)" fill="#3C4352" d="M558.557,21.27c2.746,0.799,6.256-5.231,6.256-5.231s4.228,6.14,13.7,4.751
						c0,0-1.756-8.008-7.29-9.396c-5.536-1.388-10.112,0.214-11.815,3.951S558.557,21.27,558.557,21.27z"/>
					<use xlink:href="#SVGID_1_"  overflow="visible" fill="none" stroke="#3C4352" stroke-width="0.9036" stroke-miterlimit="10"/>
				</g>
			</g>
			<g>
				<path fill="none" stroke="#D95D6A" stroke-width="0.9036" stroke-miterlimit="10" d="M568.302,33.597
					c0.021,0.13,0.032,0.263,0.032,0.399c0,1.393-1.126,2.522-2.515,2.522c-1.017,0-1.892-0.604-2.288-1.474"/>
				<path fill="none" stroke="#D95D6A" stroke-width="0.9036" stroke-miterlimit="10" d="M573.165,34.978
					c-0.381,0.905-1.274,1.541-2.316,1.541c-1.389,0-2.515-1.13-2.515-2.522c0-0.137,0.011-0.27,0.031-0.399"/>
			</g>
		</g>
		<path opacity="0.8" fill="none" stroke="#3C4352" stroke-width="0.9038" stroke-miterlimit="10" d="M562.512,23.582
			c0,0,1.554-0.527,2.07-0.527c0.519,0,2.072,0.527,2.072,0.527"/>
		<path opacity="0.8" fill="none" stroke="#3C4352" stroke-width="0.9038" stroke-miterlimit="10" d="M570.013,23.582
			c0,0,1.554-0.527,2.071-0.527c0.517,0,2.072,0.527,2.072,0.527"/>
	</g>
	
		<line opacity="0.8" fill="none" stroke="#3C4352" stroke-width="0.9038" stroke-miterlimit="10" x1="581.408" y1="22.302" x2="581.283" y2="17.365"/>
	
		<line opacity="0.8" fill="none" stroke="#3C4352" stroke-width="0.9038" stroke-miterlimit="10" x1="585.408" y1="23.054" x2="587.533" y2="19.115"/>
	
		<line opacity="0.8" fill="none" stroke="#3C4352" stroke-width="0.9038" stroke-miterlimit="10" x1="588.908" y1="25.615" x2="592.096" y2="23.582"/>
</g>
</svg>
