<?xml version="1.0" encoding="utf-8"?>
<!-- Generator: Adobe Illustrator 16.0.0, SVG Export Plug-In . SVG Version: 6.00 Build 0)  -->
<!DOCTYPE svg PUBLIC "-//W3C//DTD SVG 1.1//EN" "http://www.w3.org/Graphics/SVG/1.1/DTD/svg11.dtd">
<svg version="1.1" id="Layer_1" xmlns="http://www.w3.org/2000/svg" xmlns:xlink="http://www.w3.org/1999/xlink" x="0px" y="0px"
	 width="20px" height="19px" viewBox="0 0 20 19" enable-background="new 0 0 20 19" xml:space="preserve">
<g>
	<circle fill="#656565" cx="10" cy="7.12" r="0.653"/>
	<path fill="#656565" d="M10,4.976c-1.184,0-2.146,0.962-2.146,2.146c0,1.182,0.962,2.144,2.146,2.144s2.146-0.962,2.146-2.144
		C12.146,5.938,11.184,4.976,10,4.976z M10,8.557c-0.791,0-1.435-0.645-1.435-1.436c0-0.793,0.644-1.438,1.435-1.438
		s1.435,0.645,1.435,1.438C11.435,7.912,10.791,8.557,10,8.557z"/>
	<g>
		<path fill="#656565" d="M10,0.5c-3.65,0-6.621,2.971-6.621,6.621c0,1.165,0.307,2.31,0.887,3.309l4.035,6.987
			c0.397,0.688,1.018,1.083,1.7,1.083c0.681,0,1.3-0.395,1.698-1.084l4.034-6.982c0.58-1.004,0.888-2.148,0.888-3.312
			C16.621,3.471,13.65,0.5,10,0.5z M15.118,10.078l-4.034,6.984c-0.266,0.463-0.661,0.729-1.084,0.729s-0.818-0.266-1.084-0.729
			l-4.034-6.986C4.363,9.188,4.09,8.164,4.09,7.121c0-3.26,2.651-5.912,5.91-5.912s5.91,2.652,5.91,5.912
			C15.91,8.164,15.637,9.188,15.118,10.078z"/>
		<path fill="#656565" d="M10.001,18.85c-0.812,0-1.542-0.458-2.003-1.258l-4.035-6.987C3.352,9.553,3.029,8.348,3.029,7.121
			C3.029,3.277,6.156,0.15,10,0.15s6.971,3.127,6.971,6.971c0,1.224-0.323,2.429-0.935,3.488l-4.034,6.981
			C11.54,18.392,10.811,18.85,10.001,18.85z M10,0.85c-3.458,0-6.271,2.813-6.271,6.271c0,1.104,0.291,2.187,0.84,3.133l4.035,6.988
			c0.334,0.577,0.843,0.908,1.397,0.908c0.553,0,1.062-0.332,1.396-0.909l4.034-6.983c0.55-0.952,0.841-2.037,0.841-3.137
			C16.271,3.663,13.458,0.85,10,0.85z M10,18.141c-0.552,0-1.058-0.329-1.388-0.904l-4.033-6.985C4.03,9.311,3.74,8.229,3.74,7.121
			c0-3.453,2.808-6.262,6.26-6.262s6.26,2.809,6.26,6.262c0,1.106-0.29,2.19-0.839,3.133l-4.034,6.983
			C11.058,17.812,10.552,18.141,10,18.141z M10,1.559c-3.065,0-5.561,2.495-5.561,5.562c0,0.983,0.258,1.944,0.745,2.779
			l4.034,6.988c0.404,0.703,1.159,0.702,1.562,0.001l4.035-6.986c0.487-0.837,0.745-1.799,0.745-2.782
			C15.561,4.054,13.065,1.559,10,1.559z"/>
	</g>
</g>
</svg>
