<?xml version="1.0" encoding="utf-8"?>
<!-- Generator: Adobe Illustrator 16.0.0, SVG Export Plug-In . SVG Version: 6.00 Build 0)  -->
<!DOCTYPE svg PUBLIC "-//W3C//DTD SVG 1.1//EN" "http://www.w3.org/Graphics/SVG/1.1/DTD/svg11.dtd">
<svg version="1.1" id="Layer_1" xmlns="http://www.w3.org/2000/svg" xmlns:xlink="http://www.w3.org/1999/xlink" x="0px" y="0px"
	 width="20px" height="17px" viewBox="3 101.5 20 17" enable-background="new 3 101.5 20 17" xml:space="preserve">
<g>
	<g>
		<path fill="#656565" d="M14.096,111.273c0,0.12-0.092,0.217-0.214,0.217H12.12c-0.117,0-0.215-0.097-0.215-0.217v-1.039
			c0-0.117,0.098-0.217,0.215-0.217h1.762c0.121,0,0.214,0.1,0.214,0.217V111.273L14.096,111.273z"/>
		<path fill="#656565" d="M13.882,110.959H12.12c-0.117,0-0.215,0.1-0.215,0.217v1.039c0,0.119,0.098,0.217,0.215,0.217h1.762
			c0.121,0,0.214-0.098,0.214-0.217v-1.039C14.096,111.059,14.004,110.959,13.882,110.959z"/>
		<path fill="#656565" d="M18.302,111.564c-1.101,0.114-2.351,0.252-3.352,0.496v0.154c0,0.592-0.479,1.072-1.068,1.072H12.12
			c-0.591,0-1.068-0.48-1.068-1.072v-0.17c-0.994-0.236-2.224-0.367-3.306-0.48c-0.662-0.068-1.291-0.137-1.83-0.222
			c-0.351-0.052-0.646-0.172-0.894-0.327L5,114.168c-0.003,0.93,0.575,1.668,1.505,1.67h1.992h0.329h8.676h0.397h1.503
			c0.933,0.01,1.554-0.74,1.562-1.67l0.021-3.133c-0.237,0.146-0.519,0.258-0.854,0.307
			C19.594,111.428,18.964,111.496,18.302,111.564z"/>
		<path fill="#656565" d="M6.071,109.391c0.526,0.079,1.137,0.145,1.782,0.212c1.121,0.115,2.252,0.24,3.234,0.456
			c0.086-0.502,0.504-0.896,1.033-0.896h1.762c0.531,0,0.955,0.4,1.037,0.909c0.992-0.224,2.139-0.351,3.275-0.469
			c0.646-0.067,1.257-0.133,1.781-0.212c0.594-0.094,0.88-0.486,1.021-0.797L21,107.555c0.009-0.928-0.604-1.662-1.533-1.67h-1.567
			h-0.397h-0.875h-1.531h-4.128H9.438H9.154H8.826H8.497h-1.93c-0.93-0.008-1.524,0.742-1.529,1.67l-0.005,0.992
			C5.164,108.863,5.446,109.292,6.071,109.391z"/>
		<path fill="#656565" d="M11.433,104.089h3.219v1.067h1.19v-0.875c0.003-0.808-0.663-1.112-1.491-1.119h-2.592
			c-0.822-0.006-1.5,0.311-1.506,1.119v0.875h1.18V104.089z"/>
	</g>
</g>
</svg>
