<?xml version="1.0" encoding="utf-8"?>
<!-- Generator: Adobe Illustrator 16.0.0, SVG Export Plug-In . SVG Version: 6.00 Build 0)  -->
<!DOCTYPE svg PUBLIC "-//W3C//DTD SVG 1.1//EN" "http://www.w3.org/Graphics/SVG/1.1/DTD/svg11.dtd">
<svg version="1.1" id="Layer_1" xmlns="http://www.w3.org/2000/svg" xmlns:xlink="http://www.w3.org/1999/xlink" x="0px" y="0px"
	 width="34px" height="34px" viewBox="0 0 34 34" enable-background="new 0 0 34 34" xml:space="preserve">
<polygon fill="#D36C5B" points="33.917,0 0,33.918 0,15.458 15.458,0 "/>
<g>
	<g>
		<path fill="#FFFFFF" d="M9.95,16.015c0.362,0.362,0.631,0.734,0.805,1.119c0.174,0.384,0.266,0.75,0.275,1.099
			c0.01,0.35-0.049,0.674-0.174,0.975c-0.126,0.299-0.297,0.557-0.512,0.771c-0.152,0.152-0.308,0.271-0.467,0.355
			c-0.158,0.084-0.311,0.145-0.457,0.18S9.14,20.568,9.017,20.57c-0.123,0-0.227-0.004-0.309-0.016l-0.017,0.018l0.331,0.521
			L8.21,21.906c-0.112-0.125-0.254-0.277-0.426-0.455c-0.172-0.182-0.336-0.35-0.493-0.506l-5.059-5.059l0.981-0.982l1.67,1.669
			c0.119,0.119,0.229,0.229,0.328,0.332c0.099,0.102,0.175,0.182,0.227,0.24l0.009-0.008c0.02-0.107,0.046-0.219,0.079-0.335
			s0.077-0.235,0.133-0.356c0.055-0.122,0.123-0.243,0.207-0.364c0.082-0.122,0.18-0.239,0.293-0.353
			c0.225-0.224,0.482-0.4,0.775-0.53c0.293-0.129,0.605-0.193,0.937-0.191c0.331,0.003,0.676,0.087,1.034,0.251
			C9.263,15.423,9.61,15.675,9.95,16.015z M8.985,17.079c-0.251-0.251-0.498-0.437-0.739-0.557c-0.242-0.12-0.459-0.179-0.653-0.176
			c-0.193,0.003-0.359,0.041-0.498,0.114c-0.141,0.073-0.262,0.162-0.367,0.267c-0.144,0.144-0.262,0.319-0.352,0.526
			c-0.092,0.208-0.15,0.42-0.175,0.638l1.923,1.923c0.082,0.004,0.177,0.004,0.281-0.006c0.105-0.008,0.213-0.027,0.323-0.057
			c0.11-0.031,0.22-0.074,0.329-0.131s0.211-0.133,0.305-0.227c0.16-0.16,0.268-0.332,0.323-0.518S9.75,18.5,9.713,18.299
			C9.676,18.1,9.595,17.896,9.472,17.69C9.35,17.485,9.188,17.281,8.985,17.079z"/>
		<path fill="#FFFFFF" d="M14.701,14.041c0.19-0.19,0.37-0.409,0.538-0.654c0.169-0.246,0.324-0.511,0.465-0.795l0.782,0.783
			c-0.071,0.182-0.214,0.43-0.427,0.742c-0.213,0.312-0.46,0.609-0.742,0.891c-0.283,0.284-0.59,0.518-0.919,0.701
			c-0.329,0.182-0.67,0.287-1.023,0.314s-0.716-0.032-1.087-0.18c-0.372-0.148-0.743-0.407-1.113-0.777
			c-0.365-0.365-0.631-0.736-0.799-1.115c-0.169-0.378-0.255-0.746-0.258-1.102c-0.002-0.356,0.065-0.693,0.203-1.011
			c0.139-0.318,0.328-0.598,0.572-0.841c0.254-0.254,0.527-0.449,0.818-0.586c0.291-0.137,0.598-0.201,0.92-0.19
			c0.321,0.009,0.656,0.101,1.004,0.275c0.348,0.174,0.7,0.439,1.057,0.795c0.136,0.141,0.248,0.262,0.34,0.364l-2.631,2.631
			c0.199,0.171,0.398,0.288,0.599,0.351c0.2,0.062,0.397,0.078,0.591,0.047s0.383-0.101,0.569-0.213
			C14.347,14.358,14.526,14.215,14.701,14.041z M11.647,11.774c-0.125,0.125-0.212,0.258-0.264,0.4
			c-0.051,0.143-0.072,0.288-0.064,0.438c0.009,0.149,0.045,0.296,0.108,0.443s0.147,0.286,0.253,0.419l1.578-1.579
			c-0.119-0.119-0.246-0.215-0.383-0.288s-0.275-0.118-0.416-0.135c-0.142-0.016-0.281-0.001-0.419,0.045
			C11.903,11.564,11.771,11.65,11.647,11.774z"/>
		<path fill="#FFFFFF" d="M20.544,9.564c-0.076,0.144-0.183,0.301-0.316,0.474s-0.268,0.325-0.4,0.458
			c-0.336,0.337-0.666,0.559-0.99,0.663c-0.322,0.105-0.631,0.1-0.924-0.017c-0.209-0.083-0.439-0.25-0.691-0.501l-2.08-2.08
			l-0.75,0.75l-0.808-0.808l0.75-0.75l-1.122-1.123l0.981-0.982l1.122,1.123l1.16-1.16l0.809,0.808l-1.16,1.16l1.951,1.951
			c0.154,0.155,0.293,0.246,0.414,0.274c0.211,0.044,0.438-0.057,0.684-0.303c0.113-0.113,0.217-0.235,0.311-0.364
			c0.094-0.13,0.178-0.259,0.249-0.385L20.544,9.564z"/>
		<path fill="#FFFFFF" d="M23.674,5.589l-0.017,0.017c0.003,0.113-0.004,0.239-0.021,0.377c-0.017,0.139-0.048,0.284-0.093,0.437
			c-0.046,0.154-0.113,0.308-0.201,0.462c-0.089,0.154-0.203,0.302-0.344,0.443c-0.191,0.19-0.398,0.339-0.624,0.446
			c-0.226,0.106-0.452,0.163-0.684,0.17c-0.23,0.007-0.459-0.035-0.686-0.127c-0.227-0.091-0.438-0.234-0.634-0.431
			c-0.215-0.215-0.369-0.448-0.463-0.698c-0.092-0.25-0.127-0.505-0.105-0.765c0.023-0.26,0.102-0.519,0.234-0.777
			c0.135-0.258,0.32-0.506,0.557-0.744c0.175-0.174,0.346-0.323,0.515-0.448c0.169-0.124,0.323-0.227,0.464-0.307l-0.161-0.161
			c-0.095-0.094-0.2-0.168-0.319-0.224s-0.247-0.082-0.385-0.079c-0.139,0.002-0.284,0.041-0.438,0.114s-0.312,0.191-0.475,0.354
			c-0.199,0.199-0.375,0.42-0.53,0.663c-0.155,0.244-0.304,0.525-0.447,0.846l-0.767-0.767c0.113-0.29,0.26-0.572,0.439-0.845
			s0.393-0.536,0.638-0.788c0.292-0.292,0.585-0.513,0.876-0.661c0.291-0.147,0.574-0.233,0.848-0.254
			c0.273-0.022,0.532,0.016,0.777,0.114c0.244,0.098,0.467,0.248,0.668,0.449l1.514,1.513c0.265,0.265,0.495,0.49,0.691,0.675
			c0.195,0.185,0.371,0.349,0.525,0.493l-0.887,0.887L23.674,5.589z M22.312,4.384c-0.116,0.072-0.244,0.16-0.384,0.263
			s-0.271,0.218-0.396,0.342c-0.24,0.24-0.383,0.478-0.428,0.712c-0.043,0.235,0.033,0.45,0.229,0.646
			c0.092,0.091,0.187,0.155,0.286,0.191c0.099,0.036,0.198,0.049,0.296,0.039c0.099-0.01,0.194-0.039,0.288-0.089
			s0.181-0.115,0.261-0.195c0.1-0.1,0.181-0.207,0.242-0.321c0.062-0.115,0.111-0.229,0.146-0.344
			c0.034-0.114,0.057-0.227,0.066-0.335c0.01-0.109,0.012-0.208,0.007-0.296L22.312,4.384z"/>
	</g>
</g>
</svg>
