<?xml version="1.0" encoding="utf-8"?>
<!-- Generator: Adobe Illustrator 16.0.0, SVG Export Plug-In . SVG Version: 6.00 Build 0)  -->
<!DOCTYPE svg PUBLIC "-//W3C//DTD SVG 1.1//EN" "http://www.w3.org/Graphics/SVG/1.1/DTD/svg11.dtd">
<svg version="1.1" id="Layer_1" xmlns="http://www.w3.org/2000/svg" xmlns:xlink="http://www.w3.org/1999/xlink" x="0px" y="0px"
	 width="54.793px" height="13.074px" viewBox="0 0 54.793 13.074" enable-background="new 0 0 54.793 13.074" xml:space="preserve">
<g>
	<path fill="#FFFFFF" d="M26.751,10.545c0,1.254-1.025,2.279-2.279,2.279H16.53c-1.253,0-2.279-1.025-2.279-2.279V2.534
		c0-1.253,1.025-2.279,2.279-2.279h7.942c1.254,0,2.279,1.025,2.279,2.279V10.545z"/>
	<path fill="#D8BC48" d="M24.472,13.074H16.53c-1.395,0-2.529-1.135-2.529-2.529V2.534c0-1.395,1.134-2.529,2.529-2.529h7.942
		c1.395,0,2.529,1.134,2.529,2.529v8.011C27.001,11.939,25.866,13.074,24.472,13.074z M16.529,0.505
		c-1.119,0-2.029,0.91-2.029,2.029v8.011c0,1.119,0.91,2.029,2.029,2.029h7.942c1.119,0,2.029-0.91,2.029-2.029V2.534
		c0-1.119-0.91-2.029-2.029-2.029H16.529z"/>
</g>
<g>
	<path fill="#FFFFFF" d="M12.75,10.545c0,1.254-1.025,2.279-2.279,2.279H2.529c-1.253,0-2.279-1.025-2.279-2.279V2.534
		c0-1.253,1.025-2.279,2.279-2.279h7.943c1.253,0,2.279,1.025,2.279,2.279L12.75,10.545L12.75,10.545z"/>
	<path fill="#D8BC48" d="M10.472,13.074H2.529C1.134,13.074,0,11.939,0,10.545V2.534C0,1.14,1.134,0.005,2.529,0.005h7.943
		C11.866,0.005,13,1.14,13,2.534v8.011C13,11.939,11.866,13.074,10.472,13.074z M2.529,0.505C1.41,0.505,0.5,1.416,0.5,2.534v8.011
		c0,1.119,0.91,2.029,2.029,2.029h7.943c1.119,0,2.029-0.91,2.029-2.029V2.534c0-1.119-0.91-2.029-2.029-2.029H2.529z"/>
</g>
<polygon fill="#D8BC48" points="19.967,10.566 17.079,6.846 17.869,6.232 19.891,8.838 23.793,2.775 24.635,3.316 "/>
<g>
	<ellipse fill="#FFFFFF" cx="48.346" cy="6.537" rx="6.25" ry="6.199"/>
	<path fill="#D8BC48" d="M48.346,12.934c-3.557,0-6.448-2.869-6.448-6.396c0-3.527,2.894-6.396,6.448-6.396s6.447,2.869,6.447,6.396
		C54.793,10.064,51.901,12.934,48.346,12.934z M48.346,0.536c-3.338,0-6.053,2.692-6.053,6.001c0,3.309,2.715,6,6.053,6
		c3.337,0,6.052-2.691,6.052-6C54.398,3.228,51.683,0.536,48.346,0.536z"/>
</g>
<ellipse fill="#D8BC48" cx="48.345" cy="6.537" rx="3.302" ry="3.225"/>
<g>
	<ellipse fill="#FFFFFF" cx="34.45" cy="6.537" rx="6.25" ry="6.199"/>
	<path fill="#D8BC48" d="M34.45,12.934c-3.557,0-6.449-2.869-6.449-6.396c0-3.527,2.894-6.396,6.449-6.396
		c3.555,0,6.447,2.869,6.447,6.396C40.897,10.064,38.004,12.934,34.45,12.934z M34.45,0.536c-3.338,0-6.053,2.692-6.053,6.001
		c0,3.309,2.715,6,6.053,6c3.336,0,6.051-2.691,6.051-6C40.5,3.228,37.786,0.536,34.45,0.536z"/>
</g>
</svg>
