<?xml version="1.0" encoding="utf-8"?>
<!-- Generator: Adobe Illustrator 16.0.0, SVG Export Plug-In . SVG Version: 6.00 Build 0)  -->
<!DOCTYPE svg PUBLIC "-//W3C//DTD SVG 1.1//EN" "http://www.w3.org/Graphics/SVG/1.1/DTD/svg11.dtd">
<svg version="1.1" id="Layer_1" xmlns="http://www.w3.org/2000/svg" xmlns:xlink="http://www.w3.org/1999/xlink" x="0px" y="0px"
	 width="34px" height="103.999px" viewBox="0 0 34 103.999" enable-background="new 0 0 34 103.999" xml:space="preserve">
<g>
	<path fill="#73A580" d="M34,32c0,1.1-0.9,2-2,2H2c-1.1,0-2-0.9-2-2V2c0-1.1,0.9-2,2-2h30c1.1,0,2,0.9,2,2V32z"/>
</g>
<g>
	<path fill="#D67456" d="M34,66.999c0,1.1-0.9,2-2,2H2c-1.1,0-2-0.9-2-2V37c0-1.1,0.9-2,2-2h30c1.1,0,2,0.9,2,2V66.999z"/>
</g>
<g>
	<g>
		<path fill="#FFFFFF" d="M13.287,23.443c0,0.555-0.454,1.008-1.009,1.008h-1.513c-0.555,0-1.009-0.453-1.009-1.008v-7.061
			c0-0.555,0.454-1.009,1.009-1.009h1.513c0.555,0,1.009,0.454,1.009,1.009V23.443z"/>
	</g>
	<g>
		<path fill="#FFFFFF" d="M18.764,23.443c0,0.555-0.453,1.008-1.008,1.008h-1.512c-0.555,0-1.009-0.453-1.009-1.008V11.339
			c0-0.555,0.454-1.009,1.009-1.009h1.512c0.555,0,1.008,0.454,1.008,1.009V23.443z"/>
	</g>
	<g>
		<path fill="#FFFFFF" d="M24.242,23.443c0,0.555-0.453,1.008-1.008,1.008h-1.514c-0.555,0-1.01-0.453-1.01-1.008V13.356
			c0-0.555,0.455-1.009,1.01-1.009h1.514c0.555,0,1.008,0.454,1.008,1.009V23.443z"/>
	</g>
</g>
<g id="Your_Icon_1_">
	<path fill="#FFFFFF" d="M17,40c-6.628,0-12,5.373-12,12c0,6.626,5.372,12,12,12c6.627,0,12-5.373,12-12C29,45.373,23.627,40,17,40z
		 M17,62.696c-5.908,0-10.696-4.789-10.696-10.697c0-5.906,4.788-10.695,10.696-10.695c5.906,0,10.695,4.789,10.695,10.695
		C27.695,57.908,22.906,62.696,17,62.696z"/>
	<polygon fill="#FFFFFF" points="16.52,42.88 16.52,51.8 13.266,55.054 14.117,55.906 17.371,52.652 17.828,52.199 17.828,50.841 
		17.828,42.88 	"/>
</g>
<g>
	<path fill="#D8BC48" d="M34,101.999c0,1.1-0.9,2-2,2H2c-1.1,0-2-0.9-2-2v-30c0-1.1,0.9-2,2-2h30c1.1,0,2,0.9,2,2V101.999z"/>
</g>
<path sketch:type="MSShapeGroup" fill="#FFFFFF" d="M10.102,95.276h13.797c0.762,0,1.379-0.617,1.379-1.379v-4.139h-2.76v2.414
	c0,0.189-0.154,0.344-0.344,0.344H11.826c-0.19,0-0.345-0.154-0.345-0.344v-2.414H8.723v4.139
	C8.723,94.659,9.34,95.276,10.102,95.276z M19.068,79.411v4.828h2.07c0.762,0,0.992,0.482,0.518,1.078l-4.226,5.281
	c-0.237,0.297-0.624,0.297-0.861,0l-4.227-5.281c-0.476-0.596-0.243-1.078,0.519-1.078h2.069v-4.828
	c0-0.381,0.309-0.689,0.689-0.689h2.759C18.76,78.722,19.068,79.03,19.068,79.411L19.068,79.411z"/>
</svg>
