<?xml version="1.0" encoding="utf-8"?>
<!-- Generator: Adobe Illustrator 16.0.0, SVG Export Plug-In . SVG Version: 6.00 Build 0)  -->
<!DOCTYPE svg PUBLIC "-//W3C//DTD SVG 1.1//EN" "http://www.w3.org/Graphics/SVG/1.1/DTD/svg11.dtd">
<svg version="1.1" id="Layer_1" xmlns="http://www.w3.org/2000/svg" xmlns:xlink="http://www.w3.org/1999/xlink" x="0px" y="0px"
	 width="15px" height="15px" viewBox="0 0 15 15" enable-background="new 0 0 15 15" xml:space="preserve">
<path sketch:type="MSShapeGroup" fill="#D8BC48" d="M1.324,14.911h12.353c0.683,0,1.234-0.553,1.234-1.235V9.97h-2.47v2.162
	c0,0.171-0.139,0.309-0.309,0.309H2.868c-0.17,0-0.309-0.138-0.309-0.309V9.97h-2.47v3.706C0.089,14.358,0.642,14.911,1.324,14.911z
	 M9.353,0.707V5.03h1.853c0.682,0,0.89,0.432,0.464,0.964l-3.784,4.729c-0.212,0.266-0.559,0.266-0.771,0L3.331,5.994
	C2.905,5.461,3.113,5.03,3.794,5.03h1.853V0.707c0-0.342,0.276-0.618,0.618-0.618h2.47C9.077,0.089,9.353,0.365,9.353,0.707
	L9.353,0.707z"/>
</svg>
