<?xml version="1.0" encoding="utf-8"?>
<!-- Generator: Adobe Illustrator 16.0.0, SVG Export Plug-In . SVG Version: 6.00 Build 0)  -->
<!DOCTYPE svg PUBLIC "-//W3C//DTD SVG 1.1//EN" "http://www.w3.org/Graphics/SVG/1.1/DTD/svg11.dtd">
<svg version="1.1" id="Layer_1" xmlns="http://www.w3.org/2000/svg" xmlns:xlink="http://www.w3.org/1999/xlink" x="0px" y="0px"
	 width="25px" height="21px" viewBox="0 0 25 21" enable-background="new 0 0 25 21" xml:space="preserve">
<path fill="#D67456" d="M23.137,20.568H1.865c-0.587,0-1.06-0.242-1.296-0.664c-0.237-0.422-0.197-0.95,0.108-1.452L11.206,1.173
	c0.601-0.986,1.882-0.988,2.487-0.005l10.625,17.285c0.309,0.501,0.351,1.029,0.115,1.451
	C24.197,20.326,23.725,20.568,23.137,20.568z M1.763,19.255c0.025,0,0.06,0.003,0.102,0.003h21.271c0.057,0,0.1-0.006,0.131-0.013
	c-0.018-0.019-0.035-0.058-0.064-0.104L12.576,1.854c-0.065-0.106-0.123-0.145-0.137-0.149c0.008,0.005-0.049,0.043-0.114,0.149
	L1.796,19.135c-0.031,0.051-0.049,0.092-0.059,0.122C1.744,19.255,1.752,19.255,1.763,19.255z"/>
<g>
	<g>
		<path fill="#D67456" d="M12.539,15.012c0.747,0,1.304,0.586,1.304,1.362c0,0.762-0.557,1.349-1.304,1.349
			s-1.304-0.587-1.304-1.349C11.235,15.598,11.792,15.012,12.539,15.012z M11.528,9.68l-0.073-1.948h2.168L13.549,9.68l-0.308,4.482
			h-1.406L11.528,9.68z"/>
	</g>
</g>
</svg>
