<?xml version="1.0" encoding="utf-8"?>
<!-- Generator: Adobe Illustrator 16.0.0, SVG Export Plug-In . SVG Version: 6.00 Build 0)  -->
<!DOCTYPE svg PUBLIC "-//W3C//DTD SVG 1.1//EN" "http://www.w3.org/Graphics/SVG/1.1/DTD/svg11.dtd">
<svg version="1.1" id="Layer_1" xmlns="http://www.w3.org/2000/svg" xmlns:xlink="http://www.w3.org/1999/xlink" x="0px" y="0px"
	 width="78px" height="49px" viewBox="0 0 78 49" enable-background="new 0 0 78 49" xml:space="preserve">
<g>
	<g>
		<path fill="#FFFFFF" d="M32.581,34.33c-0.264-0.088-0.428-0.332-0.428-0.633v-12.14h1.801v-1.431h-1.801v-4.229h-1.73v4.229
			h-1.799v1.431h1.799v12.14c0,1.166,0.914,2.08,2.08,2.08h1.75v-1.4h-1.449C32.726,34.377,32.669,34.359,32.581,34.33z"/>
		<path fill="#FFFFFF" d="M37.022,22.237v13.54h1.701v-13.54c0-0.367,0.039-0.464,0.271-0.649c0.092-0.08,0.445-0.092,1.254-0.092
			l1.504,0.002v-1.34h-2.68C37.923,20.158,37.022,21.071,37.022,22.237z"/>
		<path fill="#FFFFFF" d="M49.544,20.067h-3c-1.129,0-2.08,0.993-2.08,2.17v2.351h1.699v-2.351c0-0.313,0.205-0.638,0.463-0.724
			c0.078-0.025,0.139-0.047,0.217-0.047h2.4c0.078,0,0.141,0.021,0.221,0.048c0.244,0.081,0.43,0.392,0.43,0.723v3.681h-3.68
			c-1.131,0-2.051,0.919-2.051,2.049v5.67c0,1.16,0.939,2.141,2.051,2.141h5.41v-13.54C51.624,21.061,50.671,20.067,49.544,20.067z
			 M45.864,27.967c0-0.307,0.225-0.528,0.467-0.611c0.086-0.023,0.143-0.038,0.213-0.038h3.35v7.06h-3.35
			c-0.07,0-0.129-0.016-0.244-0.045c-0.232-0.084-0.436-0.41-0.436-0.695V27.967z"/>
		<polygon fill="#FFFFFF" points="63.14,20.158 61.349,20.158 57.114,26.619 57.114,14.098 55.474,14.098 55.474,35.777 
			57.114,35.777 57.114,29.543 58.255,27.854 61.71,35.777 63.358,35.777 59.304,26.132 		"/>
		<path fill="#FFFFFF" d="M68.761,34.33c-0.264-0.088-0.428-0.332-0.428-0.633v-12.14h1.799v-1.431h-1.799v-4.229h-1.73v4.229
			h-1.799v1.431h1.799v12.14c0,1.166,0.914,2.08,2.08,2.08h1.75v-1.4h-1.449C68.905,34.377,68.849,34.359,68.761,34.33z"/>
		<path fill="#FFFFFF" d="M75.253,20.158c-1.15,0-2.051,0.913-2.051,2.079v13.54h1.701v-13.54c0-0.367,0.039-0.464,0.271-0.649
			c0.092-0.08,0.445-0.092,1.254-0.092l1.504,0.002v-1.34H75.253z"/>
	</g>
	<path fill="#FFFFFF" d="M31.331,0.495v1.129h0.125c0.371,0,0.596,0.042,0.697,0.067c0.096,0.025,0.154,0.071,0.178,0.141
		c0.047,0.136-0.037,0.365-0.215,0.59l-1.242,1.826l-13.533,19.29l-2.648-3.75l-0.221-0.329c-0.047-0.096-0.056-0.133-0.059-0.137
		c0.031-0.009,0.098-0.021,0.24-0.027l0.119-0.005v-0.568h-2.114v0.562l0.113,0.01c0.132,0.014,0.174,0.03,0.171,0.021
		c0.053,0.065,0.41,0.569,0.759,1.065L13.7,20.381l0.274,0.389c0.028,0.039,0.057,0.08,0.083,0.118l0.1,0.142v-0.001l2.477,3.517
		L2.338,44.92l-0.817,1.15c-0.402,0.646-0.622,0.914-0.753,1.076c-0.126,0.156-0.314,0.23-0.576,0.23H0.067v1.129h3.271v-1.129
		H3.213c-0.375,0-0.6-0.041-0.7-0.066c-0.097-0.025-0.155-0.07-0.178-0.141c-0.046-0.137,0.037-0.365,0.216-0.59l0.883-1.299
		l10.733-15.309c0.527-0.689,1.538-1.669,3.061-1.669c1.629,0,2.83,1.054,3.297,1.692l3.105,4.406
		c0.047,0.096,0.057,0.133,0.06,0.137c-0.047,0.014-0.128,0.023-0.242,0.029l-0.119,0.006v0.566h2.118v-0.562l-0.113-0.01
		c-0.121-0.012-0.17-0.031-0.17-0.021c-0.162-0.211-2.665-3.725-3.984-5.578l-0.045-0.062h-0.001l-3.12-4.418L31.813,4.804l0.002,0
		l1.33-1.875c0.078-0.125,0.145-0.226,0.209-0.325l0.389-0.553c0.061-0.08,0.115-0.148,0.156-0.199
		c0.123-0.154,0.311-0.229,0.574-0.229h0.125V0.495H31.331z"/>
</g>
</svg>
