<?xml version="1.0" encoding="utf-8"?>
<!-- Generator: Adobe Illustrator 16.0.0, SVG Export Plug-In . SVG Version: 6.00 Build 0)  -->
<!DOCTYPE svg PUBLIC "-//W3C//DTD SVG 1.1//EN" "http://www.w3.org/Graphics/SVG/1.1/DTD/svg11.dtd">
<svg version="1.1" id="Layer_1" xmlns="http://www.w3.org/2000/svg" xmlns:xlink="http://www.w3.org/1999/xlink" x="0px" y="0px"
	 width="20px" height="17px" viewBox="3 101.5 20 17" enable-background="new 3 101.5 20 17" xml:space="preserve">
<g>
	<g>
		<path fill="#73A580" d="M20.528,117.479h-2.354c-0.46,0-0.84-0.378-0.84-0.84c0-0.463,0.38-0.84,0.84-0.84h2.354
			c0.251,0,0.462-0.083,0.629-0.294c0.168-0.168,0.252-0.378,0.211-0.63l-0.084-1.135c-0.043-0.041-0.21-0.294-0.84-0.546
			c-1.26-0.588-1.849-1.974-1.303-3.233c0.084-0.21,0.167-0.462,0.21-0.756c0.127-0.63,0-1.176-0.294-1.512
			c-0.21-0.252-0.546-0.378-1.007-0.378c-0.464,0-0.756,0.126-1.01,0.378c-0.292,0.336-0.378,0.84-0.292,1.512
			c0.084,0.462-0.21,0.882-0.672,0.966c-0.464,0.084-0.883-0.21-0.967-0.672c-0.21-1.176,0.041-2.226,0.673-2.897
			c0.545-0.588,1.301-0.925,2.225-0.925c0.923,0,1.681,0.294,2.227,0.925c0.672,0.714,0.881,1.764,0.713,2.897
			c-0.084,0.42-0.168,0.756-0.335,1.092c-0.168,0.378,0.041,0.841,0.462,1.049c1.05,0.464,1.638,1.051,1.806,1.766
			c0,0.041,0,0.083,0,0.125l0.084,1.219c0.043,0.713-0.211,1.344-0.673,1.89C21.913,117.186,21.241,117.479,20.528,117.479z"/>
	</g>
	<g>
		<path fill="#73A580" d="M13.809,117.479H5.493c-0.714,0-1.386-0.294-1.848-0.798c-0.461-0.505-0.714-1.176-0.672-1.891
			c0.168-2.478,0.168-2.519,0.168-2.603c0.21-1.009,1.176-1.807,2.939-2.521c0.252-0.084,0.42-0.294,0.505-0.504
			c0.083-0.211,0.083-0.42-0.042-0.63c-0.336-0.63-0.546-1.26-0.672-2.017c-0.252-1.553,0.042-2.896,0.882-3.821
			c0.714-0.756,1.722-1.176,2.898-1.176s2.184,0.42,2.897,1.176c0.84,0.925,1.175,2.269,0.882,3.821
			c-0.126,0.757-0.336,1.387-0.672,2.017c-0.126,0.21-0.126,0.419-0.042,0.63c0.083,0.252,0.294,0.42,0.504,0.504
			c1.764,0.672,2.729,1.512,2.94,2.521c0,0.041,0,0.084,0,0.125l0.167,2.478c0.041,0.715-0.21,1.345-0.672,1.891
			C15.194,117.186,14.522,117.479,13.809,117.479z M9.651,103.2c-0.714,0-1.26,0.21-1.68,0.631
			c-0.504,0.546-0.671,1.385-0.462,2.395c0.126,0.755,0.336,1.217,0.504,1.511c0.336,0.63,0.378,1.344,0.126,2.016
			c-0.252,0.672-0.797,1.218-1.512,1.512c-1.385,0.547-1.848,1.05-1.89,1.26c0,0.084-0.083,1.302-0.167,2.353
			c0,0.209,0.084,0.462,0.209,0.63c0.168,0.168,0.378,0.294,0.63,0.294h8.314c0.253,0,0.464-0.083,0.631-0.294
			c0.168-0.168,0.252-0.378,0.209-0.63l-0.168-2.394c-0.084-0.253-0.545-0.715-1.889-1.219c-0.714-0.252-1.26-0.798-1.512-1.512
			c-0.251-0.672-0.209-1.386,0.126-2.016c0.167-0.294,0.378-0.756,0.503-1.512c0.168-1.009,0-1.891-0.461-2.394
			C10.911,103.41,10.365,103.2,9.651,103.2z"/>
	</g>
</g>
</svg>
