<?xml version="1.0" encoding="utf-8"?>
<!-- Generator: Adobe Illustrator 16.0.0, SVG Export Plug-In . SVG Version: 6.00 Build 0)  -->
<!DOCTYPE svg PUBLIC "-//W3C//DTD SVG 1.1//EN" "http://www.w3.org/Graphics/SVG/1.1/DTD/svg11.dtd">
<svg version="1.1" id="Layer_1" xmlns="http://www.w3.org/2000/svg" xmlns:xlink="http://www.w3.org/1999/xlink" x="0px" y="0px"
	 width="20px" height="143.999px" viewBox="0 0 20 143.999" enable-background="new 0 0 20 143.999" xml:space="preserve">
<g id="layer1_1_" transform="translate(0,-952.36218)" inkscape:groupmode="layer" inkscape:label="Layer 1">
	<path id="path5445_1_" inkscape:connector-curvature="0" fill="#C96E2B" d="M10.08,953.187c-0.148,0.001-0.291,0.061-0.395,0.165
		l-6.932,6.932c-0.223,0.221-0.225,0.58-0.004,0.801c0.221,0.222,0.58,0.224,0.801,0.003c0.002,0,0.002-0.002,0.004-0.003
		l6.531-6.531l6.532,6.531c0.219,0.222,0.578,0.224,0.801,0.003c0.223-0.22,0.225-0.58,0.004-0.801
		c-0.002-0.001-0.002-0.002-0.004-0.003l-1.686-1.686c0.002-0.024,0.002-0.047,0-0.071v-2.835c0.004-0.313-0.248-0.569-0.561-0.572
		c-0.006,0-0.012,0-0.018,0c-0.311,0.006-0.557,0.262-0.555,0.572v1.774l-4.114-4.114C10.379,953.245,10.232,953.184,10.08,953.187z
		 M3.955,962.164c-0.312,0.003-0.562,0.259-0.559,0.572v4.35v1.886c0,0.313,0.252,0.566,0.564,0.566h1.887h8.472h1.887
		c0.311,0,0.564-0.253,0.564-0.566v-6.236c0.004-0.312-0.246-0.57-0.557-0.574c-0.314-0.004-0.57,0.246-0.574,0.558
		c0,0.005,0,0.011,0,0.017v5.67h-1.32H5.848h-1.32v-1.32v-4.35c0.004-0.312-0.248-0.569-0.561-0.572
		C3.963,962.163,3.959,962.163,3.955,962.164z"/>
</g>
<g>
	<path fill="#C96E2B" d="M16.554,20l0.033,0.033L16.554,22L3.586,21.967L3.619,20H16.554 M16.554,19H3.619
		c-0.568,0-1.033,0.465-1.033,1.033v1.934C2.586,22.535,3.051,23,3.619,23h12.935c0.568,0,1.033-0.465,1.033-1.033v-1.934
		C17.587,19.465,17.122,19,16.554,19L16.554,19z"/>
	<path fill="#C96E2B" d="M16.554,26l0.033,0.033L16.554,28L3.586,27.967L3.619,26H16.554 M16.554,25H3.619
		c-0.568,0-1.033,0.465-1.033,1.033v1.934C2.586,28.535,3.051,29,3.619,29h12.935c0.568,0,1.033-0.465,1.033-1.033v-1.934
		C17.587,25.465,17.122,25,16.554,25L16.554,25z"/>
	<path fill="#C96E2B" d="M16.554,32l0.033,0.033L16.554,34L3.586,33.967L3.619,32H16.554 M16.554,31H3.619
		c-0.568,0-1.033,0.465-1.033,1.033v1.934C2.586,34.535,3.051,35,3.619,35h12.935c0.568,0,1.033-0.465,1.033-1.033v-1.934
		C17.587,31.465,17.122,31,16.554,31L16.554,31z"/>
</g>
<g>
	<path fill="#C96E2B" d="M16.555,92l0.033,0.033L16.555,106l-12.968-0.033L3.62,92H16.555 M16.555,91H3.62
		c-0.568,0-1.033,0.465-1.033,1.033v13.934c0,0.568,0.465,1.033,1.033,1.033h12.935c0.568,0,1.033-0.465,1.033-1.033V92.034
		C17.588,91.465,17.123,91,16.555,91L16.555,91z"/>
	<rect x="5.581" y="95.397" fill="#C96E2B" width="9.335" height="1"/>
	<rect x="5.581" y="98.397" fill="#C96E2B" width="9.335" height="1"/>
	<rect x="5.581" y="101.397" fill="#C96E2B" width="9.335" height="1"/>
</g>
<g>
	<path fill="#C96E2B" d="M5.185,119.147c0.199,0.131,0.319,0.262,0.329,0.51c0,0.281-0.239,0.551-0.52,0.551
		c-0.17,0-0.31-0.09-0.43-0.17l-4.108-2.729c-0.219-0.141-0.369-0.25-0.369-0.539c-0.01-0.281,0.15-0.4,0.369-0.541l4.118-2.738
		c0.12-0.08,0.26-0.15,0.409-0.15c0.291,0,0.521,0.26,0.53,0.541c0,0.26-0.159,0.398-0.35,0.529l-3.558,2.359L5.185,119.147z"/>
	<path fill="#C96E2B" d="M8.516,120.538c-0.12,0.209-0.239,0.35-0.489,0.35s-0.5-0.211-0.5-0.471c0-0.189,0.12-0.359,0.22-0.52
		l3.738-6.406c0.121-0.199,0.24-0.379,0.49-0.379c0.26,0,0.49,0.209,0.49,0.469c0,0.16-0.051,0.279-0.111,0.391L8.516,120.538z"/>
	<path fill="#C96E2B" d="M18.395,116.77l-3.557-2.359c-0.191-0.131-0.35-0.27-0.35-0.529c0.01-0.281,0.238-0.541,0.529-0.541
		c0.15,0,0.289,0.07,0.41,0.15l4.117,2.738c0.219,0.141,0.379,0.26,0.369,0.541c0,0.289-0.15,0.398-0.369,0.539l-4.107,2.729
		c-0.121,0.08-0.26,0.17-0.43,0.17c-0.281,0-0.52-0.27-0.52-0.551c0.01-0.248,0.129-0.379,0.328-0.51L18.395,116.77z"/>
</g>
<g id="Layer_1_2_">
	<path fill="#C96E2B" d="M14.998,129.375H4.997c-1.379,0-2.5,1.121-2.5,2.5v6.25c0,1.379,1.121,2.5,2.5,2.5h10.001
		c1.379,0,2.5-1.121,2.5-2.5v-6.25C17.498,130.496,16.377,129.375,14.998,129.375z M16.436,138.177c0,0.707-0.58,1.391-1.287,1.391
		H4.847c-0.707,0-1.287-0.684-1.287-1.391v-4.867l5.014,3.51c0.398,0.279,0.911,0.42,1.424,0.42c0.512,0,1.024-0.141,1.425-0.42
		l5.014-3.51V138.177z M10.683,135.855c-0.36,0.252-1.012,0.252-1.372,0l-5.746-4.021c0-0.709,0.578-1.287,1.286-1.287h10.291
		c0.709,0,1.287,0.578,1.287,1.287L10.683,135.855z"/>
</g>
<g id="Your_Icon_3_">
	<path fill="#C96E2B" d="M10.086,37.5c-4.143,0-7.5,3.357-7.5,7.5c0,4.141,3.357,7.5,7.5,7.5c4.142,0,7.501-3.359,7.501-7.5
		C17.587,40.857,14.228,37.5,10.086,37.5z M10.086,51.455c-3.565,0-6.455-2.891-6.455-6.455c0-3.566,2.89-6.457,6.455-6.457
		s6.456,2.891,6.456,6.457C16.542,48.564,13.651,51.455,10.086,51.455z"/>
	<polygon fill="#C96E2B" points="8.35,47.508 7.646,46.799 9.67,44.791 9.67,40.299 10.67,40.299 10.67,45.207 	"/>
</g>
<g id="Your_Icon_2_">
	<path fill="#C96E2B" d="M10.086,73.5c-4.143,0-7.5,3.359-7.5,7.5c0,4.143,3.357,7.5,7.5,7.5c4.142,0,7.501-3.357,7.501-7.5
		C17.587,76.86,14.228,73.5,10.086,73.5z M10.086,87.458c-3.565,0-6.455-2.891-6.455-6.457c0-3.564,2.89-6.455,6.455-6.455
		s6.456,2.891,6.456,6.455C16.542,84.567,13.651,87.458,10.086,87.458z"/>
	<g>
		<path fill="#C96E2B" d="M10.053,77.26c0.199,0,0.367,0.062,0.504,0.191c0.145,0.145,0.215,0.312,0.215,0.504
			c0,0.207-0.07,0.375-0.215,0.504c-0.137,0.129-0.305,0.191-0.504,0.191c-0.209,0-0.377-0.062-0.504-0.191
			c-0.145-0.129-0.217-0.297-0.217-0.504c0-0.191,0.072-0.359,0.217-0.504C9.676,77.323,9.844,77.26,10.053,77.26z M9.429,84.743
			v-5.047h1.308v5.047H9.429z"/>
	</g>
</g>
<g>
	<path fill="#C96E2B" d="M4.982,65.211c0.158,0,0.313-0.066,0.426-0.18c0.229-0.236,0.225-0.615-0.01-0.846L2.64,61.499
		c-0.055-0.055-0.073-0.129-0.05-0.201c0.024-0.074,0.085-0.123,0.161-0.135l3.81-0.553c0.157-0.023,0.296-0.105,0.392-0.234
		c0.096-0.129,0.135-0.287,0.112-0.443c-0.046-0.322-0.316-0.553-0.676-0.506l-3.81,0.555c-0.527,0.074-0.958,0.438-1.123,0.945
		c-0.166,0.508-0.031,1.055,0.351,1.428l2.757,2.686C4.676,65.151,4.824,65.211,4.982,65.211z"/>
	<path fill="#C96E2B" d="M9.069,68.333l-3.407,1.789c-0.066,0.037-0.15,0.029-0.208-0.012c-0.063-0.047-0.092-0.117-0.078-0.193
		l0.65-3.795c0.056-0.326-0.163-0.635-0.488-0.691c-0.336-0.057-0.635,0.168-0.69,0.488l-0.65,3.795
		c-0.09,0.525,0.122,1.047,0.554,1.361c0.242,0.176,0.524,0.268,0.816,0.268c0.221,0,0.445-0.057,0.649-0.162l3.407-1.791
		c0.291-0.154,0.404-0.518,0.251-0.807C9.728,68.299,9.353,68.182,9.069,68.333z"/>
	<path fill="#C96E2B" d="M15.324,65.918c-0.055-0.32-0.36-0.545-0.69-0.488c-0.157,0.027-0.295,0.113-0.388,0.244
		c-0.092,0.131-0.127,0.289-0.1,0.447l0.65,3.793c0.012,0.076-0.018,0.148-0.078,0.193s-0.143,0.049-0.208,0.016l-3.407-1.791
		c-0.282-0.148-0.658-0.033-0.805,0.248c-0.155,0.289-0.044,0.652,0.249,0.809l3.408,1.791c0.203,0.105,0.427,0.162,0.648,0.162
		c0.292,0,0.574-0.094,0.818-0.27c0.43-0.312,0.641-0.834,0.553-1.359L15.324,65.918z"/>
	<path fill="#C96E2B" d="M18.717,60.928c-0.164-0.508-0.594-0.869-1.122-0.947l-3.811-0.555c-0.329-0.045-0.63,0.186-0.676,0.504
		c-0.024,0.158,0.015,0.316,0.11,0.445c0.096,0.127,0.234,0.211,0.393,0.234l3.811,0.551c0.076,0.012,0.135,0.062,0.159,0.137
		c0.024,0.072,0.007,0.146-0.05,0.201l-2.758,2.688c-0.113,0.111-0.178,0.26-0.18,0.42c-0.002,0.158,0.058,0.309,0.169,0.424
		c0.114,0.117,0.267,0.182,0.429,0.182c0.156,0,0.305-0.061,0.416-0.17l2.758-2.688C18.747,61.981,18.882,61.434,18.717,60.928z"/>
	<path fill="#C96E2B" d="M11.967,59.415c0.144,0.285,0.517,0.412,0.799,0.27c0.294-0.145,0.416-0.504,0.272-0.799l-1.704-3.453
		c-0.234-0.479-0.713-0.775-1.248-0.775c-0.534,0-1.011,0.297-1.247,0.775l-1.705,3.453c-0.144,0.295-0.022,0.652,0.271,0.799
		c0.083,0.041,0.171,0.062,0.264,0.062c0.229,0,0.434-0.127,0.537-0.332l1.703-3.453c0.069-0.137,0.288-0.137,0.355,0L11.967,59.415
		z"/>
</g>
</svg>
