<?xml version="1.0" encoding="utf-8"?>
<!-- Generator: Adobe Illustrator 16.0.0, SVG Export Plug-In . SVG Version: 6.00 Build 0)  -->
<!DOCTYPE svg PUBLIC "-//W3C//DTD SVG 1.1//EN" "http://www.w3.org/Graphics/SVG/1.1/DTD/svg11.dtd">
<svg version="1.1" id="Layer_1" xmlns="http://www.w3.org/2000/svg" xmlns:xlink="http://www.w3.org/1999/xlink" x="0px" y="0px"
	 width="24px" height="23.812px" viewBox="0 0 24 23.812" enable-background="new 0 0 24 23.812" xml:space="preserve">
<g>
	<path fill="#D8BC48" d="M23.812,19.089c0,2.599-2.127,4.725-4.726,4.725H4.912c-2.598,0-4.725-2.126-4.725-4.725V4.912
		c0-2.599,2.126-4.726,4.725-4.726h14.176c2.6,0,4.725,2.126,4.725,4.726V19.089L23.812,19.089z"/>
	<path fill="#FFFFFF" d="M19.2,1C21.296,1,23,2.705,23,4.8v14.401c0,2.096-1.704,3.8-3.8,3.8H4.8c-2.095,0-3.8-1.704-3.8-3.8V4.8
		C1,2.705,2.705,1,4.8,1H19.2 M19.2,0H4.8C2.16,0,0,2.16,0,4.8v14.401c0,2.64,2.16,4.8,4.8,4.8h14.4c2.64,0,4.8-2.16,4.8-4.8V4.8
		C24,2.16,21.84,0,19.2,0L19.2,0z"/>
</g>
<g>
	<path fill="#FFFFFF" d="M11.545,13.12H7.658v-1.738h3.887V7.397h1.758v3.984h3.896v1.738h-3.896v3.965h-1.758V13.12z"/>
</g>
</svg>
