<?xml version="1.0" encoding="utf-8"?>
<!-- Generator: Adobe Illustrator 16.0.0, SVG Export Plug-In . SVG Version: 6.00 Build 0)  -->
<!DOCTYPE svg PUBLIC "-//W3C//DTD SVG 1.1//EN" "http://www.w3.org/Graphics/SVG/1.1/DTD/svg11.dtd">
<svg version="1.1" id="Layer_1" xmlns="http://www.w3.org/2000/svg" xmlns:xlink="http://www.w3.org/1999/xlink" x="0px" y="0px"
	 width="21px" height="21px" viewBox="0 0 21 21" enable-background="new 0 0 21 21" xml:space="preserve">
<g>
	<path fill="#EAD8A2" d="M10.5,20.157c-5.366,0-9.731-4.332-9.731-9.658c0-5.325,4.365-9.657,9.731-9.657s9.73,4.332,9.73,9.657
		C20.23,15.825,15.866,20.157,10.5,20.157z M10.5,2.063c-4.692,0-8.511,3.784-8.511,8.436c0,4.651,3.818,8.437,8.511,8.437
		c4.693,0,8.512-3.785,8.512-8.437C19.012,5.847,15.191,2.063,10.5,2.063z"/>
</g>
<g>
	<path fill="#EAD8A2" d="M11.307,8.083c0-0.601-0.396-0.923-0.98-0.923c-0.542,0-0.938,0.278-1.333,0.674L7.806,6.75
		c0.659-0.791,1.582-1.333,2.666-1.333c1.655,0,2.9,0.776,2.9,2.505c0,1.816-2.197,2.358-2.021,4.102H9.461
		C9.168,10.016,11.307,9.181,11.307,8.083z M10.398,12.872c0.747,0,1.304,0.586,1.304,1.362c0,0.763-0.558,1.349-1.304,1.349
		c-0.747,0-1.289-0.586-1.289-1.349C9.109,13.458,9.651,12.872,10.398,12.872z"/>
</g>
</svg>
