<?xml version="1.0" encoding="utf-8"?>
<!-- Generator: Adobe Illustrator 16.0.0, SVG Export Plug-In . SVG Version: 6.00 Build 0)  -->
<!DOCTYPE svg PUBLIC "-//W3C//DTD SVG 1.1//EN" "http://www.w3.org/Graphics/SVG/1.1/DTD/svg11.dtd">
<svg version="1.1" id="Layer_1" xmlns="http://www.w3.org/2000/svg" xmlns:xlink="http://www.w3.org/1999/xlink" x="0px" y="0px"
	 width="20px" height="17px" viewBox="3 101.5 20 17" enable-background="new 3 101.5 20 17" xml:space="preserve">
<g>
	<path fill="#656565" d="M19.73,102.396H6.271c-1.183,0-2.146,0.963-2.146,2.146v9.918c0,1.183,0.963,2.146,2.146,2.146h13.46
		c1.183,0,2.145-0.963,2.145-2.146v-9.918C21.875,103.358,20.913,102.396,19.73,102.396z M5.583,109.396h14.833v5.063
		c0,0.379-0.308,0.688-0.686,0.688H6.271c-0.379,0-0.688-0.309-0.688-0.688V109.396z M6.271,103.854h13.46
		c0.378,0,0.686,0.309,0.686,0.688v3.396H5.583v-3.396C5.583,104.162,5.892,103.854,6.271,103.854z"/>
	<circle fill="#656565" cx="7.333" cy="105.875" r="0.958"/>
	<circle fill="#656565" cx="10.458" cy="105.875" r="0.958"/>
	<circle fill="#656565" cx="13.584" cy="105.875" r="0.958"/>
</g>
</svg>
