<?xml version="1.0" encoding="utf-8"?>
<!-- Generator: Adobe Illustrator 16.0.0, SVG Export Plug-In . SVG Version: 6.00 Build 0)  -->
<!DOCTYPE svg PUBLIC "-//W3C//DTD SVG 1.1//EN" "http://www.w3.org/Graphics/SVG/1.1/DTD/svg11.dtd">
<svg version="1.1" id="Layer_1" xmlns="http://www.w3.org/2000/svg" xmlns:xlink="http://www.w3.org/1999/xlink" x="0px" y="0px"
	 width="17px" height="23px" viewBox="-0.04 -0.104 17 23" enable-background="new -0.04 -0.104 17 23" xml:space="preserve">
<g>
	<circle fill="#D67456" cx="8.46" cy="8.355" r="0.835"/>
	<path fill="#D67456" d="M8.46,5.615c-1.512,0-2.741,1.229-2.741,2.741c0,1.511,1.229,2.739,2.741,2.739s2.741-1.229,2.741-2.739
		C11.201,6.844,9.972,5.615,8.46,5.615z M8.46,10.19c-1.011,0-1.833-0.823-1.833-1.834c0-1.012,0.822-1.836,1.833-1.836
		s1.833,0.824,1.833,1.836C10.293,9.367,9.471,10.19,8.46,10.19z"/>
	<path fill="#D67456" d="M8.46-0.104C3.795-0.104,0,3.691,0,8.356c0,1.489,0.392,2.951,1.133,4.228l5.155,8.928
		c0.509,0.881,1.301,1.385,2.173,1.385c0.87,0,1.661-0.504,2.171-1.385l5.154-8.924c0.741-1.282,1.134-2.745,1.134-4.232
		C16.92,3.691,13.125-0.104,8.46-0.104z M15,12.135l-5.155,8.926C9.505,21.65,9,21.99,8.46,21.99s-1.045-0.34-1.386-0.932
		L1.92,12.133c-0.662-1.137-1.012-2.444-1.012-3.777c0-4.166,3.388-7.554,7.552-7.554s7.552,3.389,7.552,7.554
		C16.012,9.689,15.662,10.996,15,12.135z"/>
</g>
</svg>
