<?xml version="1.0" encoding="utf-8"?>
<!-- Generator: Adobe Illustrator 16.0.0, SVG Export Plug-In . SVG Version: 6.00 Build 0)  -->
<!DOCTYPE svg PUBLIC "-//W3C//DTD SVG 1.1//EN" "http://www.w3.org/Graphics/SVG/1.1/DTD/svg11.dtd">
<svg version="1.1" id="Layer_1" xmlns="http://www.w3.org/2000/svg" xmlns:xlink="http://www.w3.org/1999/xlink" x="0px" y="0px"
	 width="22px" height="25px" viewBox="0 0 22 25" enable-background="new 0 0 22 25" xml:space="preserve">
<path fill="none" d="M9.09,11.294c2.319,0,4.205-1.953,4.205-4.354c0-2.401-1.886-4.354-4.205-4.354
	c-2.32,0-4.206,1.954-4.206,4.354C4.884,9.341,6.77,11.294,9.09,11.294z"/>
<path fill="#3C4352" d="M9.022,20.655c-4.153,0-6.451-0.782-6.85-1.233c0.35-3.799,3.051-6.215,6.918-6.215
	c1.256,0,2.374,0.221,3.325,0.657c0.742-0.572,1.604-0.992,2.546-1.215c-0.43-0.395-0.898-0.737-1.407-1.003
	c0.958-1.029,1.912-2.37,1.912-4.704c0-3.639-2.86-6.601-6.376-6.601c-3.517,0-6.377,2.962-6.377,6.601
	c0,2.336,1.111,3.646,2.003,4.68C1.842,13.122,0,16.939,0,19.509c0,3.061,6.309,3.392,9.022,3.392c0.519,0,1.169-0.012,1.882-0.054
	c-0.436-0.663-0.757-1.408-0.936-2.208C9.663,20.648,9.351,20.655,9.022,20.655z M9.09,2.586c2.319,0,4.205,1.953,4.205,4.354
	s-1.886,4.354-4.205,4.354c-2.32,0-4.206-1.953-4.206-4.354C4.884,4.54,6.77,2.586,9.09,2.586z"/>
<path fill="#3C4352" d="M22,19.911v-1.478l-0.799-0.285c-0.305-0.107-0.55-0.34-0.674-0.639l0,0c-0.124-0.3-0.114-0.637,0.023-0.93
	l0.364-0.766l-1.046-1.046l-0.765,0.364c-0.293,0.139-0.63,0.148-0.931,0.023l0,0c-0.299-0.125-0.53-0.369-0.64-0.674l-0.284-0.799
	h-1.479l-0.283,0.799c-0.107,0.305-0.341,0.55-0.639,0.674h-0.002c-0.299,0.125-0.636,0.115-0.929-0.023l-0.766-0.364l-1.046,1.046
	l0.364,0.766c0.139,0.291,0.147,0.631,0.024,0.93c0,0,0,0-0.001,0c-0.124,0.299-0.368,0.531-0.673,0.639l-0.799,0.285v1.478
	l0.799,0.284c0.305,0.108,0.549,0.341,0.673,0.639c0.001,0,0.001,0,0.001,0c0.123,0.301,0.115,0.638-0.024,0.932l-0.364,0.765
	l1.046,1.046l0.766-0.364c0.291-0.14,0.63-0.147,0.929-0.024c0.002,0,0.002,0,0.002,0c0.299,0.125,0.531,0.369,0.639,0.674
	l0.283,0.799h1.479l0.283-0.793c0.109-0.308,0.344-0.555,0.645-0.68v-0.001c0.297-0.124,0.631-0.114,0.921,0.022l0.771,0.367
	l1.045-1.046l-0.363-0.765c-0.138-0.294-0.147-0.631-0.023-0.931v-0.001c0.124-0.298,0.369-0.53,0.674-0.639L22,19.911z
	 M16.512,21.183c-1.111,0-2.012-0.9-2.012-2.012s0.9-2.012,2.012-2.012s2.013,0.9,2.013,2.012S17.623,21.183,16.512,21.183z"/>
</svg>
