<?xml version="1.0" encoding="utf-8"?>
<!-- Generator: Adobe Illustrator 16.0.0, SVG Export Plug-In . SVG Version: 6.00 Build 0)  -->
<!DOCTYPE svg PUBLIC "-//W3C//DTD SVG 1.1//EN" "http://www.w3.org/Graphics/SVG/1.1/DTD/svg11.dtd">
<svg version="1.1" id="Layer_1" xmlns="http://www.w3.org/2000/svg" xmlns:xlink="http://www.w3.org/1999/xlink" x="0px" y="0px"
	 width="32px" height="32px" viewBox="0 0 32 32" enable-background="new 0 0 32 32" xml:space="preserve">
<g>
	<polygon fill="#6B6B6B" points="32,32 20.521,32 12.174,32 0,32 0,0 32,0 	"/>
</g>
<g>
	<g>
		<g>
			<path fill="#FFFFFF" d="M12.441,23.666c0,0.385-0.315,0.7-0.7,0.7H8.7c-0.385,0-0.7-0.315-0.7-0.7v-9.825
				c0-0.385,0.315-0.7,0.7-0.7h3.041c0.385,0,0.7,0.315,0.7,0.7V23.666z"/>
		</g>
		<g>
			<path fill="#D8BC48" d="M12.441,11.201c0,0.385-0.315,0.7-0.7,0.7H8.7c-0.385,0-0.7-0.315-0.7-0.7V8.333
				c0-0.385,0.315-0.7,0.7-0.7h3.041c0.385,0,0.7,0.315,0.7,0.7V11.201z"/>
		</g>
		<g>
			<path fill="#FFFFFF" d="M18.221,23.666c0,0.385-0.315,0.7-0.7,0.7h-3.043c-0.385,0-0.7-0.315-0.7-0.7V19.56
				c0-0.385,0.315-0.7,0.7-0.7h3.043c0.385,0,0.7,0.315,0.7,0.7V23.666z"/>
		</g>
		<g>
			<path fill="#D8BC48" d="M18.221,16.919c0,0.385-0.315,0.7-0.7,0.7h-3.043c-0.385,0-0.7-0.315-0.7-0.7V8.333
				c0-0.385,0.315-0.7,0.7-0.7h3.043c0.385,0,0.7,0.315,0.7,0.7V16.919z"/>
		</g>
		<g>
			<path fill="#FFFFFF" d="M24,23.666c0,0.385-0.315,0.7-0.7,0.7h-3.043c-0.385,0-0.7-0.315-0.7-0.7v-5.867
				c0-0.385,0.315-0.7,0.7-0.7H23.3c0.385,0,0.7,0.315,0.7,0.7V23.666z"/>
		</g>
		<g>
			<path fill="#D8BC48" d="M24,15.159c0,0.385-0.315,0.7-0.7,0.7h-3.043c-0.385,0-0.7-0.315-0.7-0.7V8.333
				c0-0.385,0.315-0.7,0.7-0.7H23.3c0.385,0,0.7,0.315,0.7,0.7V15.159z"/>
		</g>
	</g>
</g>
</svg>
