<?xml version="1.0" encoding="utf-8"?>
<!-- Generator: Adobe Illustrator 16.0.0, SVG Export Plug-In . SVG Version: 6.00 Build 0)  -->
<!DOCTYPE svg PUBLIC "-//W3C//DTD SVG 1.1//EN" "http://www.w3.org/Graphics/SVG/1.1/DTD/svg11.dtd">
<svg version="1.1" id="Layer_1" xmlns="http://www.w3.org/2000/svg" xmlns:xlink="http://www.w3.org/1999/xlink" x="0px" y="0px"
	 width="21px" height="22px" viewBox="0.5 100.5 21 22" enable-background="new 0.5 100.5 21 22" xml:space="preserve">
<g>
	<path fill="#D8BC48" d="M17.639,104.543c0.682,0,1.238,0.559,1.238,1.24v13.225c0,0.682-0.557,1.24-1.238,1.24H2.74
		c-0.682,0-1.24-0.559-1.24-1.24v-13.225c0-0.682,0.559-1.24,1.24-1.24H17.639 M17.639,103.543H2.74c-1.235,0-2.24,1.005-2.24,2.24
		v13.225c0,1.234,1.005,2.24,2.24,2.24h14.898c1.233,0,2.238-1.006,2.238-2.24v-13.225
		C19.877,104.548,18.873,103.543,17.639,103.543L17.639,103.543z"/>
	<g>
		<path fill="#585F6B" d="M14.859,105.031c0,0.402-0.327,0.729-0.729,0.729l0,0c-0.401,0-0.729-0.326-0.729-0.729v-2.844
			c0-0.401,0.326-0.729,0.729-0.729l0,0c0.402,0,0.729,0.327,0.729,0.729V105.031z"/>
		<path fill="#F6F7F7" d="M14.13,101.459c0.402,0,0.729,0.327,0.729,0.729v2.844c0,0.402-0.327,0.729-0.729,0.729
			c-0.401,0-0.729-0.326-0.729-0.729v-2.844C13.4,101.786,13.729,101.459,14.13,101.459 M14.13,100.959
			c-0.678,0-1.229,0.551-1.229,1.229v2.844c0,0.678,0.552,1.229,1.229,1.229c0.679,0,1.229-0.551,1.229-1.229v-2.844
			C15.359,101.51,14.809,100.959,14.13,100.959L14.13,100.959z"/>
	</g>
	<g>
		<path fill="#585F6B" d="M7.03,105.031c0,0.402-0.326,0.729-0.729,0.729l0,0c-0.402,0-0.729-0.326-0.729-0.729v-2.844
			c0-0.401,0.326-0.729,0.729-0.729l0,0c0.403,0,0.729,0.327,0.729,0.729V105.031z"/>
		<path fill="#F6F7F7" d="M6.301,101.459c0.403,0,0.729,0.327,0.729,0.729v2.844c0,0.402-0.326,0.729-0.729,0.729
			c-0.402,0-0.729-0.326-0.729-0.729v-2.844C5.572,101.786,5.898,101.459,6.301,101.459 M6.301,100.959
			c-0.678,0-1.229,0.551-1.229,1.229v2.844c0,0.678,0.551,1.229,1.229,1.229c0.678,0,1.229-0.552,1.229-1.229v-2.844
			C7.53,101.51,6.979,100.959,6.301,100.959L6.301,100.959z"/>
	</g>
	<circle fill="#585F6B" cx="7.632" cy="108.737" r="0.699"/>
	<circle fill="#585F6B" cx="10.343" cy="108.737" r="0.7"/>
	<circle fill="#585F6B" cx="12.995" cy="108.737" r="0.699"/>
	<circle fill="#585F6B" cx="15.663" cy="108.737" r="0.7"/>
	<circle fill="#585F6B" cx="7.632" cy="111.536" r="0.699"/>
	<circle fill="#585F6B" cx="10.343" cy="111.536" r="0.7"/>
	<circle fill="#585F6B" cx="4.716" cy="111.536" r="0.7"/>
	<circle fill="#585F6B" cx="12.995" cy="111.536" r="0.699"/>
	<circle fill="#585F6B" cx="15.663" cy="111.536" r="0.7"/>
	<circle fill="#585F6B" cx="7.632" cy="114.207" r="0.699"/>
	<circle fill="#585F6B" cx="10.343" cy="114.207" r="0.7"/>
	<circle fill="#585F6B" cx="4.716" cy="114.207" r="0.7"/>
	<circle fill="#585F6B" cx="7.632" cy="117.199" r="0.699"/>
	<circle fill="#585F6B" cx="10.343" cy="117.199" r="0.7"/>
	<circle fill="#585F6B" cx="4.716" cy="117.199" r="0.7"/>
	<circle fill="#585F6B" cx="12.995" cy="114.207" r="0.699"/>
	<circle fill="#585F6B" cx="15.663" cy="114.207" r="0.7"/>
</g>
</svg>
