<?xml version="1.0" encoding="utf-8"?>
<!-- Generator: Adobe Illustrator 16.0.0, SVG Export Plug-In . SVG Version: 6.00 Build 0)  -->
<!DOCTYPE svg PUBLIC "-//W3C//DTD SVG 1.1//EN" "http://www.w3.org/Graphics/SVG/1.1/DTD/svg11.dtd">
<svg version="1.1" id="Layer_1" xmlns="http://www.w3.org/2000/svg" xmlns:xlink="http://www.w3.org/1999/xlink" x="0px" y="0px"
	 width="21px" height="22px" viewBox="0 0 21 22" enable-background="new 0 0 21 22" xml:space="preserve">
<g>
	<path fill="#00A1D3" d="M17.139,4.043c0.682,0,1.238,0.558,1.238,1.24v13.225c0,0.682-0.557,1.24-1.238,1.24H2.24
		c-0.682,0-1.24-0.559-1.24-1.24V5.283c0-0.682,0.559-1.24,1.24-1.24H17.139 M17.139,3.043H2.24C1.005,3.043,0,4.048,0,5.283v13.225
		c0,1.234,1.005,2.24,2.24,2.24h14.898c1.234,0,2.239-1.006,2.239-2.24V5.283C19.377,4.048,18.373,3.043,17.139,3.043L17.139,3.043z
		"/>
	<g>
		<path fill="#585F6B" d="M14.359,4.531c0,0.402-0.327,0.729-0.729,0.729l0,0c-0.402,0-0.729-0.327-0.729-0.729V1.688
			c0-0.402,0.326-0.729,0.729-0.729l0,0c0.402,0,0.729,0.327,0.729,0.729V4.531z"/>
		<path fill="#F6F7F7" d="M13.63,0.959c0.402,0,0.729,0.327,0.729,0.729v2.843c0,0.402-0.327,0.729-0.729,0.729
			s-0.729-0.327-0.729-0.729V1.688C12.901,1.286,13.228,0.959,13.63,0.959 M13.63,0.459c-0.678,0-1.229,0.551-1.229,1.229v2.843
			c0,0.678,0.551,1.229,1.229,1.229s1.229-0.551,1.229-1.229V1.688C14.859,1.01,14.308,0.459,13.63,0.459L13.63,0.459z"/>
	</g>
	<g>
		<path fill="#585F6B" d="M6.53,4.531c0,0.402-0.326,0.729-0.729,0.729l0,0c-0.402,0-0.729-0.327-0.729-0.729V1.688
			c0-0.402,0.326-0.729,0.729-0.729l0,0c0.403,0,0.729,0.327,0.729,0.729V4.531z"/>
		<path fill="#F6F7F7" d="M5.801,0.959c0.403,0,0.729,0.327,0.729,0.729v2.843c0,0.402-0.326,0.729-0.729,0.729
			c-0.402,0-0.729-0.327-0.729-0.729V1.688C5.072,1.286,5.398,0.959,5.801,0.959 M5.801,0.459c-0.678,0-1.229,0.551-1.229,1.229
			v2.843c0,0.678,0.551,1.229,1.229,1.229S7.03,5.208,7.03,4.531V1.688C7.03,1.01,6.479,0.459,5.801,0.459L5.801,0.459z"/>
	</g>
	<circle fill="#585F6B" cx="7.132" cy="8.237" r="0.699"/>
	<circle fill="#585F6B" cx="9.843" cy="8.237" r="0.7"/>
	<circle fill="#585F6B" cx="12.495" cy="8.237" r="0.699"/>
	<circle fill="#585F6B" cx="15.163" cy="8.237" r="0.7"/>
	<circle fill="#585F6B" cx="7.132" cy="11.036" r="0.699"/>
	<circle fill="#585F6B" cx="9.843" cy="11.036" r="0.7"/>
	<circle fill="#585F6B" cx="4.216" cy="11.036" r="0.7"/>
	<circle fill="#585F6B" cx="12.495" cy="11.036" r="0.699"/>
	<circle fill="#585F6B" cx="15.163" cy="11.036" r="0.7"/>
	<circle fill="#585F6B" cx="7.132" cy="13.707" r="0.699"/>
	<circle fill="#585F6B" cx="9.843" cy="13.707" r="0.7"/>
	<circle fill="#585F6B" cx="4.216" cy="13.707" r="0.7"/>
	<circle fill="#585F6B" cx="7.132" cy="16.699" r="0.699"/>
	<circle fill="#585F6B" cx="9.843" cy="16.699" r="0.7"/>
	<circle fill="#585F6B" cx="4.216" cy="16.699" r="0.7"/>
	<circle fill="#585F6B" cx="12.495" cy="13.707" r="0.699"/>
	<circle fill="#585F6B" cx="15.163" cy="13.707" r="0.7"/>
</g>
</svg>
