<?xml version="1.0" encoding="utf-8"?>
<!-- Generator: Adobe Illustrator 16.0.0, SVG Export Plug-In . SVG Version: 6.00 Build 0)  -->
<!DOCTYPE svg PUBLIC "-//W3C//DTD SVG 1.1//EN" "http://www.w3.org/Graphics/SVG/1.1/DTD/svg11.dtd">
<svg version="1.1" id="Layer_1" xmlns="http://www.w3.org/2000/svg" xmlns:xlink="http://www.w3.org/1999/xlink" x="0px" y="0px"
	 width="335px" height="41px" viewBox="-8.875 101.042 335 41" enable-background="new -8.875 101.042 335 41" xml:space="preserve"
	>
<g>
	<g>
		<path fill="#F3D952" d="M263.624,142.042c-11.304,0-20.499-9.197-20.499-20.5c0-11.305,9.195-20.5,20.499-20.5
			s20.501,9.195,20.501,20.5S274.928,142.042,263.624,142.042z"/>
	</g>
	<g opacity="0.8">
		<path fill="none" stroke="#3C4352" stroke-miterlimit="10" d="M266.714,128.787c0.492,0,0.893,0.369,0.893,0.824
			s-0.399,0.823-0.893,0.823h-5.135c-0.071,0.008-0.127,0.066-0.127,0.141s0.056,0.133,0.13,0.141h4.51
			c0.492,0,0.892,0.369,0.892,0.823c0,0.456-0.398,0.823-0.892,0.823h-4.816c-0.078,0-0.142,0.062-0.142,0.143
			c0,0.075,0.062,0.139,0.144,0.139h3.821c0.492,0,0.892,0.369,0.892,0.824c0,0.457-0.398,0.824-0.892,0.824h-11.053
			c-0.202,0-0.389-0.062-0.539-0.166l-0.036-0.029c-0.97-0.73-1.617-2.033-1.617-3.519c0-1.454,0.625-2.745,1.563-3.481
			c0.046-0.041,2.741-1.92,2.741-1.92c0.191-0.154,0.354-0.244,0.634-0.248h3.653c0.492,0,0.892,0.367,0.892,0.824
			c0,0.455-0.397,1.012-0.892,1.012h-1.815c-0.056-0.002-0.135-0.031-0.147,0.041c-0.243,1.369-0.773,2.457-1.461,2.912
			c-0.143,0.094-0.142,0.094,0,0c0.744-0.494,1.182-1.49,1.446-2.84l7.663-0.021c0.493,0,0.892,0.369,0.892,0.824
			s-0.398,0.824-0.892,0.824h-4.221c-0.077,0-0.141,0.063-0.141,0.142c0,0.077,0.062,0.14,0.144,0.14L266.714,128.787
			L266.714,128.787z"/>
		<path opacity="0.8" fill="#00ADEE" enable-background="new    " d="M281.86,112.863h-7.973c-0.021-0.821-0.132-1.44-0.132-1.44
			h-1.503v-2.098h1.957c0.371,0,0.672-0.385,0.672-0.859c0-0.476-0.301-0.861-0.672-0.861h-5.699c-0.373,0-0.674,0.385-0.674,0.861
			c0,0.476,0.301,0.859,0.674,0.859h2.051v2.1h-1.69c0,0-0.104,0.619-0.11,1.439h-1.873c0,0-2.213,0.027-3.047,0.543
			c-0.909,0.562-1.519,1.098-1.487,4.658h2.907v-1.736c0,0-0.084-0.564,1.027-0.584c0.369-0.007,1.578-0.009,3.068-0.01
			c0.406,0.699,1.069,1.199,2.146,1.199c0.969,0,1.559-0.5,1.909-1.196c2.136,0.002,9.592,0.007,9.592,0.007L281.86,112.863
			L281.86,112.863z"/>
		<path opacity="0.8" fill="#00ADEE" enable-background="new    " d="M265.312,120.342c0.182,0.41-0.127,0.801-0.515,0.785
			c-0.387-0.016-0.663-0.431-0.448-0.822c0.219-0.407,0.387-0.553,0.521-0.976C264.97,119.762,265.126,119.92,265.312,120.342z"/>
		<path opacity="0.8" fill="#00ADEE" enable-background="new    " d="M263.286,125.042c0.182,0.409-0.127,0.801-0.513,0.784
			c-0.389-0.017-0.664-0.433-0.45-0.823c0.219-0.408,0.387-0.552,0.521-0.975C262.945,124.461,263.102,124.619,263.286,125.042z"/>
		<path opacity="0.8" fill="#00ADEE" enable-background="new    " d="M265.312,124.299c0.182,0.408-0.127,0.801-0.515,0.785
			c-0.387-0.016-0.663-0.432-0.448-0.824c0.219-0.406,0.387-0.551,0.521-0.976C264.97,123.719,265.126,123.877,265.312,124.299z"/>
		<path opacity="0.8" fill="#00ADEE" enable-background="new    " d="M263.286,120.342c0.182,0.408-0.127,0.801-0.515,0.785
			c-0.387-0.015-0.662-0.43-0.448-0.822c0.219-0.407,0.387-0.553,0.521-0.976C262.945,119.762,263.102,119.92,263.286,120.342z"/>
		<path opacity="0.8" fill="#00ADEE" enable-background="new    " d="M264.156,122.543c0.181,0.409-0.127,0.801-0.516,0.786
			c-0.386-0.016-0.662-0.432-0.449-0.825c0.22-0.406,0.388-0.552,0.521-0.975C263.814,121.963,263.971,122.122,264.156,122.543z"/>
	</g>
</g>
<g>
	<g>
		<path fill="#F3D952" d="M179.624,142.042c-11.304,0-20.499-9.196-20.499-20.499c0-11.305,9.195-20.5,20.499-20.5
			s20.501,9.195,20.501,20.5C200.125,132.846,190.928,142.042,179.624,142.042z"/>
	</g>
	<g opacity="0.8">
		<g>
			<path fill="none" d="M172.888,115.322v3.846l11.16,2.561l15.628-2.965c-0.179-1.272-0.473-2.506-0.881-3.691l-14.747,2.807
				C184.03,117.875,172.888,115.322,172.888,115.322z"/>
		</g>
		<path fill="#3C4352" d="M191.03,109.847l-19.2,3.641c-0.028,0.006-0.052,0.016-0.078,0.021c-0.021,0.006-0.04,0.01-0.061,0.017
			c-0.046,0.017-0.087,0.034-0.128,0.056c-0.006,0.004-0.012,0.004-0.018,0.008c-0.047,0.024-0.09,0.055-0.13,0.088
			c-0.012,0.01-0.021,0.021-0.034,0.033c-0.024,0.022-0.052,0.047-0.074,0.074c-0.014,0.016-0.023,0.032-0.035,0.049
			c-0.021,0.024-0.036,0.051-0.053,0.077c-0.011,0.019-0.019,0.036-0.026,0.056c-0.015,0.028-0.025,0.059-0.036,0.09
			c-0.004,0.012-0.01,0.021-0.012,0.031c-0.004,0.01-0.004,0.016-0.004,0.023c-0.008,0.031-0.013,0.062-0.017,0.096
			c-0.002,0.02-0.005,0.04-0.006,0.061c0,0.006-0.002,0.011-0.002,0.017v5.517c0,0.373,0.274,0.696,0.67,0.787l12.031,2.758
			c0.125,0.029,0.26,0.033,0.387,0.01l15.628-2.965c-0.031-0.549-0.083-1.09-0.158-1.625l-15.627,2.963l-11.162-2.561v-3.845
			c0,0,11.145,2.552,11.162,2.556l14.746-2.807c-0.479-1.396-1.113-2.717-1.877-3.956l-5.5-1.261
			C191.293,109.827,191.157,109.824,191.03,109.847z"/>
		<path fill="#3C4352" d="M181.81,130.083v1.666l2.01,0.463c0.125,0.028,0.261,0.031,0.387,0.01l13.988-2.653
			c0.259-0.587,0.489-1.188,0.69-1.802l-14.812,2.758L181.81,130.083z"/>
		<path fill="#3C4352" d="M183.72,125.007l-11.89-2.65c-0.028,0.006-0.052,0.015-0.078,0.021c-0.021,0.006-0.04,0.008-0.061,0.016
			c-0.046,0.016-0.087,0.035-0.128,0.057c-0.006,0.002-0.012,0.004-0.018,0.008c-0.047,0.024-0.09,0.055-0.13,0.088
			c-0.012,0.01-0.021,0.021-0.034,0.031c-0.024,0.023-0.052,0.047-0.074,0.075c-0.014,0.017-0.023,0.032-0.035,0.048
			c-0.021,0.025-0.036,0.051-0.053,0.078c-0.011,0.018-0.019,0.036-0.026,0.055c-0.015,0.029-0.025,0.059-0.036,0.09
			c-0.004,0.012-0.01,0.021-0.012,0.032c-0.004,0.009-0.004,0.017-0.004,0.022c-0.008,0.033-0.013,0.064-0.017,0.097
			c-0.002,0.021-0.005,0.04-0.006,0.06c0,0-0.002,0.013-0.002,0.018v5.516c0,0.372,0.274,0.696,0.67,0.786l4.058,0.933l0.006-1.682
			l-2.965-0.671v-3.843l11.188,2.47l15.692-2.92c0.058-0.528,0.079-1.065,0.097-1.604l-15.754,2.877
			C183.981,124.986,183.847,124.984,183.72,125.007z"/>
		<polygon fill="#D95D6A" points="176.978,135.857 178.75,134.841 180.524,136.831 180.524,128.406 176.978,127.599 		"/>
	</g>
</g>
<g>
	<g>
		<path fill="#F3D952" d="M305.625,142.042c-11.304,0-20.5-9.197-20.5-20.5c0-11.304,9.196-20.5,20.5-20.5s20.5,9.195,20.5,20.5
			C326.125,132.844,316.929,142.042,305.625,142.042z"/>
	</g>
	<g opacity="0.8">
		
			<ellipse fill="none" stroke="#3C4352" stroke-width="0.9491" stroke-miterlimit="10" cx="313.386" cy="114.104" rx="4.994" ry="5.016"/>
		<path fill="#3C4352" d="M318.38,114.614c0,0-4.361-1.119-8.603-4.414C309.777,110.198,317.63,106.161,318.38,114.614z"/>
		<path fill="#3C4352" d="M311.213,110.245c0,0-0.605,2.744-2.709,2.809C307.696,113.077,310.13,108.329,311.213,110.245z"/>
		<path fill="none" stroke="#00ADEE" stroke-width="0.949" stroke-miterlimit="10" d="M306.867,136.922c0,0,0-5.791,0-9.361
			s2.875-6.578,6.58-6.578s6.58,3.065,6.58,6.578c0,3.512,0,7.895,0,7.895"/>
		
			<line fill="none" stroke="#3C4352" stroke-width="0.9491" stroke-miterlimit="10" x1="316.154" y1="136.922" x2="316.154" y2="138.642"/>
		
			<line fill="none" stroke="#3C4352" stroke-width="0.9491" stroke-miterlimit="10" x1="310.738" y1="136.922" x2="310.738" y2="140.903"/>
	</g>
	<g opacity="0.8">
		<path fill="#3C4352" d="M290.777,117.274c0.703-0.094,3.087,0.121,3.641-1.226c0.507-1.226-0.523-1.79-0.715-1.875
			C291.812,113.325,290.655,116.073,290.777,117.274z"/>
		
			<ellipse fill="none" stroke="#3C4352" stroke-width="0.9491" stroke-miterlimit="10" cx="298.466" cy="111.55" rx="4.994" ry="5.017"/>
		<path fill="#3C4352" d="M303.46,112.059c0,0-4.198,0.504-7.39-4.912C296.07,107.149,302.359,104.692,303.46,112.059z"/>
		<path fill="#3C4352" d="M297.609,107.274c0,0-1.923,3.159-4.025,3.225C292.776,110.524,296.526,105.358,297.609,107.274z"/>
		<g>
			<path fill="none" d="M292.38,136.831c-0.195-0.164-0.378-0.34-0.566-0.51l-0.131,0.51H292.38z"/>
			<g>
				<path fill="none" d="M305.245,136.831l-2.187-8.373l-0.03-0.119v-0.121v-5.578c0-2.135-2.261-4.23-4.562-4.23
					c-2.252,0-4.58,1.713-4.58,4.58c0,3.27,0.002,5.164,0.002,5.164v0.121l-0.029,0.116l-2.045,7.931
					c0.188,0.17,0.371,0.346,0.566,0.51H305.245z"/>
			</g>
			<path fill="#D95D6A" d="M303.978,128.217c0,0,0-2.998,0-5.578s-2.597-5.179-5.512-5.179s-5.529,2.259-5.529,5.528
				c0,3.271,0.003,5.166,0.003,5.166l-1.915,7.432c0.253,0.256,0.522,0.492,0.79,0.734l2.044-7.931l0.029-0.116v-0.121
				c0,0-0.002-1.896-0.002-5.164c0-2.867,2.328-4.58,4.58-4.58c2.303,0,4.562,2.096,4.562,4.23v5.578v0.121l0.03,0.119l2.187,8.373
				H292.38c0.397,0.334,0.813,0.646,1.236,0.949h12.856L303.978,128.217z"/>
		</g>
		
			<line fill="none" stroke="#3C4352" stroke-width="0.9491" stroke-miterlimit="10" x1="301.214" y1="137.78" x2="301.214" y2="141.149"/>
		
			<line fill="none" stroke="#3C4352" stroke-width="0.9491" stroke-miterlimit="10" x1="295.631" y1="137.78" x2="295.631" y2="138.913"/>
	</g>
</g>
<g>
	<g>
		<path fill="#F3D952" d="M221.626,142.042c-11.304,0-20.501-9.196-20.501-20.499c0-11.305,9.197-20.5,20.501-20.5
			s20.499,9.195,20.499,20.5C242.125,132.846,232.93,142.042,221.626,142.042z"/>
	</g>
	<g opacity="0.8">
		<path fill="#D95D6A" d="M221.626,107.351v15.195h-11.153v-9.947c0,0,2.849-1.662,3.627-2.795
			C214.879,108.673,213.465,111.781,221.626,107.351z"/>
		<path opacity="0.8" fill="#00ADEE" enable-background="new    " d="M221.626,122.546v15.205c0,0,2.077-1.109,4.466-2.804
			c2.388-1.692,5.896-5.606,6.24-7.19c0.344-1.584,0-5.207,0-5.207L221.626,122.546z"/>
		<path fill="none" stroke="#3C4352" stroke-width="0.9391" stroke-miterlimit="10" d="M229.152,109.804
			c-3.381,0.529-7.526-2.455-7.526-2.455s-4.146,2.984-7.526,2.455c0,0-2.169,2.869-3.627,2.795c0,0,0,8.529,0,12.029
			c0,8.821,9.514,11.207,11.153,13.123c1.641-1.914,11.153-4.302,11.153-13.123c0-3.5,0-12.029,0-12.029
			C231.322,112.673,229.152,109.804,229.152,109.804z"/>
	</g>
</g>
<g>
	<g>
		<path fill="#F3D952" d="M53.625,142.042c-11.304,0-20.5-9.196-20.5-20.499c0-11.305,9.196-20.5,20.5-20.5s20.5,9.195,20.5,20.5
			C74.125,132.846,64.929,142.042,53.625,142.042z"/>
	</g>
	<g id="Faust_seitlich" opacity="0.8">
		<path fill="#3C4352" d="M66.074,124.925c-0.018-0.016-0.018-0.016-0.033-0.028l-2.622-2.179c-0.612-0.508-1.515-0.426-2.023,0.188
			c-0.198,0.238-0.314,0.516-0.318,0.8c-0.573-0.245-1.284-0.116-1.694,0.376c-0.424,0.512-0.435,1.25-0.057,1.766
			c-0.262,0.072-0.514,0.236-0.71,0.476c-0.425,0.511-0.437,1.249-0.059,1.765c-0.261,0.071-0.513,0.235-0.71,0.475
			c-0.51,0.613-0.426,1.518,0.188,2.025l2.638,2.19c0.035,0.028,0.068,0.058,0.104,0.085l0.102,0.085
			c2.229,1.853,3.495,2.271,4.418,2.577c0.535,0.188,0.925,0.309,1.333,0.646c0.137,0.112,0.354,0.094,0.468-0.043
			c0.112-0.137,0.093-0.354-0.044-0.469c-0.511-0.424-0.979-0.584-1.547-0.768c-0.764-0.26-1.783-0.59-3.458-1.865
			c0.244-0.086,0.451-0.229,0.635-0.451c0.426-0.51,0.436-1.25,0.059-1.766c0.26-0.07,0.513-0.234,0.71-0.473
			c0.354-0.427,0.426-0.998,0.21-1.467c0.425-0.165,0.834-0.484,1.304-1.018l0.511,0.427c-0.799,1.378,0.477,3.271,0.529,3.345
			c0.108,0.146,0.301,0.191,0.466,0.1c0.147-0.109,0.192-0.301,0.099-0.465c-0.018-0.015-1.222-1.82-0.372-2.842
			c0.112-0.137,0.092-0.354-0.043-0.468l-1.005-0.834c-0.067-0.058-0.164-0.08-0.244-0.088c-0.094,0.008-0.185,0.048-0.224,0.13
			c-0.607,0.73-1.077,1.092-1.559,1.15c-0.02-0.016-0.032,0.002-0.032,0.002c-0.343,0.031-0.717-0.106-1.122-0.413l0.128-0.154
			c0,0,0,0,0.015-0.017c0,0,0,0,0.014-0.018l1.754-2.111c0.155-0.188,0.381-0.287,0.637-0.246l0.031-0.004
			c0.425,0.009,1.625,0.086,2.17,0.539c2.128,1.768,2.733,2.873,3.185,3.681c0.285,0.522,0.528,0.957,1.038,1.381
			c0.138,0.112,0.354,0.093,0.47-0.043c0.112-0.138,0.093-0.354-0.044-0.468c-0.408-0.34-0.599-0.698-0.879-1.19
			c-0.473-0.853-1.114-2.019-3.345-3.87C66.851,125.167,66.478,125.029,66.074,124.925z M60.008,125.579
			c-0.324-0.269-0.37-0.769-0.101-1.09c0.268-0.324,0.767-0.37,1.091-0.103l0.612,0.511l1.189,0.987l-0.989,1.191l-1.156-0.961
			L60.008,125.579z M62.101,131.058c0.324,0.27,0.37,0.768,0.102,1.091c-0.254,0.307-0.705,0.362-1.025,0.126l-0.051-0.042
			c-0.019-0.015-0.034-0.028-0.052-0.042l-2.587-2.15c-0.323-0.268-0.369-0.767-0.101-1.09c0.27-0.322,0.768-0.369,1.09-0.102
			l1.991,1.656l0.646,0.534L62.101,131.058z M62.968,129.909c-0.269,0.324-0.767,0.369-1.09,0.103l-1.991-1.655l-0.646-0.537
			c-0.324-0.269-0.369-0.769-0.103-1.091c0.268-0.323,0.769-0.369,1.092-0.1l1.156,0.961l-0.141,0.17l0,0
			c-0.058,0.067-0.078,0.164-0.088,0.244c0.009,0.092,0.062,0.166,0.131,0.223c0.611,0.51,1.186,0.756,1.721,0.769
			C63.191,129.261,63.181,129.654,62.968,129.909z M63.353,125.222l-0.142,0.172l-1.191-0.99c-0.321-0.268-0.369-0.768-0.101-1.092
			c0.269-0.322,0.768-0.367,1.091-0.1l1.82,1.514c-0.142-0.004-0.219-0.012-0.283-0.006
			C64.089,124.683,63.648,124.865,63.353,125.222z"/>
	</g>
	<g>
		<g opacity="0.8">
			<path fill="none" stroke="#3C4352" stroke-width="0.9036" stroke-miterlimit="10" d="M46.571,127.22c0,0,1.554-0.525,2.07-0.525
				c0.518,0,2.072,0.525,2.072,0.525"/>
			<path fill="none" stroke="#D95D6A" stroke-width="0.9036" stroke-miterlimit="10" d="M40.566,136.859
				c1.141-3.475,4.326-5.795,8.077-5.795c3.845,0,7.094,2.438,8.159,6.057c0,0,0.261,0.971,0.862,3.998"/>
			<g>
				<path fill="none" stroke="#3C4352" stroke-width="0.9036" stroke-miterlimit="10" d="M37.68,118.899
					c0,0,3.895,0.532,7.643-5.392c0,0,4.372,6.834,14.283,4.431"/>
				<g>
					<g>
						<defs>
							<ellipse id="SVGID_4_" cx="48.643" cy="120.105" rx="9.48" ry="10.668"/>
						</defs>
						<clipPath id="SVGID_5_">
							<use xlink:href="#SVGID_4_"  overflow="visible"/>
						</clipPath>
						<path clip-path="url(#SVGID_5_)" fill="#3C4352" d="M38.852,118.738c2.746,0.799,6.256-5.23,6.256-5.23s4.229,6.14,13.7,4.75
							c0,0-1.756-8.008-7.29-9.396c-5.535-1.388-10.111,0.214-11.814,3.951S38.852,118.738,38.852,118.738z"/>
					</g>
					<g>
						
							<ellipse id="SVGID_1_" fill="none" stroke="#3C4352" stroke-width="0.9036" stroke-miterlimit="10" cx="48.643" cy="120.105" rx="9.48" ry="10.668"/>
					</g>
				</g>
			</g>
			<g>
				<path fill="none" stroke="#D95D6A" stroke-width="0.9036" stroke-miterlimit="10" d="M48.597,131.065
					c0.021,0.13,0.032,0.263,0.032,0.399c0,1.393-1.126,2.521-2.515,2.521c-1.018,0-1.893-0.604-2.288-1.475"/>
				<path fill="none" stroke="#D95D6A" stroke-width="0.9036" stroke-miterlimit="10" d="M53.46,132.446
					c-0.381,0.905-1.274,1.541-2.316,1.541c-1.389,0-2.515-1.13-2.515-2.522c0-0.137,0.011-0.27,0.031-0.398"/>
			</g>
		</g>
		<path opacity="0.8" fill="none" stroke="#3C4352" stroke-width="0.9038" stroke-miterlimit="10" enable-background="new    " d="
			M42.807,121.05c0,0,1.555-0.527,2.07-0.527c0.519,0,2.072,0.527,2.072,0.527"/>
		<path opacity="0.8" fill="none" stroke="#3C4352" stroke-width="0.9038" stroke-miterlimit="10" enable-background="new    " d="
			M50.308,121.05c0,0,1.555-0.527,2.071-0.527s2.072,0.527,2.072,0.527"/>
	</g>
	
		<line opacity="0.8" fill="none" stroke="#3C4352" stroke-width="0.9038" stroke-miterlimit="10" enable-background="new    " x1="61.703" y1="119.769" x2="61.578" y2="114.833"/>
	
		<line opacity="0.8" fill="none" stroke="#3C4352" stroke-width="0.9038" stroke-miterlimit="10" enable-background="new    " x1="65.703" y1="120.522" x2="67.828" y2="116.583"/>
	
		<line opacity="0.8" fill="none" stroke="#3C4352" stroke-width="0.9038" stroke-miterlimit="10" enable-background="new    " x1="69.203" y1="123.083" x2="72.391" y2="121.05"/>
</g>
<g>
	<g>
		<path fill="#F3D952" d="M137.625,142.042c-11.304,0-20.5-9.197-20.5-20.501c0-11.303,9.196-20.499,20.5-20.499
			s20.5,9.196,20.5,20.501C158.125,132.846,148.929,142.042,137.625,142.042z"/>
	</g>
	<g opacity="0.8">
		<path fill="none" stroke="#3C4352" stroke-width="0.9491" stroke-miterlimit="10" d="M147.917,138.761
			c0-0.627-0.048-1.241-0.14-1.842c-0.713-4.623-4.061-8.367-8.451-9.648v-0.965c0-4.229-2.467-7.657-6.676-7.657
			s-5.045,3.428-5.045,7.657v10.613v1.842"/>
		<g>
			<g>
				<path fill="#3C4352" d="M132.453,120.55c0.727,0,1.332,0.574,1.38,1.305l0.467,7.166l0.04,0.619l0.584,0.212l6.219,2.256
					c0.723,0.261,1.096,1.062,0.834,1.787c-0.188,0.522-0.664,0.884-1.213,0.92c-0.029,0.002-0.059,0.003-0.088,0.003
					c-0.158,0-0.314-0.027-0.469-0.084l-7.657-2.775c-0.521-0.188-0.878-0.666-0.913-1.221l-0.568-8.697
					c-0.049-0.77,0.529-1.436,1.293-1.486C132.393,120.552,132.423,120.55,132.453,120.55 M132.453,119.602
					c-0.053,0-0.104,0.002-0.155,0.005c-1.286,0.084-2.261,1.201-2.177,2.495l0.566,8.696c0.062,0.931,0.664,1.734,1.537,2.053
					l7.658,2.775c0.262,0.094,0.529,0.141,0.792,0.141c0.05,0,0.101-0.002,0.149-0.006c0.898-0.059,1.72-0.639,2.045-1.547
					c0.438-1.217-0.189-2.561-1.404-3l-6.219-2.256l-0.467-7.166C134.699,120.554,133.673,119.602,132.453,119.602L132.453,119.602z
					"/>
			</g>
		</g>
		
			<ellipse fill="none" stroke="#3C4352" stroke-width="0.9491" stroke-miterlimit="10" cx="132.48" cy="112.485" rx="4.994" ry="5.017"/>
		<path fill="#3C4352" d="M127.146,112.485c0,0-2.416-1.64-3.765,1.519c-0.886,2.074-0.313,5.489-0.313,5.489h2.506
			c0,0-0.559-3.008-0.137-4.963c0.278-1.303,1.709-1.278,1.709-1.278V112.485z"/>
		<path fill="#3C4352" d="M135.417,108.434c0,0-1.629,4.997-7.908,5.286C127.509,113.72,127.509,104.757,135.417,108.434z"/>
		<g>
			<path fill="#D95D6A" d="M142.199,118.496l0.967-2.48l0.938,3.139l0.894-2.449l0.616,1.791h2.262
				c0.17-0.488,0.279-1.017,0.279-1.599c0-1.624-1.104-2.453-2.072-2.453c-1.469,0-2.07,1.001-2.07,1.001s-0.602-1.001-2.07-1.001
				c-0.969,0-2.07,0.829-2.07,2.453c0,0.582,0.109,1.11,0.279,1.599H142.199z"/>
			<path fill="#D95D6A" d="M145.286,118.957l-0.302-0.879l-0.924,2.532l-0.953-3.187l-0.596,1.533h-2.181
				c1.077,2.332,3.681,3.473,3.681,3.473s2.604-1.141,3.68-3.473H145.286z"/>
		</g>
	</g>
</g>
<g>
	<g>
		<path fill="#F3D952" d="M95.625,142.042c-11.304,0-20.5-9.197-20.5-20.5c0-11.305,9.195-20.5,20.5-20.5
			c11.304,0,20.5,9.195,20.5,20.5S106.929,142.042,95.625,142.042z"/>
	</g>
	<g opacity="0.8">
		<path fill="none" stroke="#3C4352" stroke-width="0.979" stroke-miterlimit="10" d="M93.791,121.191c0,0,0.719-0.429,1.836-0.429
			c0.986,0,1.832,0.429,1.832,0.429"/>
		<path fill="none" stroke="#3C4352" stroke-width="1.0015" stroke-miterlimit="10" d="M93.258,127.237c0,0,1.776,0.943,2.366,0.943
			c0.593,0,2.368-0.943,2.368-0.943"/>
		<g>
			<ellipse fill="#3C4352" cx="91.135" cy="121.191" rx="2.896" ry="2.882"/>
			<ellipse fill="#3C4352" cx="100.117" cy="121.191" rx="2.896" ry="2.882"/>
		</g>
		<path fill="none" stroke="#D95D6A" stroke-width="0.9984" stroke-miterlimit="10" d="M104.949,139.186
			c-1.219-4.104-4.934-6.866-9.322-6.866c-4.395,0-8.107,2.763-9.324,6.866"/>
		<g>
			<path fill="none" stroke="#3C4352" stroke-width="1.0015" stroke-miterlimit="10" d="M83.098,118.53c0,0,4.449,0.605,8.732-6.111
				c0,0,4.994,7.748,16.32,5.022"/>
			<g>
				<g>
					<defs>
						<ellipse id="SVGID_6_" cx="95.624" cy="119.898" rx="10.833" ry="12.093"/>
					</defs>
					<clipPath id="SVGID_7_">
						<use xlink:href="#SVGID_6_"  overflow="visible"/>
					</clipPath>
					<path clip-path="url(#SVGID_7_)" fill="#3C4352" d="M84.436,118.348c3.141,0.906,7.15-5.93,7.15-5.93s4.83,6.959,15.653,5.385
						c0,0-2.007-9.076-8.33-10.649c-6.326-1.574-11.556,0.242-13.502,4.478C83.463,115.867,84.436,118.348,84.436,118.348z"/>
				</g>
				<g>
					
						<ellipse id="SVGID_2_" fill="none" stroke="#3C4352" stroke-width="1.0015" stroke-miterlimit="10" cx="95.624" cy="119.898" rx="10.833" ry="12.093"/>
				</g>
			</g>
		</g>
		<g>
			<path fill="none" stroke="#D95D6A" stroke-width="1.0015" stroke-miterlimit="10" d="M95.59,132.321
				c0.023,0.148,0.037,0.299,0.037,0.453c0,1.578-1.287,2.859-2.875,2.859c-1.162,0-2.16-0.687-2.613-1.672"/>
			<path fill="none" stroke="#D95D6A" stroke-width="1.0015" stroke-miterlimit="10" d="M101.146,133.885
				c-0.438,1.026-1.457,1.748-2.648,1.748c-1.586,0-2.871-1.281-2.871-2.859c0-0.154,0.012-0.305,0.034-0.453"/>
		</g>
	</g>
</g>
<g>
	<g>
		<path fill="#F3D952" d="M11.625,142.042c-11.304,0-20.5-9.197-20.5-20.5c0-11.305,9.196-20.5,20.5-20.5
			c11.305,0,20.5,9.195,20.5,20.5S22.93,142.042,11.625,142.042z"/>
	</g>
	<g opacity="0.8">
		<path fill="none" stroke="#3C4352" stroke-width="0.9441" stroke-miterlimit="10" d="M9.721,124.432c0,0,1.635,0.873,2.178,0.873
			c0.545,0,2.178-0.873,2.178-0.873"/>
		<g>
			<circle fill="#3C4352" cx="7.199" cy="118.146" r="0.671"/>
			<circle fill="#3C4352" cx="16.598" cy="118.146" r="0.671"/>
		</g>
		<g>
			<path fill="none" stroke="#3C4352" stroke-width="0.9441" stroke-miterlimit="10" d="M0.352,116.383c0,0,4.092,0.56,8.033-5.649
				c0,0,4.594,7.163,15.014,4.644"/>
			<g>
				<g>
					<defs>
						<ellipse id="SVGID_8_" cx="11.875" cy="117.648" rx="9.965" ry="11.179"/>
					</defs>
					<clipPath id="SVGID_9_">
						<use xlink:href="#SVGID_8_"  overflow="visible"/>
					</clipPath>
					<path clip-path="url(#SVGID_9_)" fill="#3C4352" d="M1.582,116.217c2.889,0.836,6.578-5.483,6.578-5.483
						s4.441,6.435,14.4,4.979c0,0-1.846-8.392-7.664-9.847c-5.818-1.454-10.629,0.226-12.42,4.14
						C0.686,113.922,1.582,116.217,1.582,116.217z"/>
				</g>
				<g>
					
						<ellipse id="SVGID_3_" fill="none" stroke="#3C4352" stroke-width="0.9441" stroke-miterlimit="10" cx="11.875" cy="117.648" rx="9.965" ry="11.179"/>
				</g>
			</g>
		</g>
		<g>
			<path fill="#3C4352" d="M11.86,131.184c0.512,0.826,1.392,1.393,2.411,1.47c0.129-0.354,0.26-0.679,0.387-0.952
				c-0.053,0.004-0.102,0.02-0.154,0.02c-1.172,0-2.123-0.936-2.162-2.098c1.108,0.059,2.16,0.327,3.121,0.766
				c0.187-0.268,0.381-0.525,0.578-0.779c-1.262-0.609-2.675-0.95-4.164-0.95c-1.49,0-2.904,0.341-4.166,0.95
				c0.199,0.254,0.393,0.511,0.579,0.777c0.95-0.434,1.992-0.7,3.089-0.762c-0.039,1.161-0.99,2.096-2.162,2.096
				c-0.041,0-0.08-0.012-0.121-0.016c0.127,0.271,0.256,0.594,0.385,0.945C10.486,132.565,11.354,132,11.86,131.184z"/>
		</g>
		<path fill="#D95D6A" d="M31.807,123.053c-0.221,0.117-6.901,3.849-9.068,9.07c-0.697,1.684-1.116,2.879-1.791,5.115
			c-0.098,0.32-0.271,0.536-0.532,0.657c-0.155,0.071-0.333,0.104-0.521,0.118c0.109-1.945,0.98-3.885,0.992-3.905l-0.863-0.396
			c-0.042,0.094-0.947,2.099-1.074,4.207c-0.311-0.072-0.58-0.166-0.73-0.23l-0.047-0.021c0.131-2,0.986-4.191,0.998-4.217
			l-0.883-0.348c-0.045,0.109-0.98,2.508-1.072,4.719c-0.351,0.057-0.762,0.09-1.146,0.048l0.587-0.028
			c-0.104-2.166,0.883-4.817,0.895-4.846l-0.888-0.334c-0.043,0.114-1.042,2.795-0.955,5.139c-0.124-0.035-0.241-0.078-0.345-0.141
			c-0.26-0.154-0.417-0.391-0.48-0.723c-0.066-0.475,0.758-3.809,1.402-4.865c1.059-1.734,2.869-3.721,4.84-5.316
			c0.811-0.654,2.213-1.485,2.227-1.494l0.099-0.075c0.915-0.941,5.035-5.5,5.91-6.888c0.875-1.389,1.194-1.828,1.604-2.686
			l-0.395-1.141c0,0-1.104,2.106-2.107,3.519c-1.002,1.412-3.586,4.364-5.648,6.487c-0.277,0.166-1.506,0.91-2.284,1.542
			c-0.985,0.796-3.449,2.933-5.054,5.558c-0.682,1.118-1.68,4.741-1.525,5.538c0.117,0.601,0.438,1.069,0.93,1.361
			c1.043,0.62,2.605,0.282,3.123,0.147c0.314,0.119,1.004,0.346,1.729,0.346c0.365,0,0.74-0.057,1.081-0.215
			c0.507-0.233,0.868-0.664,1.042-1.244c0.675-2.229,1.068-3.355,1.761-5.026c2.032-4.897,7.989-8.026,8.04-8.054L31.807,123.053z"
			/>
		<path fill="#D95D6A" d="M-8.055,123.053c0.221,0.117,6.9,3.849,9.068,9.07c0.697,1.684,1.115,2.879,1.791,5.115
			c0.097,0.32,0.271,0.536,0.531,0.657c0.155,0.071,0.334,0.104,0.521,0.118c-0.109-1.945-0.98-3.885-0.992-3.905l0.863-0.396
			c0.041,0.094,0.947,2.099,1.074,4.207c0.311-0.072,0.58-0.166,0.729-0.23l0.048-0.021c-0.132-2-0.986-4.191-0.998-4.217
			l0.883-0.348c0.045,0.109,0.98,2.508,1.071,4.719c0.351,0.057,0.763,0.09,1.146,0.048l-0.586-0.028
			c0.104-2.166-0.883-4.817-0.896-4.846l0.888-0.334c0.043,0.114,1.043,2.795,0.955,5.139c0.124-0.035,0.241-0.078,0.346-0.141
			c0.26-0.154,0.416-0.391,0.48-0.723c0.066-0.475-0.758-3.809-1.402-4.865c-1.06-1.734-2.869-3.721-4.84-5.316
			c-0.812-0.654-2.213-1.485-2.228-1.494l-0.099-0.075c-0.914-0.941-5.035-5.5-5.91-6.888c-0.875-1.389-1.193-1.828-1.604-2.686
			l0.396-1.141c0,0,1.104,2.106,2.106,3.519s3.586,4.364,5.649,6.487c0.277,0.166,1.505,0.91,2.283,1.542
			c0.986,0.796,3.449,2.933,5.054,5.558c0.683,1.118,1.681,4.741,1.526,5.538c-0.117,0.601-0.438,1.069-0.931,1.361
			c-1.042,0.62-2.604,0.282-3.123,0.147c-0.313,0.119-1.003,0.346-1.728,0.346c-0.365,0-0.74-0.057-1.081-0.215
			c-0.507-0.233-0.869-0.664-1.042-1.244c-0.676-2.229-1.069-3.355-1.762-5.026c-2.031-4.897-7.988-8.026-8.039-8.054
			L-8.055,123.053z"/>
	</g>
</g>
</svg>
