<?xml version="1.0" encoding="utf-8"?>
<!-- Generator: Adobe Illustrator 16.0.0, SVG Export Plug-In . SVG Version: 6.00 Build 0)  -->
<!DOCTYPE svg PUBLIC "-//W3C//DTD SVG 1.1//EN" "http://www.w3.org/Graphics/SVG/1.1/DTD/svg11.dtd">
<svg version="1.1" id="Layer_1" xmlns="http://www.w3.org/2000/svg" xmlns:xlink="http://www.w3.org/1999/xlink" x="0px" y="0px"
	 width="34px" height="34px" viewBox="0 0 34 34" enable-background="new 0 0 34 34" xml:space="preserve">
<path fill="#73A580" d="M34,32c0,1.1-0.9,2-2,2H2c-1.1,0-2-0.9-2-2V2c0-1.1,0.9-2,2-2h30c1.1,0,2,0.9,2,2V32z"/>
<g>
	<g>
		<path fill="#FFFFFF" d="M13.287,23.443c0,0.555-0.454,1.009-1.009,1.009h-1.513c-0.555,0-1.009-0.454-1.009-1.009v-7.06
			c0-0.555,0.454-1.009,1.009-1.009h1.513c0.555,0,1.009,0.454,1.009,1.009V23.443z"/>
	</g>
	<g>
		<path fill="#FFFFFF" d="M18.765,23.443c0,0.555-0.454,1.009-1.009,1.009h-1.512c-0.555,0-1.009-0.454-1.009-1.009V11.339
			c0-0.555,0.454-1.009,1.009-1.009h1.512c0.555,0,1.009,0.454,1.009,1.009V23.443z"/>
	</g>
	<g>
		<path fill="#FFFFFF" d="M24.243,23.443c0,0.555-0.454,1.009-1.009,1.009h-1.514c-0.555,0-1.009-0.454-1.009-1.009V13.356
			c0-0.555,0.454-1.009,1.009-1.009h1.514c0.555,0,1.009,0.454,1.009,1.009V23.443z"/>
	</g>
</g>
</svg>
