<?xml version="1.0" encoding="utf-8"?>
<!-- Generator: Adobe Illustrator 16.0.0, SVG Export Plug-In . SVG Version: 6.00 Build 0)  -->
<!DOCTYPE svg PUBLIC "-//W3C//DTD SVG 1.1//EN" "http://www.w3.org/Graphics/SVG/1.1/DTD/svg11.dtd">
<svg version="1.1" id="Layer_1" xmlns="http://www.w3.org/2000/svg" xmlns:xlink="http://www.w3.org/1999/xlink" x="0px" y="0px"
	 width="36px" height="36px" viewBox="0 0 36 36" enable-background="new 0 0 36 36" xml:space="preserve">
<path fill="#DB8042" d="M35,33c0,1.101-0.9,2-2,2H3c-1.1,0-2-0.899-2-2V3c0-1.1,0.9-2,2-2h30c1.1,0,2,0.9,2,2V33z"/>
<g>
	<g>
		<path fill="#FFFFFF" d="M14.287,24.442c0,0.555-0.455,1.01-1.01,1.01h-1.512c-0.555,0-1.01-0.455-1.01-1.01v-7.06
			c0-0.555,0.455-1.009,1.01-1.009h1.512c0.555,0,1.01,0.454,1.01,1.009V24.442z"/>
	</g>
	<g>
		<path fill="#FFFFFF" d="M19.764,24.442c0,0.555-0.453,1.01-1.008,1.01h-1.512c-0.555,0-1.01-0.455-1.01-1.01V12.339
			c0-0.555,0.455-1.009,1.01-1.009h1.512c0.555,0,1.008,0.454,1.008,1.009V24.442z"/>
	</g>
	<g>
		<path fill="#FFFFFF" d="M25.242,24.442c0,0.555-0.453,1.01-1.008,1.01h-1.514c-0.555,0-1.01-0.455-1.01-1.01V14.356
			c0-0.555,0.455-1.009,1.01-1.009h1.514c0.555,0,1.008,0.454,1.008,1.009V24.442z"/>
	</g>
</g>
</svg>
