<?xml version="1.0" encoding="utf-8"?>
<!-- Generator: Adobe Illustrator 16.0.0, SVG Export Plug-In . SVG Version: 6.00 Build 0)  -->
<!DOCTYPE svg PUBLIC "-//W3C//DTD SVG 1.1//EN" "http://www.w3.org/Graphics/SVG/1.1/DTD/svg11.dtd">
<svg version="1.1" id="Layer_1" xmlns="http://www.w3.org/2000/svg" xmlns:xlink="http://www.w3.org/1999/xlink" x="0px" y="0px"
	 width="45px" height="15px" viewBox="0 0 45 15" enable-background="new 0 0 45 15" xml:space="preserve">
<g>
	
		<rect x="-2.59" y="6.983" transform="matrix(0.7071 0.7071 -0.7071 0.7071 7.5 -3.1066)" fill="#D95D6A" width="20.18" height="1.033"/>
	
		<rect x="6.983" y="-2.59" transform="matrix(0.7071 0.7071 -0.7071 0.7071 7.5 -3.1066)" fill="#D95D6A" width="1.033" height="20.18"/>
</g>
<g>
	
		<rect x="12.41" y="6.983" transform="matrix(0.7071 0.7071 -0.7071 0.7071 11.8934 -13.7132)" fill="#92B758" width="20.18" height="1.033"/>
	
		<rect x="21.983" y="-2.59" transform="matrix(0.7071 0.7071 -0.7071 0.7071 11.8934 -13.7132)" fill="#92B758" width="1.033" height="20.18"/>
</g>
<g>
	
		<rect x="27.41" y="6.983" transform="matrix(0.7071 0.7071 -0.7071 0.7071 16.2868 -24.3198)" fill="#00ADEE" width="20.18" height="1.033"/>
	
		<rect x="36.983" y="-2.59" transform="matrix(0.7071 0.7071 -0.7071 0.7071 16.2868 -24.3198)" fill="#00ADEE" width="1.033" height="20.18"/>
</g>
</svg>
