<?xml version="1.0" encoding="utf-8"?>
<!-- Generator: Adobe Illustrator 16.0.0, SVG Export Plug-In . SVG Version: 6.00 Build 0)  -->
<!DOCTYPE svg PUBLIC "-//W3C//DTD SVG 1.1//EN" "http://www.w3.org/Graphics/SVG/1.1/DTD/svg11.dtd">
<svg version="1.1" id="Layer_1" xmlns="http://www.w3.org/2000/svg" xmlns:xlink="http://www.w3.org/1999/xlink" x="0px" y="0px"
	 width="60px" height="15px" viewBox="0 0 60 15" enable-background="new 0 0 60 15" xml:space="preserve">
<g>
	<g>
		<path fill="#D95D6A" d="M14.67,14.999c-0.085,0-0.169-0.031-0.233-0.097L0.097,0.564c-0.129-0.129-0.129-0.339,0-0.468
			s0.34-0.129,0.468,0l14.34,14.338c0.128,0.129,0.128,0.34,0,0.468C14.839,14.968,14.756,14.999,14.67,14.999z"/>
	</g>
	<g>
		<path fill="#D95D6A" d="M0.001,14.67c0-0.085,0.031-0.169,0.097-0.233l14.338-14.34c0.128-0.129,0.339-0.129,0.468,0
			s0.129,0.339,0,0.468L0.565,14.904c-0.129,0.128-0.341,0.128-0.468,0C0.032,14.839,0.001,14.756,0.001,14.67z"/>
	</g>
</g>
<g>
	<g>
		<path fill="#92B758" d="M29.67,14.999c-0.085,0-0.169-0.031-0.233-0.097L15.097,0.564c-0.129-0.129-0.129-0.339,0-0.468
			s0.34-0.129,0.468,0l14.34,14.338c0.128,0.129,0.128,0.34,0,0.468C29.839,14.968,29.756,14.999,29.67,14.999z"/>
	</g>
	<g>
		<path fill="#92B758" d="M15.001,14.67c0-0.085,0.031-0.169,0.097-0.233l14.338-14.34c0.128-0.129,0.339-0.129,0.468,0
			s0.129,0.339,0,0.468l-14.338,14.34c-0.129,0.128-0.341,0.128-0.468,0C15.032,14.839,15.001,14.756,15.001,14.67z"/>
	</g>
</g>
<g>
	<g>
		<path fill="#00ADEE" d="M44.67,14.999c-0.085,0-0.169-0.031-0.233-0.097L30.097,0.564c-0.129-0.129-0.129-0.339,0-0.468
			s0.34-0.129,0.468,0l14.34,14.338c0.128,0.129,0.128,0.34,0,0.468C44.839,14.968,44.756,14.999,44.67,14.999z"/>
	</g>
	<g>
		<path fill="#00ADEE" d="M30.001,14.67c0-0.085,0.031-0.169,0.097-0.233l14.338-14.34c0.128-0.129,0.339-0.129,0.468,0
			s0.129,0.339,0,0.468l-14.338,14.34c-0.129,0.128-0.341,0.128-0.468,0C30.032,14.839,30.001,14.756,30.001,14.67z"/>
	</g>
</g>
<g>
	<g>
		<path fill="#A0A0A0" d="M59.67,14.999c-0.085,0-0.169-0.031-0.233-0.097L45.097,0.564c-0.129-0.129-0.129-0.339,0-0.468
			s0.34-0.129,0.468,0l14.34,14.338c0.128,0.129,0.128,0.34,0,0.468C59.839,14.968,59.756,14.999,59.67,14.999z"/>
	</g>
	<g>
		<path fill="#A0A0A0" d="M45.001,14.67c0-0.085,0.031-0.169,0.097-0.233l14.338-14.34c0.128-0.129,0.339-0.129,0.468,0
			s0.129,0.339,0,0.468l-14.338,14.34c-0.129,0.128-0.341,0.128-0.468,0C45.032,14.839,45.001,14.756,45.001,14.67z"/>
	</g>
</g>
</svg>
