<?xml version="1.0" encoding="utf-8"?>
<!-- Generator: Adobe Illustrator 16.0.0, SVG Export Plug-In . SVG Version: 6.00 Build 0)  -->
<!DOCTYPE svg PUBLIC "-//W3C//DTD SVG 1.1//EN" "http://www.w3.org/Graphics/SVG/1.1/DTD/svg11.dtd">
<svg version="1.1" id="Layer_1" xmlns="http://www.w3.org/2000/svg" xmlns:xlink="http://www.w3.org/1999/xlink" x="0px" y="0px"
	 width="34px" height="34px" viewBox="0 0 34 34" enable-background="new 0 0 34 34" xml:space="preserve">
<g>
	<rect fill="#C1C7D1" width="34" height="34"/>
</g>
<path fill="#D95D6A" d="M10.839,25.462c-0.393,0.393-1.035,0.392-1.427-0.001L9.05,25.1c-0.393-0.394-0.393-1.035-0.001-1.428
	L24.183,8.539c0.393-0.392,1.034-0.392,1.428,0l0.361,0.362c0.393,0.392,0.393,1.035,0.001,1.427L10.839,25.462z"/>
<path fill="#D95D6A" d="M25.973,23.671c0.393,0.393,0.392,1.035-0.001,1.427L25.61,25.46c-0.394,0.393-1.035,0.393-1.428,0.001
	L9.049,10.327C8.657,9.935,8.657,9.293,9.05,8.899l0.362-0.361c0.392-0.393,1.035-0.393,1.427-0.001L25.973,23.671z"/>
</svg>
