<?xml version="1.0" encoding="utf-8"?>
<!-- Generator: Adobe Illustrator 16.0.0, SVG Export Plug-In . SVG Version: 6.00 Build 0)  -->
<!DOCTYPE svg PUBLIC "-//W3C//DTD SVG 1.1//EN" "http://www.w3.org/Graphics/SVG/1.1/DTD/svg11.dtd">
<svg version="1.1" id="Layer_1" xmlns="http://www.w3.org/2000/svg" xmlns:xlink="http://www.w3.org/1999/xlink" x="0px" y="0px"
	 width="21px" height="17px" viewBox="0 0 21 17" enable-background="new 0 0 21 17" xml:space="preserve">
<g id="Layer_1_2_">
	<path fill="#00ADEE" d="M15.566,2.188h-10c-1.378,0-2.5,1.121-2.5,2.5v6.25c0,1.379,1.122,2.5,2.5,2.5h10
		c1.378,0,2.5-1.121,2.5-2.5v-6.25C18.066,3.309,16.945,2.188,15.566,2.188z M17.004,10.99c0,0.707-0.58,1.393-1.288,1.393h-10.3
		c-0.708,0-1.288-0.686-1.288-1.393V6.123l5.014,3.509c0.399,0.281,0.911,0.42,1.424,0.42s1.024-0.139,1.424-0.42l5.014-3.509V10.99
		z M11.252,8.67c-0.359,0.25-1.012,0.25-1.371,0L4.134,4.646c0-0.707,0.579-1.287,1.287-1.287h10.291
		c0.708,0,1.287,0.58,1.287,1.287L11.252,8.67z"/>
</g>
</svg>
