<?xml version="1.0" encoding="utf-8"?>
<!-- Generator: Adobe Illustrator 16.0.0, SVG Export Plug-In . SVG Version: 6.00 Build 0)  -->
<!DOCTYPE svg PUBLIC "-//W3C//DTD SVG 1.1//EN" "http://www.w3.org/Graphics/SVG/1.1/DTD/svg11.dtd">
<svg version="1.1" id="Layer_1" xmlns="http://www.w3.org/2000/svg" xmlns:xlink="http://www.w3.org/1999/xlink" x="0px" y="0px"
	 width="16px" height="16px" viewBox="0 0 16 16" enable-background="new 0 0 16 16" xml:space="preserve">
<g>
	<g>
		<path fill="#5C687A" d="M2.967,1L3,1.033L2.967,3L1,2.967L1.033,1H2.967 M2.967,0H1.033C0.465,0,0,0.465,0,1.033v1.934
			C0,3.535,0.465,4,1.033,4h1.934C3.535,4,4,3.535,4,2.967V1.033C4,0.465,3.535,0,2.967,0L2.967,0z"/>
		<path fill="#5C687A" d="M2.967,7L3,7.033L2.967,9L1,8.967L1.033,7H2.967 M2.967,6H1.033C0.465,6,0,6.465,0,7.033v1.934
			C0,9.535,0.465,10,1.033,10h1.934C3.535,10,4,9.535,4,8.967V7.033C4,6.465,3.535,6,2.967,6L2.967,6z"/>
		<path fill="#5C687A" d="M2.967,13L3,13.033L2.967,15L1,14.967L1.033,13H2.967 M2.967,12H1.033C0.465,12,0,12.465,0,13.033v1.934
			C0,15.535,0.465,16,1.033,16h1.934C3.535,16,4,15.535,4,14.967v-1.934C4,12.465,3.535,12,2.967,12L2.967,12z"/>
	</g>
	<g>
		<path fill="#5C687A" d="M8.967,1L9,1.033L8.967,3L7,2.967L7.033,1H8.967 M8.967,0H7.033C6.465,0,6,0.465,6,1.033v1.934
			C6,3.535,6.465,4,7.033,4h1.934C9.535,4,10,3.535,10,2.967V1.033C10,0.465,9.535,0,8.967,0L8.967,0z"/>
		<path fill="#5C687A" d="M8.967,7L9,7.033L8.967,9L7,8.967L7.033,7H8.967 M8.967,6H7.033C6.465,6,6,6.465,6,7.033v1.934
			C6,9.535,6.465,10,7.033,10h1.934C9.535,10,10,9.535,10,8.967V7.033C10,6.465,9.535,6,8.967,6L8.967,6z"/>
		<path fill="#5C687A" d="M8.967,13L9,13.033L8.967,15L7,14.967L7.033,13H8.967 M8.967,12H7.033C6.465,12,6,12.465,6,13.033v1.934
			C6,15.535,6.465,16,7.033,16h1.934C9.535,16,10,15.535,10,14.967v-1.934C10,12.465,9.535,12,8.967,12L8.967,12z"/>
	</g>
	<g>
		<path fill="#5C687A" d="M14.967,1L15,1.033L14.967,3L13,2.967L13.033,1H14.967 M14.967,0h-1.934C12.465,0,12,0.465,12,1.033v1.934
			C12,3.535,12.465,4,13.033,4h1.934C15.535,4,16,3.535,16,2.967V1.033C16,0.465,15.535,0,14.967,0L14.967,0z"/>
		<path fill="#5C687A" d="M14.967,7L15,7.033L14.967,9L13,8.967L13.033,7H14.967 M14.967,6h-1.934C12.465,6,12,6.465,12,7.033v1.934
			C12,9.535,12.465,10,13.033,10h1.934C15.535,10,16,9.535,16,8.967V7.033C16,6.465,15.535,6,14.967,6L14.967,6z"/>
		<path fill="#5C687A" d="M14.967,13L15,13.033L14.967,15L13,14.967L13.033,13H14.967 M14.967,12h-1.934
			C12.465,12,12,12.465,12,13.033v1.934C12,15.535,12.465,16,13.033,16h1.934C15.535,16,16,15.535,16,14.967v-1.934
			C16,12.465,15.535,12,14.967,12L14.967,12z"/>
	</g>
</g>
</svg>
