<?xml version="1.0" encoding="utf-8"?>
<!-- Generator: Adobe Illustrator 16.0.0, SVG Export Plug-In . SVG Version: 6.00 Build 0)  -->
<!DOCTYPE svg PUBLIC "-//W3C//DTD SVG 1.1//EN" "http://www.w3.org/Graphics/SVG/1.1/DTD/svg11.dtd">
<svg version="1.1" id="Layer_1" xmlns="http://www.w3.org/2000/svg" xmlns:xlink="http://www.w3.org/1999/xlink" x="0px" y="0px"
	 width="21px" height="17px" viewBox="0 0 21 17" enable-background="new 0 0 21 17" xml:space="preserve">
<g>
	<path fill="#D95D6A" d="M17.033,1l0.033,0.033L17.033,3L4.066,2.967L4.1,1H17.033 M17.033,0H4.1C3.531,0,3.066,0.465,3.066,1.033
		v1.934C3.066,3.535,3.531,4,4.1,4h12.934c0.568,0,1.033-0.465,1.033-1.033V1.033C18.066,0.465,17.602,0,17.033,0L17.033,0z"/>
	<path fill="#D95D6A" d="M17.033,7l0.033,0.033L17.033,9L4.066,8.967L4.1,7H17.033 M17.033,6H4.1C3.531,6,3.066,6.465,3.066,7.033
		v1.934C3.066,9.535,3.531,10,4.1,10h12.934c0.568,0,1.033-0.465,1.033-1.033V7.033C18.066,6.465,17.602,6,17.033,6L17.033,6z"/>
	<path fill="#D95D6A" d="M17.033,13l0.033,0.033L17.033,15L4.066,14.967L4.1,13H17.033 M17.033,12H4.1
		c-0.568,0-1.033,0.465-1.033,1.033v1.934C3.066,15.535,3.531,16,4.1,16h12.934c0.568,0,1.033-0.465,1.033-1.033v-1.934
		C18.066,12.465,17.602,12,17.033,12L17.033,12z"/>
</g>
</svg>
