<?xml version="1.0" encoding="utf-8"?>
<!-- Generator: Adobe Illustrator 16.0.0, SVG Export Plug-In . SVG Version: 6.00 Build 0)  -->
<!DOCTYPE svg PUBLIC "-//W3C//DTD SVG 1.1//EN" "http://www.w3.org/Graphics/SVG/1.1/DTD/svg11.dtd">
<svg version="1.1" id="Layer_1" xmlns="http://www.w3.org/2000/svg" xmlns:xlink="http://www.w3.org/1999/xlink" x="0px" y="0px"
	 width="19px" height="14px" viewBox="0 0 19 14" enable-background="new 0 0 19 14" xml:space="preserve">
<path fill="#E57A89" d="M15.841,0H3.159C1.541,0,0.221,1.321,0.221,2.939v8.121c0,1.619,1.32,2.939,2.938,2.939h12.682
	c1.618,0,2.938-1.32,2.938-2.939V2.939C18.779,1.321,17.459,0,15.841,0z M4.395,8.867c-1.027,0-1.868-0.84-1.868-1.867
	s0.841-1.867,1.868-1.867C5.42,5.133,6.26,5.973,6.26,7C6.229,8.027,5.42,8.867,4.395,8.867z M9.525,8.868
	c-1.026,0-1.866-0.84-1.866-1.868s0.84-1.868,1.866-1.868c1.027,0,1.867,0.84,1.867,1.868S10.553,8.868,9.525,8.868z M14.606,8.867
	c-1.026,0-1.866-0.84-1.866-1.867s0.84-1.867,1.866-1.867S16.474,5.973,16.474,7S15.633,8.867,14.606,8.867z"/>
</svg>
