<?xml version="1.0" encoding="utf-8"?>
<!-- Generator: Adobe Illustrator 16.0.0, SVG Export Plug-In . SVG Version: 6.00 Build 0)  -->
<!DOCTYPE svg PUBLIC "-//W3C//DTD SVG 1.1//EN" "http://www.w3.org/Graphics/SVG/1.1/DTD/svg11.dtd">
<svg version="1.1" id="Layer_1" xmlns="http://www.w3.org/2000/svg" xmlns:xlink="http://www.w3.org/1999/xlink" x="0px" y="0px"
	 width="36px" height="36px" viewBox="0 0 36 36" enable-background="new 0 0 36 36" xml:space="preserve">
<path fill="#3FCEEF" d="M35,33c0,1.1-0.9,2-2,2H3c-1.1,0-2-0.9-2-2V3c0-1.1,0.9-2,2-2h30c1.1,0,2,0.9,2,2V33z"/>
<path sketch:type="MSShapeGroup" fill="#FFFFFF" d="M11.102,26.279h13.797c0.762,0,1.379-0.619,1.379-1.381V20.76h-2.76v2.414
	c0,0.191-0.154,0.346-0.344,0.346H12.826c-0.191,0-0.346-0.154-0.346-0.346V20.76H9.722v4.139
	C9.722,25.66,10.34,26.279,11.102,26.279z M20.068,10.412v4.83h2.07c0.762,0,0.992,0.482,0.518,1.076l-4.227,5.283
	c-0.236,0.297-0.623,0.297-0.861,0l-4.227-5.283c-0.475-0.594-0.242-1.076,0.52-1.076h2.068v-4.83c0-0.381,0.309-0.689,0.689-0.689
	h2.76C19.76,9.723,20.068,10.031,20.068,10.412L20.068,10.412z"/>
</svg>
