<?xml version="1.0" encoding="utf-8"?>
<!-- Generator: Adobe Illustrator 16.0.0, SVG Export Plug-In . SVG Version: 6.00 Build 0)  -->
<!DOCTYPE svg PUBLIC "-//W3C//DTD SVG 1.1//EN" "http://www.w3.org/Graphics/SVG/1.1/DTD/svg11.dtd">
<svg version="1.1" id="Layer_1" xmlns="http://www.w3.org/2000/svg" xmlns:xlink="http://www.w3.org/1999/xlink" x="0px" y="0px"
    width="17px" height="17px" viewBox="0 0 17 17" enable-background="new 0 0 17 17" xml:space="preserve">
<path sketch:type="MSShapeGroup" opacity="0.6" fill="#00ADEE" d="M1.604,16.776H15.4c0.762,0,1.379-0.618,1.379-1.381v-4.139
   h-2.759v2.414c0,0.191-0.155,0.346-0.345,0.346H3.328c-0.19,0-0.345-0.154-0.345-0.346v-2.414H0.225v4.139
   C0.225,16.157,0.842,16.776,1.604,16.776z M10.571,0.91v4.829h2.069c0.762,0,0.993,0.482,0.518,1.077l-4.226,5.283
   c-0.237,0.297-0.624,0.297-0.861,0L3.845,6.816C3.369,6.221,3.602,5.739,4.363,5.739h2.069V0.91c0-0.381,0.309-0.69,0.689-0.69
   h2.759C10.263,0.22,10.571,0.529,10.571,0.91L10.571,0.91z"/>
</svg>
