<?xml version="1.0" encoding="utf-8"?>
<!-- Generator: Adobe Illustrator 16.0.0, SVG Export Plug-In . SVG Version: 6.00 Build 0)  -->
<!DOCTYPE svg PUBLIC "-//W3C//DTD SVG 1.1//EN" "http://www.w3.org/Graphics/SVG/1.1/DTD/svg11.dtd">
<svg version="1.1" id="Layer_1" xmlns="http://www.w3.org/2000/svg" xmlns:xlink="http://www.w3.org/1999/xlink" x="0px" y="0px"
	 width="34px" height="34px" viewBox="0 0 34 34" enable-background="new 0 0 34 34" xml:space="preserve">
<path fill="#D8BC48" d="M34,32c0,1.1-0.9,2-2,2H2c-1.1,0-2-0.9-2-2V2c0-1.1,0.9-2,2-2h30c1.1,0,2,0.9,2,2V32z"/>
<path fill="#FFFFFF" d="M10.102,25.278h13.797c0.762,0,1.379-0.617,1.379-1.38v-4.139h-2.759v2.414
	c0,0.19-0.155,0.345-0.345,0.345H11.826c-0.19,0-0.345-0.154-0.345-0.345v-2.414H8.723v4.139C8.723,24.66,9.34,25.278,10.102,25.278
	z M19.069,9.412v4.829h2.069c0.762,0,0.993,0.482,0.518,1.077L17.431,20.6c-0.237,0.297-0.624,0.297-0.861,0l-4.227-5.282
	c-0.476-0.595-0.243-1.077,0.519-1.077h2.069V9.412c0-0.381,0.309-0.69,0.689-0.69h2.759C18.761,8.722,19.069,9.031,19.069,9.412
	L19.069,9.412z"/>
</svg>
