<?xml version="1.0" encoding="utf-8"?>
<!-- Generator: Adobe Illustrator 16.0.0, SVG Export Plug-In . SVG Version: 6.00 Build 0)  -->
<!DOCTYPE svg PUBLIC "-//W3C//DTD SVG 1.1//EN" "http://www.w3.org/Graphics/SVG/1.1/DTD/svg11.dtd">
<svg version="1.1" id="Layer_1" xmlns="http://www.w3.org/2000/svg" xmlns:xlink="http://www.w3.org/1999/xlink" x="0px" y="0px"
    width="17px" height="17px" viewBox="0 0 17 17" enable-background="new 0 0 17 17" xml:space="preserve">
<path opacity="0.6" fill="#00ADEE" d="M1.625,16.781h13.797c0.762,0,1.379-0.617,1.379-1.379v-4.139h-2.759v2.414
   c0,0.19-0.155,0.344-0.345,0.344H3.35c-0.19,0-0.345-0.153-0.345-0.344v-2.414H0.246v4.139C0.246,16.164,0.863,16.781,1.625,16.781z
   "/>
<path opacity="0.6" fill="#00ADEE" d="M10.593,0.916v4.829h2.069c0.762,0,0.993,0.482,0.518,1.077l-4.226,5.283
   c-0.237,0.297-0.624,0.297-0.861,0L3.866,6.822C3.391,6.227,3.623,5.745,4.385,5.745h2.069V0.916c0-0.381,0.309-0.69,0.689-0.69
   h2.759C10.284,0.226,10.593,0.535,10.593,0.916L10.593,0.916z"/>
</svg>
