<?xml version="1.0" encoding="utf-8"?>
<!-- Generator: Adobe Illustrator 16.0.0, SVG Export Plug-In . SVG Version: 6.00 Build 0)  -->
<!DOCTYPE svg PUBLIC "-//W3C//DTD SVG 1.1//EN" "http://www.w3.org/Graphics/SVG/1.1/DTD/svg11.dtd">
<svg version="1.1" id="Layer_1" xmlns="http://www.w3.org/2000/svg" xmlns:xlink="http://www.w3.org/1999/xlink" x="0px" y="0px"
    width="21px" height="6.25px" viewBox="0 0 21 6.25" enable-background="new 0 0 21 6.25" xml:space="preserve">
<g>
   <path fill="#E0E0E0" d="M21.034,5.841c-0.008-0.079-0.028-0.163-0.023-0.237h-2.323c-0.465,0-1.547-0.484-2.358-1.182l-3.963-3.396
      c-0.494-0.425-1.149-0.657-1.844-0.657s-1.35,0.232-1.844,0.657L4.715,4.422C3.903,5.118,2.776,5.604,2.272,5.604h-2.334
      c0.008,0.167,0.019,0.334,0.033,0.5h2.301c0.688,0,1.933-0.586,2.768-1.303l3.963-3.396c0.418-0.358,0.968-0.537,1.519-0.537
      c0.551,0,1.101,0.179,1.519,0.537l3.963,3.396c0.835,0.717,2.043,1.303,2.686,1.303h2.307C21,6.042,21.007,5.999,21.018,5.989
      C21.019,5.938,21.026,5.89,21.034,5.841z"/>
   <g>
      <path fill="#FFFFFF" d="M12.04,1.479c-0.418-0.358-0.968-0.573-1.519-0.573c-0.551,0-1.101,0.16-1.519,0.519L5.04,4.883
         C4.205,5.6,2.96,6.25,2.272,6.25h16.416c-0.643,0-1.851-0.586-2.686-1.303L12.04,1.479z"/>
   </g>
</g>
</svg>
