<?xml version="1.0" encoding="utf-8"?>
<!-- Generator: Adobe Illustrator 16.0.0, SVG Export Plug-In . SVG Version: 6.00 Build 0)  -->
<!DOCTYPE svg PUBLIC "-//W3C//DTD SVG 1.1//EN" "http://www.w3.org/Graphics/SVG/1.1/DTD/svg11.dtd">
<svg version="1.1" id="Layer_1" xmlns="http://www.w3.org/2000/svg" xmlns:xlink="http://www.w3.org/1999/xlink" x="0px" y="0px"
	 width="20px" height="20.042px" viewBox="0 0 20 20.042" enable-background="new 0 0 20 20.042" xml:space="preserve">
<path fill="#00ADEE" d="M20,4.128c0-0.372-0.144-0.714-0.4-0.972l-2.771-2.771c-0.514-0.514-1.429-0.514-1.971,0l-2.029,2.028
	c-0.257-0.2-0.657-0.171-0.886,0.057l-0.771,0.771c-0.143,0.143-0.2,0.314-0.2,0.486s0.086,0.343,0.2,0.485l0,0l-9.143,9.143
	C2,13.385,2,13.385,2,13.414l0,0l-1.571,4.8l0,0l-0.314,0.972l-0.086,0.171C0.028,19.414,0,19.471,0,19.5
	c0,0.085,0,0.171,0.057,0.257c0.029,0.028,0.029,0.057,0.058,0.115c0.085,0.114,0.257,0.171,0.457,0.171c0.057,0,0.115,0,0.144,0
	c0,0,0,0,0.028,0l0,0l0,0l1.028-0.343l0,0l4.8-1.571c0.028,0,0.057-0.029,0.086-0.029l9.142-9.143
	C15.914,9.042,16.057,9.1,16.228,9.1c0.172,0,0.343-0.086,0.486-0.2l0.771-0.771c0.257-0.257,0.257-0.657,0.029-0.914l2.028-2.029
	C19.856,4.843,20,4.5,20,4.128z M11.399,4.5l1.943,1.943l-9.028,9.028l-1.943-1.943L11.399,4.5z M1.771,19.299l-1.028-1L2.2,13.871
	l2,2l0,0l0,0l2,2L1.771,19.299z M0.628,19.671c0,0-0.028,0-0.057,0c-0.028,0-0.143,0-0.171-0.057
	c-0.029-0.029-0.029-0.057-0.029-0.086c0-0.028,0-0.085,0-0.114l0.257-0.771l0.771,0.771L0.628,19.671L0.628,19.671z M6.514,17.671
	l-1.943-1.943L13.6,6.699l1.943,1.943L6.514,17.671z M17.257,7.813l-0.8,0.8c-0.114,0.114-0.343,0.114-0.486,0l-4.6-4.628
	c-0.057-0.057-0.085-0.144-0.085-0.229s0.028-0.171,0.085-0.228l0.771-0.771C12.2,2.7,12.286,2.671,12.371,2.671
	S12.542,2.7,12.6,2.757l0.057,0.057l0,0l1.8,1.799l2.772,2.772C17.4,7.471,17.4,7.699,17.257,7.813z M17.314,6.899l-4.257-4.229
	l2.028-2.028c0.4-0.4,1.085-0.4,1.457,0l2.771,2.771c0.2,0.2,0.314,0.457,0.314,0.742c0,0.286-0.114,0.543-0.314,0.743L17.314,6.899
	z"/>
</svg>
