<?xml version="1.0" encoding="utf-8"?>
<!-- Generator: Adobe Illustrator 16.0.0, SVG Export Plug-In . SVG Version: 6.00 Build 0)  -->
<!DOCTYPE svg PUBLIC "-//W3C//DTD SVG 1.1//EN" "http://www.w3.org/Graphics/SVG/1.1/DTD/svg11.dtd">
<svg version="1.1" id="Layer_1" xmlns="http://www.w3.org/2000/svg" xmlns:xlink="http://www.w3.org/1999/xlink" x="0px" y="0px"
	 width="26.66px" height="11.999px" viewBox="0 0 26.66 11.999" enable-background="new 0 0 26.66 11.999" xml:space="preserve">
<g id="XMLID_66_">
	<g>
		<g id="XMLID_9_">
			<g>
				<path fill="#D95D6A" d="M16.255,12h-1.193c-0.079,0-0.168,0-0.247-0.016c-0.513-0.009-1.017-0.097-1.488-0.241
					c-1.231-0.375-2.304-1.135-3.056-2.143c-0.201-0.257-0.368-0.52-0.512-0.801C9.623,8.543,9.502,8.28,9.414,8
					C9.183,7.375,9.062,6.704,9.062,6c0-0.704,0.121-1.376,0.353-1.999h2.185c0.151,0,0.294,0.015,0.439,0.047
					c-0.36,0.56-0.575,1.231-0.575,1.952c0,0.721,0.216,1.392,0.575,1.952c0.159,0.24,0.344,0.464,0.56,0.663
					c0.217,0.208,0.455,0.384,0.728,0.536C13.837,9.432,14.429,9.6,15.062,9.6h1.319h0.983h0.929h2.367
					c1.985,0,3.601-1.615,3.601-3.6s-1.616-3.6-3.601-3.6h-2.367c-0.512-0.944-1.207-1.76-2.039-2.4h4.406c3.312,0,6,2.687,6,6
					s-2.688,6-6,6L16.255,12L16.255,12z"/>
				<path fill="#D95D6A" d="M14.062,3.385c-0.224-0.208-0.464-0.392-0.735-0.536c-0.511-0.29-1.104-0.448-1.728-0.448h-1.328H9.295
					h-0.92H5.998C4.016,2.401,2.399,4.016,2.399,6c0,1.983,1.617,3.6,3.599,3.6h2.377c0.504,0.937,1.199,1.752,2.031,2.399H5.998
					C2.687,11.999,0,9.312,0,6s2.687-6,5.998-6h4.408h1.192c0.088,0,0.168,0,0.249,0.016c0.511,0.008,1.007,0.097,1.479,0.24
					c1.24,0.376,2.312,1.135,3.056,2.144c0.209,0.256,0.376,0.52,0.52,0.8c0.136,0.256,0.258,0.52,0.346,0.8
					c0.231,0.623,0.352,1.295,0.352,2s-0.12,1.376-0.352,2h-2.185c-0.15,0-0.304-0.017-0.44-0.049
					c0.369-0.56,0.577-1.23,0.577-1.951c0-0.72-0.208-1.392-0.577-1.952C14.462,3.808,14.278,3.584,14.062,3.385z"/>
			</g>
		</g>
	</g>
</g>
</svg>
