<?xml version="1.0" encoding="utf-8"?>
<!-- Generator: Adobe Illustrator 16.0.0, SVG Export Plug-In . SVG Version: 6.00 Build 0)  -->
<!DOCTYPE svg PUBLIC "-//W3C//DTD SVG 1.1//EN" "http://www.w3.org/Graphics/SVG/1.1/DTD/svg11.dtd">
<svg version="1.1" id="Layer_1" xmlns="http://www.w3.org/2000/svg" xmlns:xlink="http://www.w3.org/1999/xlink" x="0px" y="0px"
	 width="25px" height="21px" viewBox="0 0 25 21" enable-background="new 0 0 25 21" xml:space="preserve">
<path fill="#D95D6A" d="M23.192,20.64H1.919c-0.587,0-1.06-0.24-1.296-0.662s-0.197-0.951,0.108-1.453l10.53-17.28
	c0.6-0.984,1.882-0.99,2.486-0.005l10.627,17.287c0.308,0.498,0.35,1.027,0.113,1.449C24.252,20.397,23.78,20.64,23.192,20.64z
	 M1.817,19.327c0.025,0,0.06,0.002,0.102,0.002h21.272c0.057,0,0.1-0.006,0.13-0.012c-0.017-0.018-0.034-0.057-0.063-0.105
	L12.63,1.926c-0.065-0.106-0.122-0.145-0.137-0.149c0.009,0.004-0.048,0.042-0.113,0.149l-10.53,17.28
	c-0.031,0.051-0.049,0.092-0.059,0.123C1.799,19.327,1.807,19.327,1.817,19.327z"/>
<g>
	<g>
		<path fill="#D95D6A" d="M12.593,15.083c0.747,0,1.304,0.586,1.304,1.363c0,0.762-0.557,1.348-1.304,1.348
			s-1.304-0.586-1.304-1.348C11.29,15.669,11.846,15.083,12.593,15.083z M11.583,9.751l-0.073-1.948h2.168l-0.073,1.948
			l-0.308,4.482H11.89L11.583,9.751z"/>
	</g>
</g>
</svg>
