<?xml version="1.0" encoding="utf-8"?>
<!-- Generator: Adobe Illustrator 16.0.0, SVG Export Plug-In . SVG Version: 6.00 Build 0)  -->
<!DOCTYPE svg PUBLIC "-//W3C//DTD SVG 1.1//EN" "http://www.w3.org/Graphics/SVG/1.1/DTD/svg11.dtd">
<svg version="1.1" id="Layer_1" xmlns="http://www.w3.org/2000/svg" xmlns:xlink="http://www.w3.org/1999/xlink" x="0px" y="0px"
	 width="65.266px" height="13.365px" viewBox="0 0 65.266 13.365" enable-background="new 0 0 65.266 13.365" xml:space="preserve">
<path fill="#FFFFFF" d="M34.831,6.495c-0.559,0-0.961,0.183-1.369,0.369v4.217c0.392,0.037,0.615,0.037,0.986,0.037
	c1.342,0,1.525-0.613,1.525-1.469V7.634C35.974,7.003,35.764,6.495,34.831,6.495 M25.927,6.265c-0.931,0-1.143,0.51-1.143,1.142
	v0.354h2.284V7.407C27.068,6.775,26.855,6.265,25.927,6.265 M8.676,10.656c0,0.498,0.235,0.758,0.757,0.758
	c0.56,0,0.89-0.182,1.298-0.369v-1H9.508C8.93,10.044,8.676,10.152,8.676,10.656 M43.494,6.495c-0.932,0-1.254,0.508-1.254,1.139
	v2.309c0,0.634,0.322,1.143,1.254,1.143c0.93,0,1.255-0.509,1.255-1.143V7.634C44.749,7.003,44.424,6.495,43.494,6.495
	 M4.108,13.242H1.369V6.621H0V4.338h1.369v-1.37C1.369,1.107,2.143,0,4.338,0h1.828v2.282H5.023c-0.854,0-0.911,0.319-0.911,0.914
	L4.108,4.338h2.07L5.937,6.621H4.108V13.242z M13.471,13.259h-2.283l-0.098-0.577c-1.044,0.577-1.974,0.671-2.587,0.671
	c-1.675,0-2.566-1.117-2.566-2.662c0-1.822,1.04-2.473,2.9-2.473h1.894V7.824c0-0.93-0.106-1.203-1.539-1.203H6.849l0.229-2.282
	h2.56c3.144,0,3.833,0.992,3.833,3.504V13.259z M21.234,6.788c-1.421-0.243-1.828-0.297-2.513-0.297
	c-1.228,0-1.599,0.271-1.599,1.312v1.971c0,1.041,0.371,1.312,1.599,1.312c0.685,0,1.092-0.054,2.513-0.298v2.226
	c-1.245,0.279-2.055,0.352-2.74,0.352c-2.941,0-4.11-1.545-4.11-3.775v-1.6c0-2.233,1.169-3.78,4.11-3.78
	c0.686,0,1.495,0.074,2.74,0.354V6.788z M29.808,9.589h-5.023v0.184c0,1.041,0.371,1.312,1.599,1.312
	c1.104,0,1.777-0.054,3.195-0.298v2.226c-1.368,0.279-2.08,0.352-3.423,0.352c-2.94,0-4.11-1.545-4.11-3.775V7.761
	c0-1.952,0.868-3.552,3.882-3.552s3.881,1.581,3.881,3.552V9.589z M38.712,9.63c0,2.157-0.617,3.73-4.355,3.73
	c-1.35,0-2.143-0.119-3.633-0.348V0.685l2.738-0.456v4.312c0.592-0.22,1.357-0.332,2.055-0.332c2.74,0,3.195,1.227,3.195,3.197V9.63
	z M47.491,9.678c0,1.86-0.77,3.665-3.987,3.665c-3.22,0-4.004-1.805-4.004-3.665V7.882c0-1.862,0.784-3.667,4.004-3.667
	c3.218,0,3.987,1.805,3.987,3.667V9.678z M56.263,9.678c0,1.86-0.771,3.665-3.987,3.665c-3.22,0-4.003-1.805-4.003-3.665V7.882
	c0-1.862,0.783-3.667,4.003-3.667c3.217,0,3.987,1.805,3.987,3.667V9.678z M65.266,13.242h-2.969l-2.511-4.185v4.185h-2.738V0.685
	l2.738-0.456v8.083l2.511-3.974h2.969l-2.741,4.337L65.266,13.242z M52.267,6.495c-0.931,0-1.254,0.508-1.254,1.139v2.309
	c0,0.634,0.323,1.143,1.254,1.143c0.929,0,1.258-0.509,1.258-1.143V7.634C53.524,7.003,53.195,6.495,52.267,6.495"/>
</svg>
