<?xml version="1.0" encoding="utf-8"?>
<!-- Generator: Adobe Illustrator 16.0.0, SVG Export Plug-In . SVG Version: 6.00 Build 0)  -->
<!DOCTYPE svg PUBLIC "-//W3C//DTD SVG 1.1//EN" "http://www.w3.org/Graphics/SVG/1.1/DTD/svg11.dtd">
<svg version="1.1" id="Layer_1" xmlns="http://www.w3.org/2000/svg" xmlns:xlink="http://www.w3.org/1999/xlink" x="0px" y="0px"
	 width="11.291px" height="30.102px" viewBox="0 0 11.291 30.102" enable-background="new 0 0 11.291 30.102" xml:space="preserve">
<g>
	<path fill="#00ADEE" d="M3.874,26.81l5.848-9.468c0.766-1.241,0.766-3.338,0-4.58L3.874,3.293C3.144,2.11,1.417,1.112-0.016,1
		v28.101C1.416,28.989,3.144,27.991,3.874,26.81z"/>
	<path fill="#FFFFFF" d="M10.572,12.236L4.725,2.768C3.82,1.302,1.744,0.11-0.016,0v0.5c1.601,0.11,3.493,1.199,4.315,2.531
		l5.848,9.468c0.867,1.404,0.867,3.701,0,5.105l-5.848,9.468c-0.822,1.33-2.714,2.42-4.315,2.529v0.5
		c1.758-0.109,3.835-1.302,4.74-2.767l5.848-9.468C11.53,16.314,11.53,13.789,10.572,12.236z"/>
	<path fill="#FFFFFF" d="M3.874,3.293l5.848,9.468c0.766,1.241,0.766,3.338,0,4.58L3.874,26.81c-0.73,1.182-2.458,2.18-3.89,2.292
		v0.5c1.601-0.109,3.493-1.199,4.315-2.529l5.848-9.468c0.867-1.404,0.867-3.701,0-5.105L4.299,3.031
		C3.478,1.699,1.585,0.61-0.016,0.5V1C1.417,1.112,3.144,2.11,3.874,3.293z"/>
</g>
</svg>
