<?xml version="1.0" encoding="utf-8"?>
<!-- Generator: Adobe Illustrator 16.0.0, SVG Export Plug-In . SVG Version: 6.00 Build 0)  -->
<!DOCTYPE svg PUBLIC "-//W3C//DTD SVG 1.1//EN" "http://www.w3.org/Graphics/SVG/1.1/DTD/svg11.dtd">
<svg version="1.1" id="Layer_1" xmlns="http://www.w3.org/2000/svg" xmlns:xlink="http://www.w3.org/1999/xlink" x="0px" y="0px"
	 width="21px" height="17px" viewBox="0 0 21 17" enable-background="new 0 0 21 17" xml:space="preserve">
<g id="layer1_1_" transform="translate(0,-952.36218)" >
	<path id="path5445_1_" fill="#29ABE2" d="M10.693,952.687c-0.148,0.001-0.29,0.061-0.395,0.165
		l-6.932,6.932c-0.223,0.221-0.224,0.58-0.003,0.801c0.22,0.223,0.579,0.225,0.801,0.004c0.001-0.001,0.002-0.002,0.003-0.004
		l6.531-6.53l6.531,6.53c0.219,0.223,0.578,0.225,0.801,0.004s0.225-0.58,0.004-0.802c-0.002-0.001-0.002-0.002-0.004-0.003
		l-1.686-1.686c0.002-0.024,0.002-0.047,0-0.071v-2.835c0.004-0.313-0.248-0.569-0.561-0.572c-0.006,0-0.012,0-0.018,0
		c-0.311,0.006-0.557,0.262-0.555,0.572v1.774l-4.113-4.114C10.993,952.745,10.846,952.685,10.693,952.687z M4.569,961.665
		c-0.313,0.002-0.563,0.259-0.56,0.571v4.35v1.886c0,0.313,0.253,0.566,0.565,0.566h1.886h8.471h1.887
		c0.311,0,0.564-0.253,0.564-0.566v-6.235c0.004-0.313-0.246-0.569-0.557-0.574c-0.314-0.004-0.57,0.245-0.574,0.558
		c0,0.006,0,0.012,0,0.017v5.67h-1.32H6.461h-1.32v-1.32v-4.35c0.004-0.313-0.247-0.569-0.56-0.571
		C4.577,961.664,4.573,961.664,4.569,961.665z"/>
</g>
</svg>
