<?xml version="1.0" encoding="utf-8"?>
<!-- Generator: Adobe Illustrator 16.0.0, SVG Export Plug-In . SVG Version: 6.00 Build 0)  -->
<!DOCTYPE svg PUBLIC "-//W3C//DTD SVG 1.1//EN" "http://www.w3.org/Graphics/SVG/1.1/DTD/svg11.dtd">
<svg version="1.1" id="Layer_1" xmlns="http://www.w3.org/2000/svg" xmlns:xlink="http://www.w3.org/1999/xlink" x="0px" y="0px"
	 width="25px" height="21px" viewBox="0 0 25 21" enable-background="new 0 0 25 21" xml:space="preserve">
<path fill="#FFFFFF" d="M12.5,20.196c-5.388,0-9.771-4.35-9.771-9.696S7.112,0.804,12.5,0.804s9.771,4.35,9.771,9.696
	S17.888,20.196,12.5,20.196z M12.5,2.104c-4.671,0-8.471,3.767-8.471,8.396s3.8,8.396,8.471,8.396s8.471-3.767,8.471-8.396
	S17.171,2.104,12.5,2.104z"/>
<g>
	<g>
		<path fill="#FFFFFF" d="M11.579,6.664c0-0.582,0.324-0.873,0.973-0.873s0.973,0.291,0.973,0.873c0,0.277-0.081,0.493-0.243,0.647
			s-0.405,0.231-0.729,0.231C11.903,7.542,11.579,7.25,11.579,6.664z M13.442,14.908h-1.787V8.357h1.787V14.908z"/>
	</g>
</g>
</svg>
