<?xml version="1.0" encoding="utf-8"?>
<!-- Generator: Adobe Illustrator 16.0.0, SVG Export Plug-In . SVG Version: 6.00 Build 0)  -->
<!DOCTYPE svg PUBLIC "-//W3C//DTD SVG 1.1//EN" "http://www.w3.org/Graphics/SVG/1.1/DTD/svg11.dtd">
<svg version="1.1" id="Layer_1" xmlns="http://www.w3.org/2000/svg" xmlns:xlink="http://www.w3.org/1999/xlink" x="0px" y="0px"
	 width="15px" height="15px" viewBox="0 0 15 15" enable-background="new 0 0 15 15" xml:space="preserve">
<g>
	<path fill="#DB8042" d="M3.786,13.552c0,0.555-0.453,1.009-1.008,1.009H1.265c-0.555,0-1.008-0.454-1.008-1.009v-7.06
		c0-0.555,0.453-1.009,1.008-1.009h1.514c0.555,0,1.008,0.454,1.008,1.009V13.552z"/>
	<path fill="#DB8042" d="M9.265,13.552c0,0.555-0.455,1.009-1.01,1.009H6.743c-0.555,0-1.008-0.454-1.008-1.009V1.448
		c0-0.555,0.453-1.009,1.008-1.009h1.512c0.555,0,1.01,0.454,1.01,1.009V13.552z"/>
	<path fill="#DB8042" d="M14.743,13.552c0,0.555-0.455,1.009-1.01,1.009H12.22c-0.555,0-1.008-0.454-1.008-1.009V3.465
		c0-0.555,0.453-1.009,1.008-1.009h1.514c0.555,0,1.01,0.454,1.01,1.009V13.552z"/>
</g>
</svg>
