<?xml version="1.0" encoding="utf-8"?>
<!-- Generator: Adobe Illustrator 16.0.0, SVG Export Plug-In . SVG Version: 6.00 Build 0)  -->
<!DOCTYPE svg PUBLIC "-//W3C//DTD SVG 1.1//EN" "http://www.w3.org/Graphics/SVG/1.1/DTD/svg11.dtd">
<svg version="1.1" id="Layer_1" xmlns="http://www.w3.org/2000/svg" xmlns:xlink="http://www.w3.org/1999/xlink" x="0px" y="0px"
	 width="24px" height="24px" viewBox="0 0 24 24" enable-background="new 0 0 24 24" xml:space="preserve">
<g id="Your_Icon_2_">
	<path fill="#D95D6A" d="M12,0C5.372,0,0,5.373,0,12s5.372,12,12,12c6.627,0,12-5.373,12-12S18.627,0,12,0z M12,22.696
		C6.092,22.696,1.304,17.907,1.304,12S6.092,1.304,12,1.304c5.907,0,10.695,4.789,10.695,10.696S17.907,22.696,12,22.696z"/>
	<polygon fill="#D95D6A" points="11.52,4 11.52,11.801 8.266,15.055 9.117,15.906 12.371,12.652 12.828,12.199 12.828,10.841 
		12.828,4 	"/>
</g>
</svg>
