<?xml version="1.0" encoding="utf-8"?>
<!-- Generator: Adobe Illustrator 16.0.0, SVG Export Plug-In . SVG Version: 6.00 Build 0)  -->
<!DOCTYPE svg PUBLIC "-//W3C//DTD SVG 1.1//EN" "http://www.w3.org/Graphics/SVG/1.1/DTD/svg11.dtd">
<svg version="1.1" id="Layer_1" xmlns="http://www.w3.org/2000/svg" xmlns:xlink="http://www.w3.org/1999/xlink" x="0px" y="0px"
	 width="145px" height="41px" viewBox="0 0 145 41" enable-background="new 0 0 145 41" xml:space="preserve">
<g>
	<path fill="none" d="M23.109,3.893c-0.907,1.197-1.82,2.393-2.713,3.591C21.289,6.285,22.203,5.09,23.109,3.893z"/>
	<path fill="none" d="M22.669,12.766c-0.164-0.454-0.724-1.518-0.783-1.609c-0.349-0.565-0.755-1.062-1.206-1.518
		c-0.359-0.361-0.76-0.669-1.168-0.955c-0.607-0.428-1.255-0.788-1.949-1.041c-0.935-0.349-1.915-0.526-2.917-0.531l0.015-2.994
		L14.646,7.11c-0.891-0.006-1.784,0.093-2.657,0.376c-0.326,0.102-0.64,0.266-0.958,0.411C10.808,8.002,9.69,8.652,9.376,8.896
		c-0.2,0.152-0.403,0.299-0.584,0.467c-0.075,0.07-0.137,0.148-0.207,0.219c-0.394,0.391-0.743,0.809-1.051,1.259
		c-0.621,0.913-1.058,1.925-1.292,2.995c-0.214,0.971-0.276,1.971-0.142,2.974c0.084,0.634,0.26,1.259,0.492,1.874
		c0.087,0.234,0.192,0.461,0.302,0.685c0.063,0.134,0.107,0.269,0.18,0.4c0.025,0.047,0.035,0.099,0.062,0.145
		c0.615,1.081,1.44,1.97,2.382,2.66c1.037,0.766,2.229,1.255,3.479,1.495c1.191,0.229,2.423,0.203,3.632-0.092
		c0.757-0.184,1.507-0.438,2.222-0.843l0.003-0.001c0.524-0.299,1.002-0.648,1.439-1.031c0.389-0.344,0.737-0.721,1.05-1.121
		c0.783-0.993,1.314-2.135,1.602-3.349v-0.003c0.228-0.969,0.312-1.971,0.191-2.973c-0.014-0.148-0.043-0.291-0.07-0.441
		C22.987,13.727,22.843,13.242,22.669,12.766z"/>
	<path fill="#C32E30" d="M8.585,9.582c0.07-0.07,0.132-0.148,0.207-0.219L4.744,4.979c-0.16,0.145-0.216,0.195-0.368,0.347
		C3.744,5.955,3.093,6.732,2.593,7.47l4.941,3.371C7.842,10.391,8.192,9.973,8.585,9.582z"/>
	<path fill="#F6B72D" d="M7.535,10.841L2.593,7.47c-1.138,1.665-1.767,3.124-2.191,5.091c-0.003,0.002-0.003,0.002-0.003,0.002
		l5.844,1.273C6.477,12.766,6.914,11.754,7.535,10.841z"/>
	<path fill="#EB5D30" d="M6.243,13.836l-5.844-1.273c-0.001,0-0.001,0-0.001,0c-0.382,1.75-0.444,3.271-0.202,5.045l5.905-0.798
		C5.966,15.807,6.029,14.807,6.243,13.836z"/>
	<path fill="#C32E30" d="M6.101,16.81l-5.905,0.798H0.195c0.148,1.105,0.415,2.145,0.807,3.191l5.592-2.115
		C6.361,18.068,6.185,17.443,6.101,16.81z"/>
	<path fill="#EE5E2D" d="M6.593,18.684l-5.592,2.115c0.155,0.409,0.311,0.766,0.5,1.164l5.394-2.595
		C6.786,19.145,6.68,18.918,6.593,18.684z"/>
	<path fill="#C32E30" d="M6.895,19.368l-5.394,2.595c0.125,0.256,0.255,0.51,0.392,0.751c1.707-0.971,3.359-1.909,5.182-2.945
		C7.002,19.637,6.958,19.502,6.895,19.368z"/>
	<path fill="#F6B72D" d="M7.137,19.913C7.11,19.867,7.1,19.815,7.075,19.769c-1.822,1.036-3.475,1.975-5.182,2.945
		c1.021,1.868,2.349,3.372,4.102,4.657l3.524-4.798C8.578,21.883,7.752,20.994,7.137,19.913z"/>
	<path fill="#C32E30" d="M9.519,22.573l-3.524,4.798l0.001,0.002c1.762,1.293,3.632,2.148,5.588,2.562
		c0.471-1.957,0.942-3.912,1.415-5.867C11.748,23.828,10.556,23.339,9.519,22.573z"/>
	<path fill="#F6B72D" d="M12.999,24.068c-0.473,1.955-0.944,3.91-1.415,5.867c2.062,0.439,4.226,0.393,6.462-0.154l-1.415-5.805
		C15.421,24.271,14.19,24.298,12.999,24.068z"/>
	<path fill="#C32E30" d="M18.855,23.133c0.976,1.715,1.949,3.43,2.941,5.174c0.87-0.488,1.686-1.066,2.442-1.744
		c-1.316-1.49-2.628-2.974-3.944-4.461C19.857,22.484,19.379,22.834,18.855,23.133z"/>
	<path fill="#EB5D30" d="M18.852,23.134c-0.715,0.405-1.465,0.659-2.222,0.843l1.415,5.805c1.36-0.331,2.607-0.826,3.751-1.475
		c-0.992-1.744-1.966-3.459-2.941-5.174L18.852,23.134z"/>
	<path fill="#F6B72D" d="M20.294,22.102c1.316,1.487,2.628,2.971,3.944,4.461c0.626-0.566,1.218-1.193,1.771-1.895l-4.665-3.688
		C21.032,21.381,20.683,21.758,20.294,22.102z"/>
	<path fill="#C32E30" d="M21.344,20.98l4.665,3.688c1.387-1.758,2.223-3.486,2.739-5.664l-5.803-1.372
		C22.659,18.846,22.127,19.987,21.344,20.98z"/>
	<path fill="#F6B72D" d="M29.038,13.961l-5.9,0.695c0.12,1.002,0.036,2.004-0.191,2.973l5.801,1.372l0.002,0.003
		C29.157,17.258,29.246,15.742,29.038,13.961z"/>
	<rect x="25.846" y="15.335" fill="#909293" width="0.003" height="5.963"/>
	<path fill="#C32E30" d="M23.137,14.656l5.9-0.695c-0.026-0.213-0.075-0.539-0.108-0.751l-5.862,1.005
		C23.094,14.365,23.124,14.508,23.137,14.656z"/>
	<path fill="#EE5E2D" d="M23.067,14.215l5.862-1.005c-0.15-0.88-0.348-1.612-0.646-2.452l-5.614,2.008
		C22.843,13.242,22.987,13.727,23.067,14.215z"/>
	<path fill="#F6B72D" d="M22.669,12.766l5.614-2.008c-0.374-1.05-0.73-1.787-1.314-2.738l-5.083,3.137
		C21.946,11.248,22.505,12.312,22.669,12.766z"/>
	<path fill="#EE5E2D" d="M21.886,11.156l5.083-3.137c-0.588-0.949-1.257-1.785-2.043-2.58L20.68,9.639
		C21.131,10.094,21.538,10.591,21.886,11.156z"/>
	<path fill="#C32E30" d="M19.512,8.684c0.408,0.286,0.809,0.594,1.168,0.955l4.246-4.199c-0.59-0.596-1.194-1.092-1.817-1.547
		c-0.906,1.197-1.82,2.393-2.713,3.591C20.099,7.883,19.804,8.283,19.512,8.684z"/>
	<path fill="#EE5E2D" d="M19.512,8.684c0.292-0.4,0.587-0.801,0.884-1.2c0.893-1.198,1.806-2.394,2.713-3.591
		c-1.044-0.764-2.149-1.382-3.463-1.869l-2.083,5.619C18.257,7.896,18.905,8.256,19.512,8.684z"/>
	<path fill="#F6B72D" d="M14.661,4.117l-0.015,2.994c1.002,0.005,1.982,0.183,2.917,0.531l2.083-5.619
		c-1.683-0.619-3.182-0.892-4.97-0.9l0,0l0,0L14.661,4.117z"/>
	<path fill="#EB5D30" d="M14.646,7.11l0.015-2.993l0.016-2.994l0,0c-1.565-0.008-3.006,0.209-4.494,0.686l1.807,5.678
		C12.862,7.203,13.755,7.104,14.646,7.11z"/>
	<path fill="#C32E30" d="M11.989,7.486l-1.807-5.678C9.546,2.014,9.133,2.174,8.526,2.451l2.505,5.446
		C11.349,7.752,11.663,7.588,11.989,7.486z"/>
	<path fill="#F6B72D" d="M11.031,7.897L8.526,2.451C7.511,2.922,6.591,3.473,5.71,4.156l3.666,4.74
		C9.69,8.652,10.808,8.002,11.031,7.897z"/>
	<path fill="#EB5D30" d="M9.376,8.896L5.71,4.156c-0.35,0.27-0.646,0.521-0.967,0.822l4.049,4.385
		C8.973,9.195,9.176,9.049,9.376,8.896z"/>
</g>
<g>
	<g>
		<g>
			<path fill="#C32E30" d="M33.567,22.164c-0.531,0-0.898-0.059-1.236-0.117v-1.647c0.236,0.089,0.559,0.147,0.912,0.147
				c0.691,0,1.089-0.295,1.089-1.368V9.19h1.912v10.062C36.244,20.885,35.582,22.164,33.567,22.164z"/>
			<path fill="#C32E30" d="M43.318,19.134c0-0.338,0.015-0.896,0.088-1.309l-0.029-0.015c-0.427,0.868-1.279,1.471-2.472,1.471
				c-1.661,0-2.191-1.059-2.191-2.338v-3.692c-0.353-0.06-0.839-0.118-1.265-0.147v-1.178c0.971-0.117,2.133-0.16,3.147-0.131v4.691
				c0,0.766,0.207,1.221,0.897,1.221c0.956,0,1.706-1.088,1.706-2.367v-3.531h1.869v5.869c0.354,0.059,0.853,0.119,1.279,0.147
				v1.177C45.422,19.119,44.289,19.164,43.318,19.134z"/>
			<path fill="#C32E30" d="M56.806,19.119v-4.633c0-0.781-0.177-1.266-0.868-1.266c-0.824,0-1.678,0.971-1.678,2.397v3.501h-1.853
				v-4.633c0-0.722-0.147-1.266-0.868-1.266c-0.868,0-1.678,1.029-1.678,2.397v3.501h-1.868v-5.868
				c-0.353-0.06-0.852-0.118-1.279-0.147v-1.178c0.927-0.117,2.074-0.16,3.045-0.131c0,0.353-0.03,0.896-0.088,1.322h0.015
				c0.441-0.896,1.324-1.471,2.412-1.471c1.294,0,1.839,0.766,2.016,1.471c0.339-0.72,1.146-1.471,2.383-1.471
				c1.412,0,2.192,0.78,2.192,2.443v5.029H56.806z"/>
			<path fill="#C32E30" d="M59.921,13.104v-1.178c0.928-0.117,2.045-0.16,3.016-0.131c0,0.365-0.014,0.852-0.073,1.234h0.03
				c0.411-0.854,1.191-1.367,2.294-1.367c1.735,0,2.678,1.25,2.678,3.412c0,2.545-1.324,4.148-3.854,4.148
				c-0.353,0-0.633-0.015-0.942-0.059v3.5h-1.867v-9.413C60.849,13.191,60.348,13.133,59.921,13.104z M64.644,13.206
				c-0.985,0-1.575,1.147-1.575,2.397v2.031c0.295,0.088,0.604,0.131,0.986,0.131c1.074,0,1.839-0.676,1.839-2.485
				C65.894,13.912,65.498,13.206,64.644,13.206z"/>
			<path fill="#C32E30" d="M71.262,19.281c-0.706,0-1.412-0.073-2.029-0.234l0.116-1.781c0.559,0.191,1.354,0.354,2.075,0.354
				c0.971,0,1.722-0.396,1.722-1.309c0-1.898-4.165-1.03-4.165-4.296c0-1.765,1.398-2.986,3.782-2.986
				c0.559,0,1.206,0.073,1.793,0.177l-0.104,1.678c-0.559-0.162-1.175-0.266-1.779-0.266c-1.104,0-1.662,0.5-1.662,1.207
				c0,1.779,4.177,1.117,4.177,4.221C75.189,17.912,73.703,19.281,71.262,19.281z"/>
			<path fill="#C32E30" d="M79.264,19.268c-1.619,0-2.119-0.589-2.119-2.295v-3.707h-1.266v-1.457h1.252v-2.25l1.883-0.502v2.752
				h1.779v1.457h-1.779v3.207c0,0.941,0.221,1.205,0.867,1.205c0.309,0,0.648-0.043,0.912-0.118v1.517
				C80.322,19.193,79.777,19.268,79.264,19.268z"/>
			<path fill="#C32E30" d="M86.234,19.134c0-0.425,0.016-0.867,0.072-1.249l-0.014-0.016c-0.352,0.824-1.25,1.398-2.338,1.398
				c-1.324,0-2.09-0.75-2.09-1.928c0-1.75,1.736-2.678,4.223-2.678v-0.396c0-0.766-0.369-1.162-1.428-1.162
				c-0.66,0-1.543,0.221-2.162,0.572l-0.162-1.572c0.736-0.266,1.678-0.457,2.619-0.457c2.354,0,3.016,0.941,3.016,2.545v3.486
				c0.354,0.059,0.854,0.119,1.279,0.147v1.177C88.324,19.119,87.191,19.164,86.234,19.134z M86.088,15.885
				c-1.986,0-2.428,0.572-2.428,1.161c0,0.47,0.322,0.779,0.869,0.779c0.926,0,1.559-0.882,1.559-1.766V15.885z"/>
			<path fill="#C32E30" d="M92.408,13.279h0.029c0.354-0.927,1.059-1.734,2.324-1.633L94.674,13.5
				c-1.354-0.279-2.029,0.604-2.029,2.633v2.986h-1.869v-5.868c-0.352-0.06-0.854-0.118-1.279-0.147v-1.178
				c0.928-0.117,2.061-0.16,3.045-0.131C92.541,12.176,92.496,12.766,92.408,13.279z"/>
			<path fill="#C32E30" d="M98.799,19.268c-1.619,0-2.119-0.589-2.119-2.295v-3.707h-1.266v-1.457h1.252v-2.25l1.881-0.502v2.752
				h1.781v1.457h-1.781v3.207c0,0.941,0.223,1.205,0.869,1.205c0.309,0,0.646-0.043,0.912-0.118v1.517
				C99.857,19.193,99.312,19.268,98.799,19.268z"/>
		</g>
	</g>
	<path fill="#C32E30" d="M105.795,9.004c-0.434-0.168-0.93-0.271-1.436-0.271c-1.066,0-1.834,0.673-1.834,1.883
		c0,1.145,0.623,1.818,1.723,1.818c0.256,0,0.48-0.032,0.689-0.096v-1.883h1.039v2.579c-0.535,0.216-1.199,0.337-1.85,0.337
		c-1.715,0-2.732-1.01-2.732-2.66c0-1.699,1.154-2.908,3.029-2.908c0.537,0,1.064,0.097,1.529,0.232L105.795,9.004z"/>
	<path fill="#C32E30" d="M110.297,11.464h-2.467c-0.008,0.745,0.359,1.106,1.098,1.106c0.393,0,0.816-0.09,1.162-0.248l0.096,0.791
		c-0.426,0.17-0.93,0.258-1.426,0.258c-1.266,0-1.971-0.634-1.971-2.035c0-1.219,0.672-2.115,1.867-2.115
		c1.16,0,1.674,0.793,1.674,1.779C110.33,11.135,110.32,11.295,110.297,11.464z M108.623,9.973c-0.424,0-0.721,0.313-0.775,0.795
		h1.465C109.328,10.27,109.057,9.973,108.623,9.973z"/>
</g>
<g>
	<path fill="#F6B72D" d="M144.947,11.312c-4.324,1.226-8.453,2.927-12.928,5.311c-0.01-0.006-0.01-0.006-0.01-0.006L144.947,41
		V11.312z"/>
	<path fill="#EB5D30" d="M144.947,41L132.01,16.617c-0.004-0.006-0.004-0.006-0.004-0.006c-7.303,3.873-12.852,8.189-18.371,14.332
		L124.779,41H144.947z"/>
	<path fill="#C32E30" d="M113.635,30.943l-0.004-0.004c-2.85,3.152-5.289,6.472-7.473,10.061h18.621L113.635,30.943z"/>
</g>
</svg>
