<?xml version="1.0" encoding="utf-8"?>
<!-- Generator: Adobe Illustrator 16.0.0, SVG Export Plug-In . SVG Version: 6.00 Build 0)  -->
<!DOCTYPE svg PUBLIC "-//W3C//DTD SVG 1.1//EN" "http://www.w3.org/Graphics/SVG/1.1/DTD/svg11.dtd">
<svg version="1.1" id="Layer_1" xmlns="http://www.w3.org/2000/svg" xmlns:xlink="http://www.w3.org/1999/xlink" x="0px" y="0px"
	 width="59.991px" height="60px" viewBox="0 0 59.991 60" enable-background="new 0 0 59.991 60" xml:space="preserve">
<g id="Your_Icon_2_">
	<path fill="#F1F9FD" d="M10.807,22.728c0,0.116,0,0.224,0,0.341c0.264,0.186,0.883,0.124,0.774-0.341
		C11.434,22.604,10.947,22.604,10.807,22.728z"/>
	<path fill="#F1F9FD" d="M51.414,39.951c0.008-0.247,0.125-0.362,0.07-0.665c0.449-0.324,0.41-0.712,0.586-1.385
		c0.266-0.99,1.457-2.677,0.443-3.436c-0.373,0.341-0.109,0.611-0.295,0.952c-0.301,0.565-1.129,0.635-1.462,1.099
		c-0.364,0.51-0.479,1.439-0.216,1.903c-0.534,0.595-0.858,1.516-0.373,2.405C50.843,40.794,51.045,40.284,51.414,39.951z"/>
	<path fill="#F1F9FD" d="M58.023,19.293c-1.527-3.993-3.869-7.581-6.84-10.541c-5.365-5.344-12.737-8.668-20.893-8.748
		c-0.1,0-0.192-0.004-0.286-0.004c-5.393,0-10.445,1.432-14.817,3.916C8.826,7.54,3.921,13.419,1.562,20.469
		c-0.999,2.971-1.549,6.151-1.558,9.455c0,0.031,0,0.046,0,0.076c0,1.772,0.163,3.515,0.457,5.208
		c0.409,2.344,1.093,4.588,2.014,6.717C7.054,52.471,17.508,59.868,29.71,59.992c0.1,0,0.192,0.008,0.293,0.008
		c5.378,0,10.415-1.425,14.778-3.9c9.085-5.153,15.214-14.91,15.214-26.1C59.996,26.225,59.293,22.619,58.023,19.293z
		 M39.174,53.878c-0.448-0.053-0.589-0.285-0.982-0.068c0.014-0.387-0.674-0.07-0.704-0.426c-1.115,0.148-2.16,0.264-3.004,0.705
		c-0.309,0.162-0.533,0.494-0.843,0.564c-0.209,0.039-0.503-0.101-0.704-0.069c-0.62,0.077-1.649,0.929-2.376,1.052
		c-0.331,0.048-0.674-0.045-1.062,0c-0.083,0.039-0.185,0.07-0.276,0.109c-2.237-0.07-4.396-0.419-6.446-1.021
		c0.054-0.085,0.117-0.171,0.078-0.355c-1.107-0.666-1.889-1.656-2.941-2.385c-0.022-0.532,0.427-0.595,0.845-0.695
		c-0.279-0.665-1.742-0.379-1.68,0.557c0.014,0.318,0.238,0.295,0.277,0.705c-0.316-0.147-0.362-0.572-0.772-0.627
		c0.192-0.131,0.162-0.48-0.14-0.494c-0.325-0.064-0.13,0.387-0.278,0.494c-0.349,0-0.341-0.078-0.627,0
		c0.031,0.434,0.603,0.581,0.905,0.348c0.146,0.248,0.146,0.381,0,0.636c0.264,0.386,0.912,0.347,1.329,0.27
		c0.141,0.022-0.014-0.192-0.066-0.208c0.146-0.186,0.309,0.201,0.347,0.355c-0.21,0.093-0.426,0.141-0.634,0.162
		c-0.737-0.332-1.447-0.696-2.144-1.091c-0.077-0.171-0.263-0.239-0.473-0.279l0,0c-0.147-0.077-0.287-0.17-0.425-0.255
		c0,0,0,0,0-0.009c-0.008,0-0.008,0-0.022-0.007c-1.882-1.176-3.593-2.585-5.108-4.193c-0.046-0.094-0.116-0.172-0.2-0.21
		c-4.226-4.587-6.802-10.716-6.802-17.44c0-2.561,0.37-5.028,1.067-7.366c0.1,0.294,0.086,0.705,0.323,0.859
		c0.429-0.256-0.052-0.976-0.121-1.479c0-0.015,0.007-0.039,0.015-0.053c0.163,0.447,0.54,0.85,0.665,1.322
		c0.069,0.271-0.094,0.456-0.069,0.695c0.085,0.836,0.733,0.93,1.469,1.479c0.349,0.086,0.294-0.215,0.558-0.207
		c0.201,0.936,1.571,0.719,1.618,1.811c0.139,0.23,0.464,0.277,0.479,0.633c0.373-0.069,0.334,0.271,0.774,0.287
		c0.132-0.108,0.015-0.457,0.277-0.426c0.357,0.301,0.381,0.936,0.35,1.609c-0.256,0.643-1.122,1.562-0.486,2.245
		c-0.542,0.557,0.03,1.461,0.486,1.678c0.27,1.021,0.674,1.896,1.261,2.584c0.589,0.125,0.82,0.589,1.123,0.984
		c0.008,1.485,0.201,2.77,0.349,4.061c0.092,0.705-0.164,1.408-0.133,2.098c0.039,0.953,0.743,1.571,0.626,2.592
		c-0.114,0.01-0.27-0.03-0.277,0.07c-0.116,0.426,0.271,0.333,0.348,0.564c0.302,0.998,0.511,2.099,1.471,2.446
		c0.216,0.03,0.052-0.325,0.216-0.341c0.069-0.186,0.023,0.596-0.208,0.557c0.301,0.44,1.236,0.689,1.819,0.487
		c-0.62-0.45-1.192-0.951-1.542-1.679c0.201-0.311,0.38-0.65,0.558-0.977c-0.038-0.34-0.395-0.348-0.558-0.564
		c-0.061-0.293,0.312-0.154,0.419-0.277c-0.107-0.102-0.062-0.356-0.069-0.565c0.085-0.093,0.339-0.024,0.348-0.21
		c0.031-0.348-0.558-0.094-0.487-0.486c0.179,0.062,0.372,0.093,0.627,0.069c0.116-0.239,0-0.464,0-0.696
		c1.035,0.355,1.624-0.426,1.122-1.191c0.202,0.008,0.456-0.039,0.565,0.068c0.819-0.479,1.09-1.516,1.679-2.243
		c0.021-0.325-0.131-0.479-0.069-0.836c0.263-0.433,0.829-0.563,1.184-0.913c0.317-0.031,0.596,0.1,0.845,0
		c0.641-0.256,0.904-2.234,0.772-3.358c0.266-0.208,1.608-1.593,1.323-2.383c-0.309-0.866-2.213-1.757-3.498-1.608
		c-0.324-0.751-1.176-0.65-1.818-0.983c-0.238-1.254-0.758-2.229-2.383-2.098c-0.318-0.696-1.309-0.975-1.402-1.68
		c-0.448-0.053-0.756,0.033-0.904,0.279c-0.262-0.17-0.395-0.094-0.773-0.069c-0.123-0.255-0.395-0.348-0.486-0.626
		c-0.324,0-0.296,0.232-0.426-0.078c-0.58,0.264-1.161,0.52-1.331,1.191c-0.256-0.131-0.82-0.309-1.254,0
		c-0.75-0.61,0.464-2.723-1.331-2.174c0.132-0.581,0.381-1.061,0.486-1.672c-0.084-0.062-0.169-0.092-0.239-0.123
		c0.201-0.256,0.535-0.371,1.039-0.326c0-0.967-1.045-0.982-1.804-0.765c-0.125-0.226-0.419-0.487-0.766-0.72
		c0.171-0.279,0.402-0.487,0.719-0.59c0.341-0.029,0.35,0.264,0.635,0.279c0.186-0.068,0.232-0.286,0.208-0.564
		c0.534-0.109,0.598,0.125,1.053,0c0.063,0.588,0.187,1.129,0.418,1.541c0.79-0.697-0.108-1.903,0.417-2.725
		c0.388-0.596,1.115-0.596,1.333-1.33c0.038-0.232-0.047-0.326-0.071-0.488c0.418-0.264,0.542-0.82,0.775-1.269
		c0.447-0.153,0.572-0.634,1.043-0.766c0.094-0.278-0.224-0.14-0.14-0.417c0.201-0.449,0.812-0.504,1.124-0.837
		c0.093,0.108-0.063,0.41,0.139,0.558c0.448-0.318,1.045-0.495,1.471-0.844c0.061-0.311-0.125-0.387-0.349-0.418
		c0.007-0.201,0.293-0.123,0.278-0.348c-0.047-0.248-0.535-0.078-0.696-0.209c0.054-0.621,0.649-0.277,1.044-0.557
		c0.069-0.35-0.44-0.122-0.558-0.285c0.434-0.24,1.2-0.154,1.263-0.773c0.625-0.092,0.951-0.49,1.112-1.049
		c-0.03-0.359-0.539-0.24-0.485-0.699c-0.256,0.023-0.458-0.013-0.627-0.066c-0.163-0.682-0.34-1.342-0.564-1.965
		c-0.201,0.027-0.325,0.127-0.428,0.255c-0.014-0.007-0.021-0.019-0.038-0.023c-0.069,0.094-0.232,0.063-0.362-0.019
		c1.516-0.906,3.132-1.66,4.836-2.244c0.076,0.1,0.162,0.197,0.331,0.213c-0.13,0.289-0.139,0.41,0.07,0.626
		c0.286,0.056,0.402-0.065,0.635-0.065c0.14,0.094,0.178,0.29,0.348,0.348c0.534-0.329,1.268-0.809,1.053-1.47
		c0.169-0.085,0.264-0.255,0.341-0.441c1.811-0.403,3.682-0.615,5.608-0.615c2.902,0,5.688,0.487,8.296,1.374
		c-0.234,0.673,0.046,1.818,0.664,1.922c0.479,0.082,0.595-0.297,1.124-0.418c0.107,0.492,0.416,0.795,0.694,1.119
		c0.015,0.346-0.518,0.135-0.416,0.561c0.138,0.43,1.098,0.441,1.399,0.279c0.086-0.615,0.055-1.343,0.566-1.541
		c0.008-0.061,0.008-0.115,0-0.158c0.486,0.268,0.958,0.55,1.425,0.848c0.075,0.229,0.316,0.379,0.324,0.716
		c-0.334,0.019-0.218-0.399-0.567-0.353c-0.457,0.145-0.331,0.875-0.556,1.262c-0.845-0.311-1.602,0.361-2.306-0.283
		c0.216-0.471-0.312-0.443-0.495-0.699c0.184-0.503,0.209-0.736,0-1.258c-0.937,0.049-0.811,1.061-0.487,1.678
		c-0.31,0.028-0.821,0.01-1.193,0.145c-0.238,0.275-0.276,0.75-0.843,0.701c-0.216-0.193,0.24-0.348,0-0.566
		c-0.1-0.135-0.355-0.104-0.486-0.207c-0.015-0.48-0.288-0.697-0.636-0.844c0.054-0.261,0.095-0.495-0.276-0.488
		c-0.049-0.297,0.224-0.282,0.207-0.561c-0.047-0.178-0.225-0.244-0.488-0.209c-0.062-0.197,0.103-0.182,0.071-0.348
		c-0.116-0.121-0.41-0.058-0.635-0.073c-0.332,0.205-0.278,0.79-0.558,1.053c-0.031,0.222,0.342,0.022,0.279,0.278
		c0.046,0.278-0.332,0.088-0.348,0c-0.457,0.182-0.572,0.568-1.123,0.49c0.062,0.268,0.095,0.566,0.068,0.91
		c0.179,0.178,0.496,0.208,0.628,0.422c0.417-0.086,0.72-0.26,0.913-0.566c0-0.208,0-0.418,0-0.626
		c0.17-0.062,0.309-0.165,0.564-0.14c-0.068,0.275,0.209,0.209,0.139,0.484c-0.17-0.004-0.34-0.008-0.418,0.073
		c-0.053,0.264,0.116,0.298,0.07,0.562c-0.179-0.013-0.341-0.013-0.417,0.074c0.015,0.18,0.161,0.247,0.417,0.207
		c-0.031,0.291-0.334,0.321-0.417,0.558c0.487,0.165,1.314,0.062,1.747-0.069c-0.14,0.348,0.226,0.186,0.21,0.418
		c-0.689-0.352-0.712,0.283-1.541,0.143c-0.101,0.09-0.07,0.303-0.07,0.491c0.619,0.321,1.533,0.688,1.117,1.813
		c-0.984,0.162-2.082-0.541-2.656,0.078c0.409,0.85-0.094,1.693,0.07,2.521c0.418,0.107,1.021,0.039,1.254,0.34
		c-0.209,0.193-0.419,0.38-0.419,0.774c-1.029,0.232-0.89,1.641-1.539,2.243c-1.263,0.473-1.595,1.865-2.314,2.863
		c0.604,0.611,0.318,1.981-0.068,2.6c0.107,0.24,0.293,0.402,0.208,0.836c0.207,0.333,0.571,0.503,0.912,0.704
		c0.487,1.106,1.037,2.523,2.236,2.653c0.527,0.062,0.797-0.395,1.264-0.417c0.447-0.017,0.578,0.317,1.053,0.348
		c0.718-0.192,1.374-0.82,2.103-0.696c0.604,0.107,1.021,1.16,1.748,0.626c0.255,0.487,0.156,1.47-0.076,1.888
		c0.271,0.905,0.951,1.394,1.12,2.384c1.324,0.936-0.192,2.337-0.069,3.574c0.063,0.619,0.621,1.084,0.706,1.749
		c0.155,1.3,0.55,2.252,1.191,3.218c0.007,0.201-0.24,0.14-0.141,0.418c0.271,1.092,1.425-0.054,2.098,0.209
		c0.673-0.426,1.456-0.734,1.681-1.609c0.896-0.34,0.943-1.532,1.399-2.314c0.117,0,0.233,0,0.349,0c0.256-0.371,0.278-1.16,0-1.531
		c0.317-0.665,0.92-1.044,1.469-1.471c0.032-0.881,0.373-1.423,0.141-2.104c-0.108-0.325-0.52-0.488-0.558-0.773
		c-0.171-1.106,1.284-1.393,1.401-2.587c0.186-0.044,0.264-0.199,0.418-0.277c0.225-1.229,1.092-2.181,0.982-3.504
		c-0.527,0.254-1.176,0.316-1.68,0.426c-0.184-0.226,0.125-0.395,0.209-0.566c-0.572-0.874-1.74-1.826-1.54-3.01
		c-0.465-0.611-0.982-1.541-1.054-2.307c0.436-0.092,0.572,0.676,0.705,1.115c0.062,0.287,0.372,0.332,0.488,0.566
		c0.062,1.291,1.051,1.646,1.114,2.939c0.278,0.215,0.239,0.742,0.633,0.836c0.279,0.047,0.203-0.264,0.209-0.488
		c0.75-0.51,1.664-0.85,2.307-1.469c0-0.52,0.324-0.574,0.285-0.984c-0.045-0.449-0.635-0.61-0.635-1.113
		c0.365,0.031,0.613,0.178,0.945,0.247c0.758,2.423,1.16,4.991,1.16,7.651c0,10.393-6.167,19.353-15.036,23.415
		C40.056,53.384,39.5,53.445,39.174,53.878z M16,12.575c-0.192-0.062,0.062-0.245,0.062-0.351c0.271,0.035,0.348-0.127,0.635-0.068
		C16.656,12.49,16.185,12.393,16,12.575z M16.348,13.412c0.161,0.022,0.287,0.084,0.418,0.146
		C16.703,13.705,16.255,13.652,16.348,13.412z M12.773,12.225c-0.241-0.371-0.085-0.846,0-1.26c0.007-0.047-0.016-0.064-0.047-0.07
		c0.441-0.398,0.897-0.773,1.362-1.146c-0.086,0.663-0.597,0.903-0.967,1.286C13.299,11.418,13.329,12.194,12.773,12.225z
		 M12.215,14.889c-0.301-0.27-0.371,0.148-0.417,0.35c-0.07-0.209-0.171-0.396-0.217-0.635c0.217,0.1,0.255-0.031,0.563,0
		C12.139,14.734,12.232,14.75,12.215,14.889z M10.676,14.254c0.101-0.131,0.294-0.169,0.348-0.348
		c0.225,0.062,0.364,0.193,0.348,0.488c-0.24-0.055-0.264,0.108-0.487,0.068C10.961,14.246,10.955,14.238,10.676,14.254z
		 M10.466,14.541c-0.123-0.053-0.009-0.131,0-0.217C10.59,14.378,10.474,14.448,10.466,14.541z M8.834,22.294
		c-0.016,0.163,0.1,0.193,0.084,0.349c-0.238-0.016-0.462-0.009-0.425,0.254c0.155,0.411,0.565,0.218,0.867,0.381
		c-0.542,0.068-0.458,1.314-1.347,1.137c-0.07-0.209-0.132-0.441-0.171-0.674c0.077-0.016,0.18-0.031,0.31-0.068
		c-0.077-0.434-0.247-0.543-0.396-0.504c-0.015-0.201-0.007-0.41,0.009-0.611C8.233,22.58,8.485,22.387,8.834,22.294z
		 M13.198,26.713c-0.007-0.17,0.109-0.209,0.141-0.35C13.593,26.418,13.422,26.744,13.198,26.713z M53.449,21.535
		c-0.225,0.342-0.309,0.806-0.91,0.775c-0.156-0.193-0.203-0.504-0.211-0.846c-0.131-0.131-0.256-0.021-0.418,0
		c-0.115-0.447-0.402-0.718-0.426-1.26c0.76,0.208,0.596,1.314,1.34,1.54C53.123,21.768,53.18,21.543,53.449,21.535z M51.553,15.887
		c0,0.016,0,0.031,0.01,0.047c0.053,0.076,0.117,0.154,0.17,0.232c0.031,0.046,0.055,0.094,0.076,0.131
		c0.172,0.264,0.303,0.557,0.311,0.967c-1.061,0.047-1.471-0.773-1.115-1.748c-0.448-0.449-0.865-1.121-1.043-1.795
		C50.526,14.41,51.059,15.137,51.553,15.887z M44.072,19.083c-1.107-0.387-1.733-1.253-2.801-1.679
		c0.161-0.572-0.325-0.674-0.141-1.053c-0.208-0.078-0.409-0.146-0.563-0.279c-0.209,0.023-0.311,0.154-0.488,0.217
		c-0.873-0.107-1.648-0.186-2.452,0c-0.75,0.163-1.511,0.766-2.236,0.14c0.905-0.054,1.546-0.288,2.027-0.773
		c-0.154-1.185,0.891-1.167,1.052-2.036c0.667,0.248,1.177,0.07,1.68-0.207c0.564,0.881,1.842,1.051,2.098,2.243
		c-0.364,0.062-0.681,0.178-1.045-0.069c-0.13,0.41,0.326,0.781,0.557,1.053c0.218,0.053,0.257-0.078,0.418-0.069
		c0.031-0.247-0.023-0.396-0.068-0.565c0.209,0,0.355,0.208,0.494,0.076c0.038-0.215,0.194-0.324,0.419-0.355
		c0.045-0.256-0.154-0.27-0.141-0.486c0.231,0,0.341,0.332,0.559,0.139c0.022-0.627-0.667-0.549-0.768-1.053
		c0.418-0.123,0.55,0.055,0.837,0.217c0.17,1.152,0.597,2.059,1.541,2.445c0.115,0.055,0.115-0.324,0-0.279
		c0.068-0.215,0.192,0.078,0.277,0.07c0.17,0.023-0.039-0.317,0.217-0.208c-0.179-0.558-0.286-0.76-0.286-1.472
		c0.548,0,0.503,0.852,0.493,1.192c0.326,0.449,0.807,1.083,1.611,0.835c0.248-0.014,0.224,0.24,0.418,0.279
		c0.302,0,0.449-0.162,0.773-0.139c-0.078,0.664-0.016,1.191-0.14,1.887c-1.371-0.107-2.708-0.217-3.428-1.113
		c-0.209,0.208-0.804,0.038-0.982,0.271C43.948,18.65,44.11,18.766,44.072,19.083z M37.417,10.404
		c0.216-0.102,0.101,0.405-0.069,0.348C37.316,10.584,37.472,10.601,37.417,10.404z M46.448,14.889
		c-0.132-0.17-0.24-0.363-0.419-0.494c0.225-0.356,0.372-0.789,0.627-1.123c0.333-0.023,0.316,0.287,0.704,0.209
		c-0.086,0.208-0.021,0.24,0.062,0.426c0.31-0.154,0.626,0.008,0.921,0.069c0.055-0.271-0.153-0.271-0.286-0.356
		c0.108-0.139,0.494-0.014,0.634-0.139c-0.023,0.162,0.015,0.271,0.14,0.287c0.008,0.146-0.247,0.031-0.349,0.061
		c0.047,0.148,0.132,0.248,0.225,0.348c-0.101,0.009-0.201,0.023-0.294,0.07c-0.038,0.504,0.247,0.666,0.518,0.852
		c0.172-0.14,0.474-0.148,0.642-0.295c0.181,0.141,0.319,0.311,0.373,0.573C48.691,15.408,47.972,14.463,46.448,14.889z"/>
</g>
</svg>
