<?xml version="1.0" encoding="utf-8"?>
<!-- Generator: Adobe Illustrator 16.0.0, SVG Export Plug-In . SVG Version: 6.00 Build 0)  -->
<!DOCTYPE svg PUBLIC "-//W3C//DTD SVG 1.1//EN" "http://www.w3.org/Graphics/SVG/1.1/DTD/svg11.dtd">
<svg version="1.1" id="Layer_1" xmlns="http://www.w3.org/2000/svg" xmlns:xlink="http://www.w3.org/1999/xlink" x="0px" y="0px"
	 width="20px" height="16.999px" viewBox="0 1.124 20 16.999" enable-background="new 0 1.124 20 16.999" xml:space="preserve">
<g>
	<polygon fill="#3C4352" points="14.328,6.207 13.771,6.742 16.158,9.129 8.311,9.129 8.311,9.889 16.158,9.889 13.771,12.275 
		14.328,12.81 17.632,9.508 	"/>
	<g>
		<path fill="#3C4352" d="M11.896,5.365v-4.03c-0.596-0.134-1.212-0.211-1.848-0.211c-4.693,0-8.5,3.806-8.5,8.5
			c0,4.695,3.807,8.5,8.5,8.5c0.702,0,1.38-0.094,2.032-0.256v-4.033h-0.843v3.191c-0.387,0.062-0.785,0.098-1.189,0.098
			c-4.136,0-7.5-3.365-7.5-7.5c0-4.135,3.364-7.5,7.5-7.5c0.335,0,0.661,0.031,0.984,0.074v3.167H11.896z"/>
	</g>
</g>
</svg>
