<?xml version="1.0" encoding="utf-8"?>
<!-- Generator: Adobe Illustrator 16.0.0, SVG Export Plug-In . SVG Version: 6.00 Build 0)  -->
<!DOCTYPE svg PUBLIC "-//W3C//DTD SVG 1.1//EN" "http://www.w3.org/Graphics/SVG/1.1/DTD/svg11.dtd">
<svg version="1.1" id="Layer_1" xmlns="http://www.w3.org/2000/svg" xmlns:xlink="http://www.w3.org/1999/xlink" x="0px" y="0px"
	 width="14px" height="14px" viewBox="0 0 14 14" enable-background="new 0 0 14 14" xml:space="preserve">
<g>
	<path fill="#363636" d="M14,13.7c0,0.165-0.135,0.3-0.3,0.3H0.3C0.135,14,0,13.865,0,13.7v-2.4C0,11.135,0.135,11,0.3,11h13.4
		c0.165,0,0.3,0.135,0.3,0.3V13.7z"/>
</g>
<g>
	<path fill="#363636" d="M14,3.7C14,3.865,13.865,4,13.7,4H0.3C0.135,4,0,3.865,0,3.7V1.3C0,1.135,0.135,1,0.3,1h13.4
		C13.865,1,14,1.135,14,1.3V3.7z"/>
</g>
<g>
	<path fill="#363636" d="M14,8.7C14,8.865,13.865,9,13.7,9H0.3C0.135,9,0,8.865,0,8.7V6.3C0,6.135,0.135,6,0.3,6h13.4
		C13.865,6,14,6.135,14,6.3V8.7z"/>
</g>
</svg>
