<?xml version="1.0" encoding="utf-8"?>
<!-- Generator: Adobe Illustrator 16.0.0, SVG Export Plug-In . SVG Version: 6.00 Build 0)  -->
<!DOCTYPE svg PUBLIC "-//W3C//DTD SVG 1.1//EN" "http://www.w3.org/Graphics/SVG/1.1/DTD/svg11.dtd">
<svg version="1.1" id="Layer_1" xmlns="http://www.w3.org/2000/svg" xmlns:xlink="http://www.w3.org/1999/xlink" x="0px" y="0px"
   width="200px" height="200px" viewBox="0 0 200 200" enable-background="new 0 0 200 200" xml:space="preserve">
<g>
  <path fill="none" stroke="#F3D952" stroke-width="3" stroke-miterlimit="10" d="M138.768,100c0,21.411-17.355,38.768-38.768,38.768
    c-21.411,0-38.768-17.355-38.768-38.768c0-21.411,17.357-38.768,38.768-38.768"/>
  
    <animateTransform  fill="remove" type="rotate" to="360 100 100" restart="always" calcMode="linear" attributeName="transform" accumulate="none" dur="4s" additive="replace" from="0 100 100" repeatCount="indefinite" attributeType="xml">
    </animateTransform>
</g>
<g>
  <path fill="none" stroke="#B6CE79" stroke-width="3" stroke-miterlimit="10" d="M132.605,100c0,18.008-14.599,32.605-32.605,32.605
    S67.395,118.007,67.395,100S81.993,67.395,100,67.395"/>
  
    <animateTransform  fill="remove" type="rotate" to="360 100 100" restart="always" calcMode="linear" attributeName="transform" accumulate="none" dur="2s" additive="replace" from="0 100 100" repeatCount="indefinite" attributeType="xml">
    </animateTransform>
</g>
<g>
  <path fill="none" stroke="#79C3A0" stroke-width="3" stroke-miterlimit="10" d="M126.502,100c0,14.639-11.863,26.502-26.502,26.502
    c-14.636,0-26.501-11.863-26.501-26.502c0-14.636,11.865-26.501,26.501-26.501"/>
  
    <animateTransform  fill="remove" type="rotate" to="360 100 100" restart="always" calcMode="linear" attributeName="transform" accumulate="none" dur="1s" additive="replace" from="0 100 100" repeatCount="indefinite" attributeType="xml">
    </animateTransform>
</g>
<g>
  <path fill="none" stroke="#3CB8C7" stroke-width="3" stroke-miterlimit="10" d="M120.494,100c0,11.32-9.174,20.494-20.494,20.494
    c-11.319,0-20.495-9.174-20.495-20.494c0-11.319,9.176-20.495,20.495-20.495"/>
  
    <animateTransform  fill="remove" type="rotate" to="360 100 100" restart="always" calcMode="linear" attributeName="transform" accumulate="none" dur="0.5s" additive="replace" from="0 100 100" repeatCount="indefinite" attributeType="xml">
    </animateTransform>
</g>
<circle fill="#00ADEE" cx="100" cy="100" r="16.313"/>
<g>
  <g>
    <path fill="#FFFFFF" d="M99.983,91.167c-4.598,0-8.339,3.822-8.339,8.521s3.742,8.521,8.339,8.521c4.6,0,8.342-3.822,8.342-8.521
      S104.583,91.167,99.983,91.167L99.983,91.167z M106.491,94.934c-0.429,0.291-0.878,0.559-1.344,0.793
      c-0.274-0.563-0.609-1.099-0.996-1.591c0.343-0.213,0.669-0.452,0.972-0.713C105.639,93.866,106.098,94.373,106.491,94.934
      L106.491,94.934z M102.98,92.107c0.665,0.273,1.294,0.642,1.87,1.096c-0.289,0.239-0.597,0.462-0.921,0.661
      c-0.407-0.479-0.867-0.916-1.372-1.297C102.712,92.425,102.854,92.269,102.98,92.107L102.98,92.107z M103.629,94.041
      c-0.452,0.245-0.923,0.447-1.405,0.599c-0.203-0.475-0.437-0.94-0.696-1.389c0.268-0.121,0.523-0.274,0.76-0.456
      C102.778,93.16,103.228,93.579,103.629,94.041L103.629,94.041z M102.643,91.978c-0.115,0.136-0.236,0.266-0.367,0.382
      c-0.443-0.307-0.911-0.57-1.402-0.789C101.48,91.638,102.072,91.771,102.643,91.978L102.643,91.978z M101.989,92.586
      c-0.202,0.144-0.415,0.268-0.64,0.365c-0.243-0.39-0.515-0.772-0.807-1.144C101.051,92.017,101.536,92.279,101.989,92.586
      L101.989,92.586z M100.155,91.867c0.309,0.378,0.596,0.78,0.862,1.203c-0.28,0.089-0.57,0.141-0.862,0.156
      C100.155,93.115,100.155,92.132,100.155,91.867L100.155,91.867z M100.155,93.579c0.359-0.016,0.713-0.084,1.052-0.2
      c0.254,0.435,0.481,0.888,0.682,1.355c-0.568,0.148-1.149,0.233-1.733,0.246C100.155,94.866,100.155,93.678,100.155,93.579
      L100.155,93.579z M99.81,91.882c0,0.267,0,1.233,0,1.345c-0.289-0.016-0.573-0.068-0.851-0.156
      C99.216,92.662,99.503,92.264,99.81,91.882L99.81,91.882z M98.631,92.951c-0.226-0.098-0.441-0.222-0.64-0.365
      c0.449-0.306,0.934-0.563,1.438-0.776C99.145,92.174,98.875,92.555,98.631,92.951L98.631,92.951z M99.113,91.567
      c-0.493,0.219-0.966,0.483-1.409,0.791c-0.134-0.12-0.257-0.251-0.37-0.383C97.906,91.77,98.504,91.634,99.113,91.567
      L99.113,91.567z M104.826,106.191c-1.109-0.621-1.131-1.485-1.073-1.802c0.061-0.322,0.277-0.182,0.416-0.182
      c0.729,0,1.496-0.221,2.439-1.207c1.066-1.111,1.402-3.58-0.236-5.188c-1.766-1.735-3.642-1.432-4.85,0.126
      c-0.251,0.321-0.856,0.555-1.378,0.536c-0.777-0.031-0.288,0.595-0.288,0.725c0,0.132-0.119,0.223-0.188,0.201
      c-0.263-0.077-0.156,0.323-0.156,0.442c0,0.122-0.107,0.183-0.167,0.183c-0.326,0-0.235,0.302-0.228,0.382
      c0.012,0.08-0.018,0.22-0.127,0.282c-0.102,0.059-0.225,0.321-0.225,0.522c0,0.36,0.324,0.611,0.866,1.025
      c0.542,0.412,0.61,0.804,0.62,1.086c0.012,0.281,0.037,0.734,0.16,1.037c0.146,0.36,0.125,1.024-0.622,1.057
      c-0.916,0.035-2.541,0.784-2.678,0.833c-0.515,0.188-1.197,0.254-1.73,0.118c-0.288-0.206-0.562-0.432-0.819-0.676
      c-0.105-0.375,0.08-0.778,0.266-1.053c0.305,0.314,0.758,0.292,1.013,0.303c0.255,0.012,1.508-0.189,1.684-0.252
      c0.177-0.06,0.255-0.038,0.363,0c0.477,0.179,1.133,0.23,1.399-0.703c0.266-0.935-0.365-0.675-0.443-0.634
      c-0.081,0.04-0.188,0.03-0.149-0.052c0.117-0.234-0.058-0.209-0.157-0.219c-0.254-0.027-0.591,0.25-0.698,0.351
      c-0.11,0.102-0.216,0.09-0.255,0.07c-0.339-0.173-1.351,0.076-1.665-0.482c0.031-0.152-0.255-2.423-0.403-2.816
      c-0.032-0.085-0.059-0.222,0.04-0.373c0.258-0.394,0.966,0.031,1.348,0.022c0.46-0.015,0.533-0.209,0.66-0.369
      c0.122-0.155,0.212-0.067,0.277-0.11c0.083-0.055,0.005-0.166,0.033-0.228c0.029-0.06,0.066-0.031,0.142-0.101
      c0.081-0.07-0.008-0.222,0.03-0.28c0.115-0.176,0.424-0.035,0.236-0.492c-0.101-0.253,0.042-0.522,0.179-0.705
      c0.222-0.294,1.082-1.531-0.434-2.815c-1.448-1.226-2.914-1.128-3.86-0.082c-0.942,1.048-0.471,2.574-0.373,2.977
      c0.099,0.404-0.185,0.768-0.513,0.927c-0.255,0.125-0.847,0.526-1.292,0.922c0.068-3.282,2.019-6.167,5.009-7.396
      c0.128,0.164,0.268,0.317,0.422,0.461c-0.331,0.249-1.059,0.911-1.059,0.911s0.1,0.016,0.192,0.04
      c0.062,0.017,0.197,0.059,0.197,0.059s0.642-0.56,0.943-0.778c0.234,0.181,0.487,0.334,0.76,0.456
      c-0.146,0.251-0.512,0.95-0.512,0.95s0.086,0.052,0.163,0.104c0.073,0.051,0.121,0.097,0.121,0.097s0.397-0.766,0.548-1.022
      c0.336,0.115,0.685,0.181,1.038,0.197c0,0.102,0,1.287,0,1.401c-0.197-0.006-0.7-0.026-0.906-0.047l-0.127-0.012l0.072,0.107
      c0.054,0.082,0.094,0.159,0.132,0.234l0.016,0.032l0.033,0.001c0.149,0.012,0.605,0.029,0.781,0.034c0,0.113,0,2.553,0,2.553
      h0.346c0,0,0-0.49,0-0.584c0.509-0.025,0.933-0.063,1.442-0.106l0.023-0.004l0.449-0.405l-0.245,0.024
      c-0.54,0.071-1.015,0.103-1.447,0.127c0,0-0.145,0.01-0.222,0.015c0-0.116,0-1.514,0-1.62c0.628-0.013,1.257-0.103,1.869-0.267
      c0.169,0.422,0.485,1.444,0.485,1.444l0.326-0.105c0,0-0.315-1.015-0.482-1.436c0.522-0.165,1.023-0.384,1.498-0.651
      c0.386,0.482,0.714,1.007,0.988,1.565c-0.249,0.118-0.696,0.279-0.695,0.279c0.359,0.041,0.633,0.128,0.633,0.128
      s0.125-0.056,0.209-0.094c0.031,0.073,0.093,0.223,0.093,0.223l0.448,0.202l-0.051-0.126c0,0-0.151-0.363-0.185-0.447
      c0.475-0.24,0.942-0.516,1.391-0.823c0.851,1.33,1.302,2.873,1.302,4.469C107.985,102.339,106.744,104.697,104.826,106.191z"/>
    <path fill="#FFFFFF" d="M90.89,93.433l-0.129,0.118c-0.491,0.441-1.606,1.609-1.438,2.891c0.003,0.003,0.019,0.09,0.019,0.09
      c0.002,0.001,0.054,0.254,0.054,0.254l0.157-0.146c0.686-0.642,1.197-1.724,1.408-2.975l0.059-0.352L90.89,93.433z"/>
    <path fill="#FFFFFF" d="M88.619,95.646l-0.056,0.155c-0.076,0.214-0.216,0.662-0.292,1.26c-0.107,0.846-0.084,2.041,0.637,2.936
      c-0.002-0.002,0.08,0.105,0.08,0.105l0.083,0.107l0.105-0.542c0.121-0.961-0.035-2.972-0.382-3.87l-0.118-0.307L88.619,95.646z"/>
    <path fill="#FFFFFF" d="M87.791,99.106l-0.01,0.157c-0.06,0.862-0.016,2.986,1.667,4.113c0.003,0,0.201,0.133,0.201,0.133
      l-0.01-0.242c-0.029-0.806-0.951-3.214-1.641-4.076l-0.195-0.242L87.791,99.106z"/>
    <path fill="#FFFFFF" d="M88.079,102.909l0.03,0.144c0.248,1.221,1.382,3.199,3.13,3.773l0.239,0.079l-0.085-0.24
      c-0.325-0.913-2.014-3.042-3.097-3.743l-0.245-0.159L88.079,102.909z"/>
    <path fill="#FFFFFF" d="M91.598,95.271l-0.139,0.085c-1.304,0.813-1.914,1.796-1.867,3.011l0.011,0.276l0.191-0.16
      c0.703-0.596,1.584-2.119,1.845-2.982l0.095-0.317L91.598,95.271z"/>
    <path fill="#FFFFFF" d="M90.831,97.93l-0.097,0.097c-0.334,0.323-1.414,1.498-1.32,2.95c0.015,0.223,0.063,0.461,0.148,0.713
      l0.077,0.229l0.139-0.197c0.518-0.742,1.2-2.7,1.165-3.609l-0.011-0.275L90.831,97.93z"/>
    <path fill="#FFFFFF" d="M90.886,100.449l-0.073,0.112c-0.544,0.825-0.823,1.674-0.803,2.454c0.013,0.578,0.194,1.132,0.535,1.646
      l0.115,0.171l0.095-0.184c0.235-0.449,0.421-1.917,0.392-3.076c-0.008-0.408-0.048-0.748-0.115-0.979l-0.073-0.255L90.886,100.449
      z"/>
    <path fill="#FFFFFF" d="M91.52,103.144l-0.037,0.116c-0.164,0.537-0.241,1.062-0.225,1.557c0.031,1.128,0.521,2.009,1.45,2.619
      c0.001,0,0.159,0.101,0.159,0.101l0.034-0.217c0-0.005,0.013-0.172,0.013-0.172c-0.025-0.918-0.693-3.222-1.215-3.926
      l-0.146-0.194L91.52,103.144z"/>
    <path fill="#FFFFFF" d="M89.681,106.717l0.067,0.115c0.701,1.201,1.891,2.752,4.12,2.354l0.188-0.033l-0.107-0.16
      c-0.416-0.631-3.121-2.192-4.075-2.35l-0.261-0.045L89.681,106.717L89.681,106.717z"/>
    <path fill="#FFFFFF" d="M92.976,109.768L92.976,109.768l-0.35,0.096l0.336,0.141c1.415,0.594,3.19,0.767,4.219,0.412
      c0.389-0.134,0.624-0.35,0.909-0.636c1.813,0.191,3.511,1.731,4.499,2.989l0.054,0.062l0.077-0.025
      c0.109-0.038,0.283-0.174,0.355-0.253l0.067-0.077l-0.061-0.084c-1.033-1.379-2.648-2.233-2.72-2.267
      C98.907,109.396,96.343,108.836,92.976,109.768z"/>
    <path fill="#FFFFFF" d="M93.05,105.919l0.021,0.122c0.212,1.364,0.753,3.151,3.006,2.954l0.146-0.013l-0.035-0.144
      c-0.154-0.621-2.218-2.422-2.94-2.928l-0.218-0.113L93.05,105.919z"/>
    <path fill="#FFFFFF" d="M108.981,93.313l0.059,0.352c0.211,1.251,0.724,2.333,1.408,2.975l0.156,0.146
      c0,0,0.057-0.253,0.057-0.254c0,0,0.015-0.087,0.015-0.09c0.174-1.282-0.944-2.449-1.434-2.891l-0.13-0.118L108.981,93.313z"/>
    <path fill="#FFFFFF" d="M111.326,95.49l-0.117,0.307c-0.349,0.898-0.504,2.908-0.384,3.87l0.107,0.542l0.082-0.107
      c0,0,0.081-0.107,0.081-0.105c0.72-0.895,0.742-2.09,0.637-2.936c-0.076-0.598-0.217-1.046-0.294-1.26l-0.056-0.155L111.326,95.49
      z"/>
    <path fill="#FFFFFF" d="M112.199,98.949l-0.197,0.242c-0.689,0.861-1.608,3.271-1.64,4.076l-0.01,0.242l0.199-0.133
      c1.684-1.127,1.728-3.251,1.667-4.113l-0.011-0.157L112.199,98.949z"/>
    <path fill="#FFFFFF" d="M111.949,102.763l-0.244,0.159c-1.084,0.701-2.77,2.83-3.099,3.743l-0.085,0.24l0.239-0.079
      c1.749-0.574,2.884-2.553,3.128-3.773l0.033-0.144L111.949,102.763z"/>
    <path fill="#FFFFFF" d="M108.333,95.146l0.089,0.315c0.244,0.87,1.097,2.41,1.789,3.021l0.187,0.163l0.016-0.275
      c0.072-1.213-0.521-2.209-1.808-3.048l-0.136-0.089L108.333,95.146z"/>
    <path fill="#FFFFFF" d="M109.073,97.835l-0.011,0.275c-0.035,0.909,0.646,2.867,1.163,3.609l0.139,0.197l0.078-0.229
      c0.085-0.251,0.134-0.49,0.148-0.713c0.092-1.452-0.985-2.626-1.32-2.95l-0.098-0.097L109.073,97.835z"/>
    <path fill="#FFFFFF" d="M109.042,100.34l-0.071,0.255c-0.067,0.23-0.106,0.569-0.117,0.978c-0.028,1.159,0.158,2.626,0.393,3.075
      l0.094,0.184l0.117-0.171c0.339-0.515,0.521-1.067,0.534-1.646c0.02-0.779-0.259-1.628-0.804-2.453l-0.071-0.111L109.042,100.34z"
      />
    <path fill="#FFFFFF" d="M108.447,103.027l-0.146,0.194c-0.522,0.704-1.191,3.008-1.217,3.926c0,0,0.015,0.167,0.015,0.172
      l0.035,0.217l0.157-0.101c0.933-0.61,1.423-1.491,1.451-2.619c0.015-0.495-0.062-1.02-0.229-1.557l-0.033-0.116L108.447,103.027z"
      />
    <path fill="#FFFFFF" d="M110.388,106.599l-0.261,0.045c-0.955,0.157-3.659,1.719-4.075,2.35l-0.104,0.16l0.186,0.033
      c2.228,0.397,3.416-1.153,4.119-2.354l0.067-0.115L110.388,106.599L110.388,106.599z"/>
    <path fill="#FFFFFF" d="M99.639,110.125c-0.072,0.035-1.687,0.888-2.718,2.267l-0.063,0.084l0.072,0.078
      c0.069,0.078,0.242,0.216,0.354,0.254l0.075,0.025l0.054-0.063c0.989-1.257,2.687-2.799,4.498-2.988
      c0.288,0.286,0.521,0.502,0.91,0.635c1.028,0.355,2.804,0.183,4.221-0.413l0.334-0.141l-0.35-0.096
      C103.66,108.836,101.093,109.396,99.639,110.125z"/>
    <path fill="#FFFFFF" d="M106.97,105.798l-0.216,0.113c-0.722,0.508-2.786,2.309-2.939,2.928l-0.034,0.146l0.143,0.011
      c2.253,0.197,2.795-1.59,3.009-2.952l0.018-0.122L106.97,105.798z"/>
  </g>
</g>
</svg>
