<?xml version="1.0" encoding="utf-8"?>
<!-- Generator: Adobe Illustrator 16.0.0, SVG Export Plug-In . SVG Version: 6.00 Build 0)  -->
<!DOCTYPE svg PUBLIC "-//W3C//DTD SVG 1.1//EN" "http://www.w3.org/Graphics/SVG/1.1/DTD/svg11.dtd">
<svg version="1.1" id="Layer_1" xmlns="http://www.w3.org/2000/svg" xmlns:xlink="http://www.w3.org/1999/xlink" x="0px" y="0px"
	 width="11px" height="14px" viewBox="0 0 11 14" enable-background="new 0 0 11 14" xml:space="preserve">
<g>
	<g>
		<path fill="#727A89" d="M3.499,3.745c0-1.184,0.959-2.144,2.144-2.144c1.184,0,2.143,0.96,2.143,2.144v1.944
			c0.242-0.035,0.484-0.078,0.73-0.125c0.266-0.053,0.525-0.11,0.777-0.174l0.092-0.023V3.745C9.385,1.676,7.71,0,5.643,0
			C3.708,0,2.115,1.469,1.917,3.352v0.785v1.305l0.085,0.02C2.251,5.518,2.507,5.57,2.773,5.618C3.028,5.662,3.27,5.7,3.499,5.73
			V3.769V3.745z"/>
		<path fill="#727A89" d="M3.451,6.499c-0.284-0.037-0.554-0.078-0.81-0.122c-0.232-0.042-0.475-0.09-0.724-0.146L1.833,6.212
			L1.522,6.138l-0.311-0.08C1.173,6.048,1.137,6.043,1.099,6.043c-0.137,0-0.271,0.071-0.386,0.183
			c-0.134,0.13-0.236,0.31-0.287,0.503C0.403,6.815,0.391,6.904,0.391,6.991v6.09c0,0.252,0.104,0.481,0.27,0.648S1.057,14,1.31,14
			h8.38c0.254,0,0.482-0.104,0.65-0.271c0.166-0.167,0.27-0.396,0.27-0.648v-6.09c0-0.086-0.014-0.175-0.037-0.26
			c-0.051-0.194-0.152-0.375-0.287-0.505c-0.113-0.112-0.248-0.183-0.387-0.183c-0.037,0-0.076,0.005-0.111,0.014l-0.153,0.04
			L9.631,6.099L9.48,6.137L9.385,6.16c-0.244,0.06-0.486,0.114-0.723,0.16C8.393,6.373,8.117,6.42,7.84,6.46L7.785,6.468
			c-0.704,0.1-1.42,0.154-2.141,0.161C4.932,6.634,4.215,6.594,3.499,6.505L3.451,6.499z M4.391,9.052
			c0-0.612,0.496-1.108,1.108-1.108c0.612,0,1.108,0.496,1.108,1.108c0,0.396-0.207,0.753-0.539,0.951l0.484,1.848
			c0.016,0.059,0.004,0.123-0.035,0.171c-0.038,0.05-0.097,0.079-0.159,0.079h-1.72c-0.061,0-0.12-0.029-0.158-0.079
			c-0.039-0.048-0.05-0.112-0.036-0.172l0.486-1.848C4.598,9.805,4.391,9.447,4.391,9.052z"/>
	</g>
</g>
</svg>
