<?xml version="1.0" encoding="utf-8"?>
<!-- Generator: Adobe Illustrator 16.0.0, SVG Export Plug-In . SVG Version: 6.00 Build 0)  -->
<!DOCTYPE svg PUBLIC "-//W3C//DTD SVG 1.1//EN" "http://www.w3.org/Graphics/SVG/1.1/DTD/svg11.dtd">
<svg version="1.1" id="Layer_1" xmlns="http://www.w3.org/2000/svg" xmlns:xlink="http://www.w3.org/1999/xlink" x="0px" y="0px"
	 width="34px" height="34px" viewBox="0 0 34 34" enable-background="new 0 0 34 34" xml:space="preserve">
<g>
	<rect fill="#C1C7D1" width="34" height="34"/>
</g>
<g>
	<g>
		<path fill="#727A89" d="M14.552,11.482c0-1.522,1.233-2.756,2.756-2.756s2.756,1.234,2.756,2.756v2.5
			c0.31-0.045,0.621-0.101,0.938-0.161c0.343-0.068,0.676-0.142,1-0.224l0.117-0.029v-2.086c0-2.66-2.152-4.815-4.811-4.815
			c-2.487,0-4.535,1.888-4.79,4.31v1.01v1.677l0.109,0.026c0.32,0.072,0.649,0.139,0.991,0.201c0.328,0.057,0.639,0.105,0.934,0.144
			v-2.521V11.482z"/>
		<path fill="#727A89" d="M14.491,15.023c-0.365-0.048-0.712-0.101-1.042-0.157c-0.298-0.054-0.611-0.115-0.931-0.188l-0.108-0.024
			l-0.4-0.095l-0.4-0.103c-0.049-0.013-0.095-0.02-0.144-0.02c-0.177,0-0.349,0.092-0.497,0.235
			c-0.172,0.167-0.303,0.399-0.369,0.646c-0.03,0.111-0.045,0.225-0.045,0.337v7.83c0,0.324,0.134,0.619,0.347,0.833
			c0.214,0.216,0.509,0.349,0.834,0.349h10.774c0.326,0,0.62-0.133,0.836-0.349c0.213-0.214,0.347-0.509,0.347-0.833v-7.83
			c0-0.111-0.018-0.226-0.047-0.334c-0.066-0.25-0.195-0.482-0.369-0.649c-0.146-0.144-0.318-0.235-0.498-0.235
			c-0.048,0-0.097,0.006-0.142,0.018l-0.197,0.052l-0.006,0.002l-0.193,0.049l-0.123,0.03c-0.313,0.077-0.625,0.146-0.929,0.205
			c-0.347,0.068-0.7,0.129-1.058,0.18l-0.07,0.01c-0.904,0.128-1.825,0.198-2.752,0.207c-0.916,0.006-1.838-0.045-2.758-0.16
			L14.491,15.023z M15.699,18.305c0-0.787,0.638-1.425,1.424-1.425c0.788,0,1.425,0.638,1.425,1.425c0,0.51-0.267,0.969-0.693,1.224
			l0.622,2.376c0.021,0.076,0.006,0.158-0.044,0.219c-0.051,0.065-0.126,0.104-0.206,0.104h-2.21c-0.079,0-0.155-0.038-0.204-0.104
			c-0.05-0.061-0.064-0.143-0.046-0.221l0.625-2.376C15.965,19.273,15.699,18.813,15.699,18.305z"/>
	</g>
</g>
</svg>
