<?xml version="1.0" encoding="utf-8"?>
<!-- Generator: Adobe Illustrator 16.0.0, SVG Export Plug-In . SVG Version: 6.00 Build 0)  -->
<!DOCTYPE svg PUBLIC "-//W3C//DTD SVG 1.1//EN" "http://www.w3.org/Graphics/SVG/1.1/DTD/svg11.dtd">
<svg version="1.1" id="Layer_1" xmlns="http://www.w3.org/2000/svg" xmlns:xlink="http://www.w3.org/1999/xlink" x="0px" y="0px"
	 width="140.037px" height="55px" viewBox="124 -6 140.037 55" enable-background="new 124 -6 140.037 55" xml:space="preserve">
<g>
	<g>
		<path fill="#FFFFFF" d="M184.233,31.729c-0.264-0.088-0.428-0.332-0.428-0.633v-12.14h1.801v-1.432h-1.801v-4.229h-1.73v4.229
			h-1.799v1.432h1.799v12.14c0,1.166,0.914,2.08,2.08,2.08h1.75v-1.4h-1.449C184.378,31.775,184.321,31.758,184.233,31.729z"/>
		<path fill="#FFFFFF" d="M188.675,19.635v13.541h1.701V19.635c0-0.367,0.039-0.464,0.271-0.648c0.092-0.08,0.444-0.092,1.254-0.092
			l1.504,0.002v-1.34h-2.681C189.575,17.557,188.675,18.469,188.675,19.635z"/>
		<path fill="#FFFFFF" d="M201.196,17.465h-3c-1.129,0-2.08,0.993-2.08,2.17v2.352h1.699v-2.352c0-0.312,0.205-0.638,0.463-0.724
			c0.078-0.025,0.14-0.048,0.217-0.048h2.4c0.077,0,0.141,0.021,0.221,0.049c0.244,0.08,0.431,0.393,0.431,0.723v3.682h-3.681
			c-1.131,0-2.051,0.918-2.051,2.048v5.67c0,1.16,0.938,2.141,2.051,2.141h5.41v-13.54
			C203.276,18.459,202.323,17.465,201.196,17.465z M197.517,25.365c0-0.307,0.225-0.527,0.467-0.611
			c0.086-0.023,0.144-0.037,0.213-0.037h3.351v7.059h-3.351c-0.069,0-0.129-0.016-0.244-0.045c-0.231-0.084-0.436-0.41-0.436-0.693
			V25.365z"/>
		<polygon fill="#FFFFFF" points="214.793,17.557 213.002,17.557 208.767,24.018 208.767,11.497 207.127,11.497 207.127,33.176 
			208.767,33.176 208.767,26.941 209.907,25.252 213.362,33.176 215.01,33.176 210.957,23.53 		"/>
		<path fill="#FFFFFF" d="M220.413,31.729c-0.264-0.088-0.428-0.332-0.428-0.633v-12.14h1.799v-1.432h-1.799v-4.229h-1.729v4.229
			h-1.799v1.432h1.799v12.14c0,1.166,0.914,2.08,2.08,2.08h1.75v-1.4h-1.449C220.557,31.775,220.502,31.758,220.413,31.729z"/>
		<path fill="#FFFFFF" d="M226.905,17.557c-1.149,0-2.051,0.912-2.051,2.078v13.541h1.7V19.635c0-0.367,0.039-0.464,0.271-0.648
			c0.092-0.08,0.445-0.092,1.254-0.092l1.504,0.002v-1.34H226.905z"/>
	</g>
	<path fill="#FFFFFF" d="M182.983-2.107v1.129h0.125c0.371,0,0.596,0.042,0.697,0.067c0.096,0.024,0.154,0.071,0.178,0.141
		c0.047,0.136-0.037,0.365-0.215,0.59l-1.242,1.826l-13.533,19.29l-2.648-3.75l-0.221-0.328c-0.047-0.097-0.056-0.133-0.059-0.137
		c0.031-0.01,0.098-0.021,0.24-0.027l0.119-0.006v-0.567h-2.114v0.562l0.112,0.01c0.133,0.015,0.174,0.031,0.172,0.021
		c0.053,0.064,0.41,0.568,0.759,1.064l-0.001,0.002l0.273,0.389c0.028,0.039,0.058,0.08,0.084,0.118l0.1,0.142v-0.001l2.477,3.517
		L153.99,42.318l-0.817,1.15c-0.401,0.645-0.621,0.914-0.752,1.076c-0.127,0.154-0.314,0.229-0.576,0.229h-0.125v1.129h3.271v-1.129
		h-0.125c-0.375,0-0.601-0.041-0.7-0.064c-0.097-0.025-0.154-0.07-0.178-0.143c-0.046-0.137,0.037-0.363,0.216-0.59l0.884-1.299
		l10.732-15.309c0.527-0.689,1.538-1.67,3.061-1.67c1.629,0,2.83,1.055,3.297,1.693l3.105,4.406
		c0.047,0.096,0.057,0.133,0.061,0.137c-0.047,0.014-0.129,0.023-0.242,0.029l-0.119,0.006v0.566h2.117v-0.562l-0.112-0.01
		c-0.121-0.012-0.17-0.031-0.17-0.021c-0.162-0.211-2.665-3.725-3.983-5.578l-0.046-0.062h-0.001l-3.119-4.417l13.799-19.683h0.002
		l1.33-1.875c0.078-0.125,0.145-0.227,0.209-0.325l0.389-0.554c0.061-0.079,0.115-0.147,0.156-0.198
		c0.123-0.154,0.311-0.229,0.574-0.229h0.125v-1.128H182.983z"/>
</g>
<polygon fill="#D36C5B" points="157.954,-6.017 124.037,27.9 124.037,9.441 139.495,-6.017 "/>
<g>
	<g>
		<path fill="#FFFFFF" d="M133.987,9.998c0.362,0.362,0.631,0.734,0.805,1.119c0.175,0.384,0.267,0.75,0.274,1.099
			c0.011,0.351-0.049,0.675-0.174,0.976c-0.125,0.299-0.297,0.558-0.512,0.771c-0.152,0.152-0.308,0.271-0.467,0.355
			c-0.158,0.084-0.311,0.145-0.457,0.18s-0.279,0.055-0.402,0.057c-0.123,0-0.228-0.004-0.31-0.016l-0.017,0.018l0.33,0.521
			l-0.812,0.813c-0.112-0.125-0.254-0.277-0.426-0.455c-0.173-0.182-0.336-0.35-0.493-0.506l-5.059-5.06l0.98-0.982l1.67,1.67
			c0.119,0.118,0.229,0.229,0.328,0.332c0.1,0.102,0.175,0.182,0.227,0.239l0.01-0.008c0.02-0.106,0.046-0.219,0.078-0.335
			c0.033-0.116,0.078-0.235,0.134-0.356c0.055-0.121,0.123-0.242,0.207-0.363c0.082-0.122,0.18-0.239,0.293-0.354
			c0.225-0.224,0.481-0.399,0.774-0.529s0.605-0.193,0.938-0.191c0.331,0.003,0.676,0.087,1.033,0.251
			C133.301,9.406,133.646,9.658,133.987,9.998z M133.021,11.062c-0.25-0.251-0.498-0.438-0.738-0.558
			c-0.242-0.12-0.459-0.179-0.653-0.176c-0.192,0.003-0.358,0.041-0.497,0.114c-0.142,0.073-0.263,0.162-0.367,0.267
			c-0.145,0.145-0.263,0.319-0.353,0.526c-0.092,0.208-0.149,0.42-0.175,0.638l1.923,1.924c0.082,0.004,0.177,0.004,0.28-0.006
			c0.105-0.009,0.214-0.027,0.324-0.058c0.109-0.03,0.22-0.074,0.328-0.131c0.109-0.058,0.211-0.134,0.305-0.228
			c0.16-0.16,0.269-0.332,0.324-0.518c0.055-0.186,0.064-0.375,0.027-0.576c-0.037-0.199-0.117-0.402-0.24-0.609
			C133.387,11.467,133.225,11.264,133.021,11.062z"/>
		<path fill="#FFFFFF" d="M138.738,8.024c0.189-0.19,0.369-0.409,0.538-0.654c0.169-0.246,0.323-0.511,0.465-0.795l0.782,0.783
			c-0.071,0.182-0.215,0.43-0.428,0.742c-0.213,0.312-0.459,0.608-0.742,0.891c-0.282,0.284-0.59,0.518-0.918,0.701
			c-0.33,0.182-0.67,0.287-1.023,0.313c-0.354,0.027-0.716-0.031-1.087-0.18c-0.372-0.148-0.743-0.407-1.113-0.777
			c-0.364-0.364-0.631-0.735-0.799-1.114c-0.169-0.378-0.255-0.746-0.258-1.103c-0.002-0.355,0.065-0.692,0.202-1.011
			c0.14-0.318,0.328-0.598,0.572-0.841c0.254-0.254,0.527-0.449,0.818-0.586c0.291-0.138,0.598-0.201,0.92-0.19
			c0.321,0.009,0.656,0.102,1.004,0.275s0.7,0.438,1.057,0.795c0.137,0.141,0.248,0.262,0.341,0.364l-2.632,2.631
			c0.199,0.171,0.398,0.288,0.6,0.351c0.2,0.062,0.396,0.078,0.591,0.047s0.384-0.101,0.569-0.213
			C138.385,8.34,138.562,8.198,138.738,8.024z M135.684,5.756c-0.125,0.125-0.211,0.259-0.264,0.4
			c-0.051,0.143-0.072,0.288-0.064,0.438c0.01,0.149,0.046,0.297,0.108,0.443c0.063,0.147,0.147,0.286,0.253,0.419l1.578-1.579
			c-0.119-0.119-0.246-0.215-0.383-0.288c-0.137-0.072-0.275-0.117-0.416-0.135c-0.143-0.016-0.281-0.001-0.419,0.045
			C135.939,5.546,135.809,5.632,135.684,5.756z"/>
		<path fill="#FFFFFF" d="M144.581,3.546c-0.076,0.145-0.183,0.302-0.315,0.475s-0.269,0.324-0.4,0.458
			c-0.336,0.337-0.666,0.559-0.99,0.663c-0.322,0.104-0.631,0.1-0.924-0.018c-0.209-0.083-0.439-0.25-0.691-0.501l-2.08-2.08
			l-0.75,0.75l-0.808-0.808l0.75-0.75l-1.122-1.123l0.98-0.982l1.123,1.123l1.16-1.16l0.809,0.809l-1.16,1.16l1.951,1.951
			c0.154,0.154,0.293,0.245,0.414,0.273c0.211,0.044,0.438-0.057,0.684-0.303c0.113-0.113,0.217-0.235,0.311-0.364
			c0.095-0.13,0.179-0.259,0.25-0.385L144.581,3.546z"/>
		<path fill="#FFFFFF" d="M147.711-0.428l-0.017,0.017c0.003,0.113-0.005,0.239-0.021,0.377c-0.017,0.14-0.048,0.284-0.093,0.438
			c-0.046,0.154-0.113,0.308-0.201,0.462c-0.089,0.154-0.203,0.302-0.344,0.443c-0.191,0.189-0.398,0.339-0.624,0.445
			s-0.452,0.163-0.685,0.17c-0.229,0.008-0.459-0.034-0.686-0.127c-0.227-0.091-0.438-0.233-0.634-0.431
			c-0.216-0.215-0.369-0.448-0.463-0.698c-0.093-0.25-0.128-0.505-0.105-0.765c0.023-0.26,0.103-0.52,0.234-0.777
			c0.135-0.258,0.319-0.506,0.557-0.744c0.175-0.174,0.347-0.322,0.515-0.447c0.17-0.124,0.324-0.228,0.465-0.308l-0.161-0.161
			c-0.095-0.094-0.2-0.168-0.319-0.224s-0.246-0.082-0.385-0.079c-0.139,0.002-0.284,0.041-0.438,0.114
			c-0.154,0.073-0.312,0.19-0.476,0.354c-0.198,0.199-0.375,0.42-0.53,0.663c-0.154,0.244-0.304,0.525-0.447,0.847l-0.767-0.768
			c0.113-0.29,0.261-0.572,0.438-0.845c0.18-0.273,0.394-0.536,0.639-0.788c0.292-0.292,0.585-0.513,0.876-0.661
			c0.291-0.146,0.574-0.233,0.849-0.254c0.272-0.022,0.531,0.016,0.776,0.114c0.244,0.098,0.468,0.248,0.668,0.449l1.515,1.513
			c0.265,0.265,0.494,0.49,0.69,0.675c0.194,0.185,0.371,0.349,0.524,0.493l-0.887,0.887L147.711-0.428z M146.35-1.633
			c-0.117,0.072-0.244,0.16-0.385,0.263c-0.14,0.104-0.271,0.219-0.396,0.343c-0.24,0.239-0.384,0.478-0.429,0.712
			c-0.043,0.234,0.033,0.449,0.229,0.646c0.092,0.091,0.187,0.155,0.286,0.191c0.099,0.036,0.197,0.049,0.296,0.039
			c0.099-0.011,0.194-0.039,0.288-0.09c0.094-0.05,0.181-0.114,0.261-0.194c0.101-0.101,0.181-0.207,0.242-0.321
			c0.062-0.115,0.11-0.229,0.146-0.344c0.034-0.114,0.058-0.228,0.066-0.335c0.01-0.109,0.012-0.208,0.007-0.296L146.35-1.633z"/>
	</g>
</g>
</svg>
