<?xml version="1.0" encoding="utf-8"?>
<!-- Generator: Adobe Illustrator 16.0.0, SVG Export Plug-In . SVG Version: 6.00 Build 0)  -->
<!DOCTYPE svg PUBLIC "-//W3C//DTD SVG 1.1//EN" "http://www.w3.org/Graphics/SVG/1.1/DTD/svg11.dtd">
<svg version="1.1" id="Layer_1" xmlns="http://www.w3.org/2000/svg" xmlns:xlink="http://www.w3.org/1999/xlink" x="0px" y="0px"
	 width="95px" height="24px" viewBox="0 0 95 24" enable-background="new 0 0 95 24" xml:space="preserve">
<g>
	<g>
		<path fill="#FFFFFF" d="M81.047,0.875c-4.908,0-8.901,4.08-8.901,9.095s3.993,9.095,8.901,9.095c4.91,0,8.904-4.079,8.904-9.095
			S85.957,0.875,81.047,0.875L81.047,0.875z M87.994,4.895c-0.457,0.312-0.938,0.597-1.436,0.847
			c-0.292-0.602-0.648-1.173-1.062-1.699c0.366-0.227,0.715-0.482,1.037-0.759C87.085,3.756,87.574,4.297,87.994,4.895L87.994,4.895
			z M84.246,1.878c0.711,0.292,1.381,0.685,1.996,1.169c-0.307,0.256-0.637,0.494-0.982,0.707c-0.436-0.512-0.928-0.977-1.465-1.384
			C83.959,2.217,84.109,2.051,84.246,1.878L84.246,1.878z M84.938,3.942c-0.48,0.262-0.983,0.477-1.5,0.64
			c-0.215-0.507-0.465-1.006-0.743-1.483c0.286-0.129,0.56-0.292,0.812-0.486C84.029,3.001,84.51,3.448,84.938,3.942L84.938,3.942z
			 M83.885,1.74c-0.121,0.145-0.252,0.283-0.393,0.408C83.02,1.82,82.52,1.539,81.997,1.305C82.646,1.377,83.277,1.521,83.885,1.74
			L83.885,1.74z M83.188,2.389c-0.215,0.153-0.443,0.286-0.684,0.39c-0.258-0.416-0.549-0.825-0.859-1.222
			C82.186,1.782,82.703,2.062,83.188,2.389L83.188,2.389z M81.231,1.621c0.327,0.404,0.635,0.834,0.919,1.286
			c-0.3,0.094-0.607,0.15-0.919,0.165C81.231,2.955,81.231,1.905,81.231,1.621L81.231,1.621z M81.231,3.448
			c0.382-0.017,0.759-0.089,1.121-0.212c0.271,0.463,0.515,0.948,0.729,1.447c-0.606,0.158-1.228,0.248-1.85,0.262
			C81.231,4.823,81.231,3.555,81.231,3.448L81.231,3.448z M80.861,1.637c0,0.285,0,1.317,0,1.435C80.553,3.057,80.25,3,79.954,2.907
			C80.228,2.47,80.533,2.045,80.861,1.637L80.861,1.637z M79.603,2.779c-0.241-0.104-0.47-0.236-0.683-0.39
			c0.48-0.327,0.996-0.603,1.535-0.828C80.15,1.949,79.864,2.355,79.603,2.779L79.603,2.779z M80.117,1.302
			c-0.525,0.234-1.031,0.517-1.504,0.845c-0.143-0.128-0.275-0.268-0.394-0.41C78.83,1.517,79.468,1.372,80.117,1.302L80.117,1.302z
			 M86.217,16.912c-1.186-0.664-1.208-1.585-1.146-1.922c0.063-0.344,0.296-0.195,0.441-0.195c0.778,0,1.599-0.234,2.605-1.287
			c1.138-1.187,1.496-3.822-0.251-5.54c-1.885-1.852-3.889-1.527-5.18,0.136c-0.266,0.342-0.912,0.591-1.471,0.572
			c-0.829-0.033-0.307,0.635-0.307,0.773c0,0.141-0.126,0.238-0.201,0.215c-0.28-0.082-0.167,0.344-0.167,0.473
			c0,0.129-0.114,0.193-0.179,0.193c-0.348,0-0.252,0.321-0.242,0.408c0.012,0.086-0.02,0.235-0.137,0.301
			c-0.109,0.063-0.242,0.343-0.242,0.558c0,0.386,0.348,0.654,0.926,1.095c0.578,0.441,0.651,0.859,0.662,1.16
			c0.012,0.301,0.038,0.785,0.169,1.106c0.157,0.386,0.136,1.095-0.663,1.128c-0.977,0.037-2.711,0.837-2.857,0.889
			c-0.55,0.202-1.277,0.273-1.848,0.127c-0.306-0.221-0.598-0.461-0.873-0.721c-0.113-0.401,0.084-0.833,0.283-1.124
			c0.325,0.333,0.81,0.312,1.082,0.323c0.272,0.01,1.607-0.204,1.797-0.27c0.189-0.063,0.272-0.041,0.389,0
			c0.508,0.19,1.209,0.247,1.492-0.75c0.283-0.998-0.389-0.721-0.473-0.678c-0.086,0.044-0.201,0.033-0.158-0.053
			c0.124-0.253-0.062-0.226-0.168-0.236c-0.271-0.028-0.631,0.268-0.746,0.375c-0.117,0.109-0.23,0.098-0.273,0.076
			c-0.361-0.185-1.441,0.081-1.776-0.516c0.033-0.161-0.272-2.586-0.431-3.006c-0.033-0.09-0.062-0.236,0.043-0.396
			c0.274-0.42,1.029,0.032,1.438,0.022c0.492-0.015,0.571-0.223,0.705-0.393c0.131-0.166,0.227-0.072,0.295-0.118
			c0.09-0.058,0.006-0.177,0.037-0.242c0.03-0.063,0.068-0.033,0.151-0.107c0.085-0.075-0.01-0.235,0.031-0.299
			c0.122-0.188,0.452-0.038,0.253-0.526c-0.108-0.269,0.043-0.558,0.189-0.752c0.238-0.313,1.157-1.635-0.463-3.005
			c-1.545-1.309-3.109-1.204-4.119-0.086c-1.008,1.118-0.504,2.748-0.398,3.177c0.104,0.431-0.198,0.819-0.547,0.989
			c-0.275,0.133-0.905,0.563-1.381,0.985c0.074-3.504,2.156-6.584,5.348-7.896c0.137,0.175,0.287,0.338,0.451,0.493
			c-0.354,0.266-1.131,0.973-1.131,0.973s0.106,0.017,0.205,0.042c0.066,0.017,0.211,0.062,0.211,0.062s0.685-0.596,1.006-0.831
			c0.25,0.193,0.521,0.356,0.812,0.486c-0.156,0.269-0.546,1.015-0.546,1.015s0.092,0.054,0.174,0.11
			c0.078,0.054,0.129,0.103,0.129,0.103s0.426-0.818,0.586-1.092c0.358,0.123,0.73,0.193,1.107,0.211c0,0.108,0,1.374,0,1.497
			c-0.211-0.007-0.747-0.029-0.967-0.051L79.758,4.88l0.076,0.115c0.059,0.086,0.102,0.171,0.143,0.251l0.016,0.033l0.037,0.003
			c0.158,0.011,0.646,0.03,0.832,0.036c0,0.121,0,2.725,0,2.725h0.37c0,0,0-0.523,0-0.623c0.542-0.028,0.995-0.068,1.538-0.115
			l0.026-0.003l0.479-0.433l-0.263,0.025C82.437,6.97,81.93,7.005,81.47,7.03c0,0-0.155,0.011-0.238,0.015c0-0.124,0-1.616,0-1.729
			c0.669-0.014,1.341-0.11,1.995-0.286c0.18,0.451,0.518,1.542,0.518,1.542l0.349-0.112c0,0-0.336-1.084-0.515-1.534
			c0.557-0.175,1.093-0.409,1.6-0.694c0.41,0.514,0.763,1.074,1.055,1.671c-0.266,0.125-0.744,0.298-0.742,0.298
			c0.383,0.043,0.676,0.135,0.676,0.135s0.135-0.058,0.222-0.098c0.034,0.077,0.101,0.238,0.101,0.238l0.479,0.216l-0.054-0.136
			c0,0-0.161-0.388-0.198-0.478c0.508-0.255,1.007-0.55,1.484-0.878c0.908,1.42,1.391,3.066,1.391,4.77
			C89.59,12.799,88.265,15.316,86.217,16.912z"/>
		<path fill="#FFFFFF" d="M71.34,3.292L71.2,3.418c-0.522,0.471-1.714,1.718-1.532,3.086c0.002,0.004,0.02,0.096,0.02,0.096
			c0.001,0.001,0.058,0.271,0.058,0.271l0.169-0.156c0.73-0.685,1.277-1.841,1.502-3.176l0.062-0.375L71.34,3.292z"/>
		<path fill="#FFFFFF" d="M68.915,5.655l-0.06,0.166c-0.081,0.229-0.231,0.707-0.312,1.345c-0.113,0.903-0.088,2.18,0.68,3.134
			c-0.001-0.002,0.086,0.113,0.086,0.113l0.088,0.115l0.113-0.579c0.129-1.026-0.039-3.172-0.408-4.131L68.975,5.49L68.915,5.655z"
			/>
		<path fill="#FFFFFF" d="M68.031,9.349l-0.011,0.168c-0.063,0.919-0.017,3.188,1.78,4.391c0.002,0.001,0.213,0.142,0.213,0.142
			l-0.01-0.259c-0.03-0.859-1.015-3.431-1.751-4.35l-0.21-0.259L68.031,9.349z"/>
		<path fill="#FFFFFF" d="M68.34,13.408l0.032,0.154c0.263,1.303,1.474,3.415,3.342,4.027l0.255,0.085l-0.092-0.257
			c-0.348-0.975-2.149-3.247-3.307-3.996l-0.26-0.168L68.34,13.408z"/>
		<path fill="#FFFFFF" d="M72.096,5.256l-0.148,0.091c-1.391,0.869-2.043,1.917-1.992,3.214c0,0,0.012,0.296,0.012,0.296
			l0.203-0.172c0.752-0.637,1.693-2.262,1.971-3.184l0.101-0.338L72.096,5.256z"/>
		<path fill="#FFFFFF" d="M71.275,8.094l-0.104,0.103c-0.356,0.347-1.51,1.6-1.41,3.149c0.016,0.238,0.068,0.493,0.158,0.761
			l0.082,0.244l0.148-0.211c0.552-0.792,1.281-2.881,1.242-3.852l-0.012-0.294L71.275,8.094z"/>
		<path fill="#FFFFFF" d="M71.336,10.784l-0.078,0.119c-0.582,0.88-0.879,1.787-0.857,2.619c0.014,0.617,0.207,1.207,0.57,1.756
			l0.123,0.184l0.102-0.195c0.25-0.48,0.45-2.046,0.42-3.283c-0.01-0.437-0.053-0.797-0.124-1.044l-0.077-0.273L71.336,10.784z"/>
		<path fill="#FFFFFF" d="M72.012,13.659l-0.039,0.124c-0.174,0.572-0.257,1.132-0.241,1.662c0.034,1.203,0.556,2.143,1.55,2.795
			c0.001,0,0.17,0.107,0.17,0.107l0.035-0.23c0.001-0.006,0.015-0.186,0.015-0.186c-0.027-0.978-0.741-3.438-1.298-4.189
			l-0.154-0.207L72.012,13.659z"/>
		<path fill="#FFFFFF" d="M70.05,17.473l0.071,0.123c0.748,1.282,2.02,2.938,4.398,2.514l0.199-0.035l-0.113-0.172
			c-0.443-0.673-3.331-2.338-4.351-2.507l-0.277-0.048L70.05,17.473L70.05,17.473z M70.223,17.452"/>
		<path fill="#FFFFFF" d="M73.566,20.73L73.566,20.73l-0.373,0.102l0.357,0.15c1.513,0.633,3.406,0.818,4.506,0.441
			c0.414-0.145,0.665-0.375,0.969-0.681c1.936,0.205,3.748,1.849,4.803,3.19L83.885,24l0.082-0.027
			c0.117-0.04,0.303-0.186,0.379-0.27l0.074-0.082l-0.066-0.09c-1.102-1.471-2.826-2.384-2.903-2.42
			C79.898,20.335,77.16,19.736,73.566,20.73z"/>
		<path fill="#FFFFFF" d="M73.646,16.622l0.021,0.13c0.227,1.455,0.805,3.363,3.209,3.152l0.154-0.012l-0.037-0.153
			c-0.164-0.663-2.366-2.585-3.137-3.126l-0.232-0.121L73.646,16.622z"/>
		<path fill="#FFFFFF" d="M90.652,3.166l0.062,0.375c0.224,1.335,0.771,2.492,1.504,3.176l0.166,0.156c0,0,0.06-0.27,0.06-0.271
			c0,0,0.018-0.092,0.018-0.096c0.185-1.368-1.009-2.615-1.531-3.086l-0.14-0.126L90.652,3.166z"/>
		<path fill="#FFFFFF" d="M93.155,5.49l-0.126,0.328c-0.37,0.958-0.537,3.105-0.408,4.131l0.113,0.579l0.088-0.115
			c0,0,0.086-0.115,0.086-0.113c0.768-0.954,0.793-2.231,0.681-3.134c-0.081-0.639-0.231-1.117-0.314-1.345l-0.06-0.166L93.155,5.49
			z"/>
		<path fill="#FFFFFF" d="M94.088,9.182l-0.211,0.259c-0.736,0.919-1.719,3.491-1.75,4.35l-0.011,0.259c0,0,0.213-0.141,0.213-0.142
			c1.798-1.203,1.845-3.472,1.78-4.391l-0.012-0.168L94.088,9.182z"/>
		<path fill="#FFFFFF" d="M93.82,13.254l-0.26,0.168c-1.156,0.749-2.957,3.021-3.308,3.996l-0.091,0.257l0.255-0.085
			c1.868-0.612,3.079-2.725,3.341-4.027l0.033-0.154L93.82,13.254z"/>
		<path fill="#FFFFFF" d="M89.959,5.121l0.097,0.337c0.259,0.929,1.169,2.573,1.909,3.224l0.199,0.175l0.018-0.295
			c0.075-1.294-0.557-2.357-1.931-3.253l-0.145-0.095L89.959,5.121z"/>
		<path fill="#FFFFFF" d="M90.75,7.993l-0.012,0.294c-0.037,0.971,0.689,3.06,1.242,3.852l0.148,0.211l0.082-0.244
			c0.09-0.268,0.144-0.523,0.158-0.761c0.099-1.549-1.053-2.802-1.409-3.149l-0.104-0.103L90.75,7.993z"/>
		<path fill="#FFFFFF" d="M90.717,10.666l-0.077,0.273c-0.071,0.247-0.114,0.607-0.124,1.044c-0.029,1.237,0.17,2.803,0.42,3.283
			l0.102,0.195l0.123-0.184c0.363-0.549,0.557-1.139,0.57-1.756c0.021-0.832-0.275-1.738-0.857-2.619l-0.077-0.119L90.717,10.666z"
			/>
		<path fill="#FFFFFF" d="M90.082,13.535l-0.154,0.207c-0.558,0.752-1.271,3.212-1.299,4.189c0,0,0.016,0.18,0.016,0.186l0.037,0.23
			l0.168-0.107c0.994-0.652,1.518-1.592,1.55-2.795c0.015-0.53-0.066-1.09-0.243-1.662l-0.037-0.124L90.082,13.535z"/>
		<path fill="#FFFFFF" d="M92.153,17.348l-0.278,0.048c-1.02,0.169-3.906,1.834-4.35,2.507l-0.111,0.172l0.197,0.035
			c2.379,0.425,3.648-1.231,4.397-2.514l0.072-0.123L92.153,17.348L92.153,17.348z M91.908,17.452"/>
		<path fill="#FFFFFF" d="M80.681,21.111c-0.077,0.036-1.801,0.949-2.902,2.42l-0.067,0.09l0.076,0.082
			c0.074,0.084,0.259,0.229,0.378,0.27L78.245,24l0.058-0.066c1.056-1.342,2.866-2.985,4.801-3.19
			c0.307,0.306,0.557,0.536,0.971,0.681c1.099,0.377,2.992,0.191,4.506-0.441l0.357-0.15l-0.373-0.102
			C84.973,19.736,82.23,20.335,80.681,21.111z"/>
		<path fill="#FFFFFF" d="M88.504,16.492l-0.229,0.121c-0.771,0.541-2.974,2.463-3.138,3.126L85.1,19.893l0.153,0.012
			c2.405,0.211,2.983-1.697,3.21-3.152l0.021-0.13L88.504,16.492z"/>
		<path fill="#FFFFFF" d="M27.728,1.769h3.006V4.57h-3.006V1.769L27.728,1.769z M27.967,7.75h2.528v13.644h-2.528V7.75z"/>
		<path fill="#FFFFFF" d="M8.886,7.762h2.528v13.644H8.94v-2.012H8.886c-1.011,1.713-2.713,2.418-4.575,2.418
			c-2.794,0-4.39-2.174-4.39-4.919V7.762H2.45v8.072c0,2.365,0.531,4.104,2.953,4.104c1.037,0,2.447-0.543,2.98-1.956
			c0.478-1.278,0.504-2.882,0.504-3.207V7.762z"/>
		<path fill="#FFFFFF" d="M16.46,9.773h0.053c0.852-1.712,2.715-2.418,4.045-2.418c0.931,0,5.054,0.242,5.054,4.619v9.432h-2.527
			v-8.59c0-2.254-0.931-3.478-3.061-3.478c0,0-1.383-0.082-2.447,1.006c-0.372,0.378-1.065,0.977-1.065,3.642v7.42h-2.527V7.762
			h2.474V9.773z"/>
		<path fill="#FFFFFF" d="M41.078,12.137c-0.133-1.701-0.925-2.887-2.723-2.887c-2.404,0-3.33,2.129-3.33,5.318
			c0,3.186,0.926,5.32,3.33,5.32c1.663,0,2.694-1.104,2.826-3.051h2.512c-0.212,3.051-2.43,4.914-5.365,4.914
			c-4.255,0-5.946-3.077-5.946-7.074c0-3.974,1.954-7.294,6.159-7.294c2.803,0,4.915,1.811,5.043,4.753H41.078z"/>
		<path fill="#FFFFFF" d="M47.469,15.054c-0.186,2.376,0.766,4.835,3.327,4.835c1.958,0,2.936-0.781,3.225-2.758h2.647
			c-0.398,3.084-2.727,4.621-5.896,4.621c-4.257,0-5.951-3.077-5.951-7.074c0-3.974,1.96-7.294,6.163-7.294
			c3.963,0.085,5.838,2.646,5.838,6.403v1.267H47.469L47.469,15.054z M54.182,13.272c0.055-2.268-0.953-4.022-3.386-4.022
			c-2.089,0-3.327,1.803-3.327,4.022H54.182z"/>
		<path fill="#FFFFFF" d="M59.666,21.346V9.574h-2.281V7.786h2.281V4.875c0.084-2.972,2.273-3.754,4.152-3.754
			c0.605,0,1.19,0.161,1.799,0.268v2.133c-0.426-0.023-0.846-0.083-1.271-0.083c-1.424,0-2.246,0.381-2.167,1.864v2.483h3.067v1.788
			h-3.067v11.772H59.666z"/>
	</g>
</g>
</svg>
