<?xml version="1.0" encoding="utf-8"?>
<!-- Generator: Adobe Illustrator 16.0.0, SVG Export Plug-In . SVG Version: 6.00 Build 0)  -->
<!DOCTYPE svg PUBLIC "-//W3C//DTD SVG 1.1//EN" "http://www.w3.org/Graphics/SVG/1.1/DTD/svg11.dtd">
<svg version="1.1" id="Layer_1" xmlns="http://www.w3.org/2000/svg" xmlns:xlink="http://www.w3.org/1999/xlink" x="0px" y="0px"
	 width="37px" height="32px" viewBox="0 0 37 32" enable-background="new 0 0 37 32" xml:space="preserve">
<g>
	<g>
		<path fill="#FFFFFF" d="M18.476,0.01c-6.788,0-12.31,5.642-12.31,12.577c0,6.936,5.522,12.578,12.31,12.578
			c6.79,0,12.312-5.642,12.312-12.578C30.788,5.652,25.266,0.01,18.476,0.01L18.476,0.01z M28.081,5.569
			c-0.631,0.432-1.296,0.826-1.982,1.171c-0.405-0.833-0.898-1.622-1.471-2.35c0.506-0.313,0.988-0.667,1.434-1.05
			C26.825,3.996,27.503,4.744,28.081,5.569L28.081,5.569z M22.899,1.398c0.982,0.404,1.91,0.947,2.76,1.616
			c-0.424,0.354-0.881,0.684-1.357,0.978c-0.602-0.708-1.284-1.351-2.025-1.915C22.502,1.866,22.71,1.638,22.899,1.398L22.899,1.398
			z M23.855,4.252c-0.663,0.362-1.36,0.66-2.073,0.885c-0.299-0.701-0.643-1.391-1.029-2.051c0.396-0.179,0.775-0.403,1.124-0.672
			C22.599,2.952,23.265,3.569,23.855,4.252L23.855,4.252z M22.399,1.207c-0.167,0.201-0.349,0.391-0.543,0.564
			c-0.653-0.454-1.346-0.842-2.066-1.166C20.688,0.705,21.561,0.903,22.399,1.207L22.399,1.207z M21.435,2.105
			C21.14,2.317,20.823,2.5,20.49,2.644c-0.356-0.575-0.759-1.141-1.188-1.689C20.05,1.266,20.766,1.652,21.435,2.105L21.435,2.105z
			 M18.73,1.042c0.452,0.559,0.878,1.153,1.271,1.779c-0.415,0.13-0.84,0.207-1.271,0.228C18.73,2.887,18.73,1.436,18.73,1.042
			L18.73,1.042z M18.73,3.569c0.527-0.023,1.049-0.123,1.55-0.294c0.374,0.64,0.713,1.311,1.008,2.001
			c-0.838,0.219-1.696,0.342-2.558,0.362C18.73,5.471,18.73,3.717,18.73,3.569L18.73,3.569z M18.22,1.065c0,0.394,0,1.821,0,1.984
			c-0.428-0.021-0.847-0.099-1.255-0.228C17.342,2.217,17.765,1.629,18.22,1.065L18.22,1.065z M16.478,2.644
			c-0.334-0.145-0.649-0.327-0.944-0.539c0.666-0.452,1.378-0.833,2.124-1.146C17.236,1.496,16.84,2.058,16.478,2.644L16.478,2.644z
			 M17.19,0.601c-0.727,0.323-1.426,0.715-2.08,1.168c-0.198-0.177-0.381-0.371-0.545-0.566C15.409,0.899,16.292,0.698,17.19,0.601
			L17.19,0.601z M25.624,22.188c-1.639-0.917-1.67-2.191-1.584-2.658c0.088-0.476,0.409-0.27,0.611-0.27
			c1.076,0,2.209-0.323,3.603-1.78c1.573-1.641,2.069-5.284-0.347-7.66c-2.607-2.562-5.377-2.112-7.164,0.188
			c-0.367,0.473-1.26,0.818-2.033,0.792c-1.146-0.046-0.424,0.877-0.424,1.069c0,0.194-0.173,0.329-0.277,0.298
			c-0.388-0.113-0.231,0.476-0.231,0.654c0,0.179-0.159,0.268-0.247,0.268c-0.482,0-0.348,0.444-0.335,0.564
			c0.015,0.119-0.027,0.325-0.189,0.416c-0.153,0.087-0.335,0.474-0.335,0.771c0,0.533,0.479,0.904,1.279,1.514
			c0.801,0.609,0.901,1.188,0.917,1.604c0.016,0.416,0.053,1.084,0.233,1.529c0.217,0.533,0.188,1.514-0.916,1.559
			c-1.351,0.053-3.75,1.158-3.953,1.23c-0.76,0.279-1.767,0.377-2.554,0.175c-0.423-0.304-0.827-0.638-1.208-0.996
			c-0.157-0.556,0.116-1.151,0.391-1.554c0.451,0.461,1.121,0.43,1.497,0.445c0.377,0.016,2.224-0.281,2.485-0.371
			c0.261-0.088,0.377-0.059,0.538,0c0.702,0.263,1.671,0.341,2.063-1.037c0.392-1.381-0.538-0.996-0.654-0.938
			c-0.118,0.061-0.277,0.045-0.218-0.073c0.171-0.35-0.086-0.312-0.232-0.326c-0.376-0.04-0.873,0.369-1.032,0.519
			c-0.161,0.15-0.318,0.134-0.377,0.104c-0.501-0.254-1.993,0.113-2.457-0.713c0.046-0.222-0.376-3.576-0.595-4.156
			c-0.046-0.125-0.087-0.326,0.058-0.548c0.38-0.582,1.423,0.044,1.989,0.031c0.68-0.021,0.789-0.309,0.974-0.544
			c0.18-0.229,0.312-0.1,0.407-0.163c0.125-0.081,0.008-0.245,0.052-0.335c0.042-0.088,0.095-0.046,0.209-0.148
			c0.117-0.104-0.013-0.326,0.043-0.414c0.168-0.259,0.625-0.052,0.35-0.727c-0.15-0.372,0.059-0.772,0.261-1.041
			c0.33-0.434,1.601-2.261-0.639-4.156c-2.138-1.81-4.301-1.665-5.697-0.119C8.492,6.733,9.19,8.987,9.335,9.582
			c0.145,0.595-0.273,1.133-0.755,1.367c-0.382,0.184-1.252,0.778-1.91,1.362c0.104-4.846,2.981-9.104,7.396-10.919
			c0.188,0.242,0.396,0.468,0.623,0.682c-0.489,0.367-1.562,1.346-1.562,1.346s0.147,0.023,0.282,0.058
			C13.5,3.5,13.7,3.563,13.7,3.563s0.947-0.825,1.392-1.149c0.345,0.267,0.72,0.493,1.122,0.672
			c-0.216,0.372-0.754,1.404-0.754,1.404s0.126,0.075,0.239,0.153c0.108,0.074,0.179,0.142,0.179,0.142s0.59-1.131,0.81-1.51
			c0.496,0.17,1.01,0.267,1.533,0.292c0,0.149,0,1.9,0,2.07c-0.292-0.01-1.034-0.04-1.338-0.07L16.693,5.55l0.106,0.159
			c0.081,0.12,0.141,0.236,0.196,0.347l0.022,0.045l0.05,0.004c0.219,0.015,0.896,0.042,1.152,0.049c0,0.167,0,3.769,0,3.769h0.511
			c0,0,0-0.724,0-0.861c0.749-0.039,1.376-0.094,2.128-0.159l0.035-0.005l0.664-0.598l-0.363,0.034
			c-0.797,0.106-1.498,0.154-2.134,0.188c0,0-0.216,0.015-0.33,0.021c0-0.171,0-2.235,0-2.392C19.656,6.132,20.584,6,21.489,5.756
			c0.249,0.624,0.716,2.132,0.716,2.132l0.482-0.155c0,0-0.465-1.499-0.711-2.122c0.769-0.242,1.511-0.565,2.212-0.96
			c0.566,0.71,1.054,1.485,1.457,2.311c-0.365,0.174-1.027,0.413-1.026,0.413c0.53,0.06,0.935,0.187,0.935,0.187
			s0.188-0.08,0.307-0.135c0.047,0.106,0.139,0.329,0.139,0.329l0.664,0.298l-0.076-0.188c0,0-0.222-0.536-0.273-0.66
			c0.703-0.353,1.393-0.76,2.053-1.214c1.256,1.963,1.924,4.24,1.924,6.595C30.29,16.501,28.456,19.981,25.624,22.188z"/>
		<path fill="#FFFFFF" d="M5.051,3.353L4.859,3.528C4.137,4.18,2.488,5.903,2.741,7.795c0.001,0.005,0.026,0.133,0.026,0.133
			c0.001,0.002,0.08,0.375,0.08,0.375L3.08,8.088c1.01-0.946,1.768-2.546,2.077-4.392l0.088-0.518L5.051,3.353z"/>
		<path fill="#FFFFFF" d="M1.699,6.621L1.617,6.85C1.504,7.166,1.296,7.827,1.185,8.71c-0.157,1.248-0.122,3.014,0.94,4.333
			C2.123,13.041,2.243,13.2,2.243,13.2l0.123,0.159l0.157-0.801c0.177-1.418-0.055-4.387-0.565-5.712L1.782,6.393L1.699,6.621z"/>
		<path fill="#FFFFFF" d="M0.478,11.729l-0.016,0.233c-0.088,1.271-0.022,4.408,2.462,6.072c0.001,0.001,0.293,0.195,0.293,0.195
			l-0.012-0.357c-0.042-1.189-1.404-4.745-2.422-6.016l-0.29-0.359L0.478,11.729z"/>
		<path fill="#FFFFFF" d="M0.904,17.343l0.044,0.213c0.364,1.801,2.037,4.723,4.621,5.57l0.352,0.116l-0.127-0.355
			c-0.481-1.349-2.972-4.489-4.573-5.524l-0.359-0.234L0.904,17.343z"/>
		<path fill="#FFFFFF" d="M6.097,6.069L5.892,6.194C3.97,7.396,3.068,8.846,3.137,10.639c0,0.001,0.016,0.41,0.016,0.41l0.282-0.238
			c1.04-0.88,2.341-3.127,2.725-4.403L6.299,5.94L6.097,6.069z"/>
		<path fill="#FFFFFF" d="M4.964,9.993l-0.145,0.142c-0.492,0.479-2.086,2.212-1.95,4.354c0.022,0.329,0.095,0.682,0.22,1.052
			l0.113,0.338l0.205-0.292c0.763-1.095,1.771-3.984,1.718-5.327L5.109,9.854L4.964,9.993z"/>
		<path fill="#FFFFFF" d="M5.046,13.713l-0.107,0.165c-0.804,1.217-1.214,2.47-1.186,3.621c0.02,0.854,0.286,1.67,0.79,2.429
			l0.168,0.253l0.141-0.271c0.346-0.663,0.623-2.829,0.581-4.54c-0.014-0.604-0.074-1.103-0.172-1.443L5.154,13.55L5.046,13.713z"/>
		<path fill="#FFFFFF" d="M5.98,17.689L5.928,17.86c-0.242,0.793-0.355,1.566-0.334,2.299c0.046,1.663,0.769,2.964,2.143,3.865
			c0.001,0,0.235,0.148,0.235,0.148l0.049-0.318c0.001-0.008,0.02-0.256,0.02-0.256c-0.038-1.354-1.025-4.756-1.794-5.794
			l-0.213-0.288L5.98,17.689z"/>
		<path fill="#FFFFFF" d="M3.268,22.963l0.098,0.169c1.036,1.774,2.793,4.064,6.083,3.477l0.274-0.048l-0.156-0.237
			c-0.613-0.932-4.606-3.233-6.016-3.467L3.168,22.79L3.268,22.963L3.268,22.963z M3.508,22.935"/>
		<path fill="#FFFFFF" d="M8.132,27.468L8.132,27.468l-0.517,0.141l0.495,0.207c2.091,0.877,4.71,1.133,6.23,0.61
			c0.573-0.198,0.92-0.517,1.34-0.94c2.677,0.283,5.182,2.557,6.641,4.412l0.079,0.092l0.113-0.037
			c0.162-0.057,0.418-0.258,0.522-0.373l0.104-0.113l-0.092-0.125c-1.522-2.034-3.909-3.297-4.015-3.346
			C16.887,26.921,13.101,26.093,8.132,27.468z"/>
		<path fill="#FFFFFF" d="M8.243,21.786l0.028,0.18c0.313,2.014,1.113,4.652,4.439,4.36l0.213-0.017l-0.052-0.213
			c-0.227-0.916-3.272-3.573-4.338-4.322l-0.321-0.168L8.243,21.786z"/>
		<path fill="#FFFFFF" d="M31.759,3.178l0.086,0.518c0.309,1.846,1.067,3.446,2.079,4.392l0.229,0.215c0,0,0.083-0.373,0.083-0.375
			c0,0,0.024-0.128,0.024-0.133c0.255-1.892-1.396-3.616-2.117-4.267L31.95,3.353L31.759,3.178z"/>
		<path fill="#FFFFFF" d="M35.22,6.393l-0.174,0.453c-0.513,1.326-0.744,4.294-0.564,5.712l0.156,0.801l0.121-0.159
			c0,0,0.119-0.159,0.119-0.156c1.061-1.319,1.098-3.085,0.941-4.333c-0.113-0.883-0.321-1.544-0.436-1.86l-0.082-0.229L35.22,6.393
			z"/>
		<path fill="#FFFFFF" d="M36.509,11.498l-0.291,0.359c-1.018,1.271-2.377,4.826-2.421,6.016l-0.015,0.357
			c0,0,0.295-0.194,0.295-0.195c2.486-1.664,2.551-4.801,2.461-6.072l-0.015-0.233L36.509,11.498z"/>
		<path fill="#FFFFFF" d="M36.14,17.128l-0.359,0.234c-1.6,1.035-4.09,4.176-4.574,5.524l-0.125,0.355l0.352-0.116
			c2.584-0.848,4.259-3.77,4.621-5.57l0.044-0.213L36.14,17.128z"/>
		<path fill="#FFFFFF" d="M30.8,5.882l0.133,0.467c0.357,1.285,1.617,3.558,2.641,4.458l0.275,0.243l0.024-0.409
			c0.104-1.79-0.771-3.26-2.67-4.498l-0.2-0.132L30.8,5.882z"/>
		<path fill="#FFFFFF" d="M31.894,9.854l-0.016,0.407c-0.053,1.343,0.953,4.231,1.718,5.327l0.205,0.292l0.112-0.338
			c0.124-0.37,0.199-0.723,0.219-1.052c0.137-2.143-1.455-3.875-1.948-4.354l-0.145-0.142L31.894,9.854z"/>
		<path fill="#FFFFFF" d="M31.849,13.55l-0.107,0.377c-0.099,0.341-0.158,0.84-0.173,1.443c-0.04,1.71,0.235,3.876,0.581,4.54
			l0.142,0.271l0.169-0.253c0.504-0.759,0.77-1.575,0.79-2.429c0.028-1.151-0.382-2.404-1.187-3.621l-0.107-0.165L31.849,13.55z"/>
		<path fill="#FFFFFF" d="M30.97,17.517l-0.213,0.288c-0.771,1.038-1.758,4.44-1.796,5.794c0,0,0.021,0.248,0.021,0.256l0.051,0.318
			l0.231-0.148c1.376-0.901,2.099-2.202,2.145-3.865c0.02-0.732-0.092-1.506-0.336-2.299l-0.053-0.171L30.97,17.517z"/>
		<path fill="#FFFFFF" d="M33.834,22.79l-0.384,0.066c-1.411,0.233-5.402,2.535-6.016,3.467l-0.154,0.237l0.273,0.048
			c3.289,0.588,5.045-1.702,6.08-3.477l0.1-0.169L33.834,22.79L33.834,22.79z M33.494,22.935"/>
		<path fill="#FFFFFF" d="M17.969,27.995c-0.106,0.049-2.49,1.312-4.014,3.346l-0.093,0.125l0.104,0.113
			c0.104,0.115,0.359,0.316,0.523,0.373l0.111,0.037l0.08-0.092c1.46-1.855,3.963-4.129,6.64-4.412
			c0.423,0.424,0.77,0.742,1.343,0.94c1.518,0.522,4.137,0.267,6.229-0.61l0.495-0.207l-0.516-0.141
			C23.904,26.093,20.112,26.921,17.969,27.995z"/>
		<path fill="#FFFFFF" d="M28.786,21.606l-0.316,0.168c-1.066,0.749-4.112,3.406-4.339,4.322l-0.052,0.213l0.213,0.017
			c3.326,0.292,4.125-2.347,4.438-4.36l0.029-0.18L28.786,21.606z"/>
	</g>
</g>
</svg>
