<?xml version="1.0" encoding="utf-8"?>
<!-- Generator: Adobe Illustrator 16.0.0, SVG Export Plug-In . SVG Version: 6.00 Build 0)  -->
<!DOCTYPE svg PUBLIC "-//W3C//DTD SVG 1.1//EN" "http://www.w3.org/Graphics/SVG/1.1/DTD/svg11.dtd">
<svg version="1.1" id="Layer_1" xmlns="http://www.w3.org/2000/svg" xmlns:xlink="http://www.w3.org/1999/xlink" x="0px" y="0px"
	 width="140.037px" height="50px" viewBox="0 2.5 140.037 50" enable-background="new 0 2.5 140.037 50" xml:space="preserve">
<g>
	<g>
		<path fill="#FFFFFF" d="M62.571,37.329c-0.265-0.088-0.429-0.332-0.429-0.633V24.559h1.804v-1.432h-1.804v-4.229h-1.733v4.229
			h-1.802v1.432h1.802v12.138c0,1.166,0.916,2.08,2.084,2.08h1.753v-1.4h-1.452C62.715,37.376,62.659,37.358,62.571,37.329z"/>
		<path fill="#FFFFFF" d="M67.02,25.237v13.539h1.704V25.237c0-0.367,0.039-0.464,0.272-0.648c0.092-0.08,0.444-0.092,1.256-0.092
			l1.507,0.002V23.16h-2.687C67.922,23.16,67.02,24.071,67.02,25.237z"/>
		<path fill="#FFFFFF" d="M79.563,23.068h-3.005c-1.131,0-2.084,0.993-2.084,2.169v2.352h1.702v-2.352
			c0-0.312,0.205-0.638,0.464-0.724c0.078-0.025,0.14-0.048,0.217-0.048h2.404c0.077,0,0.142,0.021,0.222,0.049
			c0.244,0.08,0.432,0.393,0.432,0.723v3.681h-3.688c-1.133,0-2.055,0.919-2.055,2.049v5.669c0,1.16,0.939,2.141,2.055,2.141h5.42
			V25.238C81.647,24.062,80.692,23.068,79.563,23.068z M75.877,30.967c0-0.308,0.227-0.527,0.468-0.611
			c0.086-0.023,0.145-0.037,0.214-0.037h3.357v7.058h-3.357c-0.069,0-0.13-0.016-0.244-0.045c-0.231-0.084-0.438-0.41-0.438-0.693
			V30.967L75.877,30.967z"/>
		<polygon fill="#FFFFFF" points="93.184,23.16 91.39,23.16 87.147,29.62 87.147,17.101 85.505,17.101 85.505,38.776 87.147,38.776 
			87.147,32.542 88.29,30.854 91.751,38.776 93.401,38.776 89.342,29.132 		"/>
		<path fill="#FFFFFF" d="M98.814,37.329c-0.265-0.088-0.429-0.332-0.429-0.633V24.559h1.802v-1.432h-1.802v-4.229h-1.732v4.229
			h-1.803v1.432h1.803v12.138c0,1.166,0.915,2.08,2.083,2.08h1.754v-1.4h-1.451C98.959,37.376,98.903,37.358,98.814,37.329z"/>
		<path fill="#FFFFFF" d="M105.317,23.16c-1.151,0-2.055,0.911-2.055,2.077v13.539h1.703V25.237c0-0.367,0.039-0.464,0.271-0.648
			c0.092-0.08,0.446-0.092,1.256-0.092L108,24.5V23.16H105.317z"/>
	</g>
	<path fill="#FFFFFF" d="M61.318,3.5v1.128h0.125c0.372,0,0.597,0.042,0.698,0.067c0.096,0.024,0.154,0.071,0.178,0.141
		c0.047,0.136-0.037,0.365-0.215,0.59l-1.244,1.826L47.304,26.538l-2.653-3.749l-0.221-0.328c-0.047-0.097-0.057-0.133-0.059-0.137
		c0.031-0.01,0.098-0.021,0.24-0.027l0.119-0.006v-0.567h-2.118v0.562l0.113,0.01c0.134,0.015,0.175,0.031,0.173,0.021
		c0.053,0.064,0.41,0.568,0.759,1.064v0.002l0.273,0.389c0.028,0.039,0.058,0.08,0.084,0.118l0.101,0.142v-0.001l2.481,3.516
		l-14.321,20.37l-0.819,1.148c-0.401,0.646-0.622,0.914-0.753,1.076c-0.127,0.153-0.315,0.229-0.578,0.229H30V51.5h3.277v-1.129
		h-0.125c-0.375,0-0.603-0.041-0.701-0.064c-0.097-0.025-0.154-0.069-0.179-0.142c-0.045-0.137,0.037-0.363,0.217-0.59l0.885-1.301
		l10.75-15.306c0.528-0.688,1.542-1.67,3.067-1.67c1.632,0,2.835,1.055,3.304,1.693l3.11,4.405c0.047,0.096,0.057,0.133,0.062,0.137
		c-0.048,0.014-0.13,0.023-0.243,0.029l-0.119,0.006v0.566h2.121v-0.562l-0.113-0.01c-0.121-0.012-0.17-0.031-0.17-0.021
		c-0.161-0.211-2.668-3.724-3.989-5.577l-0.046-0.062h-0.001l-3.125-4.415L61.804,7.808h0.002l1.333-1.875
		c0.078-0.125,0.145-0.227,0.209-0.325l0.389-0.554c0.062-0.079,0.116-0.147,0.157-0.198c0.123-0.154,0.312-0.229,0.575-0.229h0.125
		V3.5H61.318z"/>
</g>
<polygon fill="#D36C5B" points="33.917,2.354 0,36.271 0,17.812 15.458,2.354 "/>
<g>
	<g>
		<path fill="#FFFFFF" d="M9.95,18.369c0.361,0.362,0.631,0.734,0.805,1.119c0.175,0.384,0.268,0.75,0.273,1.099
			c0.012,0.351-0.049,0.675-0.174,0.976c-0.125,0.299-0.297,0.558-0.512,0.771c-0.152,0.152-0.309,0.271-0.467,0.355
			s-0.311,0.145-0.457,0.18s-0.279,0.055-0.402,0.057c-0.123,0-0.228-0.004-0.31-0.016L8.69,22.928l0.33,0.521l-0.812,0.813
			c-0.112-0.125-0.254-0.277-0.426-0.455c-0.174-0.182-0.336-0.35-0.493-0.506l-5.06-5.06l0.98-0.982l1.67,1.67
			c0.119,0.118,0.229,0.229,0.328,0.332c0.1,0.102,0.175,0.182,0.227,0.239l0.01-0.008c0.021-0.106,0.047-0.219,0.078-0.335
			c0.033-0.116,0.078-0.235,0.135-0.356c0.055-0.121,0.123-0.242,0.207-0.363c0.082-0.122,0.18-0.239,0.293-0.354
			c0.225-0.224,0.48-0.399,0.773-0.529s0.605-0.193,0.938-0.191c0.331,0.003,0.676,0.087,1.032,0.251
			C9.264,17.777,9.608,18.029,9.95,18.369z M8.983,19.433c-0.25-0.251-0.498-0.438-0.737-0.558c-0.242-0.12-0.459-0.179-0.653-0.176
			c-0.191,0.003-0.357,0.041-0.497,0.114c-0.142,0.073-0.263,0.162-0.366,0.267c-0.146,0.145-0.264,0.319-0.354,0.526
			c-0.092,0.208-0.148,0.42-0.176,0.638l1.924,1.924c0.082,0.004,0.177,0.004,0.279-0.006c0.105-0.009,0.215-0.027,0.324-0.058
			c0.109-0.03,0.221-0.074,0.328-0.131c0.109-0.058,0.211-0.134,0.305-0.228c0.16-0.16,0.27-0.332,0.324-0.518
			s0.064-0.375,0.027-0.576c-0.037-0.199-0.117-0.402-0.24-0.609C9.351,19.837,9.188,19.635,8.983,19.433z"/>
		<path fill="#FFFFFF" d="M14.7,16.395c0.189-0.19,0.369-0.409,0.539-0.654c0.168-0.246,0.322-0.511,0.465-0.795l0.781,0.783
			c-0.07,0.182-0.215,0.43-0.428,0.742s-0.459,0.608-0.742,0.891c-0.281,0.284-0.59,0.518-0.918,0.701
			c-0.33,0.182-0.67,0.287-1.022,0.313c-0.354,0.027-0.716-0.031-1.087-0.18c-0.372-0.148-0.743-0.407-1.113-0.777
			c-0.363-0.364-0.631-0.735-0.799-1.114c-0.169-0.378-0.255-0.746-0.258-1.103c-0.002-0.355,0.064-0.692,0.201-1.011
			c0.141-0.318,0.328-0.598,0.572-0.841c0.254-0.254,0.527-0.449,0.818-0.586c0.291-0.138,0.598-0.201,0.92-0.19
			c0.32,0.009,0.656,0.102,1.004,0.275s0.7,0.438,1.057,0.795c0.138,0.141,0.248,0.262,0.342,0.364l-2.633,2.631
			c0.199,0.171,0.398,0.288,0.601,0.351c0.2,0.062,0.396,0.078,0.591,0.047c0.195-0.031,0.385-0.101,0.568-0.213
			C14.348,16.71,14.524,16.569,14.7,16.395z M11.647,14.126c-0.125,0.125-0.211,0.259-0.265,0.4
			c-0.051,0.143-0.071,0.288-0.063,0.438c0.01,0.149,0.045,0.297,0.107,0.443c0.062,0.147,0.146,0.286,0.253,0.419l1.578-1.579
			c-0.119-0.119-0.246-0.215-0.383-0.288c-0.138-0.072-0.274-0.117-0.416-0.135c-0.144-0.016-0.281-0.001-0.419,0.045
			C11.901,13.917,11.772,14.002,11.647,14.126z"/>
		<path fill="#FFFFFF" d="M20.544,11.917c-0.076,0.145-0.184,0.302-0.314,0.475c-0.133,0.173-0.27,0.324-0.4,0.458
			c-0.336,0.337-0.666,0.559-0.99,0.663c-0.322,0.104-0.631,0.1-0.924-0.018c-0.209-0.083-0.439-0.25-0.691-0.501l-2.08-2.08
			l-0.75,0.75l-0.808-0.808l0.75-0.75l-1.122-1.123L14.194,8l1.123,1.123l1.16-1.16l0.809,0.809l-1.16,1.16l1.951,1.951
			c0.154,0.154,0.293,0.245,0.414,0.273c0.211,0.044,0.438-0.057,0.684-0.303c0.113-0.113,0.217-0.235,0.311-0.364
			c0.096-0.13,0.18-0.259,0.25-0.385L20.544,11.917z"/>
		<path fill="#FFFFFF" d="M23.674,7.942l-0.017,0.017c0.002,0.113-0.006,0.239-0.021,0.377c-0.017,0.14-0.048,0.284-0.093,0.438
			c-0.046,0.154-0.113,0.308-0.201,0.462c-0.089,0.154-0.203,0.302-0.344,0.443c-0.19,0.189-0.397,0.339-0.624,0.445
			s-0.452,0.163-0.686,0.17c-0.229,0.008-0.459-0.034-0.686-0.127c-0.227-0.091-0.438-0.233-0.634-0.431
			C20.153,9.521,20,9.289,19.905,9.039c-0.092-0.25-0.127-0.505-0.104-0.765c0.022-0.26,0.103-0.52,0.233-0.777
			c0.136-0.258,0.32-0.506,0.558-0.744c0.175-0.174,0.347-0.322,0.515-0.447c0.17-0.124,0.324-0.228,0.465-0.308l-0.16-0.161
			c-0.096-0.094-0.2-0.168-0.319-0.224c-0.119-0.056-0.246-0.082-0.385-0.079c-0.14,0.002-0.284,0.041-0.438,0.114
			c-0.154,0.073-0.312,0.19-0.476,0.354c-0.198,0.199-0.375,0.42-0.53,0.663c-0.154,0.244-0.304,0.525-0.447,0.847l-0.767-0.768
			c0.113-0.29,0.261-0.572,0.438-0.845c0.18-0.273,0.394-0.536,0.639-0.788c0.292-0.292,0.585-0.513,0.876-0.661
			c0.291-0.146,0.574-0.233,0.849-0.254c0.272-0.022,0.531,0.016,0.776,0.114c0.244,0.098,0.468,0.248,0.668,0.449l1.515,1.513
			c0.266,0.265,0.494,0.49,0.69,0.675c0.194,0.185,0.371,0.349,0.524,0.493l-0.888,0.887L23.674,7.942z M22.313,6.738
			C22.196,6.81,22.069,6.897,21.928,7c-0.14,0.104-0.271,0.219-0.396,0.343c-0.24,0.239-0.385,0.478-0.43,0.712
			c-0.043,0.234,0.033,0.449,0.229,0.646c0.092,0.091,0.187,0.155,0.286,0.191c0.099,0.036,0.197,0.049,0.296,0.039
			c0.099-0.011,0.194-0.039,0.288-0.09c0.094-0.05,0.181-0.114,0.261-0.194c0.101-0.101,0.181-0.207,0.242-0.321
			c0.062-0.115,0.11-0.229,0.146-0.344c0.034-0.114,0.059-0.228,0.066-0.335c0.01-0.109,0.012-0.208,0.007-0.296L22.313,6.738z"/>
	</g>
</g>
</svg>
