<?xml version="1.0" encoding="utf-8"?>
<!-- Generator: Adobe Illustrator 16.0.0, SVG Export Plug-In . SVG Version: 6.00 Build 0)  -->
<!DOCTYPE svg PUBLIC "-//W3C//DTD SVG 1.1//EN" "http://www.w3.org/Graphics/SVG/1.1/DTD/svg11.dtd">
<svg version="1.1" id="Layer_1" xmlns="http://www.w3.org/2000/svg" xmlns:xlink="http://www.w3.org/1999/xlink" x="0px" y="0px"
	 width="25px" height="19px" viewBox="0 0 25 19" enable-background="new 0 0 25 19" xml:space="preserve">
<path fill="#FFFFFF" d="M21.536,0.012H21.41H3.589H3.463C1.554,0.012,0,1.566,0,3.476v12.049c0,1.909,1.554,3.463,3.463,3.463h0.126
	H21.41h0.126c1.91,0,3.464-1.554,3.464-3.463V3.476C25,1.566,23.446,0.012,21.536,0.012z M21.41,0.916
	c1.48,0,2.686,1.205,2.686,2.686c0,4.625-9.905,9.116-11.488,9.116c-1.576,0-11.704-4.619-11.704-9.116
	c0-1.481,1.205-2.686,2.686-2.686H21.41z M0.903,6.302c0.744,1.147,1.884,2.23,3.169,3.194C2.91,10.368,1.7,11.467,0.903,12.698
	V6.302z M3.589,18.084c-1.481,0-2.686-1.205-2.686-2.686c0-2.031,2.086-4,3.942-5.351c3.128,2.145,6.788,3.574,7.762,3.574
	c0.99,0,4.628-1.408,7.708-3.562c1.784,1.332,3.78,3.282,3.78,5.339c0,1.48-1.205,2.686-2.686,2.686H3.589z M24.096,12.63
	c-0.767-1.207-1.914-2.278-3.018-3.126c1.221-0.938,2.302-1.994,3.018-3.122V12.63z"/>
</svg>
