<?xml version="1.0" encoding="utf-8"?>
<!-- Generator: Adobe Illustrator 16.0.0, SVG Export Plug-In . SVG Version: 6.00 Build 0)  -->
<!DOCTYPE svg PUBLIC "-//W3C//DTD SVG 1.1//EN" "http://www.w3.org/Graphics/SVG/1.1/DTD/svg11.dtd">
<svg version="1.1" id="Layer_1" xmlns="http://www.w3.org/2000/svg" xmlns:xlink="http://www.w3.org/1999/xlink" x="0px" y="0px"
	 width="12px" height="15px" viewBox="9.035 7.517 12 15" enable-background="new 9.035 7.517 12 15" xml:space="preserve">
<path fill="#34383F" d="M14.822,22.245c0.02,0.013,0.04,0.026,0.06,0.038c0.046,0.023,0.097,0.038,0.152,0.038
	s0.106-0.015,0.152-0.038c0.021-0.012,0.041-0.025,0.061-0.038c5.1-3.216,5.788-6.925,5.788-8.543c0-2.771-1.886-5.1-4.444-5.785
	C16.57,7.912,16.551,7.905,16.53,7.9c-0.478-0.122-0.979-0.188-1.496-0.188c-0.517,0-1.018,0.065-1.496,0.188
	c-0.02,0.005-0.041,0.012-0.061,0.017c-2.559,0.685-4.444,3.014-4.444,5.785C9.035,15.32,9.723,19.029,14.822,22.245z
	 M15.035,10.572c1.728,0,3.135,1.404,3.135,3.129s-1.407,3.129-3.135,3.129c-1.729,0-3.135-1.404-3.135-3.129
	S13.306,10.572,15.035,10.572z"/>
</svg>
