<?xml version="1.0" encoding="utf-8"?>
<!-- Generator: Adobe Illustrator 16.0.0, SVG Export Plug-In . SVG Version: 6.00 Build 0)  -->
<!DOCTYPE svg PUBLIC "-//W3C//DTD SVG 1.1//EN" "http://www.w3.org/Graphics/SVG/1.1/DTD/svg11.dtd">
<svg version="1.1" id="Layer_1" xmlns="http://www.w3.org/2000/svg" xmlns:xlink="http://www.w3.org/1999/xlink" x="0px" y="0px"
	 width="17px" height="18px" viewBox="0 0 17 18" enable-background="new 0 0 17 18" xml:space="preserve">
<path fill="#3C4352" d="M9.773,12.04c-0.223,0-0.428-0.134-0.549-0.319c-0.468-0.623-3.84-5.186-3.84-7.362
	C5.384,1.956,7.34,0,9.744,0c2.402,0,4.357,1.955,4.357,4.358C14.101,6.024,10.931,12.04,9.773,12.04z M9.744,1.261
	c-1.709,0-3.099,1.389-3.099,3.098c0,1.22,1.814,4.152,3.193,6.068c0.957-1.289,3.004-4.748,3.004-6.068
	C12.841,2.65,11.452,1.261,9.744,1.261z"/>
<path fill="#3C4352" d="M9.744,6.223c-1.042,0-1.891-0.849-1.891-1.891c0-1.042,0.849-1.891,1.891-1.891
	c1.043,0,1.891,0.849,1.891,1.891C11.634,5.375,10.787,6.223,9.744,6.223z M9.744,3.702c-0.347,0-0.63,0.283-0.63,0.63
	c0,0.348,0.283,0.631,0.63,0.631c0.348,0,0.631-0.283,0.631-0.631C10.375,3.985,10.091,3.702,9.744,3.702z"/>
<path fill="#3C4352" d="M7.842,18c-0.036,0-0.072-0.004-0.107-0.01L1.554,16.93c-0.31-0.054-0.533-0.327-0.523-0.641l0.153-4.814
	L0.251,6.626C0.21,6.412,0.282,6.192,0.441,6.044c0.159-0.148,0.382-0.204,0.594-0.146l4.146,1.127l1.435-0.628
	c0.316-0.137,0.689,0.006,0.83,0.325c0.14,0.318-0.005,0.69-0.324,0.83L5.483,8.271C5.352,8.327,5.206,8.338,5.065,8.3L1.68,7.38
	l0.754,3.927c0.009,0.046,0.012,0.093,0.011,0.139l-0.137,4.336l5.397,0.926l3.466-2.26c0.154-0.102,0.342-0.129,0.52-0.077
	l3.77,1.089l-0.18-3.826l0.197-3.809L12.761,6.75c-0.324-0.128-0.482-0.494-0.355-0.817c0.127-0.325,0.496-0.484,0.818-0.355
	l3.138,1.241c0.251,0.099,0.411,0.349,0.397,0.619l-0.22,4.198l0.22,4.645c0.01,0.204-0.08,0.398-0.238,0.525
	c-0.159,0.124-0.369,0.168-0.566,0.111l-4.338-1.256l-3.43,2.237C8.083,17.965,7.963,18,7.842,18z"/>
</svg>
