<?xml version="1.0" encoding="utf-8"?>
<!-- Generator: Adobe Illustrator 16.0.0, SVG Export Plug-In . SVG Version: 6.00 Build 0)  -->
<!DOCTYPE svg PUBLIC "-//W3C//DTD SVG 1.1//EN" "http://www.w3.org/Graphics/SVG/1.1/DTD/svg11.dtd">
<svg version="1.1" id="Layer_1" xmlns="http://www.w3.org/2000/svg" xmlns:xlink="http://www.w3.org/1999/xlink" x="0px" y="0px"
	 width="120px" height="34px" viewBox="0.5 100.5 120 34" enable-background="new 0.5 100.5 120 34" xml:space="preserve">
<g>
	<path fill="#D95D6A" d="M85.684,110.649c0.201,0.129,0.32,0.26,0.33,0.51c0,0.279-0.239,0.551-0.52,0.551
		c-0.17,0-0.311-0.092-0.43-0.17l-4.108-2.729c-0.22-0.14-0.37-0.25-0.37-0.538c-0.01-0.279,0.15-0.4,0.37-0.539l4.118-2.74
		c0.119-0.08,0.26-0.147,0.41-0.147c0.289,0,0.52,0.261,0.529,0.539c0,0.26-0.16,0.399-0.351,0.528l-3.56,2.359L85.684,110.649z"/>
	<path fill="#D95D6A" d="M89.016,112.038c-0.121,0.209-0.239,0.35-0.489,0.35s-0.5-0.209-0.5-0.469c0-0.191,0.118-0.361,0.22-0.521
		l3.738-6.407c0.119-0.199,0.238-0.379,0.488-0.379c0.262,0,0.49,0.209,0.49,0.469c0,0.16-0.049,0.281-0.109,0.391L89.016,112.038z"
		/>
	<path fill="#D95D6A" d="M98.895,108.271l-3.559-2.36c-0.188-0.129-0.35-0.271-0.35-0.528c0.01-0.279,0.24-0.539,0.529-0.539
		c0.15,0,0.291,0.067,0.41,0.147l4.117,2.739c0.221,0.14,0.381,0.261,0.371,0.539c0,0.289-0.15,0.399-0.371,0.539l-4.107,2.729
		c-0.119,0.08-0.26,0.17-0.43,0.17c-0.279,0-0.52-0.271-0.52-0.549c0.01-0.25,0.129-0.382,0.33-0.511L98.895,108.271z"/>
</g>
<g>
	<path fill="#00ADEE" d="M85.684,127.649c0.201,0.129,0.32,0.26,0.33,0.51c0,0.279-0.239,0.551-0.52,0.551
		c-0.17,0-0.311-0.092-0.43-0.17l-4.108-2.729c-0.22-0.14-0.37-0.25-0.37-0.538c-0.01-0.279,0.15-0.4,0.37-0.539l4.118-2.74
		c0.119-0.08,0.26-0.147,0.41-0.147c0.289,0,0.52,0.261,0.529,0.539c0,0.26-0.16,0.399-0.351,0.528l-3.56,2.359L85.684,127.649z"/>
	<path fill="#00ADEE" d="M89.016,129.038c-0.121,0.209-0.239,0.35-0.489,0.35s-0.5-0.209-0.5-0.469c0-0.191,0.118-0.361,0.22-0.521
		l3.738-6.407c0.119-0.199,0.238-0.379,0.488-0.379c0.262,0,0.49,0.209,0.49,0.469c0,0.16-0.049,0.281-0.109,0.391L89.016,129.038z"
		/>
	<path fill="#00ADEE" d="M98.895,125.271l-3.559-2.36c-0.188-0.129-0.35-0.271-0.35-0.528c0.01-0.279,0.24-0.539,0.529-0.539
		c0.15,0,0.291,0.067,0.41,0.147l4.117,2.739c0.221,0.14,0.381,0.261,0.371,0.539c0,0.289-0.15,0.399-0.371,0.539l-4.107,2.729
		c-0.119,0.08-0.26,0.17-0.43,0.17c-0.279,0-0.52-0.271-0.52-0.549c0.01-0.25,0.129-0.382,0.33-0.511L98.895,125.271z"/>
</g>
<g>
	<path fill="#D95D6A" d="M36.967,101.5L37,101.533l-0.033,1.967L24,103.467l0.033-1.967H36.967 M36.967,100.5H24.034
		c-0.568,0-1.033,0.465-1.033,1.033v1.934c0,0.568,0.465,1.033,1.033,1.033h12.935c0.567,0,1.032-0.465,1.032-1.033v-1.934
		C38,100.965,37.536,100.5,36.967,100.5L36.967,100.5z"/>
	<path fill="#D95D6A" d="M36.967,107.5L37,107.533l-0.033,1.967L24,109.467l0.033-1.967H36.967 M36.967,106.5H24.034
		c-0.568,0-1.033,0.465-1.033,1.033v1.934c0,0.568,0.465,1.033,1.033,1.033h12.935c0.567,0,1.032-0.465,1.032-1.033v-1.934
		C38,106.965,37.536,106.5,36.967,106.5L36.967,106.5z"/>
	<path fill="#D95D6A" d="M36.967,113.5L37,113.533l-0.033,1.967L24,115.467l0.033-1.967H36.967 M36.967,112.5H24.034
		c-0.567,0-1.033,0.465-1.033,1.033v1.934c0,0.568,0.465,1.033,1.033,1.033h12.935c0.567,0,1.032-0.465,1.032-1.033v-1.934
		C38,112.965,37.536,112.5,36.967,112.5L36.967,112.5z"/>
</g>
<g>
	<path fill="#00ADEE" d="M36.967,118.5L37,118.533l-0.033,1.967L24,120.467l0.033-1.967H36.967 M36.967,117.5H24.034
		c-0.568,0-1.033,0.465-1.033,1.033v1.934c0,0.568,0.465,1.033,1.033,1.033h12.935c0.567,0,1.032-0.465,1.032-1.033v-1.934
		C38,117.965,37.536,117.5,36.967,117.5L36.967,117.5z"/>
	<path fill="#00ADEE" d="M36.967,124.5L37,124.533l-0.033,1.967L24,126.467l0.033-1.967H36.967 M36.967,123.5H24.034
		c-0.568,0-1.033,0.465-1.033,1.033v1.934c0,0.568,0.465,1.033,1.033,1.033h12.935c0.567,0,1.032-0.465,1.032-1.033v-1.934
		C38,123.965,37.536,123.5,36.967,123.5L36.967,123.5z"/>
	<path fill="#00ADEE" d="M36.967,130.5L37,130.533l-0.033,1.967L24,132.467l0.033-1.967H36.967 M36.967,129.5H24.034
		c-0.567,0-1.033,0.465-1.033,1.033v1.934c0,0.568,0.465,1.033,1.033,1.033h12.935c0.567,0,1.032-0.465,1.032-1.033v-1.934
		C38,129.965,37.536,129.5,36.967,129.5L36.967,129.5z"/>
</g>
<g>
	<path fill="#D95D6A" d="M76.968,101.5l0.033,0.035l-0.033,13.967L64,115.467l0.033-13.967H76.968 M76.968,100.5H64.033
		c-0.568,0-1.033,0.465-1.033,1.033v13.934c0,0.568,0.465,1.033,1.033,1.033h12.935c0.568,0,1.033-0.465,1.033-1.033v-13.932
		C78.001,100.965,77.536,100.5,76.968,100.5L76.968,100.5z"/>
	<rect x="65.994" y="104.896" fill="#D95D6A" width="9.335" height="1"/>
	<rect x="65.994" y="107.896" fill="#D95D6A" width="9.335" height="1"/>
	<rect x="65.994" y="110.896" fill="#D95D6A" width="9.335" height="1"/>
</g>
<g>
	<path fill="#00ADEE" d="M76.968,118.5l0.033,0.033L76.968,132.5L64,132.468l0.033-13.968H76.968 M76.968,117.5H64.033
		c-0.568,0-1.033,0.465-1.033,1.033v13.935c0,0.567,0.465,1.032,1.033,1.032h12.935c0.568,0,1.033-0.465,1.033-1.032v-13.933
		C78.001,117.965,77.536,117.5,76.968,117.5L76.968,117.5z"/>
	<rect x="65.994" y="121.897" fill="#00ADEE" width="9.335" height="0.999"/>
	<rect x="65.994" y="124.896" fill="#00ADEE" width="9.335" height="1.001"/>
	<rect x="65.994" y="127.897" fill="#00ADEE" width="9.335" height="1"/>
</g>
<g id="Layer_1_1_">
	<path fill="#D95D6A" d="M115.501,102.875h-10c-1.379,0-2.5,1.121-2.5,2.5v6.25c0,1.379,1.121,2.5,2.5,2.5h10
		c1.377,0,2.5-1.121,2.5-2.5v-6.25C118.001,103.996,116.88,102.875,115.501,102.875z M116.938,111.678
		c0,0.707-0.58,1.393-1.287,1.393h-10.301c-0.707,0-1.287-0.686-1.287-1.393v-4.867l5.014,3.51c0.398,0.281,0.91,0.42,1.424,0.42
		s1.023-0.139,1.424-0.42l5.016-3.51v4.867H116.938z M111.187,109.357c-0.359,0.25-1.012,0.25-1.371,0l-5.746-4.023
		c0-0.707,0.578-1.287,1.287-1.287h10.291c0.707,0,1.287,0.58,1.287,1.287L111.187,109.357z"/>
</g>
<g id="Layer_1_3_">
	<path fill="#00ADEE" d="M115.501,119.875h-10c-1.379,0-2.5,1.121-2.5,2.5v6.25c0,1.379,1.121,2.5,2.5,2.5h10
		c1.377,0,2.5-1.121,2.5-2.5v-6.25C118.001,120.996,116.88,119.875,115.501,119.875z M116.938,128.678
		c0,0.707-0.58,1.393-1.287,1.393h-10.301c-0.707,0-1.287-0.686-1.287-1.393v-4.867l5.014,3.509c0.398,0.281,0.91,0.421,1.424,0.421
		s1.023-0.14,1.424-0.421l5.016-3.509v4.867H116.938z M111.187,126.357c-0.359,0.25-1.012,0.25-1.371,0l-5.746-4.023
		c0-0.707,0.578-1.287,1.287-1.287h10.291c0.707,0,1.287,0.58,1.287,1.287L111.187,126.357z"/>
</g>
<g id="layer1_1_" transform="translate(0,-952.36218)">
	<path id="path5445_1_" fill="#D95D6A" d="M10.495,1052.862c-0.145,0-0.284,0.06-0.386,0.16l-6.784,6.784
		c-0.218,0.217-0.219,0.567-0.003,0.784c0.215,0.218,0.567,0.22,0.784,0.004c0.001,0,0.002-0.002,0.003-0.004l6.393-6.391
		l6.393,6.39c0.214,0.218,0.565,0.22,0.784,0.004s0.22-0.567,0.004-0.783c-0.002-0.002-0.002-0.004-0.004-0.004l-1.65-1.65
		c0.002-0.022,0.002-0.046,0-0.068v-2.773c0.003-0.308-0.242-0.558-0.548-0.56c-0.006,0-0.011,0-0.018,0
		c-0.304,0.006-0.546,0.256-0.543,0.56v1.734l-4.026-4.026C10.786,1052.918,10.644,1052.86,10.495,1052.862z M4.502,1061.646
		c-0.306,0.002-0.551,0.253-0.548,0.559v4.257v1.846c0,0.307,0.248,0.555,0.553,0.555h1.846h8.29h1.847
		c0.304,0,0.552-0.248,0.552-0.555v-6.103c0.004-0.305-0.241-0.557-0.545-0.562c-0.308-0.004-0.559,0.24-0.563,0.547
		c0,0.006,0,0.013,0,0.017v5.549h-1.292h-8.29H5.06v-1.292v-4.257c0.003-0.306-0.242-0.557-0.548-0.559
		C4.508,1061.644,4.505,1061.644,4.502,1061.646z"/>
</g>
<g id="layer1_3_" transform="translate(0,-952.36218)">
	<path id="path5445_3_" fill="#00ADEE" d="M10.495,1069.862c-0.145,0-0.284,0.06-0.386,0.16l-6.784,6.784
		c-0.218,0.217-0.219,0.567-0.003,0.784c0.215,0.218,0.567,0.22,0.784,0.004c0.001,0,0.002-0.002,0.003-0.004l6.393-6.391
		l6.393,6.39c0.214,0.218,0.565,0.22,0.784,0.004s0.22-0.567,0.004-0.783c-0.002-0.002-0.002-0.004-0.004-0.004l-1.65-1.65
		c0.002-0.022,0.002-0.046,0-0.068v-2.773c0.003-0.308-0.242-0.558-0.548-0.56c-0.006,0-0.011,0-0.018,0
		c-0.304,0.006-0.546,0.256-0.543,0.56v1.734l-4.026-4.026C10.786,1069.918,10.644,1069.86,10.495,1069.862z M4.502,1078.646
		c-0.306,0.002-0.551,0.253-0.548,0.559v4.257v1.846c0,0.307,0.248,0.555,0.553,0.555h1.846h8.29h1.847
		c0.304,0,0.552-0.248,0.552-0.555v-6.103c0.004-0.305-0.241-0.557-0.545-0.562c-0.308-0.004-0.559,0.24-0.563,0.547
		c0,0.006,0,0.013,0,0.017v5.549h-1.292h-8.29H5.06v-1.292v-4.257c0.003-0.306-0.242-0.557-0.548-0.559
		C4.508,1078.644,4.505,1078.644,4.502,1078.646z"/>
</g>
<g id="Your_Icon_2_">
	<path fill="#D95D6A" d="M50.5,101c-4.143,0-7.5,3.357-7.5,7.5s3.357,7.5,7.5,7.5c4.143,0,7.5-3.357,7.5-7.5S54.643,101,50.5,101z
		 M50.5,114.956c-3.565,0-6.456-2.892-6.456-6.456s2.89-6.455,6.456-6.455c3.564,0,6.455,2.891,6.455,6.455
		S54.064,114.956,50.5,114.956z"/>
	<polygon fill="#D95D6A" points="48.764,111.01 48.06,110.3 50.083,108.292 50.083,103.801 51.084,103.801 51.084,108.709 	"/>
</g>
<g id="Your_Icon_1_">
	<path fill="#00ADEE" d="M50.5,118c-4.143,0-7.5,3.357-7.5,7.5s3.357,7.5,7.5,7.5c4.143,0,7.5-3.357,7.5-7.5S54.643,118,50.5,118z
		 M50.5,131.956c-3.565,0-6.456-2.892-6.456-6.456s2.89-6.455,6.456-6.455c3.564,0,6.455,2.891,6.455,6.455
		S54.064,131.956,50.5,131.956z"/>
	<polygon fill="#00ADEE" points="48.764,128.01 48.06,127.3 50.083,125.292 50.083,120.801 51.084,120.801 51.084,125.709 	"/>
</g>
</svg>
