<?xml version="1.0" encoding="UTF-8" standalone="no"?>
<!-- Generator: Adobe Illustrator 16.0.0, SVG Export Plug-In . SVG Version: 6.00 Build 0)  -->

<svg
   xmlns:dc="http://purl.org/dc/elements/1.1/"
   xmlns:cc="http://creativecommons.org/ns#"
   xmlns:rdf="http://www.w3.org/1999/02/22-rdf-syntax-ns#"
   xmlns:svg="http://www.w3.org/2000/svg"
   xmlns="http://www.w3.org/2000/svg"
   xmlns:sodipodi="http://sodipodi.sourceforge.net/DTD/sodipodi-0.dtd"
   xmlns:inkscape="http://www.inkscape.org/namespaces/inkscape"
   version="1.1"
   id="Layer_1"
   x="0px"
   y="0px"
   width="15"
   height="15"
   viewBox="0 0 15 15"
   enable-background="new 0 0 13 15"
   xml:space="preserve"
   inkscape:version="0.48.4 r9939"
   sodipodi:docname="move.svg"><metadata
     id="metadata25"><rdf:RDF><cc:Work
         rdf:about=""><dc:format>image/svg+xml</dc:format><dc:type
           rdf:resource="http://purl.org/dc/dcmitype/StillImage" /><dc:title></dc:title></cc:Work></rdf:RDF></metadata><defs
     id="defs23" /><sodipodi:namedview
     pagecolor="#ffffff"
     bordercolor="#666666"
     borderopacity="1"
     objecttolerance="10"
     gridtolerance="10"
     guidetolerance="10"
     inkscape:pageopacity="0"
     inkscape:pageshadow="2"
     inkscape:window-width="1871"
     inkscape:window-height="1056"
     id="namedview21"
     showgrid="false"
     inkscape:zoom="15.733333"
     inkscape:cx="6.5"
     inkscape:cy="7.5"
     inkscape:window-x="49"
     inkscape:window-y="49"
     inkscape:window-maximized="1"
     inkscape:current-layer="Layer_1" /><g
     id="g3"
     transform="matrix(-0.61486699,0.61486699,-0.61486699,-0.61486699,16.211498,8.114255)"><path
       d="m 1.238,13.218 c -0.071,0 -0.142,-0.026 -0.196,-0.081 -0.106,-0.106 -0.106,-0.281 0,-0.389 L 4.868,8.923 c 0.107,-0.107 0.281,-0.107 0.39,0 0.106,0.107 0.106,0.282 0,0.389 l -3.826,3.825 c -0.055,0.054 -0.124,0.081 -0.194,0.081 z"
       id="path5"
       inkscape:connector-curvature="0"
       style="fill:#a0a0a0" /><path
       d="M 8.165,6.29 C 8.094,6.29 8.024,6.264 7.97,6.209 7.864,6.102 7.864,5.928 7.97,5.82 l 3.825,-3.825 c 0.106,-0.107 0.282,-0.107 0.389,0 0.107,0.107 0.107,0.282 0,0.389 L 8.359,6.209 C 8.304,6.264 8.235,6.29 8.165,6.29 z"
       id="path7"
       inkscape:connector-curvature="0"
       style="fill:#a0a0a0" /><path
       d="m 11.99,13.218 c -0.07,0 -0.141,-0.026 -0.194,-0.081 L 7.969,9.312 c -0.106,-0.107 -0.106,-0.282 0,-0.389 0.108,-0.107 0.282,-0.107 0.39,0 l 3.826,3.825 c 0.105,0.107 0.105,0.283 0,0.389 -0.055,0.054 -0.124,0.081 -0.195,0.081 z"
       id="path9"
       inkscape:connector-curvature="0"
       style="fill:#a0a0a0" /><path
       d="M 5.063,6.29 C 4.993,6.29 4.923,6.264 4.869,6.209 L 1.043,2.384 c -0.107,-0.107 -0.107,-0.281 0,-0.389 0.106,-0.107 0.28,-0.107 0.388,0 L 5.257,5.82 c 0.107,0.107 0.107,0.282 0,0.389 C 5.204,6.264 5.133,6.29 5.063,6.29 z"
       id="path11"
       inkscape:connector-curvature="0"
       style="fill:#a0a0a0" /><path
       d="M 12.265,4.664 C 12.114,4.664 11.99,4.541 11.99,4.389 V 2.19 H 9.792 C 9.64,2.19 9.518,2.066 9.518,1.915 9.518,1.763 9.64,1.64 9.792,1.64 h 2.474 c 0.15,0 0.274,0.123 0.274,0.275 v 2.474 c 0,0.153 -0.124,0.275 -0.275,0.275 z"
       id="path13"
       inkscape:connector-curvature="0"
       style="fill:#a0a0a0" /><path
       d="M 12.265,13.516 H 9.792 c -0.152,0 -0.274,-0.124 -0.274,-0.275 0,-0.151 0.122,-0.275 0.274,-0.275 h 2.198 v -2.199 c 0,-0.152 0.124,-0.275 0.275,-0.275 0.15,0 0.274,0.123 0.274,0.275 v 2.474 c 10e-4,0.151 -0.123,0.275 -0.274,0.275 z"
       id="path15"
       inkscape:connector-curvature="0"
       style="fill:#a0a0a0" /><path
       d="M 0.939,4.664 C 0.788,4.664 0.665,4.541 0.665,4.389 V 1.915 C 0.665,1.763 0.788,1.64 0.939,1.64 h 2.475 c 0.151,0 0.275,0.123 0.275,0.275 0,0.151 -0.124,0.275 -0.275,0.275 h -2.2 v 2.199 c 0,0.153 -0.123,0.275 -0.275,0.275 z"
       id="path17"
       inkscape:connector-curvature="0"
       style="fill:#a0a0a0" /><path
       d="M 3.414,13.516 H 0.939 c -0.151,0 -0.274,-0.124 -0.274,-0.275 v -2.474 c 0,-0.152 0.123,-0.275 0.274,-0.275 0.152,0 0.275,0.123 0.275,0.275 v 2.199 h 2.199 c 0.151,0 0.275,0.124 0.275,0.275 0,0.151 -0.123,0.275 -0.274,0.275 z"
       id="path19"
       inkscape:connector-curvature="0"
       style="fill:#a0a0a0" /></g></svg>