<?xml version="1.0" encoding="utf-8"?>
<!-- Generator: Adobe Illustrator 16.0.0, SVG Export Plug-In . SVG Version: 6.00 Build 0)  -->
<!DOCTYPE svg PUBLIC "-//W3C//DTD SVG 1.1//EN" "http://www.w3.org/Graphics/SVG/1.1/DTD/svg11.dtd">
<svg version="1.1" id="Layer_1" xmlns="http://www.w3.org/2000/svg" xmlns:xlink="http://www.w3.org/1999/xlink" x="0px" y="0px"
	 width="14px" height="14px" viewBox="10 10 14 14" enable-background="new 10 10 14 14" xml:space="preserve">
<path fill="#D95D6A" d="M11.665,23.764c-0.314,0.314-0.827,0.313-1.141-0.001l-0.29-0.287c-0.314-0.315-0.314-0.828,0-1.142
	l12.1-12.098c0.313-0.313,0.826-0.313,1.142,0l0.288,0.289c0.314,0.313,0.314,0.828,0,1.141L11.665,23.764z"/>
<path fill="#D95D6A" d="M23.764,22.333c0.315,0.314,0.314,0.827,0,1.141l-0.29,0.289c-0.314,0.314-0.827,0.314-1.142,0
	L10.234,11.666c-0.313-0.313-0.313-0.827,0-1.142l0.29-0.289c0.313-0.314,0.828-0.314,1.141,0L23.764,22.333z"/>
</svg>
