<?xml version="1.0" encoding="utf-8"?>
<!-- Generator: Adobe Illustrator 16.0.0, SVG Export Plug-In . SVG Version: 6.00 Build 0)  -->
<!DOCTYPE svg PUBLIC "-//W3C//DTD SVG 1.1//EN" "http://www.w3.org/Graphics/SVG/1.1/DTD/svg11.dtd">
<svg version="1.1" id="Layer_1" xmlns="http://www.w3.org/2000/svg" xmlns:xlink="http://www.w3.org/1999/xlink" x="0px" y="0px"
	 width="11px" height="11px" viewBox="0 0 11 11" enable-background="new 0 0 11 11" xml:space="preserve">
<g>
	<path fill="#D8BC48" d="M11,9.994c0,0.551-0.45,1-1,1H1c-0.55,0-1-0.449-1-1v-9c0-0.55,0.45-1,1-1h9c0.55,0,1,0.45,1,1V9.994z"/>
</g>
<g>
	<path fill="#3C4352" d="M5.588,8.811V7.898l1.678-1.412c1.041-0.852,1.602-1.372,1.602-2.122c0-0.711-0.469-1.232-1.36-1.232
		c-0.598,0-1.231,0.254-1.6,0.483l-0.166-0.99C6.3,2.358,6.975,2.167,7.747,2.167c1.551,0,2.364,0.825,2.364,1.995
		c0,0.94-0.547,1.677-1.627,2.554L7.148,7.82L7.125,7.834c0.611-0.037,1.943-0.051,3.277-0.051v1.027H5.588L5.588,8.811z"/>
</g>
<g>
	<g>
		<path fill="#D36C5B" d="M1.919,10.994V5.067L0.355,5.73L0.146,4.665l2.049-0.79h1.011v7.119H1.919z"/>
	</g>
</g>
</svg>
