<?xml version="1.0" encoding="utf-8"?>
<!-- Generator: Adobe Illustrator 16.0.0, SVG Export Plug-In . SVG Version: 6.00 Build 0)  -->
<!DOCTYPE svg PUBLIC "-//W3C//DTD SVG 1.1//EN" "http://www.w3.org/Graphics/SVG/1.1/DTD/svg11.dtd">
<svg version="1.1" id="Layer_1" xmlns="http://www.w3.org/2000/svg" xmlns:xlink="http://www.w3.org/1999/xlink" x="0px" y="0px"
	 width="11px" height="11px" viewBox="0 0 11 11" enable-background="new 0 0 11 11" xml:space="preserve">
<g>
	<path fill="#3C4352" d="M11,10c0,0.55-0.45,1-1,1H1c-0.55,0-1-0.45-1-1V1c0-0.55,0.45-1,1-1h9c0.55,0,1,0.45,1,1V10z"/>
</g>
<g>
	<path fill="#D8BC48" d="M5.546,9.109V8.318l1.452-1.222C7.9,6.359,8.385,5.908,8.385,5.259c0-0.616-0.406-1.067-1.178-1.067
		c-0.517,0-1.066,0.22-1.386,0.418L5.679,3.752c0.483-0.231,1.067-0.396,1.737-0.396c1.343,0,2.047,0.715,2.047,1.728
		c0,0.814-0.473,1.452-1.408,2.211L6.899,8.252L6.877,8.263C7.406,8.23,8.561,8.219,9.716,8.219v0.891H5.546z"/>
</g>
<g>
	<g>
		<path fill="#FFFFFF" d="M2.369,11V5.867L1.014,6.442l-0.18-0.923l1.775-0.684h0.875V11H2.369z"/>
	</g>
</g>
</svg>
