<?xml version="1.0" encoding="utf-8"?>
<!-- Generator: Adobe Illustrator 16.0.0, SVG Export Plug-In . SVG Version: 6.00 Build 0)  -->
<!DOCTYPE svg PUBLIC "-//W3C//DTD SVG 1.1//EN" "http://www.w3.org/Graphics/SVG/1.1/DTD/svg11.dtd">
<svg version="1.1" id="Layer_1" xmlns="http://www.w3.org/2000/svg" xmlns:xlink="http://www.w3.org/1999/xlink" x="0px" y="0px"
	 width="25px" height="22px" viewBox="0 0 25 22" enable-background="new 0 0 25 22" xml:space="preserve">
<g id="Ebene_1">
	<g>
		<path fill="#FFFFFF" d="M23.406,3.54c-1.826-2.372-5.394-3.524-10.905-3.524c-5.513,0-9.08,1.153-10.907,3.524
			C0,5.609,0,8.205,0,10.495v0.379h6.44l0.377-0.001l0.001-0.377c0.001-0.149,0.057-3.663,3.662-3.663h4.04
			c3.605,0,3.661,3.513,3.662,3.662v0.379H25v-0.379C25,8.205,25,5.609,23.406,3.54z M18.915,10.116
			c-0.045-0.414-0.17-1.11-0.521-1.811c-0.508-1.017-1.594-2.229-3.874-2.229h-4.04c-2.281,0-3.365,1.212-3.874,2.229
			c-0.351,0.701-0.476,1.397-0.521,1.811H0.759C0.764,8.044,0.841,5.76,2.194,4.002c1.674-2.173,5.045-3.229,10.307-3.229
			c5.261,0,8.632,1.056,10.306,3.229c1.354,1.758,1.432,4.042,1.437,6.114H18.915z"/>
		<g>
			<path fill="#FFFFFF" d="M18.083,10.974v-0.479c-0.001-0.145-0.063-3.562-3.562-3.562h-4.04c-3.499,0-3.561,3.417-3.562,3.563
				l-0.001,0.476L-0.1,10.974v-0.479c0-2.306,0-4.92,1.615-7.016c1.847-2.398,5.441-3.563,10.986-3.563
				c5.545,0,9.138,1.166,10.984,3.563C25.1,5.575,25.1,8.189,25.1,10.495v0.479H18.083z M24.143,10.016
				c-0.009-2.192-0.137-4.292-1.416-5.953c-1.654-2.146-4.999-3.19-10.227-3.19c-5.229,0-8.574,1.043-10.228,3.19
				c-1.278,1.66-1.406,3.761-1.415,5.953h5.138c0.057-0.455,0.193-1.103,0.52-1.755c0.521-1.042,1.632-2.285,3.963-2.285h4.04
				c2.333,0,3.443,1.243,3.963,2.285c0.327,0.652,0.463,1.3,0.52,1.755H24.143z"/>
		</g>
		<path fill="#FFFFFF" d="M20.995,20.596c0,0.348-0.32,0.508-0.669,0.508h-15.5c-0.348,0-0.831-0.16-0.831-0.508v-8.081H3.031v8.081
			c0,0.766,0.623,1.389,1.389,1.389h16.161c0.767,0,1.39-0.623,1.39-1.389v-8.081h-0.976V20.596z"/>
		<path fill="#FFFFFF" d="M12.501,12.189c0.551,0,1-0.449,1-1c0-0.552-0.449-1-1-1s-1,0.448-1,1
			C11.501,11.74,11.95,12.189,12.501,12.189z"/>
		<path fill="#FFFFFF" d="M15.847,12.19c0.551,0,1-0.449,1-1c0-0.552-0.449-1-1-1c-0.552,0-1,0.449-1,1
			C14.847,11.741,15.295,12.19,15.847,12.19z"/>
		<path fill="#FFFFFF" d="M9.154,12.189c0.551,0,1.001-0.449,1.001-1c0-0.552-0.45-1-1.001-1c-0.55,0-0.999,0.448-0.999,1
			C8.155,11.74,8.604,12.189,9.154,12.189z"/>
		<path fill="#FFFFFF" d="M12.501,15.189c0.551,0,1-0.449,1-1c0-0.552-0.449-1-1-1s-1,0.448-1,1
			C11.501,14.74,11.95,15.189,12.501,15.189z"/>
		<path fill="#FFFFFF" d="M15.847,15.19c0.551,0,1-0.449,1-1c0-0.552-0.449-1-1-1c-0.552,0-1,0.449-1,1
			C14.847,14.741,15.295,15.19,15.847,15.19z"/>
		<path fill="#FFFFFF" d="M9.154,15.189c0.551,0,1.001-0.449,1.001-1c0-0.552-0.45-1-1.001-1c-0.55,0-0.999,0.448-0.999,1
			C8.155,14.74,8.604,15.189,9.154,15.189z"/>
		<path fill="#FFFFFF" d="M12.501,18.25c0.551,0,1-0.449,1-1c0-0.552-0.449-1-1-1s-1,0.448-1,1
			C11.501,17.801,11.95,18.25,12.501,18.25z"/>
		<path fill="#FFFFFF" d="M15.847,18.25c0.551,0,1-0.449,1-1c0-0.552-0.449-1-1-1c-0.552,0-1,0.449-1,1
			C14.847,17.801,15.295,18.25,15.847,18.25z"/>
		<path fill="#FFFFFF" d="M9.154,18.25c0.551,0,1.001-0.449,1.001-1c0-0.552-0.45-1-1.001-1c-0.55,0-0.999,0.448-0.999,1
			C8.155,17.801,8.604,18.25,9.154,18.25z"/>
	</g>
</g>
</svg>
