<?xml version="1.0" encoding="utf-8"?>
<!-- Generator: Adobe Illustrator 16.0.0, SVG Export Plug-In . SVG Version: 6.00 Build 0)  -->
<!DOCTYPE svg PUBLIC "-//W3C//DTD SVG 1.1//EN" "http://www.w3.org/Graphics/SVG/1.1/DTD/svg11.dtd">
<svg version="1.1" id="Layer_1" xmlns="http://www.w3.org/2000/svg" xmlns:xlink="http://www.w3.org/1999/xlink" x="0px" y="0px"
	 width="26px" height="23px" viewBox="-0.4 -0.465 26 23" enable-background="new -0.4 -0.465 26 23" xml:space="preserve">
<g>
	<path fill="#D67456" d="M23.585,3.563C21.738,1.166,18.146,0,12.601,0C7.055,0,3.461,1.166,1.614,3.563C0,5.66,0,8.273,0,10.579
		v0.479h7.017l0.001-0.476c0.001-0.146,0.063-3.564,3.562-3.564h4.04c3.498,0,3.562,3.417,3.562,3.561v0.479h7.017v-0.479
		C25.199,8.273,25.199,5.66,23.585,3.563z M19.104,10.101c-0.057-0.455-0.193-1.103-0.52-1.755
		c-0.521-1.042-1.631-2.285-3.964-2.285h-4.04c-2.331,0-3.442,1.243-3.963,2.285c-0.327,0.653-0.463,1.3-0.52,1.755H0.958
		c0.009-2.192,0.137-4.293,1.415-5.953c1.654-2.146,4.999-3.19,10.228-3.19c5.228,0,8.573,1.043,10.227,3.19
		c1.278,1.661,1.406,3.761,1.415,5.953H19.104z"/>
	<path fill="#D67456" d="M21.095,20.681c0,0.348-0.32,0.508-0.669,0.508h-15.5c-0.348,0-0.831-0.16-0.831-0.508v-8.08H3.131v8.08
		c0,0.766,0.623,1.389,1.389,1.389h16.161c0.767,0,1.39-0.623,1.39-1.389v-8.08h-0.976V20.681z"/>
	<circle fill="#D67456" cx="12.601" cy="11.274" r="1"/>
	<circle fill="#D67456" cx="15.946" cy="11.274" r="1"/>
	<path fill="#D67456" d="M9.254,12.274c0.551,0,1.001-0.449,1.001-1c0-0.552-0.45-1-1.001-1c-0.55,0-0.999,0.448-0.999,1
		C8.255,11.825,8.704,12.274,9.254,12.274z"/>
	<circle fill="#D67456" cx="12.601" cy="14.274" r="1"/>
	<circle fill="#D67456" cx="15.946" cy="14.274" r="1"/>
	<path fill="#D67456" d="M9.254,15.274c0.551,0,1.001-0.449,1.001-1c0-0.552-0.45-1-1.001-1c-0.55,0-0.999,0.448-0.999,1
		C8.255,14.825,8.704,15.274,9.254,15.274z"/>
	<circle fill="#D67456" cx="12.601" cy="17.335" r="1"/>
	<circle fill="#D67456" cx="15.946" cy="17.335" r="1"/>
	<path fill="#D67456" d="M9.254,18.335c0.551,0,1.001-0.449,1.001-1c0-0.552-0.45-1-1.001-1c-0.55,0-0.999,0.448-0.999,1
		C8.255,17.886,8.704,18.335,9.254,18.335z"/>
</g>
</svg>
