<?xml version="1.0" encoding="utf-8"?>
<!-- Generator: Adobe Illustrator 16.0.0, SVG Export Plug-In . SVG Version: 6.00 Build 0)  -->
<!DOCTYPE svg PUBLIC "-//W3C//DTD SVG 1.1//EN" "http://www.w3.org/Graphics/SVG/1.1/DTD/svg11.dtd">
<svg version="1.1" id="Layer_1" xmlns="http://www.w3.org/2000/svg" xmlns:xlink="http://www.w3.org/1999/xlink" x="0px" y="0px"
	 width="32px" height="32px" viewBox="0 0 32 32" enable-background="new 0 0 32 32" xml:space="preserve">
<g>
	<polygon fill="#6B6B6B" points="32,32 20.521,32 12.174,32 0,32 0,0 32,0 	"/>
</g>
<g>
	<g>
		<path fill="#FFFFFF" d="M15.289,24.232c-4.164,0-7.813-3.719-7.813-7.958c0-4.157,3.361-7.67,7.363-7.67
			c0.333,0,0.588,0.271,0.588,0.606c0,0,0,5.845,0,6.431c0,0.587,0.641,0.641,0.641,0.641h6.43c0.335,0,0.605,0.254,0.605,0.588
			C23.103,20.87,19.524,24.232,15.289,24.232z"/>
	</g>
	<g>
		<path fill="#D8BC48" d="M24.052,14.656h-6.631c-0.312,0-0.555-0.243-0.555-0.555V7.471c0-0.312,0.248-0.564,0.558-0.564
			c4.236,0,7.194,2.954,7.194,7.19C24.618,14.408,24.364,14.656,24.052,14.656z"/>
	</g>
</g>
</svg>
