<?xml version="1.0" encoding="utf-8"?>
<!-- Generator: Adobe Illustrator 16.0.0, SVG Export Plug-In . SVG Version: 6.00 Build 0)  -->
<!DOCTYPE svg PUBLIC "-//W3C//DTD SVG 1.1//EN" "http://www.w3.org/Graphics/SVG/1.1/DTD/svg11.dtd">
<svg version="1.1" id="Layer_1" xmlns="http://www.w3.org/2000/svg" xmlns:xlink="http://www.w3.org/1999/xlink" x="0px" y="0px"
	 width="14px" height="14px" viewBox="0 0 14 14" enable-background="new 0 0 14 14" xml:space="preserve">
<circle fill="#363636" cx="7" cy="7.001" r="7"/>
<path fill="#FFFFFF" stroke="#FFFFFF" stroke-width="0.18" stroke-miterlimit="10" d="M4.851,3.856
	c0.132-0.117,0.282-0.218,0.451-0.302C5.47,3.47,5.648,3.398,5.835,3.34s0.375-0.103,0.566-0.132c0.19-0.029,0.374-0.044,0.55-0.044
	c0.337,0,0.646,0.037,0.924,0.11c0.278,0.074,0.517,0.191,0.715,0.352c0.198,0.162,0.351,0.369,0.456,0.622
	c0.106,0.253,0.16,0.56,0.16,0.918c0,0.257-0.041,0.48-0.122,0.671C9.004,6.027,8.898,6.202,8.77,6.359S8.497,6.671,8.338,6.821
	C8.18,6.972,8.023,7.131,7.869,7.3c-0.244,0.271-0.417,0.574-0.52,0.907C7.246,8.541,7.194,8.689,7.194,8.828H6.248
	c0-0.029,0.023-0.142,0.045-0.377c0.022-0.234,0.051-0.354,0.114-0.585C6.47,7.635,6.55,7.414,6.649,7.201
	c0.099-0.212,0.226-0.403,0.379-0.572C7.124,6.526,7.23,6.421,7.348,6.315c0.117-0.106,0.229-0.22,0.335-0.341
	c0.106-0.121,0.196-0.248,0.27-0.379c0.073-0.132,0.11-0.275,0.11-0.429c0-0.278-0.099-0.497-0.297-0.654
	C7.568,4.354,7.252,4.275,6.82,4.275c-0.257,0-0.484,0.047-0.682,0.143C5.94,4.513,5.756,4.634,5.588,4.781L4.851,3.856z
	 M6.721,9.676c0.169,0,0.319,0.064,0.451,0.192s0.198,0.28,0.198,0.456c0,0.177-0.066,0.325-0.198,0.446
	c-0.132,0.12-0.282,0.181-0.451,0.181c-0.168,0-0.319-0.061-0.451-0.181c-0.132-0.121-0.198-0.27-0.198-0.446
	c0-0.176,0.064-0.328,0.192-0.456S6.545,9.676,6.721,9.676z"/>
</svg>
