<?xml version="1.0" encoding="utf-8"?>
<!-- Generator: Adobe Illustrator 16.0.0, SVG Export Plug-In . SVG Version: 6.00 Build 0)  -->
<!DOCTYPE svg PUBLIC "-//W3C//DTD SVG 1.1//EN" "http://www.w3.org/Graphics/SVG/1.1/DTD/svg11.dtd">
<svg version="1.1" id="Layer_1" xmlns="http://www.w3.org/2000/svg" xmlns:xlink="http://www.w3.org/1999/xlink" x="0px" y="0px"
	 width="104.002px" height="62px" viewBox="0 0 104.002 62" enable-background="new 0 0 104.002 62" xml:space="preserve">
<g>
	<path fill="#D95D6A" d="M5.038,42.702l44.193,15.064c1.192,0.408,3.53,0.414,4.726,0.014l45.181-15.098
		c0.953-0.318,1.821-1.523,1.821-2.529V0H3.214v40.153C3.214,41.161,4.083,42.376,5.038,42.702z"/>
	<path fill="#FFFFFF" d="M102.458,0v40.153c0,1.65-1.28,3.428-2.846,3.951L54.432,59.202c-1.565,0.523-4.124,0.516-5.685-0.017
		L4.554,44.121c-1.562-0.532-2.839-2.317-2.839-3.968V0h-1.5v40.153c0,2.285,1.693,4.65,3.855,5.389l44.193,15.064
		c0.917,0.312,2.11,0.484,3.361,0.484c1.22,0,2.387-0.166,3.284-0.465l45.181-15.098c2.17-0.727,3.87-3.086,3.87-5.375V0H102.458z"
		/>
	<path fill="#FFFFFF" d="M100.958,40.153c0,1.006-0.868,2.211-1.821,2.529L53.957,57.78c-1.195,0.4-3.533,0.395-4.726-0.014
		L5.038,42.702c-0.954-0.326-1.823-1.541-1.823-2.549V0h-1.5v40.153c0,1.65,1.278,3.436,2.839,3.968l44.193,15.064
		c1.562,0.532,4.12,0.54,5.685,0.017l45.181-15.098c1.565-0.523,2.846-2.301,2.846-3.951V0h-1.5V40.153z"/>
</g>
</svg>
