<?xml version="1.0" encoding="utf-8"?>
<!-- Generator: Adobe Illustrator 16.0.0, SVG Export Plug-In . SVG Version: 6.00 Build 0)  -->
<!DOCTYPE svg PUBLIC "-//W3C//DTD SVG 1.1//EN" "http://www.w3.org/Graphics/SVG/1.1/DTD/svg11.dtd">
<svg version="1.1" id="Layer_1" xmlns="http://www.w3.org/2000/svg" xmlns:xlink="http://www.w3.org/1999/xlink" x="0px" y="0px"
	 width="13px" height="13px" viewBox="0 0 13 13" enable-background="new 0 0 13 13" xml:space="preserve">
<g>
	<g opacity="0.8">
		<g>
			<path fill="#515967" d="M5.549,0.331c-2.696,0-4.915,2.219-4.915,4.915c0,2.695,2.219,4.915,4.915,4.915
				c1.163,0,2.22-0.423,3.065-1.058l-0.74-0.74C7.24,8.84,6.447,9.104,5.602,9.104c-2.114,0-3.858-1.744-3.858-3.857
				c0-2.114,1.744-3.858,3.858-3.858S9.46,3.132,9.46,5.246c0,0.898-0.317,1.744-0.846,2.378l0.74,0.74L8.667,9.051
				c1.109-0.899,1.797-2.273,1.797-3.805C10.464,2.55,8.244,0.331,5.549,0.331z"/>
		</g>
	</g>
	<g opacity="0.8">
		<g>
			<polygon fill="#515967" points="9.354,8.364 8.562,9.156 8.455,9.051 11.626,12.169 12.366,11.429 			"/>
			<polygon fill="#515967" points="9.248,8.311 8.932,7.994 8.932,7.994 			"/>
		</g>
	</g>
</g>
</svg>
