<?xml version="1.0" encoding="utf-8"?>
<!-- Generator: Adobe Illustrator 16.0.0, SVG Export Plug-In . SVG Version: 6.00 Build 0)  -->
<!DOCTYPE svg PUBLIC "-//W3C//DTD SVG 1.1//EN" "http://www.w3.org/Graphics/SVG/1.1/DTD/svg11.dtd">
<svg version="1.1" id="Layer_1" xmlns="http://www.w3.org/2000/svg" xmlns:xlink="http://www.w3.org/1999/xlink" x="0px" y="0px"
	 width="19px" height="17px" viewBox="0 0 19 17" enable-background="new 0 0 19 17" xml:space="preserve">
<g>
	<path fill="#E7D392" d="M6.935,7.564c0.797-1.215,1.895-2.229,3.086-2.855c0.879-0.46,1.816-0.719,2.853-0.787L13.218,3.9
		c0,0,0.007-2.043,0.015-2.043c0.023,0,5.148,3.801,5.148,3.816c0,0.015-5.062,4.073-5.134,4.073c-0.017,0-0.029-2.24-0.029-2.24
		l-0.216-0.049c-0.871-0.194-1.88-0.107-3.006,0.259C8.82,8.096,7.56,8.785,6.344,9.708C5.888,10.055,6.443,8.313,6.935,7.564z"/>
	<path fill="#E7D392" d="M16.801,10.523v1.75c0,1.483-0.689,2.146-2.146,2.146H4.346c-1.359,0-2.146-0.852-2.146-2.146V4.726
		c0-1.28,0.818-2.147,2.146-2.147h5.35L11.279,1H4.346C2.291,1,0.62,2.671,0.62,4.726v7.547C0.62,14.328,2.291,16,4.346,16h10.308
		c2.055,0,3.727-1.671,3.727-3.727V8.929L16.801,10.523z"/>
</g>
</svg>
