<?xml version="1.0" encoding="utf-8"?>
<!-- Generator: Adobe Illustrator 16.0.0, SVG Export Plug-In . SVG Version: 6.00 Build 0)  -->
<!DOCTYPE svg PUBLIC "-//W3C//DTD SVG 1.1//EN" "http://www.w3.org/Graphics/SVG/1.1/DTD/svg11.dtd">
<svg version="1.1" id="Layer_1" xmlns="http://www.w3.org/2000/svg" xmlns:xlink="http://www.w3.org/1999/xlink" x="0px" y="0px"
	 width="17px" height="18px" viewBox="0 0 17 18" enable-background="new 0 0 17 18" xml:space="preserve">
<g>
	<polygon fill="#3C4352" points="12.53,5.583 11.973,6.118 14.36,8.506 6.512,8.506 6.512,9.265 14.36,9.265 11.973,11.652 
		12.53,12.188 15.833,8.885 	"/>
	<g>
		<path fill="#3C4352" d="M9.25,16.5c-4.136,0-7.5-3.365-7.5-7.5c0-4.136,3.364-7.5,7.5-7.5c0.335,0,0.661,0.031,0.984,0.074
			l0.863-0.863C10.502,0.577,9.886,0.5,9.25,0.5c-4.694,0-8.5,3.806-8.5,8.5c0,4.695,3.806,8.5,8.5,8.5
			c0.702,0,1.38-0.094,2.032-0.256l-0.842-0.842C10.053,16.465,9.655,16.5,9.25,16.5z"/>
	</g>
</g>
</svg>
