<?xml version="1.0" encoding="utf-8"?>
<!-- Generator: Adobe Illustrator 16.0.0, SVG Export Plug-In . SVG Version: 6.00 Build 0)  -->
<!DOCTYPE svg PUBLIC "-//W3C//DTD SVG 1.1//EN" "http://www.w3.org/Graphics/SVG/1.1/DTD/svg11.dtd">
<svg version="1.1" id="Layer_1" xmlns="http://www.w3.org/2000/svg" xmlns:xlink="http://www.w3.org/1999/xlink" x="0px" y="0px"
	 width="260px" height="45px" viewBox="0 0 260 45" enable-background="new 0 0 260 45" xml:space="preserve">
<rect x="130" fill-rule="evenodd" clip-rule="evenodd" fill="#5B4654" width="65" height="45"/>
<rect fill-rule="evenodd" clip-rule="evenodd" fill="#606052" width="65" height="45"/>
<path opacity="0.7" fill="#DBDBDB" d="M32.782,31.5h-3.797v-9h-1.901v-3.104h1.901v-1.861c0-2.531,1.071-4.035,4.116-4.035h2.534
	v3.103h-1.583c-1.186,0-1.264,0.433-1.264,1.241l-0.005,1.553h2.873L35.317,22.5h-2.535V31.5z"/>
<path opacity="0.7" fill="#DBDBDB" d="M170.377,17.869c-0.588,0.271-1.221,0.454-1.885,0.537c0.678-0.422,1.199-1.09,1.443-1.887
	c-0.633,0.391-1.336,0.675-2.085,0.828c-0.599-0.662-1.452-1.077-2.396-1.077c-1.812,0-3.283,1.526-3.283,3.409
	c0,0.268,0.029,0.528,0.085,0.777c-2.729-0.142-5.147-1.5-6.767-3.562c-0.281,0.503-0.443,1.09-0.443,1.714
	c0,1.184,0.579,2.228,1.46,2.839c-0.538-0.019-1.044-0.172-1.487-0.427c0,0.015,0,0.028,0,0.044c0,1.65,1.133,3.029,2.633,3.342
	c-0.275,0.078-0.564,0.119-0.864,0.119c-0.212,0-0.417-0.021-0.617-0.061c0.417,1.355,1.63,2.34,3.066,2.368
	c-1.124,0.915-2.539,1.46-4.077,1.46c-0.266,0-0.527-0.016-0.783-0.048c1.453,0.968,3.178,1.532,5.031,1.532
	c6.039,0,9.342-5.196,9.342-9.701c0-0.148-0.004-0.297-0.01-0.441C169.381,19.153,169.938,18.553,170.377,17.869z"/>
<rect x="195" fill-rule="evenodd" clip-rule="evenodd" fill="#D95D6A" width="65" height="45"/>
<rect x="65" fill-rule="evenodd" clip-rule="evenodd" fill="#F3D952" width="65" height="45"/>
<path fill="#3C4352" d="M98.515,31.5h-3.797v-9h-1.901v-3.103h1.901v-1.862c0-2.531,1.071-4.035,4.116-4.035h2.534v3.103h-1.583
	c-1.186,0-1.264,0.433-1.264,1.242l-0.005,1.553h2.873L101.05,22.5h-2.535V31.5z"/>
<path fill="#3C4352" d="M235.074,17.869c-0.588,0.271-1.221,0.454-1.885,0.538c0.678-0.422,1.199-1.09,1.443-1.887
	c-0.633,0.391-1.336,0.675-2.085,0.828c-0.599-0.662-1.452-1.077-2.396-1.077c-1.812,0-3.283,1.527-3.283,3.41
	c0,0.268,0.029,0.528,0.085,0.777c-2.729-0.142-5.147-1.5-6.767-3.562c-0.281,0.503-0.443,1.09-0.443,1.714
	c0,1.184,0.579,2.227,1.46,2.839c-0.538-0.019-1.044-0.172-1.487-0.427c0,0.015,0,0.028,0,0.043c0,1.651,1.133,3.03,2.633,3.343
	c-0.275,0.078-0.564,0.119-0.864,0.119c-0.212,0-0.417-0.021-0.617-0.062c0.417,1.356,1.63,2.341,3.066,2.369
	c-1.124,0.915-2.539,1.46-4.077,1.46c-0.266,0-0.527-0.016-0.783-0.048c1.453,0.967,3.178,1.532,5.031,1.532
	c6.039,0,9.342-5.196,9.342-9.701c0-0.148-0.004-0.296-0.01-0.442C234.078,19.153,234.636,18.552,235.074,17.869z"/>
</svg>
