<?xml version="1.0" encoding="utf-8"?>
<!-- Generator: Adobe Illustrator 16.0.0, SVG Export Plug-In . SVG Version: 6.00 Build 0)  -->
<!DOCTYPE svg PUBLIC "-//W3C//DTD SVG 1.1//EN" "http://www.w3.org/Graphics/SVG/1.1/DTD/svg11.dtd">
<svg version="1.1" id="Layer_1" xmlns="http://www.w3.org/2000/svg" xmlns:xlink="http://www.w3.org/1999/xlink" x="0px" y="0px"
	 width="20px" height="16.999px" viewBox="0 1.124 20 16.999" enable-background="new 0 1.124 20 16.999" xml:space="preserve">
<polygon fill="#3C4352" points="17.787,2.671 17,3.467 18.427,4.911 17,6.355 17.787,7.152 20,4.911 "/>
<polygon fill="#D67456" points="17.787,13.193 17,13.989 18.427,15.43 17,16.875 17.787,17.671 20,15.43 "/>
<path fill="#3C4352" d="M14.868,4.348c-2.944,0-4.344,2.832-5.698,5.572c-1.277,2.588-2.457,4.086-4.699,4.086H0v1.125h4.471
	c2.807,0,4.26-1.801,5.695-4.708c1.257-2.545,2.445-4.949,4.702-4.949h4.468V4.348H14.868z"/>
<path fill="#D67456" d="M14.868,14.867c-2.257,0-3.445-2.403-4.702-4.947c-1.437-2.908-2.89-4.71-5.695-4.71H0v1.126h4.471
	c2.242,0,3.421,1.499,4.699,4.088c1.354,2.737,2.753,5.568,5.698,5.568h4.468v-1.125H14.868z"/>
</svg>
