<?xml version="1.0" encoding="utf-8"?>
<!-- Generator: Adobe Illustrator 16.0.0, SVG Export Plug-In . SVG Version: 6.00 Build 0)  -->
<!DOCTYPE svg PUBLIC "-//W3C//DTD SVG 1.1//EN" "http://www.w3.org/Graphics/SVG/1.1/DTD/svg11.dtd">
<svg version="1.1" id="Layer_1" xmlns="http://www.w3.org/2000/svg" xmlns:xlink="http://www.w3.org/1999/xlink" x="0px" y="0px"
	 width="36px" height="36px" viewBox="0 0 36 36" enable-background="new 0 0 36 36" xml:space="preserve">
<path fill="#D95D6A" d="M35,32.909c0,1.1-0.9,2-2,2H3c-1.1,0-2-0.9-2-2v-30c0-1.1,0.9-2,2-2h30c1.1,0,2,0.9,2,2V32.909z"/>
<g id="Your_Icon_1_">
	<path fill="#FFFFFF" d="M18,5.909c-6.629,0-12,5.372-12,12c0,6.627,5.372,12,12,12c6.627,0,12-5.373,12-12
		C30,11.281,24.627,5.909,18,5.909z M18,28.604c-5.908,0-10.697-4.789-10.697-10.695c0-5.908,4.789-10.697,10.697-10.697
		c5.906,0,10.695,4.789,10.695,10.697C28.695,23.815,23.906,28.604,18,28.604z"/>
	<polygon fill="#FFFFFF" points="17.52,8.789 17.52,17.71 14.266,20.964 15.117,21.813 18.371,18.562 18.828,18.106 18.828,16.75 
		18.828,8.789 	"/>
</g>
</svg>
