<?xml version="1.0" encoding="utf-8"?>
<!-- Generator: Adobe Illustrator 16.0.0, SVG Export Plug-In . SVG Version: 6.00 Build 0)  -->
<!DOCTYPE svg PUBLIC "-//W3C//DTD SVG 1.1//EN" "http://www.w3.org/Graphics/SVG/1.1/DTD/svg11.dtd">
<svg version="1.1" id="Layer_1" xmlns="http://www.w3.org/2000/svg" xmlns:xlink="http://www.w3.org/1999/xlink" x="0px" y="0px"
	 width="36px" height="36px" viewBox="0 0 36 36" enable-background="new 0 0 36 36" xml:space="preserve">
<g>
	<path fill="#D95D6A" d="M34.98,33c0,1.1-0.9,2-2,2h-30c-1.1,0-2-0.9-2-2V3c0-1.1,0.9-2,2-2h30c1.1,0,2,0.9,2,2V33z"/>
</g>
<g id="Your_Icon_1_">
	<path fill="#FFFFFF" d="M17.98,6c-6.628,0-12,5.373-12,12s5.372,12,12,12c6.627,0,12-5.373,12-12S24.607,6,17.98,6z M17.98,28.695
		c-5.908,0-10.696-4.789-10.696-10.696c0-5.907,4.788-10.696,10.696-10.696c5.907,0,10.695,4.789,10.695,10.696
		C28.676,23.906,23.888,28.695,17.98,28.695z"/>
	<polygon fill="#FFFFFF" points="17.5,8.88 17.5,17.8 14.246,21.055 15.098,21.905 18.352,18.652 18.809,18.198 18.809,16.841 
		18.809,8.88 	"/>
</g>
</svg>
