<?xml version="1.0" encoding="utf-8"?>
<!-- Generator: Adobe Illustrator 16.0.0, SVG Export Plug-In . SVG Version: 6.00 Build 0)  -->
<!DOCTYPE svg PUBLIC "-//W3C//DTD SVG 1.1//EN" "http://www.w3.org/Graphics/SVG/1.1/DTD/svg11.dtd">
<svg version="1.1" id="Layer_1" xmlns="http://www.w3.org/2000/svg" xmlns:xlink="http://www.w3.org/1999/xlink" x="0px" y="0px"
	 width="34px" height="34px" viewBox="0 0 34 34" enable-background="new 0 0 34 34" xml:space="preserve">
<path fill="#D67456" d="M34,32c0,1.1-0.9,2-2,2H2c-1.1,0-2-0.9-2-2V2c0-1.1,0.9-2,2-2h30c1.1,0,2,0.9,2,2V32z"/>
<g id="Your_Icon_1_">
	<path fill="#FFFFFF" d="M17,5C10.372,5,5,10.373,5,17c0,6.627,5.372,12,12,12c6.627,0,12-5.373,12-12C29,10.373,23.627,5,17,5z
		 M17,27.696c-5.908,0-10.696-4.789-10.696-10.696S11.092,6.304,17,6.304c5.907,0,10.695,4.789,10.695,10.696
		S22.907,27.696,17,27.696z"/>
	<polygon fill="#FFFFFF" points="16.52,7.88 16.52,16.801 13.266,20.055 14.117,20.906 17.371,17.652 17.828,17.199 17.828,15.841 
		17.828,7.88 	"/>
</g>
</svg>
