<?xml version="1.0" encoding="utf-8"?>
<!-- Generator: Adobe Illustrator 16.0.0, SVG Export Plug-In . SVG Version: 6.00 Build 0)  -->
<!DOCTYPE svg PUBLIC "-//W3C//DTD SVG 1.1//EN" "http://www.w3.org/Graphics/SVG/1.1/DTD/svg11.dtd">
<svg version="1.1" id="Layer_1" xmlns="http://www.w3.org/2000/svg" xmlns:xlink="http://www.w3.org/1999/xlink" x="0px" y="0px"
	 width="330px" height="320.614px" viewBox="0 0 330 320.614" enable-background="new 0 0 330 320.614" xml:space="preserve">
<g>
	<path fill="#FCC24D" d="M240.085,125.41c-5.18-1.479-14.793-5.546-24.78-11.836c-9.986-6.287-14.794-17.015-21.082-25.891
		c-6.287-8.879-17.015-15.906-23.603-19.234c-6.587-3.33-18.562-1.481-25.219-2.96c-6.657-1.479-15.165-11.466-28.292-32.925
		c-13.13-21.457-25.707-31.807-43.83-32.547C55.157-0.722,45.17,22.213,39.206,42.555c-5.962,20.344-19.556,52.156-25.475,63.621
		c-3.498,6.777-9.448,12.26-13.73,15.613v15.461h247.482C247.482,137.25,245.265,126.892,240.085,125.41z"/>
</g>
<g>
	<path fill="#FBAB4F" d="M242.674,128.37c-4.439-1.849-18.681-5.188-26.258-11.095c-7.579-5.911-18.496-19.238-23.674-24.414
		c-5.178-5.178-15.165-14.428-20.343-16.021s-25.52-2.476-34.026-5.435c-8.506-2.959-27.372-20.713-31.439-25.152
		c-4.067-4.438-14.795-13.316-35.876-13.687C49.976,32.199,41.101,60.68,30.375,82.873c-10.726,22.192-19.233,32.55-28.477,38.1
		c-0.662,0.397-1.29,0.75-1.898,1.078v36.281h247.482C247.482,158.332,247.112,130.219,242.674,128.37z"/>
</g>
<g>
	<path fill="#FCC24D" d="M327.233,188.786c-12.205-1.355-31.299-14.547-36.847-23.055c-5.548-8.51-17.016-21.084-22.935-29.222
		c-5.918-8.139-14.053-11.837-21.448-11.837c-7.397,0-20.344-0.74-25.521-2.22c-5.179-1.479-20.713-16.646-24.782-21.823
		c-4.067-5.178-14.055-11.467-22.932-15.906c-8.875-4.439-22.928-2.219-27.738-2.219c-4.808,0-22.191-1.111-39.205-4.07
		c-17.015-2.96-40.684-1.479-51.041,1.85c-10.357,3.329-19.973,18.495-29.589,28.58c-9.615,10.086-23.298,14.635-23.298,14.635
		l0.34,7.702l1.494,98.523H330v-40.688C329.099,188.969,328.183,188.891,327.233,188.786z"/>
</g>
<g>
	<path fill="#FDD74C" d="M327.233,191.375c-12.77-0.477-29.451-10.109-33.89-14.18c-4.438-4.068-21.453-27.247-29.959-31.932
		c-8.505-4.688-24.778-8.018-41.421-9.496c-16.646-1.479-29.959-22.191-44.386-24.042c-14.424-1.849-68.054-2.22-78.04-1.849
		c-9.984,0.367-28.48-3.33-49.192,1.479c-20.71,4.809-22.562,8.879-31.438,10.357c-8.875,1.479-13.311,1.414-17.009,1.785
		c-3.701,0.369,7.2,6.832,7.2,6.832L7.25,159.428l2.588,38.838l-7.94,20.729L330,208.018v-16.48
		C329.09,191.481,328.182,191.422,327.233,191.375z"/>
</g>
<g>
	<path fill="#FEE44B" d="M162.783,131.203c0,0-18.862,1.605-29.218-2.092c-10.355-3.701-35.137-18.127-52.889-18.127
		c-17.754,0-33.121-0.223-44.098,4.281C25.994,119.606,10.19,122.229,0,123.57v37.881c72.007-0.024,164.634-0.16,164.634-0.16
		L162.783,131.203z"/>
</g>
<g>
	<path fill="#FDDD4D" d="M151.966,133.303c0,0-19.882-1.975-28.387-4.933c-8.505-2.96-25.152-9.247-37.727-10.357
		c-12.574-1.108-27.739-3.698-38.464,1.852c-10.724,5.546-33.289,19.974-40.315,21.453c-1.621,0.341-4.114,0.444-7.073,0.445v38.023
		h153.538L151.966,133.303z"/>
</g>
<g>
	<path fill="#FEE44C" d="M147.941,134.123c0,0-21.722-4.982-30.832-8.029c-9.113-3.049-40.871-12.148-51.966-7.341
		c-11.098,4.809-21.507,9.039-28.507,17.467c-6.999,8.427-21.574,23.846-32.892,25.235c-1.845,0.227-3.744,0.1-3.744,0.1v39.542
		l149.841-26.49L147.941,134.123z"/>
</g>
<g>
	<path fill="#FDDD4D" d="M198.545,139.941c-5.297-3.596-23.923-8.241-29.842-8.611c-5.92-0.371-24.411,0-34.766,1.973
		c-10.354,1.972-15.905,2.095-24.41,3.574c-8.506,1.48-44.754,1.11-56.961,3.699c-12.204,2.59-29.587,20.346-37.724,25.893
		c-3.867,2.637-9.239,3.846-14.842,4.557v61.285h8.555l45.493-7.768l123.902-25.895l31.439-37.358
		C209.39,161.291,203.84,143.536,198.545,139.941z"/>
</g>
<g>
	<path fill="#FDD44C" d="M147.983,134.121c-5.485,0.314-12.565-0.201-22.183,2.388s-19.973,9.247-29.587,12.575
		c-9.617,3.328-33.289,2.591-38.835,4.811c-5.548,2.219-20.712,20.711-25.15,25.522c-4.437,4.809-19.973,25.891-30.329,28.852
		c-0.643,0.184-1.275,0.35-1.898,0.5v27.863c12.925-0.693,27.591-2.033,44.062-4.32l17.384-6.66l59.076-32.18l31.169-38.098
		C151.69,155.373,153.469,133.805,147.983,134.121z"/>
</g>
<path fill="#F76D51" d="M269.307,232.311H1.898c0,0,8.136-3.699,15.906-13.316c7.766-9.617,24.039-44.389,36.244-52.156
	c12.206-7.767,21.084-7.766,28.111-7.397c7.026,0.369,21.822-5.18,29.958-10.357c8.135-5.178,23.671-14.795,31.067-14.795
	c7.397,0,26.263-2.219,35.507,0c9.244,2.22,17.383,5.547,26.259,7.028c8.877,1.479,28.847,2.588,32.917,2.219
	c4.07-0.37,17.014,2.22,19.234,3.329c2.218,1.109,20.714,11.834,23.671,33.292C283.73,201.61,269.307,232.311,269.307,232.311z"/>
<g>
	<path fill="#F76D51" d="M62.775,224.167c-13.311,0.557-42.168,1.666-61.583,7.77c-0.383,0.119-0.781,0.236-1.192,0.346v86.139
		c1.08,0.486,2.209,0.889,3.408,1.18c17.754,4.293,35.09-6.443,35.09-6.443l13.734-18.523l57.696-70.467
		C109.928,224.167,76.086,223.614,62.775,224.167z"/>
</g>
<g>
	<path fill="#F65252" d="M92.175,229.346l-12.207,2.59c0,0-21.468,5.307-29.336,16.256c-4.942,6.877-9.497,51.988-29.47,69.742
		c0,0,18.308-2.773,28.849-11.096c10.54-8.322,26.668-14.074,33.287-14.982c13.466-1.842,39.542,9.809,50.083,7.59
		c10.54-2.219,23.149-11.473,32.025-12.027s40.473,6.244,51.19,4.26c14.982-2.775,38.132-19.795,53.663-21.459
		c9.506-1.018,40.297-1.826,59.739-1.668v-43.463L92.175,229.346z"/>
</g>
<g>
	<path fill="#F65252" d="M308.881,191.993c-7.768-2.959-18.124-12.207-29.959-25.893c-11.834-13.686-27.368-20.715-35.877-20.823
		c-8.509-0.109-65.467,0.479-71.752,0.107c-6.287-0.369-16.645,0-28.478,4.439c-11.835,4.438-29.592,45.127-38.097,61.772
		s-24.042,20.715-24.042,20.715H330v-38.59C324.802,193.534,312.005,193.182,308.881,191.993z"/>
</g>
</svg>
