<?xml version="1.0" encoding="utf-8"?>
<!-- Generator: Adobe Illustrator 16.0.0, SVG Export Plug-In . SVG Version: 6.00 Build 0)  -->
<!DOCTYPE svg PUBLIC "-//W3C//DTD SVG 1.1//EN" "http://www.w3.org/Graphics/SVG/1.1/DTD/svg11.dtd">
<svg version="1.1" id="Layer_1" xmlns="http://www.w3.org/2000/svg" xmlns:xlink="http://www.w3.org/1999/xlink" x="0px" y="0px"
	 width="18.203px" height="6.392px" viewBox="0 0 18.203 6.392" enable-background="new 0 0 18.203 6.392" xml:space="preserve">
<g>
	<path fill="none" d="M-74.495,6.392c-1.1,0-2,0.9-2,2v19.961c0,1.1,0.9,2,2,2H0V6.392H-74.495z"/>
	<path fill="none" d="M23.642,30.353c1.1,0,2-0.9,2-2V8.392c0-1.1-0.9-2-2-2h-5.438v23.961H23.642z"/>
	<path fill="none" d="M14.555,5.09l-3.963-3.397c-0.418-0.358-0.969-0.537-1.519-0.537c-0.55,0-1.101,0.179-1.519,0.537L3.592,5.09
		C2.756,5.806,1.173,6.392,0.073,6.392H0v23.961h18.203V6.392h-0.13C16.974,6.392,15.39,5.806,14.555,5.09z"/>
	<path fill="#E5E5E5" d="M0.073,6.392c1.1,0,2.683-0.586,3.519-1.302l3.963-3.397c0.417-0.358,0.968-0.537,1.519-0.537
		c0.55,0,1.101,0.179,1.519,0.537l3.963,3.397c0.835,0.716,2.419,1.302,3.519,1.302h0.13v-1h-0.13c-0.868,0-2.208-0.496-2.868-1.061
		l-3.963-3.397c-0.585-0.501-1.355-0.777-2.169-0.777S7.489,0.432,6.904,0.934L2.941,4.331c-0.66,0.565-2,1.061-2.868,1.061H0v1
		H0.073z"/>
</g>
<g>
	<path fill="#FFFFFF" d="M18.073,6.392c-1.1,0-2.684-0.586-3.519-1.302l-3.963-3.397c-0.835-0.716-2.202-0.716-3.037,0L3.592,5.09
		C2.756,5.806,1.173,6.392,0.073,6.392H0l0,0h18.203l0,0H18.073z"/>
</g>
</svg>
