<?xml version="1.0" encoding="utf-8"?>
<!-- Generator: Adobe Illustrator 16.0.0, SVG Export Plug-In . SVG Version: 6.00 Build 0)  -->
<!DOCTYPE svg PUBLIC "-//W3C//DTD SVG 1.1//EN" "http://www.w3.org/Graphics/SVG/1.1/DTD/svg11.dtd">
<svg version="1.1" id="Layer_1" xmlns="http://www.w3.org/2000/svg" xmlns:xlink="http://www.w3.org/1999/xlink" x="0px" y="0px"
	 width="6.391px" height="18.203px" viewBox="5.906 -5.906 6.391 18.203" enable-background="new 5.906 -5.906 6.391 18.203"
	 xml:space="preserve">
<g>
	<path fill="#E5E5E5" d="M12.22-5.907h-1v0.073c0,0.868-0.494,2.208-1.061,2.868L6.763,0.998C6.261,1.583,5.985,2.354,5.985,3.168
		c0,0.813,0.275,1.584,0.777,2.169L10.159,9.3c0.566,0.66,1.061,2,1.061,2.868v0.13h1v-0.13c0-1.101-0.586-2.685-1.301-3.52
		L7.522,4.686C7.163,4.268,6.985,3.717,6.985,3.167c0-0.551,0.178-1.103,0.537-1.52l3.396-3.963
		c0.715-0.836,1.301-2.419,1.301-3.519V-5.907z"/>
</g>
<g>
	<path fill="#FFFFFF" d="M12.22,12.375L12.22,12.375V-5.829l0,0v0.073c0,1.1-0.586,2.683-1.301,3.519L7.522,1.725
		c-0.717,0.835-0.717,2.202,0,3.037l3.396,3.963c0.715,0.835,1.301,2.419,1.301,3.52V12.375z"/>
</g>
</svg>
