<?xml version="1.0" encoding="utf-8"?>
<!-- Generator: Adobe Illustrator 16.0.0, SVG Export Plug-In . SVG Version: 6.00 Build 0)  -->
<!DOCTYPE svg PUBLIC "-//W3C//DTD SVG 1.1//EN" "http://www.w3.org/Graphics/SVG/1.1/DTD/svg11.dtd">
<svg version="1.1" id="Layer_1" xmlns="http://www.w3.org/2000/svg" xmlns:xlink="http://www.w3.org/1999/xlink" x="0px" y="0px"
	 width="6.391px" height="18.203px" viewBox="5.906 -5.906 6.391 18.203" enable-background="new 5.906 -5.906 6.391 18.203"
	 xml:space="preserve">
<g>
	<path fill="#E5E5E5" d="M5.986-5.833c0,1.1,0.585,2.683,1.3,3.519l3.397,3.963c0.358,0.417,0.537,0.969,0.537,1.52
		c0,0.55-0.179,1.101-0.537,1.519L7.286,8.649c-0.715,0.835-1.301,2.419-1.301,3.52v0.13h1v-0.13c0-0.868,0.494-2.208,1.061-2.868
		l3.397-3.963c0.501-0.585,0.776-1.355,0.776-2.169c0-0.814-0.274-1.585-0.776-2.171L8.046-2.965c-0.566-0.66-1.06-2-1.06-2.868
		v-0.073h-1V-5.833z"/>
</g>
<g>
	<path fill="#FFFFFF" d="M5.985,12.167c0-1.101,0.586-2.685,1.301-3.52l3.397-3.963c0.717-0.835,0.717-2.202,0-3.037L7.286-2.315
		c-0.715-0.836-1.3-2.419-1.3-3.519v-0.073l0,0l0,18.203l0,0V12.167z"/>
</g>
</svg>
