<?xml version="1.0" encoding="utf-8"?>
<!-- Generator: Adobe Illustrator 16.0.0, SVG Export Plug-In . SVG Version: 6.00 Build 0)  -->
<!DOCTYPE svg PUBLIC "-//W3C//DTD SVG 1.1//EN" "http://www.w3.org/Graphics/SVG/1.1/DTD/svg11.dtd">
<svg version="1.1" id="Layer_1" xmlns="http://www.w3.org/2000/svg" xmlns:xlink="http://www.w3.org/1999/xlink" x="0px" y="0px"
	 width="18.203px" height="6.391px" viewBox="0 0 18.203 6.391" enable-background="new 0 0 18.203 6.391" xml:space="preserve">
<g>
	<path fill="#FFFFFF" d="M18.203,0.078L18.203,0.078H0l0,0h0.073c1.1,0,2.683,0.586,3.519,1.301l3.962,3.396
		c0.835,0.717,2.202,0.717,3.037,0l3.964-3.396c0.834-0.715,2.418-1.301,3.52-1.301H18.203z"/>
</g>
<g>
	<path fill="#E5E5E5" d="M0,0v1h0.073c0.868,0,2.208,0.494,2.868,1.061l3.963,3.396C7.489,5.959,8.26,6.234,9.075,6.234
		c0.813,0,1.584-0.274,2.169-0.776l3.963-3.396c0.66-0.565,2-1.061,2.868-1.061h0.13V0h-0.13c-1.101,0-2.685,0.586-3.521,1.301
		l-3.963,3.396c-0.418,0.359-0.969,0.537-1.519,0.537c-0.551,0-1.103-0.178-1.52-0.537L3.592,1.3C2.756,0.586,1.173,0,0.073,0H0z"/>
</g>
</svg>
