<?xml version="1.0" encoding="utf-8"?>
<!-- Generator: Adobe Illustrator 16.0.0, SVG Export Plug-In . SVG Version: 6.00 Build 0)  -->
<!DOCTYPE svg PUBLIC "-//W3C//DTD SVG 1.1//EN" "http://www.w3.org/Graphics/SVG/1.1/DTD/svg11.dtd">
<svg version="1.1" id="Layer_1" xmlns="http://www.w3.org/2000/svg" xmlns:xlink="http://www.w3.org/1999/xlink" x="0px" y="0px"
	 width="18.203px" height="6.393px" viewBox="0 0 18.203 6.393" enable-background="new 0 0 18.203 6.393" xml:space="preserve">
<g>
	<path fill="#FFFFFF" d="M18.073,6.314c-1.101,0-2.685-0.586-3.519-1.303l-3.964-3.397c-0.835-0.716-2.202-0.716-3.037,0
		L3.592,5.011C2.756,5.728,1.1,6.314,0,6.314l0,0h18.203l0,0H18.073z"/>
</g>
<g>
	<path fill="none" d="M14.555,5.011l-3.963-3.396c-0.418-0.358-0.969-0.537-1.519-0.537c-0.55,0-1.101,0.179-1.519,0.537
		L3.592,5.011C2.756,5.728,1.173,6.314,0.073,6.314H0l0,0h18.203l0,0h-0.13C16.975,6.314,15.391,5.728,14.555,5.011z"/>
	<path fill="#E5E5E5" d="M0.073,6.314c1.1,0,2.683-0.586,3.519-1.303l3.963-3.396c0.417-0.358,0.968-0.537,1.519-0.537
		c0.55,0,1.101,0.179,1.519,0.537l3.964,3.396c0.834,0.717,2.418,1.303,3.519,1.303h0.13v-1h-0.13c-0.868,0-2.208-0.496-2.868-1.062
		l-3.963-3.396c-0.585-0.501-1.355-0.777-2.169-0.777c-0.814,0-1.586,0.275-2.171,0.777L2.941,4.253
		c-0.66,0.565-2,1.062-2.868,1.062H0v1H0.073z"/>
</g>
</svg>
