<?xml version="1.0" encoding="utf-8"?>
<!-- Generator: Adobe Illustrator 16.0.0, SVG Export Plug-In . SVG Version: 6.00 Build 0)  -->
<!DOCTYPE svg PUBLIC "-//W3C//DTD SVG 1.1//EN" "http://www.w3.org/Graphics/SVG/1.1/DTD/svg11.dtd">
<svg version="1.1" id="Layer_1" xmlns="http://www.w3.org/2000/svg" xmlns:xlink="http://www.w3.org/1999/xlink" x="0px" y="0px"
	 width="32px" height="42px" viewBox="0 0 32 42" enable-background="new 0 0 32 42" xml:space="preserve">
<path fill="#8CD2DD" d="M29,0c1.65,0,3,1.35,3,3v39H0V3c0-1.65,1.35-3,3-3H29z"/>
<g>
	<path fill="#F6F7F7" d="M7.629,10.17H5.471V8.683h6.068v1.487H9.393v6.332H7.629V10.17z"/>
	<path fill="#F6F7F7" d="M12.047,12.556c0-2.554,1.451-4.018,3.549-4.018c2.11,0,3.55,1.476,3.55,4.018
		c0,2.555-1.439,4.09-3.55,4.09C13.499,16.646,12.047,15.11,12.047,12.556z M17.337,12.556c0-1.559-0.672-2.494-1.74-2.494
		c-1.055,0-1.739,0.936-1.739,2.494c0,1.571,0.684,2.567,1.739,2.567C16.665,15.123,17.337,14.127,17.337,12.556z"/>
	<path fill="#F6F7F7" d="M20.613,8.683h2.855c1.703,0,3.059,0.623,3.059,2.519c0,1.835-1.404,2.65-3.059,2.65h-1.08v2.65h-1.775
		V8.683z M23.361,12.448c0.971,0,1.439-0.432,1.439-1.247s-0.504-1.115-1.439-1.115h-0.973v2.362H23.361z"/>
</g>
<g>
	<rect x="15.499" y="23.099" fill="#FFFFFF" width="1" height="12.293"/>
	<g>
		<polygon fill="#FFFFFF" points="20.09,26.411 19.357,27.093 16.001,23.481 12.643,27.093 11.911,26.411 16.001,22.013 		"/>
	</g>
</g>
</svg>
