<?xml version="1.0" encoding="utf-8"?>
<!-- Generator: Adobe Illustrator 16.0.0, SVG Export Plug-In . SVG Version: 6.00 Build 0)  -->
<!DOCTYPE svg PUBLIC "-//W3C//DTD SVG 1.1//EN" "http://www.w3.org/Graphics/SVG/1.1/DTD/svg11.dtd">
<svg version="1.1" id="Layer_1" xmlns="http://www.w3.org/2000/svg" xmlns:xlink="http://www.w3.org/1999/xlink" x="0px" y="0px"
	 width="43.182px" height="42px" viewBox="-5.592 0 43.182 42" enable-background="new -5.592 0 43.182 42" xml:space="preserve">
<path fill="#E7D392" d="M34.59,0.375c1.65,0,3,1.35,3,3V42H-5.592V3.375c0-1.65,1.35-3,3-3H34.59z"/>
<g>
	<path fill="#F6F7F7" d="M3.581,9.262c0,0.148-0.033,0.309-0.1,0.48s-0.156,0.336-0.27,0.492c0.328,0.066,0.616,0.178,0.864,0.334
		s0.454,0.344,0.618,0.562s0.287,0.46,0.369,0.724s0.123,0.534,0.123,0.812v0.891c0,0.434-0.067,0.812-0.202,1.137
		s-0.319,0.595-0.554,0.812s-0.513,0.379-0.835,0.486s-0.671,0.161-1.046,0.161c-0.371,0-0.716-0.054-1.034-0.161
		s-0.597-0.27-0.835-0.486s-0.425-0.487-0.56-0.812s-0.202-0.703-0.202-1.137v-0.861c0-0.387,0.055-0.71,0.164-0.97
		s0.256-0.483,0.439-0.671c-0.418-0.137-0.726-0.355-0.923-0.656s-0.296-0.686-0.296-1.154V8.986c0-0.277,0.053-0.525,0.158-0.744
		s0.253-0.403,0.442-0.554s0.414-0.265,0.674-0.343s0.546-0.117,0.858-0.117c0.387,0,0.717,0.042,0.99,0.126
		s0.495,0.203,0.665,0.357s0.294,0.34,0.372,0.557s0.117,0.456,0.117,0.718V9.262z M2.286,9.01c0-0.086-0.026-0.162-0.079-0.229
		S2.087,8.66,2.005,8.617S1.832,8.542,1.732,8.521s-0.196-0.032-0.29-0.032c-0.258,0-0.462,0.043-0.612,0.129
		S0.604,8.838,0.604,9.021v0.41c0,0.18,0.07,0.329,0.211,0.448s0.357,0.179,0.65,0.179c0.09,0,0.183-0.013,0.278-0.038
		s0.184-0.063,0.264-0.114s0.146-0.115,0.199-0.193s0.079-0.172,0.079-0.281V9.01z M1.267,13.434c0,0.25,0.033,0.467,0.1,0.65
		s0.158,0.336,0.275,0.457s0.254,0.212,0.41,0.272s0.322,0.091,0.498,0.091c0.18,0,0.348-0.032,0.504-0.097s0.29-0.161,0.401-0.29
		s0.199-0.288,0.264-0.478s0.097-0.411,0.097-0.665v-0.498c0-0.25-0.032-0.468-0.097-0.653s-0.152-0.338-0.264-0.457
		S3.21,11.559,3.054,11.5s-0.324-0.088-0.504-0.088c-0.176,0-0.342,0.024-0.498,0.073s-0.293,0.128-0.41,0.237
		s-0.209,0.251-0.275,0.425s-0.1,0.386-0.1,0.636V13.434z"/>
	<path fill="#F6F7F7" d="M10.998,13.984c0,0.383-0.069,0.711-0.208,0.984s-0.324,0.498-0.557,0.674s-0.501,0.305-0.806,0.387
		s-0.623,0.123-0.955,0.123c-0.367,0-0.706-0.058-1.017-0.173s-0.578-0.275-0.803-0.48s-0.399-0.446-0.524-0.724
		s-0.188-0.58-0.188-0.908c0-0.238,0.011-0.444,0.032-0.618s0.059-0.333,0.111-0.478s0.124-0.28,0.214-0.407s0.203-0.263,0.34-0.407
		l1.014,0.404c-0.082,0.105-0.146,0.21-0.193,0.313s-0.083,0.214-0.108,0.331s-0.041,0.247-0.047,0.39s-0.009,0.304-0.009,0.483
		c0,0.332,0.096,0.586,0.287,0.762s0.488,0.264,0.891,0.264c0.359,0,0.645-0.085,0.855-0.255s0.316-0.401,0.316-0.694V9.332
		c0-0.25-0.087-0.453-0.261-0.609S8.973,8.488,8.672,8.488c-0.312,0-0.565,0.076-0.759,0.229s-0.29,0.361-0.29,0.627
		c0,0.098,0.004,0.197,0.012,0.299s0.041,0.225,0.1,0.369l-1.061,0.381c-0.066-0.094-0.122-0.177-0.167-0.249
		s-0.082-0.146-0.111-0.22S6.345,9.768,6.331,9.678S6.311,9.477,6.311,9.344c0-0.316,0.055-0.604,0.164-0.864
		s0.264-0.482,0.463-0.668s0.439-0.329,0.721-0.431s0.596-0.152,0.943-0.152c0.34,0,0.655,0.045,0.946,0.135
		s0.544,0.224,0.759,0.401s0.384,0.397,0.507,0.659s0.185,0.564,0.185,0.908V13.984z"/>
	<path fill="#F6F7F7" d="M17.044,13.932c0,0.293-0.054,0.573-0.161,0.841s-0.268,0.504-0.48,0.709s-0.477,0.368-0.791,0.489
		s-0.679,0.182-1.093,0.182c-0.418,0-0.785-0.065-1.102-0.196s-0.58-0.3-0.791-0.507s-0.37-0.44-0.478-0.7s-0.161-0.519-0.161-0.776
		v-0.428c0-0.117,0.013-0.242,0.038-0.375s0.066-0.267,0.123-0.401s0.13-0.267,0.22-0.396s0.201-0.252,0.334-0.369l1.113,0.51
		c-0.195,0.207-0.323,0.398-0.384,0.574s-0.091,0.344-0.091,0.504v0.322c0,0.133,0.024,0.259,0.073,0.378s0.121,0.225,0.217,0.316
		s0.218,0.164,0.366,0.217s0.322,0.079,0.521,0.079c0.402,0,0.698-0.088,0.888-0.264s0.284-0.412,0.284-0.709v-0.885
		c0-0.098-0.01-0.206-0.029-0.325s-0.051-0.231-0.094-0.337s-0.101-0.193-0.173-0.264s-0.161-0.105-0.267-0.105h-0.779v-1.254h0.779
		c0.113,0,0.203-0.043,0.27-0.129s0.117-0.19,0.152-0.313s0.058-0.25,0.067-0.381s0.015-0.243,0.015-0.337V9.355
		c0-0.105-0.021-0.21-0.062-0.313s-0.104-0.196-0.188-0.278s-0.192-0.148-0.325-0.199s-0.291-0.076-0.475-0.076
		c-0.16,0-0.303,0.024-0.428,0.073s-0.231,0.109-0.319,0.182s-0.155,0.151-0.202,0.237s-0.07,0.166-0.07,0.24v0.17
		c0,0.082,0.002,0.152,0.006,0.211s0.012,0.114,0.023,0.167s0.031,0.106,0.059,0.161s0.064,0.119,0.111,0.193l-0.99,0.539
		c-0.105-0.133-0.194-0.249-0.267-0.349s-0.132-0.194-0.179-0.284s-0.08-0.182-0.1-0.275s-0.029-0.201-0.029-0.322V9.168
		c0-0.227,0.059-0.455,0.176-0.686s0.281-0.438,0.492-0.624s0.462-0.337,0.753-0.454s0.612-0.176,0.964-0.176
		c0.402,0,0.755,0.06,1.058,0.179s0.554,0.275,0.753,0.469s0.349,0.415,0.448,0.665s0.149,0.506,0.149,0.768v0.357
		c0,0.094-0.002,0.208-0.006,0.343s-0.027,0.278-0.07,0.431s-0.113,0.31-0.211,0.472s-0.238,0.317-0.422,0.466
		c0.191,0.137,0.339,0.276,0.442,0.419s0.179,0.286,0.226,0.431s0.074,0.286,0.082,0.425s0.012,0.271,0.012,0.396V13.932z"/>
	<path fill="#F6F7F7" d="M23.147,12.566c-0.004,0.387-0.033,0.777-0.088,1.172s-0.155,0.76-0.302,1.096s-0.352,0.627-0.615,0.873
		s-0.608,0.418-1.034,0.516l-0.129-1.318c0.27,0,0.473-0.2,0.609-0.601s0.205-0.968,0.205-1.702V10.58
		c0-0.328-0.017-0.622-0.05-0.882s-0.093-0.479-0.179-0.659s-0.202-0.316-0.349-0.41s-0.331-0.141-0.554-0.141
		c-0.25,0-0.454,0.049-0.612,0.146s-0.282,0.237-0.372,0.419s-0.151,0.404-0.185,0.668s-0.05,0.562-0.05,0.894v1.986
		c0,0.359,0.009,0.682,0.026,0.967s0.049,0.526,0.094,0.724s0.106,0.349,0.185,0.454s0.176,0.158,0.293,0.158l-0.012,1.307
		c-0.297-0.055-0.552-0.148-0.765-0.281s-0.391-0.292-0.533-0.478s-0.257-0.394-0.343-0.624s-0.15-0.47-0.193-0.718
		s-0.071-0.501-0.085-0.759s-0.021-0.508-0.021-0.75v-1.969c0-0.262,0.014-0.527,0.041-0.797s0.077-0.53,0.149-0.782
		s0.169-0.489,0.29-0.712s0.275-0.416,0.463-0.58s0.412-0.294,0.674-0.39s0.566-0.144,0.914-0.144c0.531,0,0.963,0.091,1.295,0.272
		s0.59,0.427,0.773,0.735s0.308,0.665,0.372,1.069s0.097,0.829,0.097,1.274L23.147,12.566z"/>
	<path fill="#F6F7F7" d="M32.475,12.314c0,0.293-0.017,0.59-0.05,0.891s-0.088,0.594-0.164,0.879s-0.179,0.553-0.308,0.803
		s-0.289,0.469-0.48,0.656s-0.419,0.336-0.683,0.445s-0.567,0.164-0.911,0.164v-1.248c0.246,0,0.448-0.072,0.606-0.217
		s0.284-0.334,0.378-0.568s0.159-0.503,0.196-0.806s0.056-0.612,0.056-0.929v-1.57c0-0.184-0.003-0.368-0.009-0.554
		s-0.019-0.365-0.038-0.539s-0.05-0.335-0.091-0.483s-0.097-0.278-0.167-0.39s-0.158-0.199-0.264-0.264s-0.232-0.097-0.381-0.097
		c-0.234,0-0.416,0.034-0.545,0.103s-0.224,0.158-0.284,0.27s-0.097,0.236-0.108,0.375s-0.018,0.278-0.018,0.419v3.188
		c0,0.27-0.019,0.537-0.056,0.803s-0.096,0.521-0.176,0.768s-0.185,0.475-0.313,0.686s-0.285,0.395-0.469,0.551
		s-0.396,0.279-0.639,0.369s-0.518,0.135-0.826,0.135c-0.332,0-0.623-0.046-0.873-0.138s-0.466-0.218-0.647-0.378
		s-0.333-0.35-0.454-0.568s-0.219-0.456-0.293-0.712s-0.126-0.525-0.155-0.809s-0.044-0.567-0.044-0.853v-2.227
		c0-0.258,0.015-0.516,0.044-0.773s0.08-0.504,0.152-0.738s0.169-0.454,0.29-0.659s0.272-0.385,0.454-0.539s0.397-0.276,0.647-0.366
		s0.541-0.141,0.873-0.152c0.141,0,0.292,0.011,0.454,0.032s0.324,0.062,0.486,0.12s0.318,0.139,0.469,0.24s0.284,0.234,0.401,0.398
		c0.102-0.18,0.209-0.323,0.322-0.431s0.236-0.188,0.369-0.243s0.276-0.09,0.431-0.105s0.323-0.023,0.507-0.023
		c0.344,0,0.639,0.048,0.885,0.144s0.455,0.227,0.627,0.393s0.31,0.359,0.413,0.58s0.184,0.457,0.24,0.709s0.095,0.513,0.114,0.782
		s0.029,0.533,0.029,0.791V12.314z M27.852,9.654c0-0.141-0.02-0.28-0.059-0.419s-0.103-0.264-0.19-0.375s-0.203-0.201-0.346-0.27
		s-0.317-0.103-0.524-0.103c-0.234,0-0.425,0.065-0.571,0.196s-0.26,0.301-0.34,0.51s-0.134,0.443-0.161,0.703
		s-0.041,0.521-0.041,0.782v1.934c0,0.383,0.017,0.717,0.05,1.002s0.092,0.523,0.176,0.715s0.197,0.335,0.34,0.431
		s0.325,0.144,0.548,0.144c0.207,0,0.382-0.046,0.524-0.138s0.258-0.226,0.346-0.401s0.151-0.389,0.19-0.639s0.059-0.533,0.059-0.85
		V9.654z"/>
</g>
<g>
	<rect x="15.499" y="23.1" fill="#FFFFFF" width="1" height="12.293"/>
	<g>
		<polygon fill="#FFFFFF" points="20.09,26.411 19.357,27.093 16.001,23.48 12.643,27.093 11.911,26.411 16.001,22.014 		"/>
	</g>
</g>
</svg>
