<?xml version="1.0" encoding="utf-8"?>
<!-- Generator: Adobe Illustrator 16.0.0, SVG Export Plug-In . SVG Version: 6.00 Build 0)  -->
<!DOCTYPE svg PUBLIC "-//W3C//DTD SVG 1.1//EN" "http://www.w3.org/Graphics/SVG/1.1/DTD/svg11.dtd">
<svg version="1.1" id="Layer_1" xmlns="http://www.w3.org/2000/svg" xmlns:xlink="http://www.w3.org/1999/xlink" x="0px" y="0px"
	 width="64.49px" height="17.132px" viewBox="0 0 64.49 17.132" enable-background="new 0 0 64.49 17.132" xml:space="preserve">
<g>
	<path fill="#5C687A" d="M13.967,1L14,1.033L13.967,3L1,2.967L1.033,1H13.967 M13.967,0H1.033C0.465,0,0,0.465,0,1.033v1.934
		C0,3.535,0.465,4,1.033,4h12.934C14.535,4,15,3.535,15,2.967V1.033C15,0.465,14.535,0,13.967,0L13.967,0z"/>
	<path fill="#5C687A" d="M13.967,7L14,7.033L13.967,9L1,8.967L1.033,7H13.967 M13.967,6H1.033C0.465,6,0,6.465,0,7.033v1.934
		C0,9.535,0.465,10,1.033,10h12.934C14.535,10,15,9.535,15,8.967V7.033C15,6.465,14.535,6,13.967,6L13.967,6z"/>
	<path fill="#5C687A" d="M13.967,13L14,13.033L13.967,15L1,14.966L1.033,13H13.967 M13.967,12H1.033C0.465,12,0,12.464,0,13.033
		v1.934C0,15.535,0.465,16,1.033,16h12.934C14.535,16,15,15.535,15,14.966v-1.934C15,12.464,14.535,12,13.967,12L13.967,12z"/>
</g>
<g>
	<path fill="#5C687A" d="M55.328,14.524c-3.047,0-4.685-0.569-5.001-0.927l-0.037-0.042l0.005-0.056
		c0.256-2.774,2.251-4.566,5.083-4.566c0.885,0,1.678,0.15,2.361,0.449c0.479-0.356,1.006-0.619,1.572-0.783
		c-0.256-0.214-0.523-0.396-0.799-0.54l-0.15-0.079l0.115-0.125c0.66-0.708,1.334-1.652,1.334-3.279
		c0-2.533-1.988-4.594-4.435-4.594S50.94,2.043,50.94,4.576c0,1.638,0.776,2.541,1.401,3.266l0.107,0.124l-0.146,0.076
		C50.329,9.076,49,11.737,49,13.576c0,2.073,4.425,2.297,6.328,2.297c0.375,0,0.752-0.008,1.121-0.025
		c-0.246-0.414-0.429-0.86-0.546-1.331C55.719,14.521,55.528,14.524,55.328,14.524z M52.235,4.578c0-1.79,1.41-3.247,3.144-3.247
		c1.729,0,3.142,1.456,3.142,3.246l0,0l0,0c0,1.567-1.08,2.877-2.511,3.181c-0.202,0.043-0.413,0.066-0.631,0.066
		C53.646,7.825,52.235,6.368,52.235,4.578z"/>
	<path fill="#5C687A" d="M56.01,7.759c1.431-0.304,2.511-1.614,2.511-3.181l0,0C58.521,6.144,57.438,7.455,56.01,7.759z"/>
	<path fill="#5C687A" d="M63.446,12.192c-0.102-0.247-0.096-0.528,0.021-0.771l0.222-0.467l-0.619-0.617l-0.465,0.221
		c-0.24,0.115-0.521,0.123-0.771,0.02c-0.246-0.104-0.439-0.308-0.529-0.559L61.13,9.535h-0.875l-0.172,0.484
		c-0.09,0.252-0.283,0.456-0.531,0.559l-0.025,0.01c-0.239,0.093-0.514,0.082-0.745-0.028l-0.466-0.222l-0.619,0.619l0.222,0.467
		c0.115,0.24,0.123,0.521,0.021,0.77l-0.039,0.081c-0.108,0.209-0.297,0.371-0.521,0.451l-0.483,0.172v0.875l0.483,0.172
		c0.226,0.081,0.412,0.243,0.521,0.451h0.004l0.035,0.081c0.103,0.25,0.095,0.531-0.021,0.771l-0.222,0.465l0.619,0.619l0.466-0.221
		c0.229-0.109,0.51-0.121,0.745-0.029l0.025,0.01c0.248,0.104,0.441,0.307,0.531,0.559l0.172,0.486h0.875l0.172-0.482
		c0.09-0.254,0.285-0.46,0.535-0.562c0.24-0.102,0.521-0.094,0.764,0.019l0.469,0.224l0.619-0.619l-0.221-0.465
		c-0.115-0.244-0.121-0.525-0.02-0.771c0.102-0.247,0.307-0.439,0.559-0.529l0.484-0.174v-0.874l-0.484-0.173
		C63.754,12.634,63.551,12.44,63.446,12.192z M60.69,14.903c-0.864,0-1.569-0.704-1.569-1.571c0-0.865,0.705-1.568,1.569-1.568
		c0.867,0,1.572,0.703,1.572,1.568C62.265,14.199,61.56,14.903,60.69,14.903z"/>
</g>
<g id="Your_Icon_1_">
	<g>
		<path fill="#5C687A" d="M24,0c-4.419,0-8,3.582-8,8c0,4.417,3.581,8,8,8c4.418,0,8-3.582,8-8C32,3.582,28.418,0,24,0z M24,15.005
			c-3.869,0-7.006-3.137-7.006-7.005c0-3.869,3.137-7.006,7.006-7.006S31.005,4.131,31.005,8C31.005,11.869,27.869,15.005,24,15.005
			z"/>
		<polygon fill="#5C687A" stroke="#5C687A" stroke-width="0.25" stroke-miterlimit="10" points="23.68,1.92 23.68,7.867 
			21.511,10.037 22.078,10.604 24.247,8.436 24.552,8.133 24.552,7.228 24.552,1.92 		"/>
	</g>
</g>
<path fill="#5C687A" d="M38.466,1.17l0.309,0.364c0.473,0.554,1.16,0.888,1.894,0.915l0.063,0.001h0.016
	c0.711,0,1.375-0.282,1.872-0.795l0.325-0.338l0.584,0.264l-0.041,0.475c-0.059,0.729,0.193,1.452,0.693,1.987
	c0.487,0.52,1.176,0.818,1.936,0.818h0.001l0.472-0.009l0.225,0.599l-0.361,0.306c-0.557,0.474-0.891,1.163-0.916,1.896
	c-0.021,0.729,0.266,1.438,0.792,1.95l0.337,0.326l-0.264,0.583l-0.48-0.041c-0.068-0.005-0.139-0.009-0.207-0.009
	c-0.66,0-1.289,0.248-1.768,0.699l-0.543,0.512l0.056,0.111c-0.226,0.399-0.343,0.856-0.335,1.325l0.008,0.466L42.533,13.8
	l-0.304-0.362c-0.473-0.558-1.164-0.892-1.897-0.916l-0.084-0.001c-0.702,0-1.383,0.29-1.867,0.794l-0.325,0.338l-0.584-0.264
	l0.038-0.464c0.065-0.729-0.186-1.457-0.688-1.994l-0.512-0.547l-0.117,0.059c-0.387-0.215-0.834-0.332-1.311-0.332h-0.001
	l-0.471,0.01L34.185,9.52l0.36-0.304c0.392-0.332,0.673-0.77,0.813-1.252l0.086-0.042l0.019-0.602
	c0.022-0.734-0.269-1.445-0.794-1.947L34.33,5.045l0.265-0.585l0.469,0.04c0.072,0.006,0.145,0.009,0.217,0.009
	c0.607,0,1.188-0.209,1.652-0.593l0.018-0.009l0.105-0.1c0.534-0.502,0.832-1.208,0.818-1.941l-0.01-0.467L38.466,1.17
	 M40.501,11.285c0.457,0,0.907-0.082,1.337-0.244c0.951-0.357,1.705-1.063,2.124-1.989c0.419-0.925,0.453-1.957,0.096-2.906
	c-0.554-1.473-1.982-2.462-3.557-2.462c-0.457,0-0.907,0.082-1.338,0.244c-0.951,0.357-1.704,1.063-2.123,1.988
	s-0.452,1.956-0.094,2.905C37.5,10.294,38.929,11.285,40.501,11.285 M38.774-0.017l-1.924,0.724l0.023,1.176
	c0.009,0.45-0.175,0.883-0.502,1.19L36.37,3.074c-0.295,0.278-0.684,0.429-1.088,0.429c-0.045,0-0.09-0.001-0.135-0.005l-1.17-0.099
	l-0.851,1.873l0.849,0.819c0.324,0.31,0.502,0.747,0.487,1.196c0,0,0,0-0.002,0.001c-0.015,0.449-0.219,0.871-0.562,1.161L33,9.208
	l0.724,1.924l1.178-0.021c0.01,0,0.02,0,0.029,0c0.438,0,0.858,0.182,1.159,0.502c0.002-0.001,0.002-0.001,0.002-0.001
	c0.308,0.33,0.464,0.771,0.423,1.224l-0.098,1.174l1.873,0.847l0.816-0.847c0.299-0.312,0.713-0.487,1.145-0.487
	c0.018,0,0.035,0,0.053,0.001c0.002,0,0.002,0,0.002,0c0.45,0.016,0.871,0.219,1.161,0.562l0.759,0.902l1.924-0.725l-0.021-1.17
	c-0.008-0.454,0.175-0.891,0.507-1.2l-0.001-0.002c0.294-0.276,0.681-0.427,1.081-0.427c0.042,0,0.085,0.002,0.128,0.006l1.181,0.1
	l0.849-1.871L47.024,8.88c-0.324-0.315-0.5-0.749-0.486-1.199c0.016-0.45,0.221-0.871,0.562-1.163L48,5.759l-0.722-1.923
	l-1.18,0.021c-0.01,0-0.021,0-0.031,0c-0.438,0-0.856-0.182-1.158-0.502c-0.307-0.329-0.46-0.771-0.424-1.22l0.1-1.176l-1.874-0.848
	l-0.815,0.848c-0.304,0.313-0.715,0.488-1.15,0.488c-0.016,0-0.032,0-0.049-0.001c-0.449-0.017-0.869-0.221-1.162-0.563
	L38.774-0.017L38.774-0.017z M40.501,10.283c-1.131,0-2.193-0.691-2.617-1.814c-0.544-1.445,0.186-3.058,1.631-3.602
	c0.325-0.123,0.658-0.18,0.985-0.18c1.131,0,2.196,0.691,2.619,1.812c0.544,1.445-0.188,3.059-1.634,3.603
	C41.161,10.224,40.828,10.283,40.501,10.283L40.501,10.283z"/>
</svg>
