<?xml version="1.0" encoding="utf-8"?>
<!-- Generator: Adobe Illustrator 16.0.0, SVG Export Plug-In . SVG Version: 6.00 Build 0)  -->
<!DOCTYPE svg PUBLIC "-//W3C//DTD SVG 1.1//EN" "http://www.w3.org/Graphics/SVG/1.1/DTD/svg11.dtd">
<svg version="1.1" id="Layer_1" xmlns="http://www.w3.org/2000/svg" xmlns:xlink="http://www.w3.org/1999/xlink" x="0px" y="0px"
	 width="98.491px" height="17.132px" viewBox="-17 0 98.491 17.132" enable-background="new -17 0 98.491 17.132"
	 xml:space="preserve">
<g>
	<path fill="#5C687A" d="M13.967,1L14,1.033L13.967,3L1,2.967L1.033,1H13.967 M13.967,0H1.033C0.465,0,0,0.465,0,1.033v1.934
		C0,3.535,0.465,4,1.033,4h12.934C14.535,4,15,3.535,15,2.967V1.033C15,0.465,14.535,0,13.967,0L13.967,0z"/>
	<path fill="#5C687A" d="M13.967,7L14,7.033L13.967,9L1,8.967L1.033,7H13.967 M13.967,6H1.033C0.465,6,0,6.465,0,7.033v1.934
		C0,9.535,0.465,10,1.033,10h12.934C14.535,10,15,9.535,15,8.967V7.033C15,6.465,14.535,6,13.967,6L13.967,6z"/>
	<path fill="#5C687A" d="M13.967,13L14,13.033L13.967,15L1,14.966L1.033,13H13.967 M13.967,12H1.033C0.465,12,0,12.464,0,13.033
		v1.934C0,15.535,0.465,16,1.033,16h12.934C14.535,16,15,15.535,15,14.966v-1.934C15,12.464,14.535,12,13.967,12L13.967,12z"/>
</g>
<g>
	<path fill="#5C687A" d="M55.328,14.524c-3.047,0-4.685-0.569-5.001-0.927l-0.037-0.042l0.005-0.056
		c0.256-2.774,2.251-4.566,5.083-4.566c0.885,0,1.678,0.15,2.361,0.449c0.479-0.356,1.006-0.619,1.572-0.783
		c-0.256-0.214-0.523-0.396-0.799-0.54l-0.15-0.079l0.115-0.125c0.66-0.708,1.334-1.652,1.334-3.279
		c0-2.533-1.988-4.594-4.436-4.594S50.94,2.043,50.94,4.576c0,1.638,0.775,2.541,1.4,3.266l0.107,0.124l-0.146,0.076
		C50.329,9.076,49,11.737,49,13.576c0,2.073,4.425,2.297,6.328,2.297c0.375,0,0.752-0.008,1.121-0.024
		c-0.246-0.414-0.429-0.86-0.546-1.331C55.719,14.521,55.528,14.524,55.328,14.524z M52.235,4.578c0-1.79,1.41-3.247,3.144-3.247
		c1.729,0,3.142,1.456,3.142,3.246l0,0l0,0c0,1.567-1.08,2.877-2.511,3.181c-0.202,0.043-0.413,0.066-0.631,0.066
		C53.646,7.825,52.235,6.368,52.235,4.578z"/>
	<path fill="#5C687A" d="M56.01,7.759c1.431-0.304,2.511-1.614,2.511-3.181l0,0C58.521,6.144,57.438,7.455,56.01,7.759z"/>
	<path fill="#5C687A" d="M63.446,12.192c-0.103-0.247-0.096-0.528,0.021-0.771l0.222-0.467l-0.619-0.617l-0.465,0.221
		c-0.239,0.115-0.521,0.123-0.771,0.02c-0.246-0.104-0.438-0.308-0.528-0.559L61.13,9.535h-0.875l-0.172,0.484
		c-0.09,0.252-0.283,0.456-0.531,0.559l-0.025,0.01c-0.238,0.094-0.514,0.082-0.744-0.027l-0.467-0.223l-0.619,0.619l0.223,0.467
		c0.115,0.24,0.123,0.521,0.021,0.771l-0.039,0.081c-0.108,0.209-0.297,0.371-0.521,0.451l-0.482,0.172v0.875l0.482,0.172
		c0.227,0.081,0.412,0.243,0.521,0.451h0.004l0.035,0.081c0.103,0.25,0.095,0.53-0.021,0.771l-0.223,0.465l0.619,0.619l0.467-0.221
		c0.229-0.109,0.51-0.121,0.744-0.029l0.025,0.01c0.248,0.104,0.441,0.308,0.531,0.56l0.172,0.486h0.875l0.172-0.482
		c0.09-0.254,0.285-0.46,0.535-0.562c0.24-0.102,0.521-0.094,0.764,0.019l0.469,0.224l0.619-0.619l-0.221-0.465
		c-0.115-0.244-0.121-0.524-0.02-0.771c0.102-0.247,0.307-0.438,0.559-0.528l0.484-0.175v-0.874l-0.484-0.173
		C63.754,12.634,63.551,12.44,63.446,12.192z M60.69,14.903c-0.864,0-1.569-0.704-1.569-1.571c0-0.865,0.705-1.567,1.569-1.567
		c0.867,0,1.572,0.702,1.572,1.567C62.265,14.199,61.56,14.903,60.69,14.903z"/>
</g>
<g id="Your_Icon_1_">
	<g>
		<path fill="#5C687A" d="M24,0c-4.419,0-8,3.582-8,8c0,4.417,3.581,8,8,8c4.418,0,8-3.582,8-8C32,3.582,28.418,0,24,0z M24,15.005
			c-3.869,0-7.006-3.137-7.006-7.005c0-3.869,3.137-7.006,7.006-7.006S31.005,4.131,31.005,8C31.005,11.869,27.869,15.005,24,15.005
			z"/>
		<polygon fill="#5C687A" stroke="#5C687A" stroke-width="0.25" stroke-miterlimit="10" points="23.68,1.92 23.68,7.867 
			21.511,10.037 22.078,10.604 24.247,8.436 24.552,8.133 24.552,7.228 24.552,1.92 		"/>
	</g>
</g>
<path fill="#5C687A" d="M38.466,1.17l0.309,0.364c0.474,0.554,1.16,0.888,1.895,0.915l0.062,0.001h0.017
	c0.711,0,1.375-0.282,1.872-0.795l0.324-0.338l0.584,0.264l-0.041,0.475c-0.059,0.729,0.193,1.452,0.693,1.987
	c0.487,0.52,1.176,0.818,1.937,0.818h0.001l0.472-0.009l0.226,0.599l-0.361,0.306c-0.557,0.474-0.891,1.163-0.916,1.896
	c-0.021,0.729,0.266,1.438,0.792,1.95l0.337,0.326l-0.264,0.583l-0.48-0.041c-0.068-0.005-0.139-0.009-0.207-0.009
	c-0.66,0-1.289,0.248-1.768,0.699l-0.543,0.512l0.056,0.111c-0.226,0.398-0.343,0.855-0.335,1.324l0.008,0.467L42.533,13.8
	l-0.304-0.362c-0.474-0.558-1.164-0.892-1.897-0.916l-0.084-0.001c-0.702,0-1.383,0.29-1.867,0.794l-0.325,0.338l-0.584-0.264
	l0.038-0.464c0.065-0.729-0.186-1.457-0.688-1.994l-0.512-0.547l-0.117,0.059c-0.387-0.215-0.834-0.332-1.311-0.332h-0.001
	l-0.471,0.01L34.185,9.52l0.36-0.304c0.392-0.333,0.673-0.771,0.813-1.252l0.086-0.042l0.019-0.602
	c0.022-0.734-0.269-1.445-0.794-1.947L34.33,5.045l0.265-0.585l0.469,0.04c0.072,0.006,0.146,0.009,0.218,0.009
	c0.606,0,1.188-0.209,1.651-0.593l0.019-0.009l0.104-0.1c0.534-0.502,0.832-1.208,0.818-1.941l-0.01-0.467L38.466,1.17
	 M40.501,11.285c0.457,0,0.907-0.082,1.337-0.244c0.951-0.356,1.705-1.062,2.124-1.989c0.419-0.925,0.453-1.957,0.096-2.906
	c-0.554-1.473-1.981-2.462-3.557-2.462c-0.457,0-0.907,0.082-1.338,0.244c-0.951,0.357-1.704,1.063-2.123,1.988
	s-0.452,1.956-0.094,2.905C37.5,10.294,38.929,11.285,40.501,11.285 M38.774-0.017l-1.924,0.724l0.022,1.176
	c0.009,0.45-0.175,0.883-0.502,1.19L36.37,3.074c-0.295,0.278-0.684,0.429-1.088,0.429c-0.045,0-0.09-0.001-0.135-0.005l-1.17-0.099
	l-0.852,1.873l0.85,0.819c0.323,0.31,0.502,0.747,0.486,1.196c0,0,0,0-0.002,0.001c-0.016,0.449-0.219,0.871-0.562,1.161L33,9.208
	l0.724,1.924l1.178-0.021c0.011,0,0.021,0,0.029,0c0.438,0,0.858,0.182,1.159,0.502c0.002-0.001,0.002-0.001,0.002-0.001
	c0.308,0.33,0.464,0.771,0.423,1.224l-0.098,1.174l1.873,0.848l0.816-0.848c0.299-0.311,0.713-0.486,1.145-0.486
	c0.018,0,0.035,0,0.053,0.001c0.002,0,0.002,0,0.002,0c0.45,0.017,0.871,0.22,1.161,0.562l0.759,0.902l1.924-0.725l-0.021-1.17
	c-0.008-0.454,0.175-0.891,0.507-1.2l-0.001-0.002c0.294-0.276,0.681-0.427,1.081-0.427c0.042,0,0.085,0.002,0.128,0.006l1.181,0.1
	l0.85-1.871l-0.85-0.819c-0.324-0.315-0.5-0.749-0.486-1.199c0.016-0.45,0.221-0.871,0.562-1.163L48,5.759l-0.722-1.923l-1.18,0.021
	c-0.011,0-0.021,0-0.031,0c-0.438,0-0.856-0.182-1.158-0.502c-0.307-0.329-0.46-0.771-0.424-1.22l0.1-1.176l-1.874-0.848
	l-0.815,0.848c-0.304,0.313-0.715,0.488-1.149,0.488c-0.017,0-0.032,0-0.05-0.001c-0.448-0.017-0.868-0.221-1.161-0.563
	L38.774-0.017L38.774-0.017z M40.501,10.283c-1.131,0-2.193-0.691-2.617-1.814c-0.544-1.445,0.186-3.058,1.631-3.602
	c0.325-0.123,0.658-0.18,0.985-0.18c1.131,0,2.196,0.691,2.619,1.812c0.544,1.445-0.188,3.059-1.634,3.603
	C41.161,10.224,40.828,10.283,40.501,10.283L40.501,10.283z"/>
<g>
	<g>
		<path fill="#5C687A" d="M-14.033,1L-14,1.033L-14.033,3L-16,2.966L-15.967,1H-14.033 M-14.033,0h-1.934
			C-16.535,0-17,0.464-17,1.033v1.934C-17,3.535-16.535,4-15.967,4h1.934C-13.465,4-13,3.535-13,2.966V1.033
			C-13,0.464-13.465,0-14.033,0L-14.033,0z"/>
		<path fill="#5C687A" d="M-14.033,7L-14,7.033L-14.033,9L-16,8.966L-15.967,7H-14.033 M-14.033,6h-1.934
			C-16.535,6-17,6.464-17,7.033v1.934C-17,9.535-16.535,10-15.967,10h1.934C-13.465,10-13,9.535-13,8.966V7.033
			C-13,6.464-13.465,6-14.033,6L-14.033,6z"/>
		<path fill="#5C687A" d="M-14.033,13L-14,13.033L-14.033,15L-16,14.966L-15.967,13H-14.033 M-14.033,12h-1.934
			C-16.535,12-17,12.464-17,13.033v1.934C-17,15.535-16.535,16-15.967,16h1.934C-13.465,16-13,15.535-13,14.966v-1.934
			C-13,12.464-13.465,12-14.033,12L-14.033,12z"/>
	</g>
	<g>
		<path fill="#5C687A" d="M-8.033,1L-8,1.033L-8.033,3L-10,2.966L-9.967,1H-8.033 M-8.033,0h-1.934C-10.535,0-11,0.464-11,1.033
			v1.934C-11,3.535-10.535,4-9.967,4h1.934C-7.465,4-7,3.535-7,2.966V1.033C-7,0.464-7.465,0-8.033,0L-8.033,0z"/>
		<path fill="#5C687A" d="M-8.033,7L-8,7.033L-8.033,9L-10,8.966L-9.967,7H-8.033 M-8.033,6h-1.934C-10.535,6-11,6.464-11,7.033
			v1.934C-11,9.535-10.535,10-9.967,10h1.934C-7.465,10-7,9.535-7,8.966V7.033C-7,6.464-7.465,6-8.033,6L-8.033,6z"/>
		<path fill="#5C687A" d="M-8.033,13L-8,13.033L-8.033,15L-10,14.966L-9.967,13H-8.033 M-8.033,12h-1.934
			C-10.535,12-11,12.464-11,13.033v1.934C-11,15.535-10.535,16-9.967,16h1.934C-7.465,16-7,15.535-7,14.966v-1.934
			C-7,12.464-7.465,12-8.033,12L-8.033,12z"/>
	</g>
	<g>
		<path fill="#5C687A" d="M-2.033,1L-2,1.033L-2.033,3L-4,2.966L-3.967,1H-2.033 M-2.033,0h-1.934C-4.535,0-5,0.464-5,1.033v1.934
			C-5,3.535-4.535,4-3.967,4h1.934C-1.465,4-1,3.535-1,2.966V1.033C-1,0.464-1.465,0-2.033,0L-2.033,0z"/>
		<path fill="#5C687A" d="M-2.033,7L-2,7.033L-2.033,9L-4,8.966L-3.967,7H-2.033 M-2.033,6h-1.934C-4.535,6-5,6.464-5,7.033v1.934
			C-5,9.535-4.535,10-3.967,10h1.934C-1.465,10-1,9.535-1,8.966V7.033C-1,6.464-1.465,6-2.033,6L-2.033,6z"/>
		<path fill="#5C687A" d="M-2.033,13L-2,13.033L-2.033,15L-4,14.966L-3.967,13H-2.033 M-2.033,12h-1.934
			C-4.535,12-5,12.464-5,13.033v1.934C-5,15.535-4.535,16-3.967,16h1.934C-1.465,16-1,15.535-1,14.966v-1.934
			C-1,12.464-1.465,12-2.033,12L-2.033,12z"/>
	</g>
</g>
<path fill="#5C687A" d="M65.491,0.848v14.304h6.719v-3.34h2.576v3.34h6.705V0.848H65.491z M70.372,10.132h-2.573V7.559h2.573V10.132
	z M70.372,5.862h-2.573V3.287h2.573V5.862z M74.778,10.132h-2.576V7.559h2.576V10.132z M74.778,5.862h-2.576V3.287h2.576V5.862z
	 M79.185,10.132h-2.576V7.559h2.576V10.132z M79.216,5.862H76.64V3.287h2.576V5.862z"/>
</svg>
