<?xml version="1.0" encoding="utf-8"?>
<!-- Generator: Adobe Illustrator 16.0.0, SVG Export Plug-In . SVG Version: 6.00 Build 0)  -->
<!DOCTYPE svg PUBLIC "-//W3C//DTD SVG 1.1//EN" "http://www.w3.org/Graphics/SVG/1.1/DTD/svg11.dtd">
<svg version="1.1" id="Layer_1" xmlns="http://www.w3.org/2000/svg" xmlns:xlink="http://www.w3.org/1999/xlink" x="0px" y="0px"
	 width="117.923px" height="19.5px" viewBox="0 -2.367 117.923 19.5" enable-background="new 0 -2.367 117.923 19.5"
	 xml:space="preserve">
<g>
	<path fill="#5C687A" d="M30.967,0.133L31,0.166l-0.033,1.967L18,2.1l0.033-1.967H30.967 M30.967-0.867H18.033
		C17.465-0.867,17-0.402,17,0.166V2.1c0,0.568,0.465,1.033,1.033,1.033h12.934C31.535,3.133,32,2.668,32,2.1V0.166
		C32-0.402,31.535-0.867,30.967-0.867L30.967-0.867z"/>
	<path fill="#5C687A" d="M30.967,6.133L31,6.166l-0.033,1.966L18,8.099l0.033-1.966H30.967 M30.967,5.133H18.033
		C17.465,5.133,17,5.598,17,6.166v1.933c0,0.568,0.465,1.033,1.033,1.033h12.934C31.535,9.132,32,8.667,32,8.099V6.166
		C32,5.598,31.535,5.133,30.967,5.133L30.967,5.133z"/>
	<path fill="#5C687A" d="M30.967,12.132L31,12.166l-0.033,1.967L18,14.099l0.033-1.967H30.967 M30.967,11.132H18.033
		c-0.568,0-1.033,0.465-1.033,1.033v1.934c0,0.568,0.465,1.033,1.033,1.033h12.934c0.568,0,1.033-0.465,1.033-1.033v-1.934
		C32,11.597,31.535,11.132,30.967,11.132L30.967,11.132z"/>
</g>
<g>
	<path fill="#5C687A" d="M91.759,13.524c-3.047,0-4.685-0.569-5-0.927l-0.037-0.042l0.004-0.056
		c0.256-2.774,2.252-4.566,5.084-4.566c0.885,0,1.678,0.15,2.36,0.449c0.479-0.356,1.007-0.619,1.572-0.783
		c-0.256-0.214-0.522-0.396-0.799-0.54l-0.15-0.079l0.115-0.125c0.66-0.708,1.334-1.652,1.334-3.279
		c0-2.533-1.987-4.594-4.437-4.594c-2.447,0-4.435,2.061-4.435,4.594c0,1.638,0.774,2.541,1.399,3.266l0.107,0.124l-0.146,0.076
		c-1.971,1.034-3.301,3.695-3.301,5.534c0,2.073,4.426,2.297,6.328,2.297c0.375,0,0.752-0.008,1.121-0.023
		c-0.246-0.414-0.429-0.859-0.546-1.331C92.15,13.521,91.959,13.524,91.759,13.524z M88.667,3.578c0-1.79,1.41-3.247,3.144-3.247
		c1.729,0,3.143,1.456,3.143,3.246l0,0l0,0c0,1.567-1.08,2.877-2.512,3.181c-0.201,0.043-0.412,0.066-0.631,0.066
		C90.078,6.825,88.667,5.368,88.667,3.578z"/>
	<path fill="#5C687A" d="M92.441,6.759c1.432-0.304,2.512-1.614,2.512-3.181l0,0C94.953,5.144,93.87,6.455,92.441,6.759z"/>
	<path fill="#5C687A" d="M99.877,11.192c-0.103-0.247-0.096-0.528,0.021-0.771l0.223-0.467l-0.619-0.617l-0.465,0.221
		c-0.238,0.115-0.521,0.123-0.771,0.02c-0.246-0.104-0.438-0.308-0.527-0.559l-0.176-0.484h-0.875l-0.172,0.484
		c-0.09,0.252-0.283,0.456-0.531,0.559l-0.025,0.01c-0.238,0.095-0.514,0.082-0.744-0.026l-0.467-0.224l-0.619,0.619l0.223,0.467
		c0.115,0.24,0.123,0.521,0.021,0.771l-0.039,0.081c-0.107,0.209-0.297,0.371-0.521,0.451l-0.481,0.172v0.875l0.481,0.172
		c0.228,0.081,0.412,0.243,0.521,0.451h0.004l0.035,0.081c0.104,0.25,0.096,0.529-0.021,0.771l-0.223,0.465l0.619,0.619l0.467-0.222
		c0.229-0.108,0.51-0.12,0.744-0.028l0.025,0.01c0.248,0.104,0.441,0.308,0.531,0.56l0.172,0.486h0.875l0.172-0.481
		c0.09-0.255,0.285-0.461,0.535-0.562c0.24-0.102,0.521-0.094,0.764,0.02l0.469,0.223l0.619-0.619L99.9,14.253
		c-0.115-0.244-0.121-0.523-0.02-0.771s0.307-0.438,0.559-0.528l0.484-0.175v-0.874l-0.484-0.173
		C100.185,11.634,99.982,11.44,99.877,11.192z M97.122,13.903c-0.864,0-1.569-0.704-1.569-1.571c0-0.865,0.705-1.566,1.569-1.566
		c0.867,0,1.572,0.701,1.572,1.566C98.697,13.199,97.992,13.903,97.122,13.903z"/>
</g>
<g id="Your_Icon_1_">
	<g>
		<path fill="#5C687A" d="M60.431-0.867c-4.418,0-8,3.582-8,8c0,4.418,3.582,8,8,8s8-3.582,8-8
			C68.431,2.715,64.849-0.867,60.431-0.867z M60.431,14.138c-3.869,0-7.006-3.137-7.006-7.006c0-3.869,3.137-7.005,7.006-7.005
			s7.006,3.137,7.006,7.005C67.437,11.001,64.3,14.138,60.431,14.138z"/>
		<polygon fill="#5C687A" stroke="#5C687A" stroke-width="0.25" stroke-miterlimit="10" points="60.112,1.053 60.112,7 
			57.943,9.169 58.509,9.737 60.679,7.569 60.984,7.265 60.984,6.361 60.984,1.053 		"/>
	</g>
</g>
<path fill="#5C687A" d="M74.898,0.303l0.309,0.364c0.475,0.554,1.16,0.888,1.895,0.915l0.062,0.001h0.018
	c0.711,0,1.375-0.282,1.871-0.795l0.324-0.338l0.584,0.264l-0.041,0.475c-0.059,0.729,0.193,1.452,0.693,1.987
	c0.486,0.52,1.176,0.818,1.938,0.818l0,0l0.473-0.009l0.226,0.599l-0.36,0.306c-0.558,0.474-0.892,1.163-0.916,1.896
	c-0.021,0.729,0.266,1.438,0.791,1.95l0.338,0.326l-0.265,0.583l-0.479-0.041c-0.068-0.005-0.139-0.009-0.207-0.009
	c-0.66,0-1.289,0.248-1.768,0.699l-0.543,0.512l0.055,0.111c-0.226,0.397-0.342,0.854-0.334,1.323l0.008,0.468l-0.604,0.225
	l-0.304-0.362c-0.474-0.558-1.164-0.892-1.897-0.916l-0.084-0.001c-0.701,0-1.383,0.29-1.867,0.794l-0.324,0.338l-0.584-0.264
	l0.037-0.464c0.066-0.729-0.186-1.457-0.688-1.994l-0.512-0.547l-0.117,0.059c-0.387-0.215-0.834-0.332-1.311-0.332h-0.002
	l-0.471,0.01l-0.225-0.601l0.359-0.304c0.393-0.334,0.674-0.771,0.813-1.252l0.086-0.042l0.019-0.602
	c0.022-0.734-0.269-1.445-0.793-1.947l-0.34-0.328l0.266-0.585l0.469,0.04c0.072,0.006,0.146,0.009,0.219,0.009
	c0.605,0,1.188-0.209,1.65-0.593l0.02-0.009l0.104-0.1c0.533-0.502,0.832-1.208,0.818-1.941l-0.01-0.467L74.898,0.303
	 M76.933,10.417c0.457,0,0.906-0.082,1.336-0.244c0.951-0.355,1.705-1.062,2.125-1.988c0.418-0.926,0.453-1.957,0.096-2.906
	c-0.555-1.473-1.98-2.462-3.557-2.462c-0.457,0-0.908,0.082-1.338,0.244c-0.951,0.357-1.705,1.063-2.123,1.988
	c-0.42,0.925-0.453,1.956-0.095,2.905C73.931,9.427,75.361,10.417,76.933,10.417 M75.206-0.884L73.282-0.16l0.022,1.176
	c0.008,0.45-0.176,0.883-0.502,1.19v0.001c-0.295,0.278-0.685,0.429-1.088,0.429c-0.046,0-0.091-0.001-0.136-0.005l-1.17-0.099
	l-0.853,1.873l0.851,0.819c0.323,0.31,0.502,0.747,0.485,1.196c0,0,0,0-0.002,0.001c-0.016,0.449-0.219,0.872-0.562,1.161
	l-0.897,0.76l0.725,1.924l1.178-0.021c0.012,0,0.021,0,0.029,0c0.438,0,0.857,0.182,1.158,0.502
	c0.002-0.001,0.002-0.001,0.002-0.001c0.309,0.33,0.465,0.771,0.424,1.224l-0.098,1.174l1.873,0.849l0.815-0.849
	c0.299-0.311,0.713-0.485,1.146-0.485c0.018,0,0.035,0,0.053,0.001c0.002,0,0.002,0,0.002,0c0.449,0.018,0.871,0.221,1.16,0.562
	l0.76,0.902l1.924-0.726l-0.021-1.171c-0.008-0.453,0.176-0.891,0.508-1.199l-0.002-0.002c0.295-0.275,0.682-0.428,1.082-0.428
	c0.041,0,0.084,0.002,0.127,0.007l1.182,0.1l0.85-1.87l-0.85-0.82c-0.324-0.314-0.5-0.748-0.486-1.198
	c0.017-0.45,0.221-0.871,0.562-1.163l0.898-0.76l-0.722-1.923L82.53,2.99c-0.011,0-0.021,0-0.031,0
	c-0.438,0-0.856-0.182-1.157-0.502c-0.308-0.329-0.461-0.771-0.425-1.22l0.101-1.176l-1.875-0.848l-0.814,0.848
	c-0.305,0.313-0.715,0.488-1.148,0.488c-0.018,0-0.033,0-0.051-0.001c-0.447-0.017-0.867-0.221-1.16-0.563L75.206-0.884
	L75.206-0.884z M76.933,9.416c-1.131,0-2.193-0.691-2.617-1.814C73.771,6.157,74.501,4.544,75.947,4
	c0.324-0.123,0.658-0.18,0.984-0.18c1.131,0,2.196,0.691,2.619,1.812c0.545,1.445-0.188,3.059-1.634,3.603
	C77.593,9.357,77.259,9.416,76.933,9.416L76.933,9.416z"/>
<g>
	<g>
		<path fill="#5C687A" d="M2.967,0.133L3,0.166L2.967,2.133L1,2.099l0.033-1.966H2.967 M2.967-0.867H1.033
			C0.465-0.867,0-0.403,0,0.166V2.1c0,0.568,0.465,1.033,1.033,1.033h1.934C3.535,3.133,4,2.668,4,2.099V0.166
			C4-0.403,3.535-0.867,2.967-0.867L2.967-0.867z"/>
		<path fill="#5C687A" d="M2.967,6.133L3,6.166L2.967,8.132L1,8.099l0.033-1.966H2.967 M2.967,5.133H1.033
			C0.465,5.133,0,5.597,0,6.166v1.933c0,0.568,0.465,1.033,1.033,1.033h1.934C3.535,9.132,4,8.667,4,8.099V6.166
			C4,5.597,3.535,5.133,2.967,5.133L2.967,5.133z"/>
		<path fill="#5C687A" d="M2.967,12.132L3,12.166l-0.033,1.967L1,14.099l0.033-1.967H2.967 M2.967,11.132H1.033
			C0.465,11.132,0,11.597,0,12.166v1.934c0,0.568,0.465,1.033,1.033,1.033h1.934C3.535,15.132,4,14.667,4,14.099v-1.934
			C4,11.597,3.535,11.132,2.967,11.132L2.967,11.132z"/>
	</g>
	<g>
		<path fill="#5C687A" d="M8.967,0.133L9,0.166L8.967,2.133L7,2.099l0.033-1.966H8.967 M8.967-0.867H7.033
			C6.465-0.867,6-0.403,6,0.166V2.1c0,0.568,0.465,1.033,1.033,1.033h1.934C9.535,3.133,10,2.668,10,2.099V0.166
			C10-0.403,9.535-0.867,8.967-0.867L8.967-0.867z"/>
		<path fill="#5C687A" d="M8.967,6.133L9,6.166L8.967,8.132L7,8.099l0.033-1.966H8.967 M8.967,5.133H7.033
			C6.465,5.133,6,5.597,6,6.166v1.933c0,0.568,0.465,1.033,1.033,1.033h1.934C9.535,9.132,10,8.667,10,8.099V6.166
			C10,5.597,9.535,5.133,8.967,5.133L8.967,5.133z"/>
		<path fill="#5C687A" d="M8.967,12.132L9,12.166l-0.033,1.967L7,14.099l0.033-1.967H8.967 M8.967,11.132H7.033
			C6.465,11.132,6,11.597,6,12.166v1.934c0,0.568,0.465,1.033,1.033,1.033h1.934c0.568,0,1.033-0.465,1.033-1.033v-1.934
			C10,11.597,9.535,11.132,8.967,11.132L8.967,11.132z"/>
	</g>
	<g>
		<path fill="#5C687A" d="M14.967,0.133L15,0.166l-0.033,1.967L13,2.099l0.033-1.966H14.967 M14.967-0.867h-1.934
			C12.465-0.867,12-0.403,12,0.166V2.1c0,0.568,0.465,1.033,1.033,1.033h1.934C15.535,3.133,16,2.668,16,2.099V0.166
			C16-0.403,15.535-0.867,14.967-0.867L14.967-0.867z"/>
		<path fill="#5C687A" d="M14.967,6.133L15,6.166l-0.033,1.966L13,8.099l0.033-1.966H14.967 M14.967,5.133h-1.934
			C12.465,5.133,12,5.597,12,6.166v1.933c0,0.568,0.465,1.033,1.033,1.033h1.934C15.535,9.132,16,8.667,16,8.099V6.166
			C16,5.597,15.535,5.133,14.967,5.133L14.967,5.133z"/>
		<path fill="#5C687A" d="M14.967,12.132L15,12.166l-0.033,1.967L13,14.099l0.033-1.967H14.967 M14.967,11.132h-1.934
			c-0.568,0-1.033,0.465-1.033,1.033v1.934c0,0.568,0.465,1.033,1.033,1.033h1.934c0.568,0,1.033-0.465,1.033-1.033v-1.934
			C16,11.597,15.535,11.132,14.967,11.132L14.967,11.132z"/>
	</g>
</g>
<path fill="#5C687A" d="M101.923-0.152v14.304h6.719v-3.34h2.576v3.34h6.705V-0.152H101.923z M106.804,9.132h-2.574V6.559h2.574
	V9.132z M106.804,4.862h-2.574V2.287h2.574V4.862z M111.209,9.132h-2.575V6.559h2.575V9.132z M111.209,4.862h-2.575V2.287h2.575
	V4.862z M115.617,9.132h-2.576V6.559h2.576V9.132z M115.648,4.862h-2.576V2.287h2.576V4.862z"/>
<g>
	<g>
		<path fill="#5C687A" d="M40.33,1.133h-6.296C33.465,1.133,33,1.598,33,2.166V4.1c0,0.568,0.465,1.033,1.033,1.033h9.398V4.129
			L34,4.1l0.033-1.967h6.296V1.133z"/>
		<path fill="#5C687A" d="M46.967,8.133L47,8.166l-0.033,1.966L34,10.099l0.033-1.966H46.967 M46.967,7.133H34.033
			C33.465,7.133,33,7.598,33,8.166v1.933c0,0.568,0.465,1.033,1.033,1.033h12.934c0.568,0,1.033-0.465,1.033-1.033V8.166
			C48,7.598,47.535,7.133,46.967,7.133L46.967,7.133z"/>
		<path fill="#5C687A" d="M46.967,14.132L47,14.166l-0.033,1.967L34,16.099l0.033-1.967H46.967 M46.967,13.132H34.033
			c-0.568,0-1.033,0.465-1.033,1.033v1.934c0,0.568,0.465,1.033,1.033,1.033h12.934c0.568,0,1.033-0.465,1.033-1.033v-1.934
			C48,13.597,47.535,13.132,46.967,13.132L46.967,13.132z"/>
	</g>
	<rect x="46.932" y="-2.367" fill="#D67456" width="1" height="8"/>
	<rect x="43.432" y="1.133" fill="#D67456" width="8" height="1"/>
</g>
</svg>
