<?xml version="1.0" encoding="utf-8"?>
<!-- Generator: Adobe Illustrator 16.0.0, SVG Export Plug-In . SVG Version: 6.00 Build 0)  -->
<!DOCTYPE svg PUBLIC "-//W3C//DTD SVG 1.1//EN" "http://www.w3.org/Graphics/SVG/1.1/DTD/svg11.dtd">
<svg version="1.1" id="Layer_1" xmlns="http://www.w3.org/2000/svg" xmlns:xlink="http://www.w3.org/1999/xlink" x="0px" y="0px"
	 width="64.49px" height="17.132px" viewBox="0 0 64.49 17.132" enable-background="new 0 0 64.49 17.132" xml:space="preserve">
<g>
	<path fill="#5C687A" d="M13.967,1L14,1.033L13.967,3L1,2.967L1.033,1H13.967 M13.967,0H1.033C0.465,0,0,0.465,0,1.033v1.934
		C0,3.535,0.465,4,1.033,4h12.934C14.535,4,15,3.535,15,2.967V1.033C15,0.465,14.535,0,13.967,0L13.967,0z"/>
	<path fill="#5C687A" d="M13.967,7L14,7.033L13.967,9L1,8.967L1.033,7H13.967 M13.967,6H1.033C0.465,6,0,6.465,0,7.033v1.934
		C0,9.535,0.465,10,1.033,10h12.934C14.535,10,15,9.535,15,8.967V7.033C15,6.465,14.535,6,13.967,6L13.967,6z"/>
	<path fill="#5C687A" d="M13.967,13L14,13.033L13.967,15L1,14.966L1.033,13H13.967 M13.967,12H1.033C0.465,12,0,12.465,0,13.033
		v1.933C0,15.535,0.465,16,1.033,16h12.934C14.535,16,15,15.535,15,14.966v-1.933C15,12.465,14.535,12,13.967,12L13.967,12z"/>
</g>
<g>
	<path fill="#5C687A" d="M55.328,14.524c-3.047,0-4.685-0.569-5.001-0.927l-0.037-0.042l0.005-0.056
		c0.256-2.774,2.251-4.566,5.083-4.566c0.885,0,1.678,0.151,2.361,0.449c0.479-0.356,1.006-0.619,1.572-0.783
		c-0.256-0.214-0.523-0.396-0.799-0.54l-0.15-0.079l0.115-0.125c0.66-0.708,1.334-1.652,1.334-3.279
		c0-2.533-1.988-4.594-4.434-4.594c-2.447,0-4.437,2.061-4.437,4.594c0,1.638,0.777,2.541,1.402,3.266l0.107,0.124l-0.145,0.076
		C50.329,9.076,49,11.737,49,13.575c0,2.074,4.425,2.298,6.328,2.298c0.375,0,0.752-0.009,1.121-0.026
		c-0.246-0.414-0.428-0.86-0.545-1.331C55.719,14.521,55.529,14.524,55.328,14.524z M52.236,4.578c0-1.79,1.41-3.247,3.143-3.247
		c1.73,0,3.141,1.456,3.141,3.246v0v0c0,1.567-1.08,2.877-2.51,3.181c-0.203,0.043-0.414,0.066-0.631,0.066
		C53.646,7.825,52.236,6.368,52.236,4.578z"/>
	<path fill="#5C687A" d="M56.01,7.759c1.43-0.304,2.51-1.614,2.51-3.181v0C58.52,6.144,57.439,7.455,56.01,7.759z"/>
	<path fill="#5C687A" d="M63.447,12.192c-0.102-0.247-0.096-0.528,0.02-0.77l0.221-0.467l-0.619-0.618l-0.465,0.221
		c-0.24,0.116-0.52,0.123-0.771,0.019c-0.246-0.104-0.439-0.307-0.529-0.558l-0.174-0.485h-0.875l-0.172,0.485
		c-0.09,0.252-0.283,0.456-0.531,0.559l-0.025,0.01c-0.24,0.092-0.514,0.082-0.746-0.029l-0.465-0.221l-0.619,0.619l0.221,0.466
		c0.115,0.24,0.123,0.521,0.021,0.77l-0.039,0.081c-0.109,0.209-0.297,0.371-0.521,0.451l-0.484,0.172v0.875l0.484,0.172
		c0.225,0.081,0.412,0.243,0.521,0.451h0.004l0.035,0.081c0.102,0.25,0.094,0.531-0.021,0.772l-0.221,0.464l0.619,0.619l0.465-0.22
		c0.23-0.11,0.51-0.121,0.746-0.03l0.025,0.01c0.248,0.104,0.441,0.307,0.531,0.559l0.172,0.486h0.875l0.172-0.482
		c0.09-0.254,0.285-0.46,0.535-0.563c0.24-0.101,0.521-0.093,0.764,0.019l0.469,0.223l0.619-0.618l-0.221-0.465
		c-0.115-0.245-0.121-0.526-0.02-0.772c0.102-0.247,0.307-0.44,0.559-0.53l0.484-0.173v-0.874l-0.484-0.173
		C63.754,12.634,63.551,12.44,63.447,12.192z M60.691,14.903c-0.865,0-1.57-0.705-1.57-1.571c0-0.865,0.705-1.569,1.57-1.569
		c0.867,0,1.572,0.704,1.572,1.569C62.264,14.198,61.559,14.903,60.691,14.903z"/>
</g>
<g id="Your_Icon_1_">
	<g>
		<path fill="#5C687A" d="M24,0c-4.419,0-8,3.582-8,8s3.581,8,8,8c4.418,0,8-3.582,8-8S28.418,0,24,0z M24,15.131
			c-3.938,0-7.131-3.193-7.131-7.131S20.062,0.869,24,0.869S31.13,4.062,31.13,8S27.938,15.131,24,15.131z"/>
		<polygon fill="#5C687A" points="23.68,1.92 23.68,7.867 21.511,10.037 22.078,10.604 24.247,8.436 24.552,8.133 24.552,7.228 
			24.552,1.92 		"/>
	</g>
</g>
<path fill="#5C687A" d="M38.466,1.17l0.308,0.364c0.473,0.554,1.161,0.888,1.894,0.915l0.064,0.001h0.015
	c0.711,0,1.375-0.282,1.872-0.795l0.326-0.338l0.583,0.264l-0.04,0.475c-0.06,0.729,0.193,1.452,0.692,1.987
	c0.488,0.52,1.176,0.818,1.936,0.818c0,0,0.001,0,0.001,0l0.472-0.009l0.225,0.599l-0.362,0.306
	c-0.556,0.474-0.89,1.163-0.916,1.896c-0.022,0.729,0.266,1.439,0.792,1.95l0.337,0.326l-0.263,0.583l-0.481-0.041
	c-0.069-0.005-0.139-0.008-0.207-0.008c-0.661,0-1.289,0.248-1.768,0.698l-0.542,0.512l0.055,0.111
	c-0.225,0.4-0.343,0.857-0.335,1.326l0.008,0.465l-0.599,0.225l-0.304-0.362c-0.472-0.558-1.163-0.892-1.897-0.916l-0.084-0.001
	c-0.702,0-1.383,0.29-1.867,0.794l-0.326,0.338l-0.584-0.264l0.039-0.463c0.065-0.729-0.186-1.457-0.688-1.995l-0.512-0.546
	l-0.117,0.058c-0.388-0.215-0.835-0.332-1.311-0.332c0,0-0.001,0-0.001,0l-0.471,0.009l-0.225-0.6l0.36-0.303
	c0.392-0.332,0.673-0.77,0.814-1.253l0.086-0.042l0.018-0.602c0.022-0.734-0.269-1.445-0.794-1.947l-0.339-0.328l0.265-0.585
	l0.469,0.04c0.072,0.006,0.144,0.009,0.216,0.009c0.608,0,1.189-0.209,1.652-0.593l0.018-0.009l0.106-0.1
	c0.534-0.502,0.832-1.208,0.818-1.941l-0.01-0.467L38.466,1.17 M40.501,11.284c0.457,0,0.907-0.082,1.337-0.244
	c0.951-0.357,1.705-1.063,2.124-1.988c0.419-0.925,0.453-1.957,0.096-2.906c-0.554-1.473-1.983-2.462-3.557-2.462
	c-0.457,0-0.907,0.082-1.338,0.244c-0.951,0.357-1.704,1.063-2.123,1.988s-0.452,1.956-0.094,2.905
	C37.5,10.294,38.929,11.284,40.501,11.284 M38.774-0.017L36.85,0.707l0.024,1.176c0.009,0.45-0.175,0.883-0.502,1.19L36.37,3.074
	c-0.295,0.278-0.684,0.429-1.088,0.429c-0.044,0-0.089-0.001-0.134-0.005l-1.171-0.099l-0.85,1.873l0.848,0.819
	c0.325,0.31,0.502,0.747,0.488,1.196c0,0,0,0-0.002,0.001c-0.014,0.449-0.219,0.871-0.562,1.161L33,9.208l0.724,1.924l1.178-0.021
	c0.009,0,0.019,0,0.028,0c0.438,0,0.859,0.181,1.16,0.502c0.002-0.001,0.002-0.001,0.002-0.001c0.307,0.33,0.463,0.771,0.423,1.224
	l-0.098,1.173l1.873,0.847l0.816-0.847c0.299-0.312,0.714-0.487,1.145-0.487c0.017,0,0.035,0,0.052,0.001c0.002,0,0.002,0,0.002,0
	c0.451,0.015,0.872,0.219,1.162,0.562l0.759,0.903l1.923-0.725l-0.02-1.17c-0.008-0.454,0.175-0.891,0.507-1.2l-0.001-0.002
	c0.294-0.277,0.681-0.426,1.081-0.426c0.042,0,0.085,0.001,0.128,0.005l1.181,0.1l0.848-1.872L47.025,8.88
	c-0.325-0.315-0.501-0.749-0.487-1.199c0.016-0.45,0.221-0.871,0.563-1.163L48,5.759l-0.722-1.923l-1.179,0.021
	c-0.01,0-0.021,0-0.031,0c-0.438,0-0.857-0.182-1.159-0.502c-0.307-0.329-0.46-0.771-0.424-1.22l0.1-1.176l-1.874-0.848
	l-0.816,0.848c-0.303,0.313-0.714,0.488-1.15,0.488c-0.016,0-0.032,0-0.049-0.001c-0.449-0.017-0.869-0.221-1.162-0.563
	L38.774-0.017L38.774-0.017z M40.501,10.282c-1.131,0-2.194-0.691-2.617-1.813c-0.544-1.445,0.185-3.058,1.631-3.602
	c0.325-0.123,0.658-0.18,0.985-0.18c1.131,0,2.197,0.691,2.619,1.812c0.544,1.445-0.188,3.059-1.634,3.603
	C41.161,10.224,40.828,10.282,40.501,10.282L40.501,10.282z"/>
</svg>
