<?xml version="1.0" encoding="utf-8"?>
<!-- Generator: Adobe Illustrator 16.0.0, SVG Export Plug-In . SVG Version: 6.00 Build 0)  -->
<!DOCTYPE svg PUBLIC "-//W3C//DTD SVG 1.1//EN" "http://www.w3.org/Graphics/SVG/1.1/DTD/svg11.dtd">
<svg version="1.1" id="Layer_1" xmlns="http://www.w3.org/2000/svg" xmlns:xlink="http://www.w3.org/1999/xlink" x="0px" y="0px"
	 width="25px" height="19.793px" viewBox="0 0 25 19.793" enable-background="new 0 0 25 19.793" xml:space="preserve">
<g>
	<path fill="#D67456" d="M23.957,6.149H1.041V2.604c0-0.859,0.702-1.562,1.562-1.562h19.793c0.858,0,1.561,0.703,1.561,1.562V6.149z
		 M23.957,17.188c0,0.858-0.7,1.563-1.561,1.563H2.604c-0.86,0-1.562-0.704-1.562-1.563V7.191h22.916V17.188z M22.396,0H2.604
		C1.166,0,0,1.167,0,2.604v14.584c0,1.437,1.166,2.604,2.604,2.604h19.793c1.438,0,2.604-1.168,2.604-2.604V2.604
		C25,1.167,23.834,0,22.396,0z"/>
	<path fill="#D67456" d="M4.166,2.522c-0.573,0-1.041,0.469-1.041,1.043c0,0.572,0.468,1.041,1.041,1.041s1.041-0.469,1.041-1.041
		C5.207,2.991,4.739,2.522,4.166,2.522z"/>
	<path fill="#D67456" d="M8.762,2.522c-0.573,0-1.041,0.469-1.041,1.043c0,0.572,0.468,1.041,1.041,1.041s1.041-0.469,1.041-1.041
		C9.803,2.991,9.335,2.522,8.762,2.522z"/>
	<path fill="#D67456" d="M13.358,2.522c-0.574,0-1.042,0.469-1.042,1.043c0,0.572,0.468,1.041,1.042,1.041
		c0.572,0,1.04-0.469,1.04-1.041C14.398,2.991,13.931,2.522,13.358,2.522z"/>
</g>
</svg>
