<?xml version="1.0" encoding="utf-8"?>
<!-- Generator: Adobe Illustrator 16.0.0, SVG Export Plug-In . SVG Version: 6.00 Build 0)  -->
<!DOCTYPE svg PUBLIC "-//W3C//DTD SVG 1.1//EN" "http://www.w3.org/Graphics/SVG/1.1/DTD/svg11.dtd">
<svg version="1.1" id="Layer_1" xmlns="http://www.w3.org/2000/svg" xmlns:xlink="http://www.w3.org/1999/xlink" x="0px" y="0px"
	 width="13px" height="15px" viewBox="0 0 13 15" enable-background="new 0 0 13 15" xml:space="preserve">
<g>
	<path fill="#A0A0A0" d="M1.238,13.218c-0.071,0-0.142-0.026-0.196-0.081c-0.106-0.106-0.106-0.281,0-0.389l3.826-3.825
		c0.107-0.107,0.281-0.107,0.39,0c0.106,0.107,0.106,0.282,0,0.389l-3.826,3.825C1.377,13.191,1.308,13.218,1.238,13.218z"/>
	<path fill="#A0A0A0" d="M8.165,6.29c-0.071,0-0.141-0.026-0.195-0.081c-0.106-0.107-0.106-0.281,0-0.389l3.825-3.825
		c0.106-0.107,0.282-0.107,0.389,0c0.107,0.107,0.107,0.282,0,0.389L8.359,6.209C8.304,6.264,8.235,6.29,8.165,6.29z"/>
	<path fill="#A0A0A0" d="M11.99,13.218c-0.07,0-0.141-0.026-0.194-0.081L7.969,9.312c-0.106-0.107-0.106-0.282,0-0.389
		c0.108-0.107,0.282-0.107,0.39,0l3.826,3.825c0.105,0.107,0.105,0.283,0,0.389C12.13,13.191,12.061,13.218,11.99,13.218z"/>
	<path fill="#A0A0A0" d="M5.063,6.29c-0.07,0-0.14-0.026-0.194-0.081L1.043,2.384c-0.107-0.107-0.107-0.281,0-0.389
		c0.106-0.107,0.28-0.107,0.388,0l3.826,3.825c0.107,0.107,0.107,0.282,0,0.389C5.204,6.264,5.133,6.29,5.063,6.29z"/>
	<path fill="#A0A0A0" d="M12.265,4.664c-0.151,0-0.275-0.123-0.275-0.275V2.19H9.792c-0.152,0-0.274-0.124-0.274-0.275
		c0-0.152,0.122-0.275,0.274-0.275h2.474c0.15,0,0.274,0.123,0.274,0.275v2.474C12.54,4.542,12.416,4.664,12.265,4.664z"/>
	<path fill="#A0A0A0" d="M12.265,13.516H9.792c-0.152,0-0.274-0.124-0.274-0.275s0.122-0.275,0.274-0.275h2.198v-2.199
		c0-0.152,0.124-0.275,0.275-0.275c0.15,0,0.274,0.123,0.274,0.275v2.474C12.54,13.392,12.416,13.516,12.265,13.516z"/>
	<path fill="#A0A0A0" d="M0.939,4.664c-0.151,0-0.274-0.123-0.274-0.275V1.915c0-0.152,0.123-0.275,0.274-0.275h2.475
		c0.151,0,0.275,0.123,0.275,0.275c0,0.151-0.124,0.275-0.275,0.275H1.214v2.199C1.214,4.542,1.091,4.664,0.939,4.664z"/>
	<path fill="#A0A0A0" d="M3.414,13.516H0.939c-0.151,0-0.274-0.124-0.274-0.275v-2.474c0-0.152,0.123-0.275,0.274-0.275
		c0.152,0,0.275,0.123,0.275,0.275v2.199h2.199c0.151,0,0.275,0.124,0.275,0.275S3.565,13.516,3.414,13.516z"/>
</g>
</svg>
