<?xml version="1.0" encoding="utf-8"?>
<!-- Generator: Adobe Illustrator 16.0.0, SVG Export Plug-In . SVG Version: 6.00 Build 0)  -->
<!DOCTYPE svg PUBLIC "-//W3C//DTD SVG 1.1//EN" "http://www.w3.org/Graphics/SVG/1.1/DTD/svg11.dtd">
<svg version="1.1" id="Layer_1" xmlns="http://www.w3.org/2000/svg" xmlns:xlink="http://www.w3.org/1999/xlink" x="0px" y="0px"
	 width="13px" height="15px" viewBox="0 0 13 15" enable-background="new 0 0 13 15" xml:space="preserve">
<g>
	<path fill="#A0A0A0" d="M11.06,7.402c-0.218,0.023-0.347,0.185-0.327,0.364c0.092,0.821-0.188,1.626-0.77,2.209l-3.312,3.315
		c-0.507,0.508-1.183,0.787-1.902,0.787c-0.719,0-1.394-0.279-1.901-0.786l-0.05-0.049c-1.048-1.052-1.048-2.76-0.002-3.81
		l3.312-3.315c0.627-0.626,1.534-0.904,2.402-0.742C8.736,5.39,8.864,5.27,8.891,5.116C8.908,5.028,8.89,4.942,8.841,4.87
		C8.792,4.798,8.718,4.749,8.633,4.733C8.428,4.694,8.219,4.675,8.011,4.675c-0.893,0-1.731,0.348-2.361,0.98L2.337,8.97
		c-1.303,1.305-1.304,3.428-0.001,4.732l0.052,0.053c0.63,0.629,1.47,0.977,2.362,0.977c0.893,0,1.731-0.348,2.361-0.979
		l3.312-3.314c0.725-0.725,1.074-1.726,0.958-2.746C11.363,7.529,11.222,7.402,11.06,7.402z"/>
	<path fill="#A0A0A0" d="M1.915,7.631c0.126-0.013,0.204-0.057,0.258-0.125c0.053-0.068,0.077-0.154,0.066-0.24
		c-0.1-0.831,0.181-1.643,0.769-2.231l3.312-3.315C6.827,1.211,7.502,0.931,8.22,0.931s1.393,0.28,1.901,0.789l0.05,0.05
		c1.049,1.05,1.049,2.758,0,3.808L6.86,8.893c-0.607,0.61-1.501,0.9-2.366,0.748c-0.004,0-0.008,0-0.012,0
		c-0.205,0-0.339,0.115-0.366,0.266C4.101,9.993,4.12,10.079,4.17,10.15c0.05,0.072,0.125,0.119,0.211,0.134
		c1.03,0.185,2.179-0.168,2.94-0.929l3.312-3.316c1.302-1.305,1.302-3.428-0.001-4.733l-0.049-0.049
		c-0.631-0.632-1.471-0.98-2.363-0.98s-1.732,0.348-2.363,0.98L2.545,4.572c-0.73,0.73-1.079,1.741-0.955,2.771
		C1.611,7.507,1.75,7.631,1.915,7.631z"/>
</g>
</svg>
