<?xml version="1.0" encoding="utf-8"?>
<!-- Generator: Adobe Illustrator 16.0.0, SVG Export Plug-In . SVG Version: 6.00 Build 0)  -->
<!DOCTYPE svg PUBLIC "-//W3C//DTD SVG 1.1//EN" "http://www.w3.org/Graphics/SVG/1.1/DTD/svg11.dtd">
<svg version="1.1" id="Layer_1" xmlns="http://www.w3.org/2000/svg" xmlns:xlink="http://www.w3.org/1999/xlink" x="0px" y="0px"
	 width="13px" height="15px" viewBox="0 0 13 15" enable-background="new 0 0 13 15" xml:space="preserve">
<g>
	<path fill="#A0A0A0" d="M4.752,9.067c0.072,0,0.143,0.026,0.197,0.081c0.105,0.105,0.105,0.281,0,0.389l-3.826,3.824
		c-0.107,0.107-0.281,0.107-0.391,0c-0.105-0.106-0.105-0.281,0-0.389l3.826-3.824C4.614,9.093,4.682,9.067,4.752,9.067z"/>
	<path fill="#A0A0A0" d="M12.254,1.566c0.07,0,0.141,0.026,0.195,0.081c0.105,0.107,0.105,0.281,0,0.389L8.624,5.86
		c-0.105,0.107-0.281,0.107-0.389,0c-0.107-0.107-0.107-0.282,0-0.389l3.824-3.825C12.114,1.592,12.184,1.566,12.254,1.566z"/>
	<path fill="#A0A0A0" d="M8.428,9.067c0.07,0,0.141,0.026,0.195,0.081l3.826,3.824c0.105,0.107,0.105,0.282,0,0.389
		c-0.109,0.107-0.283,0.107-0.391,0L8.233,9.537c-0.105-0.107-0.105-0.283,0-0.389C8.288,9.093,8.358,9.067,8.428,9.067z"/>
	<path fill="#A0A0A0" d="M0.928,1.566c0.07,0,0.141,0.026,0.195,0.081l3.824,3.825c0.107,0.107,0.107,0.281,0,0.389
		c-0.105,0.107-0.279,0.107-0.387,0L0.735,2.035c-0.107-0.107-0.107-0.282,0-0.389C0.788,1.592,0.858,1.566,0.928,1.566z"/>
	<path fill="#A0A0A0" d="M8.153,3.192c0.152,0,0.275,0.123,0.275,0.275v2.199h2.199c0.152,0,0.273,0.124,0.273,0.275
		c0,0.152-0.121,0.275-0.273,0.275H8.153c-0.15,0-0.273-0.123-0.273-0.275V3.467C7.879,3.314,8.002,3.192,8.153,3.192z"/>
	<path fill="#A0A0A0" d="M8.153,8.769h2.475c0.152,0,0.273,0.123,0.273,0.275c0,0.15-0.121,0.274-0.273,0.274H8.428v2.199
		c0,0.152-0.123,0.274-0.275,0.274c-0.15,0-0.273-0.122-0.273-0.274V9.044C7.879,8.892,8.002,8.769,8.153,8.769z"/>
	<path fill="#A0A0A0" d="M5.053,3.192c0.15,0,0.273,0.123,0.273,0.275v2.474c0,0.152-0.123,0.275-0.273,0.275H2.579
		c-0.152,0-0.275-0.123-0.275-0.275c0-0.151,0.123-0.275,0.275-0.275h2.199V3.467C4.778,3.314,4.901,3.192,5.053,3.192z"/>
	<path fill="#A0A0A0" d="M2.577,8.769h2.475c0.152,0,0.275,0.123,0.275,0.275v2.474c0,0.152-0.123,0.274-0.275,0.274
		s-0.275-0.122-0.275-0.274V9.319H2.577c-0.15,0-0.275-0.124-0.275-0.274C2.301,8.892,2.426,8.769,2.577,8.769z"/>
</g>
</svg>
