<?xml version="1.0" encoding="utf-8"?>
<!-- Generator: Adobe Illustrator 16.0.0, SVG Export Plug-In . SVG Version: 6.00 Build 0)  -->
<!DOCTYPE svg PUBLIC "-//W3C//DTD SVG 1.1//EN" "http://www.w3.org/Graphics/SVG/1.1/DTD/svg11.dtd">
<svg version="1.1" id="Layer_1" xmlns="http://www.w3.org/2000/svg" xmlns:xlink="http://www.w3.org/1999/xlink" x="0px" y="0px"
	 width="13px" height="15px" viewBox="0 0 13 15" enable-background="new 0 0 13 15" xml:space="preserve">
<g>
	<path fill="#A0A0A0" d="M12.455,3.249c-0.062,0.063-0.15,0.103-0.246,0.102L0.73,3.352c-0.189,0-0.346-0.156-0.346-0.347
		S0.541,2.657,0.73,2.657l11.479-0.001c0.191,0.001,0.348,0.158,0.348,0.347C12.557,3.1,12.518,3.186,12.455,3.249z"/>
	<path fill="#A0A0A0" d="M12.455,6.249c-0.062,0.063-0.15,0.103-0.246,0.102L0.73,6.352c-0.189,0-0.346-0.156-0.346-0.347
		S0.541,5.657,0.73,5.657l11.479-0.001c0.191,0.001,0.348,0.158,0.348,0.347C12.557,6.1,12.518,6.186,12.455,6.249z"/>
	<path fill="#A0A0A0" d="M12.455,9.25c-0.062,0.062-0.15,0.102-0.246,0.102H0.73c-0.189,0-0.346-0.156-0.346-0.347
		S0.541,8.658,0.73,8.658l11.479-0.002c0.191,0.002,0.348,0.158,0.348,0.348C12.557,9.1,12.518,9.185,12.455,9.25z"/>
	<path fill="#A0A0A0" d="M12.455,12.25c-0.062,0.062-0.15,0.102-0.246,0.102H0.73c-0.189,0-0.346-0.156-0.346-0.347
		s0.156-0.347,0.346-0.347l11.479-0.002c0.191,0.002,0.348,0.158,0.348,0.348C12.557,12.1,12.518,12.185,12.455,12.25z"/>
</g>
</svg>
