<?xml version="1.0" encoding="utf-8"?>
<!-- Generator: Adobe Illustrator 16.0.0, SVG Export Plug-In . SVG Version: 6.00 Build 0)  -->
<!DOCTYPE svg PUBLIC "-//W3C//DTD SVG 1.1//EN" "http://www.w3.org/Graphics/SVG/1.1/DTD/svg11.dtd">
<svg version="1.1" id="Layer_1" xmlns="http://www.w3.org/2000/svg" xmlns:xlink="http://www.w3.org/1999/xlink" x="0px" y="0px"
	 width="13px" height="15px" viewBox="0 0 13 15" enable-background="new 0 0 13 15" xml:space="preserve">
<g>
	<path fill="#A0A0A0" d="M11.349,12.617c-0.09,0-0.178-0.033-0.246-0.103L1.572,2.985c-0.135-0.135-0.135-0.356,0-0.491
		c0.137-0.135,0.357-0.135,0.492,0l9.531,9.529c0.133,0.137,0.133,0.357,0,0.491C11.527,12.583,11.439,12.617,11.349,12.617z"/>
	<path fill="#A0A0A0" d="M1.472,12.269c0-0.089,0.033-0.178,0.102-0.245l9.529-9.531c0.135-0.135,0.355-0.135,0.492,0
		c0.135,0.136,0.135,0.356,0,0.491l-9.531,9.531c-0.135,0.134-0.355,0.134-0.49,0C1.505,12.447,1.472,12.359,1.472,12.269z"/>
</g>
</svg>
