<?xml version="1.0" encoding="utf-8"?>
<!-- Generator: Adobe Illustrator 16.0.0, SVG Export Plug-In . SVG Version: 6.00 Build 0)  -->
<!DOCTYPE svg PUBLIC "-//W3C//DTD SVG 1.1//EN" "http://www.w3.org/Graphics/SVG/1.1/DTD/svg11.dtd">
<svg version="1.1" id="Layer_1" xmlns="http://www.w3.org/2000/svg" xmlns:xlink="http://www.w3.org/1999/xlink" x="0px" y="0px"
	 width="78px" height="50px" viewBox="0 0 78 50" enable-background="new 0 0 78 50" xml:space="preserve">
<g>
	<g>
		<g>
			<path fill="#FFFFFF" d="M34.003,36.12v0.9h-1.2h-0.3c-1.02,0-1.83-0.811-1.83-1.83V22.801h-1.8v-0.93h1.8v-4.23h1.23v4.23h1.8
				v0.93h-1.8V35.19c0,0.42,0.24,0.75,0.6,0.87c0.09,0.03,0.18,0.06,0.3,0.06H34.003z"/>
			<path fill="#FFFFFF" d="M34.253,37.271h-1.75c-1.166,0-2.08-0.914-2.08-2.08V23.051h-1.8v-1.43h1.8v-4.23h1.73v4.23h1.8v1.43
				h-1.8V35.19c0,0.302,0.164,0.545,0.429,0.633c0.087,0.029,0.145,0.047,0.221,0.047h1.45V37.271z M29.123,22.551h1.8V35.19
				c0,0.886,0.694,1.58,1.58,1.58h1.25v-0.4h-0.95c-0.164,0-0.283-0.04-0.38-0.072c-0.468-0.156-0.77-0.591-0.77-1.107V22.551h1.8
				v-0.43h-1.8v-4.23h-0.73v4.23h-1.8V22.551z"/>
		</g>
		<g>
			<path fill="#FFFFFF" d="M41.503,21.901v0.84c-2.04,0-2.46-0.03-2.67,0.15c-0.3,0.24-0.36,0.42-0.36,0.84v13.29h-1.2v-13.29
				c0-1.02,0.78-1.83,1.8-1.83C39.523,21.901,41.053,21.901,41.503,21.901z"/>
			<path fill="#FFFFFF" d="M38.723,37.271h-1.7v-13.54c0-1.166,0.9-2.08,2.05-2.08h2.68v1.34l-1.504-0.002
				c-0.808,0-1.161,0.013-1.253,0.092c-0.233,0.186-0.272,0.283-0.272,0.65V37.271z M37.523,36.771h0.7v-13.04
				c0-0.456,0.068-0.727,0.454-1.035c0.229-0.197,0.561-0.207,1.572-0.207l1.004,0.001v-0.339h-2.18c-0.869,0-1.55,0.694-1.55,1.58
				V36.771z"/>
		</g>
		<g>
			<path fill="#FFFFFF" d="M51.373,23.731V36.12v0.9h-1.23h-3.6h-0.33c-0.99,0-1.8-0.9-1.8-1.891v-5.669c0-0.99,0.81-1.8,1.8-1.8
				h0.33h3.6v-3.93c0-0.42-0.24-0.84-0.6-0.96c-0.09-0.03-0.18-0.06-0.3-0.06h-2.399c-0.121,0-0.211,0.03-0.301,0.06
				c-0.359,0.12-0.63,0.54-0.63,0.96v2.1h-1.2v-2.1c0-1.02,0.811-1.92,1.83-1.92h0.301h2.399h0.03h0.27
				C50.562,21.811,51.373,22.711,51.373,23.731z M50.143,28.562h-3.6c-0.119,0-0.21,0.029-0.33,0.06c-0.33,0.12-0.6,0.45-0.6,0.84
				v5.669c0,0.391,0.27,0.811,0.6,0.931c0.12,0.03,0.211,0.06,0.33,0.06h3.6V28.562z"/>
			<path fill="#FFFFFF" d="M51.623,37.271h-5.41c-1.111,0-2.05-0.98-2.05-2.141v-5.669c0-1.13,0.92-2.05,2.05-2.05h3.68v-3.68
				c0-0.331-0.185-0.641-0.429-0.723c-0.081-0.027-0.143-0.047-0.221-0.047h-2.399c-0.078,0-0.141,0.021-0.219,0.046
				c-0.256,0.086-0.462,0.41-0.462,0.724v2.35h-1.7v-2.35c0-1.176,0.953-2.17,2.08-2.17h3c1.128,0,2.08,0.994,2.08,2.17V37.271z
				 M46.213,27.911c-0.854,0-1.55,0.695-1.55,1.55v5.669c0,0.874,0.725,1.641,1.55,1.641h4.91v-13.04c0-0.905-0.724-1.67-1.58-1.67
				h-3c-0.856,0-1.58,0.765-1.58,1.67v1.85h0.7v-1.85c0-0.53,0.345-1.045,0.801-1.197c0.102-0.033,0.222-0.073,0.38-0.073h2.399
				c0.159,0,0.278,0.04,0.375,0.072c0.45,0.15,0.774,0.654,0.774,1.198v4.18H46.213z M50.393,36.37h-3.85
				c-0.133,0-0.238-0.027-0.34-0.054l-0.075-0.021c-0.429-0.156-0.765-0.668-0.765-1.166v-5.669c0-0.469,0.314-0.911,0.765-1.075
				l0.075-0.021c0.102-0.026,0.207-0.054,0.34-0.054h3.85V36.37z M46.543,28.812c-0.069,0-0.127,0.015-0.213,0.038
				c-0.241,0.083-0.467,0.305-0.467,0.611v5.669c0,0.286,0.203,0.611,0.436,0.695c0.117,0.03,0.175,0.045,0.244,0.045h3.35v-7.059
				H46.543z"/>
		</g>
		<g>
			<path fill="#FFFFFF" d="M61.873,37.021l-3.57-8.189l-1.439,2.13v6.06h-1.141V15.841h1.141V28.95l4.619-7.049h1.2l-3.659,5.699
				l3.959,9.42H61.873z"/>
			<path fill="#FFFFFF" d="M63.358,37.271h-1.649l-3.454-7.923l-1.142,1.689v6.233h-1.641V15.591h1.641v12.521l4.234-6.461h1.793
				l-3.836,5.974L63.358,37.271z M62.037,36.771h0.569l-3.864-9.194l3.482-5.425h-0.607l-5.004,7.637V16.091h-0.641v20.679h0.641
				v-5.886l1.737-2.57L62.037,36.771z"/>
		</g>
		<g>
			<path fill="#FFFFFF" d="M70.182,36.12v0.9h-1.199h-0.301c-1.02,0-1.829-0.811-1.829-1.83V22.801h-1.8v-0.93h1.8v-4.23h1.229v4.23
				h1.801v0.93h-1.801V35.19c0,0.42,0.24,0.75,0.6,0.87c0.091,0.03,0.181,0.06,0.301,0.06H70.182z"/>
			<path fill="#FFFFFF" d="M70.432,37.271h-1.75c-1.166,0-2.079-0.914-2.079-2.08V23.051h-1.8v-1.43h1.8v-4.23h1.729v4.23h1.801
				v1.43h-1.801V35.19c0,0.302,0.164,0.545,0.429,0.633c0.087,0.029,0.145,0.047,0.222,0.047h1.449V37.271z M65.303,22.551h1.8
				V35.19c0,0.886,0.693,1.58,1.579,1.58h1.25v-0.4h-0.949c-0.163,0-0.283-0.04-0.38-0.072c-0.468-0.156-0.771-0.591-0.771-1.107
				V22.551h1.801v-0.43h-1.801v-4.23h-0.729v4.23h-1.8V22.551z"/>
		</g>
		<g>
			<path fill="#FFFFFF" d="M77.683,21.901v0.84c-2.04,0-2.46-0.03-2.67,0.15c-0.3,0.24-0.36,0.42-0.36,0.84v13.29h-1.199v-13.29
				c0-1.02,0.779-1.83,1.8-1.83C75.703,21.901,77.232,21.901,77.683,21.901z"/>
			<path fill="#FFFFFF" d="M74.902,37.271h-1.699v-13.54c0-1.166,0.9-2.08,2.05-2.08h2.68v1.34l-1.504-0.002
				c-0.809,0-1.161,0.013-1.253,0.092c-0.233,0.187-0.273,0.283-0.273,0.65V37.271z M73.703,36.771h0.699v-13.04
				c0-0.455,0.068-0.726,0.454-1.035c0.229-0.197,0.561-0.207,1.572-0.207l1.004,0.001v-0.339h-2.18c-0.869,0-1.55,0.694-1.55,1.58
				V36.771z"/>
		</g>
	</g>
</g>
<g>
	<g>
		<g>
			<path fill="#FFFFFF" d="M33.04,4.357c0.394-0.633,0.61-0.904,0.76-1.088s0.375-0.276,0.673-0.276V2.113h-3.019v0.879
				c0.337,0,0.578,0.033,0.729,0.071c0.404,0.104,0.343,0.535,0.035,0.922l-1.266,1.862l0.815,0.3L33.04,4.357z"/>
			<path fill="#FFFFFF" d="M31.814,6.298l-1.055-0.389l1.356-1.995c0.179-0.226,0.262-0.454,0.216-0.59
				c-0.023-0.07-0.082-0.115-0.178-0.14c-0.1-0.025-0.326-0.067-0.698-0.067H31.33V1.988h3.269v1.129h-0.125
				c-0.262,0-0.451,0.075-0.576,0.23c-0.131,0.162-0.351,0.432-0.751,1.076L31.814,6.298z M31.146,5.785l0.575,0.212l1.217-1.712
				c0.404-0.65,0.63-0.929,0.765-1.095c0.152-0.187,0.369-0.293,0.646-0.317V2.238H31.58v0.63c0.309,0.008,0.513,0.043,0.635,0.073
				C32.442,3,32.532,3.139,32.568,3.245c0.076,0.225-0.016,0.522-0.251,0.818L31.146,5.785z"/>
		</g>
		<g>
			<path fill="#FFFFFF" d="M1.626,47.631c-0.394,0.633-0.611,0.903-0.761,1.088s-0.374,0.277-0.673,0.277v0.879h3.02v-0.879
				c-0.338,0-0.579-0.033-0.731-0.071c-0.403-0.104-0.343-0.535-0.034-0.922l1.267-1.862l-0.815-0.3L1.626,47.631z"/>
			<path fill="#FFFFFF" d="M3.337,50h-3.27v-1.129h0.125c0.261,0,0.45-0.075,0.576-0.231c0.141-0.174,0.354-0.436,0.752-1.075
				l1.332-1.874l1.055,0.388l-1.356,1.995c-0.18,0.225-0.262,0.453-0.216,0.59c0.023,0.07,0.081,0.116,0.178,0.141
				c0.1,0.025,0.325,0.067,0.7,0.067h0.125V50z M0.317,49.75h2.77v-0.631c-0.31-0.007-0.515-0.043-0.636-0.073
				c-0.228-0.059-0.318-0.197-0.354-0.304c-0.074-0.221,0.021-0.526,0.252-0.817l1.171-1.722l-0.576-0.212l-1.217,1.712
				c-0.401,0.646-0.621,0.916-0.766,1.095c-0.152,0.188-0.369,0.294-0.646,0.318V49.75z"/>
		</g>
		<g>
			<polygon fill="#FFFFFF" points="3.316,46.725 2.457,46.462 31.825,4.586 33.648,3.461 			"/>
			<path fill="#FFFFFF" d="M3.367,46.871l-1.111-0.34L31.76,4.48l2.339-1.444l-0.348,0.497L3.367,46.871z M2.658,46.393l0.608,0.186
				L33.198,3.886l-1.285,0.793L2.658,46.393z"/>
		</g>
		<g>
			<polygon fill="#FFFFFF" points="20.102,30.743 21.153,30.644 14.591,21.354 13.872,21.9 			"/>
			<path fill="#FFFFFF" d="M20.041,30.874L20,30.815l-6.299-8.941l0.917-0.698l6.761,9.572L20.041,30.874z M14.043,21.927
				l6.119,8.686l0.764-0.073l-6.363-9.007L14.043,21.927z"/>
		</g>
		<g>
			<path fill="#FFFFFF" d="M14.591,30.644l2.806-4.745l2.705,4.845c-0.158-0.231-1.011-1.897-2.782-1.897
				C15.55,28.846,14.748,30.389,14.591,30.644z"/>
			<path fill="#FFFFFF" d="M19.999,30.813c-0.015-0.021-0.035-0.054-0.061-0.097c-0.265-0.432-1.072-1.746-2.618-1.746
				c-1.06,0-1.931,0.565-2.588,1.681l-0.035,0.058l-0.214-0.129l2.916-4.932l2.812,5.034L19.999,30.813z M17.32,28.721
				c0.716,0,1.365,0.258,1.938,0.768l-1.864-3.338l-1.895,3.203C16.028,28.933,16.637,28.721,17.32,28.721z"/>
		</g>
		<g>
			<path fill="#FFFFFF" d="M14.359,21.007c-0.046-0.093-0.07-0.16-0.07-0.2c0-0.056,0.029-0.092,0.085-0.111
				c0.058-0.017,0.149-0.028,0.273-0.033V20.34h-1.864v0.323c0.128,0.012,0.21,0.03,0.246,0.057c0.036,0.026,1.131,1.59,1.131,1.59
				l0.565-0.754L14.359,21.007z"/>
			<path fill="#FFFFFF" d="M14.157,22.522l-0.099-0.141c-0.396-0.566-1.043-1.484-1.116-1.572c0.001,0.005-0.04-0.01-0.17-0.022
				l-0.113-0.011v-0.562h2.114v0.567l-0.12,0.005c-0.141,0.006-0.208,0.018-0.241,0.027c0.004,0.003,0.013,0.041,0.06,0.137
				l0.407,0.608L14.157,22.522z M12.908,20.552c0.094,0.015,0.154,0.036,0.196,0.067c0.019,0.014,0.049,0.036,1.06,1.478
				l0.409-0.545l-0.317-0.475c-0.066-0.132-0.091-0.208-0.091-0.27c0-0.11,0.062-0.194,0.171-0.229
				c0.049-0.015,0.109-0.025,0.187-0.032v-0.081h-1.614V20.552z"/>
		</g>
		<g>
			<path fill="#FFFFFF" d="M14.359,21.007c-0.046-0.093-0.07-0.16-0.07-0.2c0-0.056,0.029-0.092,0.085-0.111
				c0.058-0.017,0.149-0.028,0.273-0.033V20.34h-1.864v0.323c0.128,0.012,0.21,0.03,0.246,0.057c0.036,0.026,1.131,1.59,1.131,1.59
				l0.565-0.754L14.359,21.007z"/>
			<path fill="#FFFFFF" d="M14.157,22.522l-0.099-0.141c-0.396-0.566-1.043-1.484-1.116-1.572c0.001,0.005-0.04-0.01-0.17-0.022
				l-0.113-0.011v-0.562h2.114v0.567l-0.12,0.005c-0.141,0.006-0.208,0.018-0.241,0.027c0.004,0.003,0.013,0.041,0.06,0.137
				l0.407,0.608L14.157,22.522z M12.908,20.552c0.094,0.015,0.154,0.036,0.196,0.067c0.019,0.014,0.049,0.036,1.06,1.478
				l0.409-0.545l-0.317-0.475c-0.066-0.132-0.091-0.208-0.091-0.27c0-0.11,0.062-0.194,0.171-0.229
				c0.049-0.015,0.109-0.025,0.187-0.032v-0.081h-1.614V20.552z"/>
		</g>
		<g>
			<path fill="#FFFFFF" d="M23.742,35.841c0.046,0.094,0.07,0.161,0.07,0.201c0,0.057-0.029,0.094-0.086,0.111
				c-0.057,0.017-0.147,0.027-0.273,0.033v0.322h1.868v-0.322c-0.127-0.012-0.211-0.031-0.246-0.057
				c-0.035-0.026-3.999-5.596-3.999-5.596l-0.974,0.139L23.742,35.841z"/>
			<path fill="#FFFFFF" d="M25.445,36.634h-2.118v-0.566l0.119-0.006c0.114-0.005,0.196-0.015,0.243-0.028
				c-0.004-0.003-0.012-0.041-0.06-0.138l-3.748-5.317l1.251-0.179l0.044,0.062c1.32,1.855,3.827,5.372,3.986,5.579
				c0.003-0.005,0.046,0.01,0.168,0.021l0.114,0.01V36.634z M23.578,36.384h1.618v-0.087c-0.117-0.019-0.166-0.045-0.195-0.066
				c-0.021-0.016-0.051-0.039-3.982-5.562l-0.697,0.099l3.523,5.001c0.068,0.136,0.093,0.212,0.093,0.273
				c0,0.111-0.065,0.197-0.175,0.23c-0.047,0.014-0.107,0.024-0.185,0.031V36.384z"/>
		</g>
		<g>
			<path fill="#FFFFFF" d="M13.941,31.558l3.363-4.832l3.356,4.736c-0.423-0.605-1.662-1.789-3.433-1.789
				C15.457,29.673,14.368,30.954,13.941,31.558z"/>
			<path fill="#FFFFFF" d="M14.043,31.63l-0.205-0.144l3.464-4.979l3.459,4.883l-0.205,0.144l-0.018-0.024
				c-0.457-0.636-1.667-1.712-3.313-1.712C15.583,29.798,14.527,30.945,14.043,31.63z M17.228,29.548
				c1.023,0,1.889,0.392,2.527,0.853l-2.449-3.458l-2.358,3.39C15.527,29.896,16.286,29.548,17.228,29.548z"/>
		</g>
	</g>
</g>
</svg>
